<svg xmlns="http://www.w3.org/2000/svg" width="108.315" height="210" viewBox="0 0 108.315 210">
  <g id="Grupo_82952" data-name="Grupo 82952" transform="translate(-227 -2107)">
    <rect id="Rectángulo_33872" data-name="Rectángulo 33872" width="80" height="210" transform="translate(242 2107)" fill="#ffbfc1"/>
    <g id="Grupo_80165" data-name="Grupo 80165" transform="translate(435.062 1861.639)">
      <g id="Grupo_80163" data-name="Grupo 80163">
        <path id="Trazado_113597" data-name="Trazado 113597" d="M-105,372.463a2.561,2.561,0,0,0-.718-.576c-3.2-1.463-6.427-2.883-9.623-4.36a69.364,69.364,0,0,1-7.915-4.337,7.805,7.805,0,0,1-2.846-3.043q-1.43-2.724-2.96-5.392a58.236,58.236,0,0,0-4.973-7.3c-2.749-3.44-12.8-10.955-16.791-12.7a36.9,36.9,0,0,0-23.089-2.637,16,16,0,0,0-2.4.688c-5.865,2.259-11.269,5.284-15.6,9.929a43.518,43.518,0,0,0-9.348,14.878,44.169,44.169,0,0,0-1.923,7.83,57.508,57.508,0,0,0-.892,9.559,55.069,55.069,0,0,0,1.633,13.126,88.652,88.652,0,0,0,5.659,15.705,146.038,146.038,0,0,0,14.654,25.451c.756,1.035,1.513,2.07,2.315,3.071a23.059,23.059,0,0,1,3.975,8.463,4.538,4.538,0,0,1-.006,2.271c-.72,2.747-1.524,5.471-2.345,8.189,4.728,2.063,16.725,1.814,18.662,1.794,7.67-.079,15.37,1.322,23.03.688a25.741,25.741,0,0,0,5.863-1.317,22.623,22.623,0,0,1,1.187-11.163,10.293,10.293,0,0,1,1.529-2.425,4.393,4.393,0,0,1,2.727-1.683c3.348-.575,6.194-2.4,9.243-3.712a3.782,3.782,0,0,0,.93-.669,45.17,45.17,0,0,0,8.61-10.032,7.932,7.932,0,0,0,.991-6.858,3.039,3.039,0,0,0-.726.177,12.515,12.515,0,0,1-7.51,1,21,21,0,0,1-9.611-3.642,11.4,11.4,0,0,1-1.633-1.338,3.935,3.935,0,0,1-.689-4.927,10.21,10.21,0,0,1,2.4-2.73,27.021,27.021,0,0,1,5.567-3.754,56.4,56.4,0,0,0,8.45-5.315c.25-.189.483-.4.82-.683a41.242,41.242,0,0,0-2.53-4.31,10.615,10.615,0,0,1-1.3-3.147,1.219,1.219,0,0,1,.211-.882,7.127,7.127,0,0,1,.873-1.019c1.626-1.728,3.286-3.424,4.874-5.185a26.4,26.4,0,0,0,2.365-3.022c.925-1.386.742-2.522-.421-3.782C-104.528,373.065-104.735,372.737-105,372.463Z" fill="#ffd947" fill-rule="evenodd"/>
        <path id="Trazado_113598" data-name="Trazado 113598" d="M-107.885,387.194c1.125,2.1,2.179,4.068,3.242,6.033a3.806,3.806,0,0,1,.587,1.59,2.935,2.935,0,0,1-1.344,2.966,10.6,10.6,0,0,1-1.968,1.161,8.156,8.156,0,0,0-2.167,1.2,47.568,47.568,0,0,1-6.2,3.846,24.851,24.851,0,0,0-4.795,3.185,5.611,5.611,0,0,0-1.775,2.085,5.248,5.248,0,0,0,.761.808c4.457,3.06,9.261,4.275,14.578,2.688.551-.165,1.1-.361,1.656-.495a2.1,2.1,0,0,1,2.6,1.093,8.777,8.777,0,0,1,.85,2.132,12.05,12.05,0,0,1-1.446,9.781,34.157,34.157,0,0,1-5.792,7.146,19.8,19.8,0,0,1-1.8,1.443,44.675,44.675,0,0,1-8.532,4.769c-1.407.612-2.81,1.241-4.245,1.781a3.688,3.688,0,0,0-2.093,2.117,14.172,14.172,0,0,0-1.048,4.276c-.239,2.035-.448,4.077-.72,6.109a7.842,7.842,0,0,1-.513,1.841.927.927,0,0,1-1.573.306,2.627,2.627,0,0,1-.892-1.661,23.311,23.311,0,0,1,1.067-12.112,10.293,10.293,0,0,1,1.529-2.425,4.393,4.393,0,0,1,2.727-1.683c3.348-.575,6.194-2.4,9.243-3.712a3.782,3.782,0,0,0,.93-.669,45.17,45.17,0,0,0,8.61-10.032,7.932,7.932,0,0,0,.991-6.858,3.039,3.039,0,0,0-.726.177,12.515,12.515,0,0,1-7.51,1,21,21,0,0,1-9.611-3.642,11.4,11.4,0,0,1-1.633-1.338,3.935,3.935,0,0,1-.689-4.927,10.21,10.21,0,0,1,2.4-2.73,27.021,27.021,0,0,1,5.567-3.754,56.4,56.4,0,0,0,8.45-5.315c.25-.189.483-.4.82-.683a41.242,41.242,0,0,0-2.53-4.31,10.615,10.615,0,0,1-1.3-3.147,1.219,1.219,0,0,1,.211-.882,7.127,7.127,0,0,1,.873-1.019c1.626-1.728,3.286-3.424,4.874-5.185a26.4,26.4,0,0,0,2.365-3.022c.925-1.386.742-2.522-.421-3.782-.259-.281-.466-.609-.731-.883a2.561,2.561,0,0,0-.718-.576c-3.2-1.463-6.427-2.883-9.623-4.36a69.364,69.364,0,0,1-7.915-4.337,7.805,7.805,0,0,1-2.846-3.043q-1.43-2.724-2.96-5.392a58.236,58.236,0,0,0-4.973-7.3c-2.749-3.44-12.8-10.955-16.791-12.7a36.9,36.9,0,0,0-23.089-2.637,16,16,0,0,0-2.4.688c-5.865,2.259-11.269,5.284-15.6,9.929a43.518,43.518,0,0,0-9.348,14.878,44.169,44.169,0,0,0-1.923,7.83,57.508,57.508,0,0,0-.892,9.559,55.069,55.069,0,0,0,1.633,13.126,88.652,88.652,0,0,0,5.659,15.705,146.038,146.038,0,0,0,14.654,25.451c.756,1.035,1.513,2.07,2.315,3.071a23.059,23.059,0,0,1,3.975,8.463,4.538,4.538,0,0,1-.006,2.271c-.73,2.786-1.547,5.552-2.381,8.308a6.123,6.123,0,0,1-.877,1.692,1.5,1.5,0,0,1-1.707.567,1.51,1.51,0,0,1-1.01-1.485,7.48,7.48,0,0,1,.252-1.7c.441-1.674.927-3.333,1.393-5,.241-.863.464-1.732.716-2.593a6.313,6.313,0,0,0-1.327-6.094c-2.205-2.743-4.318-5.563-6.392-8.408a133.543,133.543,0,0,1-11.652-19.881,119.125,119.125,0,0,1-5.85-13.789,58.4,58.4,0,0,1-3.23-23.644,61.121,61.121,0,0,1,2.709-14.129,38.541,38.541,0,0,1,4.474-9.125,45.107,45.107,0,0,1,8.9-10.535,48.568,48.568,0,0,1,14.455-8.246,29.225,29.225,0,0,1,7.142-1.44,41.764,41.764,0,0,1,19.944,3.04,32.385,32.385,0,0,1,6.253,3.366c2.537,1.737,5.019,3.557,7.481,5.4A41.481,41.481,0,0,1-125.427,352.5c1.1,1.952,2.179,3.923,3.184,5.927a8.526,8.526,0,0,0,2.135,2.679,22.223,22.223,0,0,0,5.979,3.43c2.359,1,4.732,1.969,7.068,3.022,1.281.578,2.51,1.277,3.739,1.967a4.52,4.52,0,0,1,1.974,2.039,6.009,6.009,0,0,0,.516.809,5.591,5.591,0,0,1,.2,6.329,20.5,20.5,0,0,1-3.018,3.971C-105.012,384.113-106.362,385.567-107.885,387.194Z" fill="#3c3fa7" fill-rule="evenodd"/>
      </g>
      <g id="Grupo_80164" data-name="Grupo 80164" transform="translate(-0.732 1.345)">
        <path id="Trazado_113599" data-name="Trazado 113599" d="M-184.423,294.061a11.665,11.665,0,0,1-.514,6.344,22.19,22.19,0,0,1-1.115,2.863,12.993,12.993,0,0,0-1.1,7.68c.086.7.165,1.4.213,2.105a5.99,5.99,0,0,1-.022,1.339,1.517,1.517,0,0,1-2.481,1.006,3.121,3.121,0,0,1-1.222-1.677,15.724,15.724,0,0,1-.264-9.641c.3-.978.738-1.913,1.1-2.872.314-.839.6-1.688.908-2.53a9.508,9.508,0,0,0-.125-6.044c-.856-2.956-4.974-5.643-8.549-4.088a13.479,13.479,0,0,0-4.325,2.8,3.948,3.948,0,0,0-1.188,3.488,10.079,10.079,0,0,0,2.092,5.086c.515.654,1.071,1.276,1.6,1.915a7.931,7.931,0,0,1,.716.9,1,1,0,0,1-.611,1.525,3.424,3.424,0,0,1-3.063-.734,11.837,11.837,0,0,1-4.029-5.276,16.806,16.806,0,0,1-.763-2.773,7.409,7.409,0,0,1,1.993-6.738,14.811,14.811,0,0,1,8.037-4.618,9.012,9.012,0,0,1,5.293.4A11.031,11.031,0,0,1-184.423,294.061Z" fill="#3c3fa7" fill-rule="evenodd"/>
        <path id="Trazado_113600" data-name="Trazado 113600" d="M-184.644,325.981a3.287,3.287,0,0,1-3.392-1.369,3.8,3.8,0,0,1-.654-3.787,3.56,3.56,0,0,1,4.547-1.7,4.259,4.259,0,0,1,1.851,1.606C-180.776,323.122-181.89,325.571-184.644,325.981Z" fill="#3c3fa7" fill-rule="evenodd"/>
      </g>
    </g>
  </g>
</svg>
