<svg xmlns="http://www.w3.org/2000/svg" width="20.339" height="20.362" viewBox="0 0 20.339 20.362">
  <g id="Grupo_82675" data-name="Grupo 82675" transform="translate(-0.558 -5.69)">
    <g id="Grupo_82674" data-name="Grupo 82674" transform="translate(0.558 5.69)">
      <g id="Grupo_82662" data-name="Grupo 82662">
        <path id="Trazado_115698" data-name="Trazado 115698" d="M19.379,6.308a9.142,9.142,0,0,1-.822,1.552H1.414A9.142,9.142,0,0,1,.592,6.308Z" transform="translate(0.184 7.799)" fill="#fff"/>
        <path id="Trazado_115699" data-name="Trazado 115699" d="M20.361,6.239a9.051,9.051,0,0,1-.5,1.575H1.072a9.051,9.051,0,0,1-.5-1.575Z" transform="translate(-0.296 6.293)" fill="#b12233"/>
        <path id="Trazado_115700" data-name="Trazado 115700" d="M20.852,6.17A8.726,8.726,0,0,1,20.6,7.745H.81A11.345,11.345,0,0,1,.559,6.17Z" transform="translate(-0.536 4.787)" fill="#fff"/>
        <path id="Trazado_115701" data-name="Trazado 115701" d="M17.771,6.376a10.427,10.427,0,0,1-1.233,1.575H1.861A10.427,10.427,0,0,1,.628,6.376Z" transform="translate(0.97 9.283)" fill="#b12233"/>
        <path id="Trazado_115702" data-name="Trazado 115702" d="M11.609,6.513A10.006,10.006,0,0,1,6.2,8.088,10.026,10.026,0,0,1,.766,6.513Z" transform="translate(3.982 12.274)" fill="#b12233"/>
        <path id="Trazado_115703" data-name="Trazado 115703" d="M15.36,6.445A9.683,9.683,0,0,1,13.442,8H2.6A10.387,10.387,0,0,1,.682,6.445Z" transform="translate(2.149 10.789)" fill="#fff"/>
        <path id="Trazado_115704" data-name="Trazado 115704" d="M15.36,7.334H.682A10.513,10.513,0,0,1,2.6,5.759H13.442A9.794,9.794,0,0,1,15.36,7.334Z" transform="translate(2.149 -4.184)" fill="#fff"/>
        <path id="Trazado_115705" data-name="Trazado 115705" d="M11.609,7.265H.766a8.564,8.564,0,0,1,1-.548l.114-.046.342-.16.16-.068A10.106,10.106,0,0,1,6.176,5.69H6.2A10.205,10.205,0,0,1,11.609,7.265Z" transform="translate(3.982 -5.69)" fill="#b12233"/>
        <path id="Trazado_115706" data-name="Trazado 115706" d="M17.771,7.38H.628L.9,6.969l.046-.023a8.847,8.847,0,0,1,.913-1.119H16.538A11.5,11.5,0,0,1,17.771,7.38Z" transform="translate(0.97 -2.678)" fill="#b12233"/>
        <path id="Trazado_115707" data-name="Trazado 115707" d="M20.361,7.517H.57a9.466,9.466,0,0,1,.5-1.552H19.859A9.466,9.466,0,0,1,20.361,7.517Z" transform="translate(-0.296 0.312)" fill="#b12233"/>
        <path id="Trazado_115708" data-name="Trazado 115708" d="M19.379,7.471H.592l.137-.3.365-.708.32-.571H18.557A10.327,10.327,0,0,1,19.379,7.471Z" transform="translate(0.184 -1.194)" fill="#fff"/>
        <path id="Trazado_115709" data-name="Trazado 115709" d="M20.852,7.608H.559L.582,7.4.65,6.832l.16-.8H20.6A9.421,9.421,0,0,1,20.852,7.608Z" transform="translate(-0.536 1.797)" fill="#fff"/>
        <path id="Trazado_115710" data-name="Trazado 115710" d="M20.9,6.878l-.023.776H.581L.558,6.878.581,6.1H20.874Z" transform="translate(-0.558 3.303)" fill="#b12233"/>
      </g>
      <g id="Grupo_82673" data-name="Grupo 82673">
        <path id="Trazado_115711" data-name="Trazado 115711" d="M10.716,5.69V16.647H.581l-.023-.776.023-.776L.6,14.889l.068-.571.16-.8a9.466,9.466,0,0,1,.5-1.552l.137-.3.365-.708.32-.571.274-.411.046-.023A8.847,8.847,0,0,1,3.389,8.84,10.513,10.513,0,0,1,5.306,7.265a8.564,8.564,0,0,1,1-.548l.114-.046.342-.16.16-.068A10.106,10.106,0,0,1,10.716,5.69Z" transform="translate(-0.558 -5.69)" fill="#3c3b6d"/>
        <g id="Grupo_82672" data-name="Grupo 82672" transform="translate(0.046 0.532)">
          <g id="Grupo_82663" data-name="Grupo 82663" transform="translate(5.716)">
            <path id="Trazado_115712" data-name="Trazado 115712" d="M1.526,5.713l.144.438h.463l-.374.274.144.441-.377-.274-.374.274L1.3,6.426.921,6.152h.463Z" transform="translate(1.595 -5.713)" fill="#fff"/>
            <path id="Trazado_115713" data-name="Trazado 115713" d="M1.7,6.551l.034.11-.148-.11-.226-.164-.226.164-.148.11.034-.11.107-.331L.81,5.992l.1-.046h.3l.052-.16.16-.064.075.224h.461l-.372.274Z" transform="translate(-0.81 -5.508)" fill="#fff"/>
          </g>
          <g id="Grupo_82664" data-name="Grupo 82664" transform="translate(3.079 2.189)">
            <path id="Trazado_115714" data-name="Trazado 115714" d="M1.526,5.809l.144.441h.463l-.374.272.144.441L1.526,6.69l-.374.272L1.3,6.521.921,6.25h.463Z" transform="translate(4.231 -5.809)" fill="#fff"/>
            <path id="Trazado_115715" data-name="Trazado 115715" d="M1.415,5.809l.144.441H2.02l-.374.272.144.441L1.415,6.69l-.374.272.144-.441L.808,6.25h.464Z" transform="translate(1.767 -5.809)" fill="#fff"/>
            <path id="Trazado_115716" data-name="Trazado 115716" d="M1.3,5.809l.142.441h.464l-.375.272.144.441L1.3,6.69l-.376.272.144-.441L.695,6.25h.463Z" transform="translate(-0.695 -5.809)" fill="#fff"/>
          </g>
          <g id="Grupo_82665" data-name="Grupo 82665" transform="translate(0.867 4.381)">
            <path id="Trazado_115717" data-name="Trazado 115717" d="M1.526,5.905l.144.441h.463l-.374.272.144.441-.377-.272-.374.272L1.3,6.617.921,6.346h.463Z" transform="translate(6.443 -5.905)" fill="#fff"/>
            <path id="Trazado_115718" data-name="Trazado 115718" d="M1.415,5.905l.144.441H2.02l-.374.272.144.441-.374-.272-.374.272.144-.441L.808,6.346h.464Z" transform="translate(3.979 -5.905)" fill="#fff"/>
            <path id="Trazado_115719" data-name="Trazado 115719" d="M1.3,5.905l.142.441h.464l-.375.272.144.441L1.3,6.786l-.376.272.144-.441L.695,6.346h.463Z" transform="translate(1.517 -5.905)" fill="#fff"/>
            <path id="Trazado_115720" data-name="Trazado 115720" d="M1.077,6.263l.137.457L.849,6.446.6,6.629l.365-.708.023.091h.457Z" transform="translate(-0.598 -5.56)" fill="#fff"/>
          </g>
          <g id="Grupo_82666" data-name="Grupo 82666" transform="translate(0.504 6.57)">
            <path id="Trazado_115721" data-name="Trazado 115721" d="M1.526,6l.144.441h.463l-.374.274.144.438-.377-.272-.374.272L1.3,6.716.921,6.442h.463Z" transform="translate(6.806 -6.001)" fill="#fff"/>
            <path id="Trazado_115722" data-name="Trazado 115722" d="M1.415,6l.144.441H2.02l-.374.274.144.438-.374-.272-.374.272.144-.438L.808,6.442h.464Z" transform="translate(4.342 -6.001)" fill="#fff"/>
            <path id="Trazado_115723" data-name="Trazado 115723" d="M1.3,6l.142.441h.464l-.375.274.144.438L1.3,6.882l-.376.272.144-.438L.695,6.442h.463Z" transform="translate(1.88 -6.001)" fill="#fff"/>
            <path id="Trazado_115724" data-name="Trazado 115724" d="M1.187,6l.144.441h.463l-.377.274.144.438-.375-.272-.374.272.144-.438L.582,6.442h.461Z" transform="translate(-0.582 -6.001)" fill="#fff"/>
          </g>
          <g id="Grupo_82667" data-name="Grupo 82667" transform="translate(0.504 8.761)">
            <path id="Trazado_115725" data-name="Trazado 115725" d="M1.526,6.1l.144.441h.463l-.374.272L1.9,7.25l-.377-.272-.374.272L1.3,6.809.921,6.538h.463Z" transform="translate(6.806 -6.097)" fill="#fff"/>
            <path id="Trazado_115726" data-name="Trazado 115726" d="M1.415,6.1l.144.441H2.02l-.374.272.144.441-.374-.272-.374.272.144-.441L.808,6.538h.464Z" transform="translate(4.342 -6.097)" fill="#fff"/>
            <path id="Trazado_115727" data-name="Trazado 115727" d="M1.3,6.1l.142.441h.464l-.375.272.144.441L1.3,6.978.926,7.25l.144-.441L.695,6.538h.463Z" transform="translate(1.88 -6.097)" fill="#fff"/>
            <path id="Trazado_115728" data-name="Trazado 115728" d="M1.187,6.1l.144.441h.463l-.377.272.144.441-.375-.272L.813,7.25l.144-.441L.582,6.538h.461Z" transform="translate(-0.582 -6.097)" fill="#fff"/>
          </g>
          <g id="Grupo_82668" data-name="Grupo 82668" transform="translate(0 7.665)">
            <path id="Trazado_115729" data-name="Trazado 115729" d="M1.469,6.049l.144.441h.463L1.7,6.761l.142.441L1.469,6.93,1.095,7.2l.144-.441L.864,6.49h.463Z" transform="translate(6.08 -6.049)" fill="#fff"/>
            <path id="Trazado_115730" data-name="Trazado 115730" d="M1.358,6.049,1.5,6.49h.463l-.374.272.144.441L1.358,6.93.984,7.2l.142-.441L.751,6.49h.463Z" transform="translate(3.615 -6.049)" fill="#fff"/>
            <path id="Trazado_115731" data-name="Trazado 115731" d="M1.244,6.049l.144.441h.463l-.374.272.142.441L1.244,6.93.869,7.2l.144-.441L.638,6.49H1.1Z" transform="translate(1.153 -6.049)" fill="#fff"/>
            <path id="Trazado_115732" data-name="Trazado 115732" d="M.606,6.342l.16.457L.56,6.639l.068-.571H.994Z" transform="translate(-0.56 -5.637)" fill="#fff"/>
          </g>
          <g id="Grupo_82669" data-name="Grupo 82669" transform="translate(1.792 5.476)">
            <path id="Trazado_115733" data-name="Trazado 115733" d="M1.469,5.953l.144.441h.463L1.7,6.665l.142.441-.374-.274-.374.274.144-.441L.864,6.394h.463Z" transform="translate(4.288 -5.953)" fill="#fff"/>
            <path id="Trazado_115734" data-name="Trazado 115734" d="M1.358,5.953l.142.441h.463l-.374.272.144.441-.374-.274-.374.274.142-.441L.751,6.394h.463Z" transform="translate(1.824 -5.953)" fill="#fff"/>
            <path id="Trazado_115735" data-name="Trazado 115735" d="M1.244,5.953l.144.441h.463l-.374.272.142.441-.374-.274-.375.274.144-.441L.638,6.394H1.1Z" transform="translate(-0.638 -5.953)" fill="#fff"/>
          </g>
          <g id="Grupo_82670" data-name="Grupo 82670" transform="translate(1.837 3.285)">
            <path id="Trazado_115736" data-name="Trazado 115736" d="M1.469,5.857l.144.441h.463L1.7,6.569l.142.441-.374-.272-.374.272.144-.441L.864,6.3h.463Z" transform="translate(4.242 -5.857)" fill="#fff"/>
            <path id="Trazado_115737" data-name="Trazado 115737" d="M1.358,5.857,1.5,6.3h.463l-.374.272.144.441-.374-.272L.984,7.01l.142-.441L.751,6.3h.463Z" transform="translate(1.778 -5.857)" fill="#fff"/>
            <path id="Trazado_115738" data-name="Trazado 115738" d="M1.49,6.745l.087.265-.365-.265L1.2,6.738l-.012.007L.825,7.01l.087-.265.057-.176L.64,6.332.666,6.3h.39L1.2,5.857l.144.441h.463l-.374.272Z" transform="translate(-0.64 -5.857)" fill="#fff"/>
          </g>
          <g id="Grupo_82671" data-name="Grupo 82671" transform="translate(4.367 1.093)">
            <path id="Trazado_115739" data-name="Trazado 115739" d="M1.469,5.761l.144.441h.463L1.7,6.476l.142.438-.374-.272-.374.272.144-.438L.864,6.2h.463Z" transform="translate(1.713 -5.761)" fill="#fff"/>
            <path id="Trazado_115740" data-name="Trazado 115740" d="M1.358,5.761,1.5,6.2h.463l-.374.274.144.438-.374-.272-.374.272.142-.438L.751,6.2h.463Z" transform="translate(-0.751 -5.761)" fill="#fff"/>
          </g>
        </g>
      </g>
    </g>
  </g>
</svg>
