<svg xmlns="http://www.w3.org/2000/svg" width="72.9" height="72.9" viewBox="0 0 72.9 72.9">
  <g id="alerta" transform="translate(-11.05 -11.05)">
    <g id="Grupo_80778" data-name="Grupo 80778" transform="translate(23.009 28.132)">
      <path id="Trazado_114329" data-name="Trazado 114329" d="M55.944,35.865a17.8,17.8,0,0,0-17.8,17.8V80.617h35.59V53.661a17.8,17.8,0,0,0-17.793-17.8Z" transform="translate(-31.453 -35.865)" fill="#e5384f"/>
      <path id="Trazado_114330" data-name="Trazado 114330" d="M50.667,69.917l9.178-6.875-9.178-6.875Z" transform="translate(-35.354 -42.191)" fill="#fdbe00"/>
      <path id="Trazado_114331" data-name="Trazado 114331" d="M64,63.042l9.178,6.875V56.167Z" transform="translate(-39.509 -42.191)" fill="#fdbe00"/>
      <path id="Trazado_114332" data-name="Trazado 114332" d="M31.746,96.442l-3.324,12.913H77.4L74.081,96.442Z" transform="translate(-28.422 -54.742)" fill="#223b59"/>
    </g>
    <g id="Grupo_80779" data-name="Grupo 80779" transform="translate(11.05 11.05)">
      <path id="Trazado_114333" data-name="Trazado 114333" d="M34.573,55.173a1.205,1.205,0,0,0-1.2,1.2V75.839H31.2a1.2,1.2,0,0,0-1.167.9L26.708,89.655a1.205,1.205,0,0,0,1.17,1.5h31.4a1.2,1.2,0,1,0,0-2.409H29.429l2.7-10.5H72.6l2.7,10.5H72.647a1.2,1.2,0,1,0,0,2.409H76.86a1.205,1.205,0,0,0,1.17-1.5L74.7,76.74a1.2,1.2,0,0,0-1.167-.9H71.367v-22.7a19,19,0,0,0-37.918-1.7,1.2,1.2,0,1,0,2.4.211,16.59,16.59,0,0,1,33.111,1.485v22.7H53.572V58.6l7.251,5.432a1.2,1.2,0,0,0,1.927-.964V49.32a1.2,1.2,0,0,0-1.927-.964l-8.456,6.333-8.456-6.333a1.2,1.2,0,0,0-1.927.964V63.07a1.2,1.2,0,0,0,1.927.964L51.163,58.6V75.839H35.777V56.378a1.205,1.205,0,0,0-1.2-1.2Zm25.768-3.446v8.935l-5.964-4.468ZM44.394,60.663V51.727l5.964,4.468Z" transform="translate(-15.917 -18.262)"/>
      <path id="Trazado_114334" data-name="Trazado 114334" d="M84.233,115.859a1.2,1.2,0,1,0,0-2.409H80.475a1.2,1.2,0,0,0,0,2.409Z" transform="translate(-32.308 -42.959)"/>
      <path id="Trazado_114335" data-name="Trazado 114335" d="M64.659,21.8V12.255a1.2,1.2,0,0,0-2.409,0V21.8a1.2,1.2,0,0,0,2.409,0Z" transform="translate(-27.005 -11.05)"/>
      <path id="Trazado_114336" data-name="Trazado 114336" d="M90.707,34.854l6.75-6.746a1.2,1.2,0,1,0-1.7-1.7l-6.746,6.746a1.2,1.2,0,1,0,1.7,1.7Z" transform="translate(-35.233 -15.725)"/>
      <path id="Trazado_114337" data-name="Trazado 114337" d="M34,35.207a1.2,1.2,0,0,0,.852-2.056L28.106,26.4a1.2,1.2,0,1,0-1.7,1.7l6.746,6.75A1.2,1.2,0,0,0,34,35.207Z" transform="translate(-15.724 -15.725)"/>
      <path id="Trazado_114338" data-name="Trazado 114338" d="M21.8,64.659a1.2,1.2,0,0,0,0-2.409H12.255a1.2,1.2,0,0,0,0,2.409Z" transform="translate(-11.05 -27.005)"/>
      <path id="Trazado_114339" data-name="Trazado 114339" d="M110.334,64.659a1.2,1.2,0,0,0,0-2.409h-9.546a1.2,1.2,0,0,0,0,2.409Z" transform="translate(-38.638 -27.005)"/>
    </g>
  </g>
</svg>
