<svg xmlns="http://www.w3.org/2000/svg" width="69.63" height="79.878" viewBox="0 0 69.63 79.878">
  <g id="Grupo_80812" data-name="Grupo 80812" transform="translate(-35.169 -16.562)">
    <g id="Grupo_80138" data-name="Grupo 80138" transform="translate(38.259 81.935)">
      <path id="Trazado_113577" data-name="Trazado 113577" d="M94.855,101.275s-4.538,6.4.276,11.378H39.412l-.277-12.169Z" transform="translate(-39.135 -100.484)" fill="#e7e5e5"/>
    </g>
    <g id="Grupo_80139" data-name="Grupo 80139" transform="translate(38.259 81.355)">
      <path id="Trazado_113578" data-name="Trazado 113578" d="M39.135,107.873c.743-.594,9.4-7.523,54.618-4.733a3.69,3.69,0,0,1,1.172-2.067L39.891,99.74Z" transform="translate(-39.135 -99.74)" fill="#cececd"/>
    </g>
    <g id="Grupo_80140" data-name="Grupo 80140" transform="translate(35.17 79.458)">
      <path id="Trazado_113579" data-name="Trazado 113579" d="M39,104.707v-1.584c0-2.814,2.047-2.587,2.047-2.587H95.094V97.3h-54.6a3.422,3.422,0,0,0-2.5.906h0l0,0c-.049.047-.094.1-.139.143a.087.087,0,0,0-.013.016c-.026.028-.052.054-.075.083-1.032,1.163-5.031,6.437-.428,13.892a3.281,3.281,0,0,0,3.154,1.8h54.6v-3.234H41.049S39,111.139,39,108.326v-3.619Z" transform="translate(-35.17 -97.304)" fill="#22b1b6"/>
    </g>
    <g id="Grupo_80141" data-name="Grupo 80141" transform="translate(50.958 65.969)">
      <path id="Trazado_113580" data-name="Trazado 113580" d="M108.223,80.737s-4.3,6.065.261,10.78H55.7l-.263-11.529Z" transform="translate(-55.438 -79.988)" fill="#e7e5e5"/>
    </g>
    <g id="Grupo_80142" data-name="Grupo 80142" transform="translate(50.958 65.421)">
      <path id="Trazado_113581" data-name="Trazado 113581" d="M55.438,86.989c.7-.563,8.905-7.126,51.741-4.484a3.506,3.506,0,0,1,1.111-1.958L56.155,79.284Z" transform="translate(-55.438 -79.284)" fill="#cececd"/>
    </g>
    <g id="Grupo_80143" data-name="Grupo 80143" transform="translate(48.032 63.623)">
      <path id="Trazado_113582" data-name="Trazado 113582" d="M55.313,83.989v-1.5c0-2.665,1.939-2.45,1.939-2.45h51.2V76.977H56.723a3.245,3.245,0,0,0-2.363.857h0l0,0c-.047.045-.09.09-.132.137l-.012.014c-.024.028-.049.052-.071.079-.978,1.1-4.766,6.1-.406,13.161a3.106,3.106,0,0,0,2.987,1.7h51.727V89.866h-51.2s-1.939.217-1.939-2.448V83.989Z" transform="translate(-51.682 -76.977)" fill="#ea5645"/>
    </g>
    <g id="Grupo_80144" data-name="Grupo 80144" transform="translate(40.405 49.261)">
      <path id="Trazado_113583" data-name="Trazado 113583" d="M97.61,59.329s-4.537,6.4.277,11.38H42.168l-.278-12.17Z" transform="translate(-41.89 -58.539)" fill="#e7e5e5"/>
    </g>
    <g id="Grupo_80145" data-name="Grupo 80145" transform="translate(40.405 48.681)">
      <path id="Trazado_113584" data-name="Trazado 113584" d="M41.89,65.928c.744-.594,9.4-7.523,54.618-4.733a3.7,3.7,0,0,1,1.172-2.066L42.646,57.795Z" transform="translate(-41.89 -57.795)" fill="#cececd"/>
    </g>
    <g id="Grupo_80146" data-name="Grupo 80146" transform="translate(37.316 46.783)">
      <path id="Trazado_113585" data-name="Trazado 113585" d="M41.758,62.761V61.176c0-2.812,2.047-2.585,2.047-2.585H97.85V55.358h-54.6a3.428,3.428,0,0,0-2.5.906h0l0,0c-.048.048-.094.1-.139.144l-.013.017c-.026.027-.052.053-.075.082-1.032,1.163-5.031,6.437-.428,13.893a3.279,3.279,0,0,0,3.153,1.8h54.6V68.965H43.8s-2.047.228-2.047-2.583V62.761Z" transform="translate(-37.925 -55.358)" fill="#ffc23a"/>
    </g>
    <g id="Grupo_80147" data-name="Grupo 80147" transform="translate(65.132 63.623)">
      <rect id="Rect치ngulo_33784" data-name="Rect치ngulo 33784" width="23.104" height="3.061" transform="translate(0)" fill="#d13431"/>
    </g>
    <g id="Grupo_80148" data-name="Grupo 80148" transform="translate(64.942 76.513)">
      <rect id="Rect치ngulo_33785" data-name="Rect치ngulo 33785" width="23.104" height="3.062" transform="translate(0)" fill="#d13431"/>
    </g>
    <g id="Grupo_80149" data-name="Grupo 80149" transform="translate(37.316 46.783)">
      <path id="Trazado_113586" data-name="Trazado 113586" d="M43.8,68.965s-2.047.228-2.047-2.583V61.176c0-2.812,2.047-2.585,2.047-2.585h9.418V55.358H43.246a3.428,3.428,0,0,0-2.5.906h0l0,0c-.048.048-.094.1-.139.144l-.013.017c-.026.027-.052.053-.075.082-1.032,1.163-5.031,6.437-.428,13.893a3.279,3.279,0,0,0,3.153,1.8h9.976V68.965Z" transform="translate(-37.925 -55.358)" fill="#f9a431"/>
    </g>
    <g id="Grupo_80150" data-name="Grupo 80150" transform="translate(81.467 71.599)">
      <path id="Trazado_113587" data-name="Trazado 113587" d="M99.173,87.488a19,19,0,0,0-4.569-.226,7.8,7.8,0,0,1,2.741,6.546l2.2-3.075,3.032,2.208S101.622,88.458,99.173,87.488Z" transform="translate(-94.604 -87.215)" fill="#22b1b6"/>
    </g>
    <g id="Grupo_80151" data-name="Grupo 80151" transform="translate(54.861 55.203)">
      <path id="Trazado_113588" data-name="Trazado 113588" d="M65.018,66.442a18.941,18.941,0,0,0-4.569-.227A7.8,7.8,0,0,1,63.19,72.76l2.2-3.074,3.032,2.208S67.468,67.411,65.018,66.442Z" transform="translate(-60.449 -66.168)" fill="#ea5645"/>
    </g>
    <g id="Grupo_80152" data-name="Grupo 80152" transform="translate(55.415 27.437)">
      <path id="Trazado_113589" data-name="Trazado 113589" d="M74.5,32.493a8.763,8.763,0,0,0-10.129-.614c-5.524,3.376-4.788,18.846,9.208,18.907,11.124.048,14.978-8.164,13.075-14.426S78.3,29.668,74.5,32.493Z" transform="translate(-61.159 -30.523)" fill="#ec2c24"/>
    </g>
    <g id="Grupo_80153" data-name="Grupo 80153" transform="translate(61.765 22.255)">
      <path id="Trazado_113590" data-name="Trazado 113590" d="M69.7,23.871s6.482,1.368,6.7,9.074c0,0-.53-5.478-7.083-8A2.022,2.022,0,0,1,69.7,23.871Z" transform="translate(-69.311 -23.871)" fill="#5e4123"/>
    </g>
    <g id="Grupo_80154" data-name="Grupo 80154" transform="translate(67.106 16.562)">
      <path id="Trazado_113591" data-name="Trazado 113591" d="M76.665,27.935s-3.12-6.145,6.274-11.373C82.939,16.562,85.462,23.418,76.665,27.935Z" transform="translate(-76.168 -16.562)" fill="#609641"/>
    </g>
    <g id="Grupo_80155" data-name="Grupo 80155" transform="translate(67.001 16.562)">
      <path id="Trazado_113592" data-name="Trazado 113592" d="M76.635,27.935s2.536-8.966,6.274-11.373C82.909,16.562,73.62,19.824,76.635,27.935Z" transform="translate(-76.033 -16.562)" fill="#3f6932"/>
    </g>
    <g id="Grupo_80156" data-name="Grupo 80156" transform="translate(57.712 31.65)">
      <path id="Trazado_113593" data-name="Trazado 113593" d="M64.108,47.439s17.96,1.385,22.536-11.508c0,0,2.988,4.387-.7,11.455,0,0-2.651,5.955-12.442,4.812A11.864,11.864,0,0,1,64.108,47.439Z" transform="translate(-64.108 -35.931)" fill="#d22027"/>
    </g>
    <g id="Grupo_80157" data-name="Grupo 80157" transform="translate(35.17 79.599)">
      <path id="Trazado_113594" data-name="Trazado 113594" d="M41.05,111.093S39,111.321,39,108.51V103.3c0-2.812,2.048-2.585,2.048-2.585h9.418V97.486H40.491a3.426,3.426,0,0,0-2.5.906h0l0,0c-.049.048-.094.1-.139.144l-.014.016c-.026.028-.051.054-.075.083-1.032,1.163-5.031,6.437-.428,13.893a3.281,3.281,0,0,0,3.154,1.8h9.976v-3.234Z" transform="translate(-35.17 -97.486)" fill="#179998"/>
    </g>
  </g>
</svg>
