<svg xmlns="http://www.w3.org/2000/svg" width="238.362" height="381.855" viewBox="0 0 238.362 381.855">
  <g id="Grupo_80882" data-name="Grupo 80882" transform="translate(-13.286 -44.565)">
    <path id="Trazado_114544" data-name="Trazado 114544" d="M145.551,417.208c-26.431-11.959-53.842-28.1-64.487-55.081-11.814-29.949.552-63.489.255-95.682-.236-25.5-8.5-50.132-15-74.793s-11.278-50.864-4.569-75.47c4.491-16.472,14.03-31.376,26.345-43.2,21.686-20.825,52.931-32.094,82.618-27.331s56.657,26.464,65.336,55.251c12.3,40.785-11.723,84.322-6.618,126.613,2,16.548,8.39,32.2,12.725,48.292a197.845,197.845,0,0,1,6.793,52.541c-.162,27.147-7.042,56.111-27.294,74.189C201.225,420.771,170.825,428.644,145.551,417.208Z" fill="#e1e8ff"/>
    <g id="OBJECTS">
      <g id="Grupo_80881" data-name="Grupo 80881">
        <g id="Grupo_80869" data-name="Grupo 80869">
          <g id="Grupo_80867" data-name="Grupo 80867">
            <path id="Trazado_114545" data-name="Trazado 114545" d="M178.37,253.025c-11.98,2.77-35.54-30.89-35.54-30.89v-16.77l35.54,4.85a45.447,45.447,0,0,0-.93,10.76c.27,4.62,1.8,8.85,6.61,8.22C188.2,238.7,190.36,250.265,178.37,253.025Z" fill="#ffcdab"/>
            <path id="Trazado_114546" data-name="Trazado 114546" d="M177.44,220.975a12.8,12.8,0,0,1-5.87,1.09c-9.38-.48-19.53-2.42-28.74-10.54v-6.16l35.54,4.85A45.447,45.447,0,0,0,177.44,220.975Z" fill="#f9bb91"/>
          </g>
          <g id="Grupo_80868" data-name="Grupo 80868">
            <path id="Trazado_114547" data-name="Trazado 114547" d="M153.727,235.829s26.346,22.5,32.525-4.868c6.159,20.377,2.648,33.984-4.855,37.514S153.727,235.829,153.727,235.829Z" fill="#194f97"/>
            <path id="Trazado_114548" data-name="Trazado 114548" d="M163.357,247.4c3.284-2,13.627,5.185,20.688-3.642" fill="none" stroke="#60aad9" stroke-miterlimit="10" stroke-width="1"/>
          </g>
        </g>
        <g id="Grupo_80871" data-name="Grupo 80871">
          <path id="Trazado_114549" data-name="Trazado 114549" d="M62.3,223.145c-2.6,9.43-1.18,19.52-5.42,24.26s-4.48,4.26-2.6,9.68.24,6.13.24,6.13l-13.51,3.29-4.82,1.18s-2.65-11.54-4.06-12.72-5.42-.51-8.02-7.56-3.77-16.95-5.89-21.2-5.89-9.06-4.71-12.43a3.635,3.635,0,0,1,.79-1.38c1.31-1.4,3.28-.1,4.63,1.38,1.65,1.83,7.48,13.29,10.08,16.35s-8.2-23.44-7.49-25.7,2.81-8.25,12.49-7.96c3.3,5.47,8.43,28.95,9.37,28.71s-3.71-27.6-1.59-28.72,7.07.06,7.78,3.36S52.4,228.1,52.4,228.1s2.78-14.25,6.1-14.32S64.89,213.715,62.3,223.145Z" fill="#ffcdab"/>
          <g id="Grupo_80870" data-name="Grupo 80870">
            <path id="Trazado_114550" data-name="Trazado 114550" d="M40.612,247.4s.943-12.155,11.314-18.206" fill="none" stroke="#e89879" stroke-linecap="round" stroke-linejoin="round" stroke-width="1"/>
            <path id="Trazado_114551" data-name="Trazado 114551" d="M25.764,233.557s7.07-5.935,20.505-9.235" fill="none" stroke="#e89879" stroke-linecap="round" stroke-linejoin="round" stroke-width="1"/>
            <line id="Línea_178" data-name="Línea 178" x2="9.417" y2="29.827" transform="translate(26.777 197.827)" fill="none" stroke="#e89879" stroke-linecap="round" stroke-linejoin="round" stroke-width="1"/>
          </g>
          <path id="Trazado_114552" data-name="Trazado 114552" d="M41.01,266.505l-4.82,1.18s-2.65-11.54-4.06-12.72-5.42-.51-8.02-7.56-3.77-16.95-5.89-21.2-5.89-9.06-4.71-12.43a3.635,3.635,0,0,1,.79-1.38c4.67,7.77,11.45,20.28,11.46,27.44.03,10.92,14.85,13.99,14.85,13.99S37.15,259.355,41.01,266.505Z" fill="#f9bb91"/>
        </g>
        <g id="Grupo_80877" data-name="Grupo 80877">
          <g id="Grupo_80872" data-name="Grupo 80872">
            <path id="Trazado_114553" data-name="Trazado 114553" d="M115.195,406.335l2.253,6.778s68.869,30.057,105.811-1.938c-.357-8.921,0-10.125,0-10.125S177.543,415.473,115.195,406.335Z" fill="#ffbfc2"/>
            <path id="Trazado_114554" data-name="Trazado 114554" d="M190.661,418.59l-13.842.025,1.721,7.7" fill="none" stroke="#ff5467" stroke-miterlimit="10" stroke-width="1"/>
          </g>
          <g id="Grupo_80876" data-name="Grupo 80876">
            <g id="Grupo_80874" data-name="Grupo 80874">
              <path id="Trazado_114555" data-name="Trazado 114555" d="M251.57,346.155c-1.74,10.05-8.69,18.8-15.25,23.25a2.431,2.431,0,0,1-.2.14c.45,3.53-5.73,6.62-5.73,6.62s2.2,14.12-4.86,17.21a72.108,72.108,0,0,0,.88,13.68s-19.57,1.19-42.61,2.06c-31.21,1.17-68.77,1.75-72.58-2.06-6.38-6.38-2.54-10.26-2.26-10.53-.22.03-2.19.31-4.28-1.84-3.5-3.61-7.32-14.07-3.73-43.99.04-.33.08-.67.12-1.01,0,0-21.58,21.62-42.57,2.2-15.1-13.97-22.08-46-23.32-64.18-.49-7.08-.1-12.06,1.01-13.05-3.53-5.3-3.08-7.06,3.54-10.15,3.1-1.45,7.18-3.28,10.75-4.55,4.05-1.45,7.45-2.16,8.02-.75a48.735,48.735,0,0,1,1.97,7.51,5.393,5.393,0,0,1,.73.19,16.2,16.2,0,0,1,6.34,4.22c3.96,3.97,11.29,27.18,11.29,27.18s.03-.34.12-.98a99.976,99.976,0,0,1,2.6-12.68,98.4,98.4,0,0,1,12.36-28.29,70.045,70.045,0,0,1,7.63-9.7,59.2,59.2,0,0,1,15.16-11.66,58.317,58.317,0,0,1,16.48-5.78c.04-.01.07-.01.11-.02-.88-7.5,4.86-14.12,8.39-11.47s33.98,38.83,38.83,42.36,3.09-10.15,3.54-16.32-2.65-19.87,0-19.87a6.657,6.657,0,0,1,2.75.78,12.018,12.018,0,0,1,6.51,8.88c.12.08.24.16.37.24,8.5,5.42,24.83,15.84,27.88,25.41,1.59,4.98,9.91,25.07,17.4,44.82C246.07,322.765,252.43,341.215,251.57,346.155Z" fill="#ff5d59"/>
              <g id="Grupo_80873" data-name="Grupo 80873">
                <path id="Trazado_114556" data-name="Trazado 114556" d="M100.95,350.7c.04-.33.08-.67.12-1.01,0,0-21.58,21.62-42.57,2.2-15.1-13.97-22.08-46-23.32-64.18,10.91,23.01,44.1,83.95,72.95,43.72C105.68,340.4,106.16,340.495,100.95,350.7Z" fill="#f94343"/>
                <path id="Trazado_114557" data-name="Trazado 114557" d="M209.28,288.831s5.147,26.931,12.7,24.345c0,0-5.288,7.6-6.2,9.928C214.452,319.743,208.42,295.862,209.28,288.831Z" fill="#f94343"/>
                <path id="Trazado_114558" data-name="Trazado 114558" d="M251.57,346.155c-1.74,10.05-8.69,18.8-15.25,23.25a62.323,62.323,0,0,0-5.93-15.5c12.31-5.22,10.58-33.86,8.57-49.88C246.07,322.765,252.43,341.215,251.57,346.155Z" fill="#f94343"/>
                <path id="Trazado_114559" data-name="Trazado 114559" d="M177.43,377.925c-2.82,4.43-39.4,5.19-49.84,1.26,28.89-6.47,41.91-32.18,46.68-44.92C176.44,343.965,180.12,373.7,177.43,377.925Z" fill="#f94343"/>
                <path id="Trazado_114560" data-name="Trazado 114560" d="M170.24,260.1c-28.21,1.04-46.61-16.87-53.54-25.1a58.317,58.317,0,0,1,16.48-5.78C142.25,238.415,162.45,254.505,170.24,260.1Z" fill="#f94343"/>
                <path id="Trazado_114561" data-name="Trazado 114561" d="M113.98,267.685a45.9,45.9,0,0,0-20.07-11.33,70.045,70.045,0,0,1,7.63-9.7C105.01,249.785,110.04,255.995,113.98,267.685Z" fill="#f94343"/>
                <path id="Trazado_114562" data-name="Trazado 114562" d="M89.42,313.175c-2.97-5.14-9.51-13.65-9.51-13.65l-.96-2.2a99.976,99.976,0,0,1,2.6-12.68C83.82,289.025,89.27,300.765,89.42,313.175Z" fill="#f94343"/>
                <path id="Trazado_114563" data-name="Trazado 114563" d="M50.48,259.955c4.05-1.45,7.45-2.16,8.02-.75a48.735,48.735,0,0,1,1.97,7.51,5.393,5.393,0,0,1,.73.19,103.909,103.909,0,0,1-11.78,4.37C54.33,269.285,52.56,263.845,50.48,259.955Z" fill="#f94343"/>
                <path id="Trazado_114564" data-name="Trazado 114564" d="M191.14,256.7c2.53-17.15-1.75-27.55-4.34-32.02a12.018,12.018,0,0,1,6.51,8.88c.12.08.24.16.37.24A159.713,159.713,0,0,1,191.14,256.7Z" fill="#f94343"/>
                <path id="Trazado_114565" data-name="Trazado 114565" d="M183.8,409.115c-31.21,1.17-68.77,1.75-72.58-2.06-6.38-6.38-2.54-10.26-2.26-10.53-.22.03-2.19.31-4.28-1.84,8.63,2.75,33.38,8.65,81.28,6.02A7.863,7.863,0,0,0,183.8,409.115Z" fill="#f94343"/>
              </g>
            </g>
            <g id="Grupo_80875" data-name="Grupo 80875">
              <path id="Trazado_114566" data-name="Trazado 114566" d="M115.195,292.308s-4.413,46.341-14.123,57.375" fill="none" stroke="#ffc6c8" stroke-linecap="round" stroke-linejoin="round" stroke-width="1"/>
              <path id="Trazado_114567" data-name="Trazado 114567" d="M91.363,321s1.864-6.551-12.529-22.7" fill="none" stroke="#ffc6c8" stroke-linecap="round" stroke-linejoin="round" stroke-width="1"/>
              <path id="Trazado_114568" data-name="Trazado 114568" d="M133.291,229.2s40.6,39.721,51.2,36.19,8.827-31.829,8.827-31.829" fill="none" stroke="#ffc6c8" stroke-linecap="round" stroke-linejoin="round" stroke-width="1"/>
              <path id="Trazado_114569" data-name="Trazado 114569" d="M108.983,396.51s64.47,13.2,116.549-3.134" fill="none" stroke="#ffc6c8" stroke-linecap="round" stroke-linejoin="round" stroke-width="1"/>
              <path id="Trazado_114570" data-name="Trazado 114570" d="M184.487,265.386s-3.531,28.943,2.207,44.262,31.844,43.791,22.763,87.813" fill="none" stroke="#ffc6c8" stroke-linecap="round" stroke-linejoin="round" stroke-width="1"/>
              <path id="Trazado_114571" data-name="Trazado 114571" d="M177.43,377.925c-2.82,4.43-39.4,5.19-49.84,1.26a6.23,6.23,0,0,1-2.24-1.26s-5.3-11.91-2.65-19.41,7.94-21.19,10.59-28.69,38.4-1.66,40.16,1.6a13.461,13.461,0,0,1,.82,2.84C176.44,343.965,180.12,373.7,177.43,377.925Z" fill="none" stroke="#ffc6c8" stroke-linecap="round" stroke-linejoin="round" stroke-width="1"/>
              <path id="Trazado_114572" data-name="Trazado 114572" d="M208.761,279.509s.882,31.777,7.5,44.576" fill="none" stroke="#ffc6c8" stroke-linecap="round" stroke-linejoin="round" stroke-width="1"/>
              <path id="Trazado_114573" data-name="Trazado 114573" d="M225.532,309.648s-10.151,8.45-9.268,16.519c3.53,11.6,17.212,31.019,18.536,37.2l1.324,6.179" fill="none" stroke="#ffc6c8" stroke-linecap="round" stroke-linejoin="round" stroke-width="1"/>
              <path id="Trazado_114574" data-name="Trazado 114574" d="M216.264,324.085s-9.269.883-9.71,3.972,11.475,41.928,13.24,45.459,10.593,2.648,10.593,2.648" fill="none" stroke="#ffc6c8" stroke-linecap="round" stroke-linejoin="round" stroke-width="1"/>
              <path id="Trazado_114575" data-name="Trazado 114575" d="M36.195,274.654s17.653-3.53,24.274-7.944" fill="none" stroke="#ffc6c8" stroke-linecap="round" stroke-linejoin="round" stroke-width="1"/>
              <path id="Trazado_114576" data-name="Trazado 114576" d="M105.2,250.66c7.984,8.356,10.437,20.615,10.44,32.173" fill="none" stroke="#ffc6c8" stroke-linecap="round" stroke-linejoin="round" stroke-width="1"/>
              <path id="Trazado_114577" data-name="Trazado 114577" d="M177.172,291a35.554,35.554,0,0,0,3.089,20.234" fill="none" stroke="#ffc6c8" stroke-linecap="round" stroke-linejoin="round" stroke-width="1"/>
              <path id="Trazado_114578" data-name="Trazado 114578" d="M174.911,303.989a16.454,16.454,0,0,0,3.35,9.187" fill="none" stroke="#ffc6c8" stroke-linecap="round" stroke-linejoin="round" stroke-width="1"/>
              <path id="Trazado_114579" data-name="Trazado 114579" d="M223.259,323.542a27.258,27.258,0,0,1,7.329-9.647" fill="none" stroke="#ffc6c8" stroke-linecap="round" stroke-linejoin="round" stroke-width="1"/>
              <path id="Trazado_114580" data-name="Trazado 114580" d="M227.277,323.546a47.85,47.85,0,0,1,4.7-4.968" fill="none" stroke="#ffc6c8" stroke-linecap="round" stroke-linejoin="round" stroke-width="1"/>
              <path id="Trazado_114581" data-name="Trazado 114581" d="M52.622,328.708a35.215,35.215,0,0,0,5.852,10.979,19.928,19.928,0,0,0,10.242,6.81" fill="none" stroke="#ffc6c8" stroke-linecap="round" stroke-linejoin="round" stroke-width="1"/>
            </g>
          </g>
        </g>
        <g id="Grupo_80880" data-name="Grupo 80880">
          <path id="Trazado_114582" data-name="Trazado 114582" d="M122.317,178.4a66.276,66.276,0,0,1-4.684-18.906c-.618-6.476.117-13.874,5.143-18,2.59-2.128,6-3.081,8.544-5.261,2.857-2.445,4.392-6.235,7.468-8.4,2.86-2.012,6.633-2.313,9.575-4.205,2.663-1.711,5.04-4.806,8.16-4.27,1.567.27,2.825,1.448,4.337,1.938,3.272,1.06,6.986-1.264,10.194-.027,1.732.668,2.925,2.239,4.421,3.338,2.928,2.15,6.788,2.362,10.312,3.248s7.31,3.128,7.67,6.743c.134,1.349-.238,2.761.206,4.041.932,2.684,4.849,3.35,5.81,6.024.835,2.325-1.025,4.765-1.005,7.235.016,1.976,1.229,3.743,1.576,5.689.6,3.365-1.423,6.565-2.37,9.849-.918,3.182-.833,6.6-1.83,9.754s-3.644,6.235-6.951,6.058c-3.128-.168-5.419-3.208-6.1-6.266s-.226-6.242-.374-9.371a22.478,22.478,0,0,0-9.106-17.135,19.369,19.369,0,0,0-19.068-1.9,5.724,5.724,0,0,0-1.946,1.344,6.823,6.823,0,0,0-1.1,2.2l-4.2,11.72c-1.268,3.535-2.564,7.126-4.779,10.159s-5.518,5.488-9.262,5.791c-3.517.284-6.884-1.316-10.035-2.9Z" fill="#f2852f"/>
          <g id="Grupo_80879" data-name="Grupo 80879">
            <path id="Trazado_114583" data-name="Trazado 114583" d="M173.19,212.645q-.795.18-1.62.36c-12.8,2.69-23.3-2.06-30.81-7.8a57.308,57.308,0,0,1-12.94-13.88c-.09.1-.18.2-.27.29a9.661,9.661,0,0,1-12.73.58h-.01c-2.9-2.31-4.7-6.51-3.49-12.65,2.83-14.38,15.56-9.43,19.33-4.01,16.26-2.59,12.18-29.23,12.18-29.23s10.21-8.25,28.74-5.65,19.41,22.86,19.41,28.52c0,3.29,1.28,4.9,2.68,7.21a20.957,20.957,0,0,1,2.75,6.93c.04.18.08.37.11.56C198.04,191.675,197.91,206.835,173.19,212.645Z" fill="#ffcdab"/>
            <g id="Grupo_80878" data-name="Grupo 80878">
              <path id="Trazado_114584" data-name="Trazado 114584" d="M119.778,180.766a23.554,23.554,0,0,1,4.93,3.906l-4.035,2.025" fill="none" stroke="#e89879" stroke-linecap="round" stroke-linejoin="round" stroke-width="1"/>
              <path id="Trazado_114585" data-name="Trazado 114585" d="M172.617,174.049c-.4,1.244.4,2.551,1.3,3.494a8.477,8.477,0,0,1,2.38,3.065c.539,1.758-.517,3.6-1.708,5" fill="none" stroke="#e89879" stroke-linecap="round" stroke-linejoin="round" stroke-width="1"/>
              <path id="Trazado_114586" data-name="Trazado 114586" d="M152.2,166.629a6.542,6.542,0,0,1,10.454-1.649" fill="none" stroke="#1a1a1a" stroke-linecap="round" stroke-linejoin="round" stroke-width="1.5"/>
              <path id="Trazado_114587" data-name="Trazado 114587" d="M178.276,164.019a3.79,3.79,0,0,1,3.774-1.578,6.817,6.817,0,0,1,3.717,2.083" fill="none" stroke="#1a1a1a" stroke-linecap="round" stroke-linejoin="round" stroke-width="1.5"/>
              <path id="Trazado_114588" data-name="Trazado 114588" d="M158.512,200.222a15.694,15.694,0,0,0,7.452,3.646c2.871.677,6.007.923,8.674-.337s4.6-4.426,3.64-7.216a3.488,3.488,0,0,0-3.655-2.485,15.485,15.485,0,0,0-1.83.686,5.889,5.889,0,0,1-4.965-1.043c-1.457-.973-2.658-2.28-4.059-3.331a6.677,6.677,0,0,0-4.86-1.59C153.561,189.383,156.011,197.8,158.512,200.222Z" fill="#fff"/>
              <ellipse id="Elipse_4724" data-name="Elipse 4724" cx="2.05" cy="3.3" rx="2.05" ry="3.3" transform="translate(156.75 170.364)"/>
              <ellipse id="Elipse_4725" data-name="Elipse 4725" cx="2.05" cy="3.3" rx="2.05" ry="3.3" transform="translate(178.063 168.739)"/>
              <path id="Trazado_114589" data-name="Trazado 114589" d="M155.755,193.535c3.09,2.99,10.34,8.14,22.34,6.37" fill="none" stroke="#d7d6d4" stroke-miterlimit="10" stroke-width="1"/>
              <path id="Trazado_114590" data-name="Trazado 114590" d="M128.08,183.735c-.1,2.9-.31,5.62-.53,7.88a9.661,9.661,0,0,1-12.73.58C118.53,193.525,123.35,192.535,128.08,183.735Z" fill="#f9bb91"/>
              <circle id="Elipse_4726" data-name="Elipse 4726" cx="4.388" cy="4.388" r="4.388" transform="translate(141.389 175.439)" fill="#f9bb91"/>
              <path id="Trazado_114591" data-name="Trazado 114591" d="M196.52,183.875a4.388,4.388,0,1,1-3.1-7.5,1.928,1.928,0,0,1,.24.01,20.957,20.957,0,0,1,2.75,6.93C196.45,183.495,196.49,183.685,196.52,183.875Z" fill="#f9bb91"/>
            </g>
          </g>
        </g>
      </g>
    </g>
  </g>
</svg>
