<svg xmlns="http://www.w3.org/2000/svg" width="20.338" height="20.338" viewBox="0 0 20.338 20.338">
  <g id="Grupo_80168" data-name="Grupo 80168" transform="translate(-3.462 -17.882)">
    <g id="Grupo_80129" data-name="Grupo 80129" transform="translate(3.462 17.882)">
      <path id="Trazado_113571" data-name="Trazado 113571" d="M3.907,18.773Z" transform="translate(6.261 1.558)" fill="#231f20"/>
      <path id="Trazado_113572" data-name="Trazado 113572" d="M21.076,18.552H3.523A10.166,10.166,0,0,0,12.288,23.6h0A10.175,10.175,0,0,0,21.076,18.552Z" transform="translate(-2.131 -3.259)" fill="#cd1225"/>
      <path id="Trazado_113573" data-name="Trazado 113573" d="M3.462,28.039v.023H23.8v-.023a10.169,10.169,0,0,0-20.338,0Z" transform="translate(-3.462 -17.882)" fill="#fbd023"/>
      <path id="Trazado_113574" data-name="Trazado 113574" d="M4.854,23.441H22.407A10.041,10.041,0,0,0,23.8,18.328H3.462A10.041,10.041,0,0,0,4.854,23.441Z" transform="translate(-3.462 -8.148)" fill="#053891"/>
    </g>
  </g>
</svg>
