<svg xmlns="http://www.w3.org/2000/svg" width="277.798" height="381.746" viewBox="0 0 277.798 381.746">
  <g id="Grupo_80902" data-name="Grupo 80902" transform="translate(-479.591 -75.644)">
    <path id="Trazado_114592" data-name="Trazado 114592" d="M504.844,341.868c3.8-31.986,21.393-60.6,29.591-91.755,6.139-23.323,6.912-47.665,9.931-71.592s8.664-48.356,23-67.746c19.112-25.841,53.405-39.5,85.05-33.879S711.554,107.158,720.592,138c11.657,39.775-6.031,81.979-5.053,123.416.542,23,6.85,45.423,10.656,68.116s4.946,46.84-4.322,67.9c-12.389,28.152-41.87,46-72.131,51.5-30.109,5.474-61.59.11-91.46-4.7-24.025-3.871-40.076-32.156-47.572-53.048A108.7,108.7,0,0,1,504.844,341.868Z" transform="translate(1.933)" fill="#ffdfe0"/>
    <g id="OBJECTS" transform="translate(480.13 146.124)">
      <g id="Grupo_80901" data-name="Grupo 80901" transform="translate(0 0)">
        <path id="Trazado_114593" data-name="Trazado 114593" d="M566.882,412.4l1.219,12.223S617.892,439.656,673.6,422.7a50.068,50.068,0,0,1-3.266-16.612S595.866,425.074,566.882,412.4Z" transform="translate(-473.142 -119.506)" fill="#db1e1b"/>
        <path id="Trazado_114594" data-name="Trazado 114594" d="M569.927,299.124c-.42-.341-11.968-9.585-8.207-23s12.028-15.489,15.075-27.53,2.766-20.078,0-38.713-4.817-31.8,15.528-52.314,58.811-24.79,79.84,2.393c6.155-2.052,15.386-1.881,14.874,22.566s1.025,45.647,9.06,57.1,17.438,33.337,12.822,47.015S609.076,330.923,569.927,299.124Z" transform="translate(-473.619 -140.87)" fill="#ff5467"/>
        <path id="Trazado_114595" data-name="Trazado 114595" d="M581.44,274.09s24.935-26.992,20.6-54.886,56.308-30.893,63.981-20.023,1.5,49.016,17.447,69.061S591.739,294.92,581.44,274.09Z" transform="translate(-471.97 -136.644)" fill="#db1e1b"/>
        <path id="Trazado_114596" data-name="Trazado 114596" d="M651.243,247.582c-1.426,12.718-12.027,23.4-23.664,23.88s-22.919-9.347-25.2-21.914c4.441.335,8.623-3.123,10.481-7.575.022-.043.043-.1.065-.14,2.334-5.716-1.416-14.771,4.063-18.164,2.118-1.307,23.772-5.673,23.75-5.414a89.773,89.773,0,0,0,.367,17.948c.108.832.227,1.675.378,2.5a15.5,15.5,0,0,0,2.3,6.224C645.516,247.377,648.682,248.868,651.243,247.582Z" transform="translate(-470.283 -134.637)" fill="#ffcdab"/>
        <path id="Trazado_114597" data-name="Trazado 114597" d="M640.7,238.7c-7.348,4-20.1,9.228-28.624,3.274.022-.043.043-.1.065-.14,2.334-5.716-1.416-14.771,4.063-18.164,2.118-1.307,23.772-5.673,23.75-5.414a89.773,89.773,0,0,0,.367,17.948C640.434,237.036,640.553,237.879,640.7,238.7Z" transform="translate(-469.502 -134.637)" fill="#f7c39f"/>
        <g id="Grupo_80898" data-name="Grupo 80898" transform="translate(0 91.195)">
          <path id="Trazado_114598" data-name="Trazado 114598" d="M583.312,350.436c-1.394,2.809-3.08,6.235-5.176,9.66-3.263,5.338-7.521,10.719-13.248,13.917a23.119,23.119,0,0,1-15.1,2.658c-21.687-3.166-38.954-72.343-42.639-88.227a.04.04,0,0,1-.011-.032c-.238-.638-3.609-9.7-5.284-12.372a2.273,2.273,0,0,0-.573-.692c-1.329-.767-4.528.346-7.65-5.068s-5.489-13.377-7.834-16.554-6.116-6.613-5.63-9.541,2.842-2.021,4.452-.767,8.018,9.844,10.579,11.994-10.038-18.078-9.779-20.033a8.7,8.7,0,0,1,3.371-6.159,12.41,12.41,0,0,1,5.749-2.139c3.382,3.9,10.568,21.449,11.67,22.205.032.032.065.043.086.032a.1.1,0,0,0,.043-.1c.216-1.621-6.937-22.076-5.414-23.253,1.578-1.221,5.813-.951,6.862,1.653s6.321,22.81,6.321,22.81.27-12.091,2.982-12.61,5.23-.951,4.441,7.142,1.794,16.2-1.016,20.682-3.069,4.128-.756,8.309a80.3,80.3,0,0,1,4.4,10.1c0,.011.011.011.011.022,21.784,37.441,29.488,59.5,29.488,59.5l1.243-2,3.587-5.738S576.872,340.03,583.312,350.436Z" transform="translate(-480.13 -225.267)" fill="#ffcdab"/>
          <path id="Trazado_114599" data-name="Trazado 114599" d="M499.375,225.967c1.578-1.221,5.813-.951,6.862,1.653s6.321,22.81,6.321,22.81" transform="translate(-478.58 -225.267)" fill="none" stroke="#e89879" stroke-linecap="round" stroke-linejoin="round" stroke-width="1"/>
          <path id="Trazado_114600" data-name="Trazado 114600" d="M493.465,226.945c3.49,4.02,11.022,22.562,11.756,22.238" transform="translate(-479.056 -225.132)" fill="none" stroke="#e89879" stroke-linecap="round" stroke-linejoin="round" stroke-width="1"/>
          <path id="Trazado_114601" data-name="Trazado 114601" d="M480.165,242.92c.5-2.917,2.842-2.021,4.452-.767S492.635,252,495.2,254.147" transform="translate(-480.128 -224.002)" fill="none" stroke="#e89879" stroke-linecap="round" stroke-linejoin="round" stroke-width="1"/>
          <path id="Trazado_114602" data-name="Trazado 114602" d="M505.157,265.994s-.947-10.106,6.706-16.54" transform="translate(-478.118 -223.319)" fill="none" stroke="#e89879" stroke-linecap="round" stroke-linejoin="round" stroke-width="1"/>
          <path id="Trazado_114603" data-name="Trazado 114603" d="M492.064,256.974s4.962-5.871,15.519-10.48" transform="translate(-479.169 -223.557)" fill="none" stroke="#e89879" stroke-linecap="round" stroke-linejoin="round" stroke-width="1"/>
          <line id="Línea_181" data-name="Línea 181" x2="11.95" y2="23.142" transform="translate(8.669 3.955)" fill="none" stroke="#e89879" stroke-linecap="round" stroke-linejoin="round" stroke-width="1"/>
          <path id="Trazado_114604" data-name="Trazado 114604" d="M563.269,370.267a23.119,23.119,0,0,1-15.1,2.658c-21.687-3.166-38.954-72.343-42.639-88.227a.04.04,0,0,1-.011-.032c-.238-.638-3.609-9.7-5.284-12.372a11.351,11.351,0,0,0,5.273-.508C506.875,279.025,531.695,369.64,563.269,370.267Z" transform="translate(-478.511 -221.52)" fill="#f7c39f"/>
          <path id="Trazado_114605" data-name="Trazado 114605" d="M577.738,342.193c-1.394,2.809-3.08,6.235-5.176,9.66-10.73-.357-19.979-13.356-23.232-18.521l3.587-5.738S571.3,331.788,577.738,342.193Z" transform="translate(-474.556 -217.024)" fill="#f7c39f"/>
        </g>
        <path id="Trazado_114606" data-name="Trazado 114606" d="M741.622,330.119c-.292,13.334-37.6,45.967-51.91,58.966l-13.853-9.336,1.243-1.891c3.739-5.662,14.987-22.681,21.643-32.244,8.061-11.573,12.891-13.237,12.891-13.237l-.4-.486-1.275-1.534-3.155-3.782,15.225-15.787a.134.134,0,0,1,.032-.022l2.464-2.561s.378.249,1.016.724a55.185,55.185,0,0,1,5.673,4.884C735.172,317.692,739.764,323.376,741.622,330.119Z" transform="translate(-464.364 -127.391)" fill="#ffcdab"/>
        <path id="Trazado_114607" data-name="Trazado 114607" d="M719.238,328.7C713.155,333.827,679.7,378.1,679.7,378.1l-2.691-1.891c3.739-5.662,14.987-22.681,21.643-32.244,8.061-11.573,12.891-13.237,12.891-13.237l-.4-.486A39.638,39.638,0,0,1,719.238,328.7Z" transform="translate(-464.271 -125.74)" fill="#f7c39f"/>
        <path id="Trazado_114608" data-name="Trazado 114608" d="M728.91,313.759c-5.068,9.358-15.927,14.5-21.254,16.543L704.5,326.52l15.225-15.787a.135.135,0,0,1,.032-.022,10.219,10.219,0,0,1,3.479-1.837A55.172,55.172,0,0,1,728.91,313.759Z" transform="translate(-462.057 -127.337)" fill="#f7c39f"/>
        <path id="Trazado_114609" data-name="Trazado 114609" d="M553.006,347.969s-.389-2.267-4.835-13.217" transform="translate(-474.65 -125.252)" fill="none" stroke="#e8a685" stroke-linecap="round" stroke-linejoin="round" stroke-width="1"/>
        <path id="Trazado_114610" data-name="Trazado 114610" d="M526.559,285.447a4.814,4.814,0,0,0,1.856-2.752c.179-1.365-.746-2.6-1.617-3.668a2.516,2.516,0,0,0-.83-.751c-.979-.454-2.014.44-2.766,1.212a27.655,27.655,0,0,1-13.462,7.587,24.209,24.209,0,0,0-4.5,1.216,5.166,5.166,0,0,0-3.075,3.287C500.024,300.67,524.047,287.676,526.559,285.447Z" transform="translate(-478.366 -129.812)" fill="#db1e1b"/>
        <path id="Trazado_114611" data-name="Trazado 114611" d="M525.777,298.9a22.427,22.427,0,0,0,7.063-4.959,2.282,2.282,0,0,0,.723-1.7,2.19,2.19,0,0,0-.544-1.039,8.7,8.7,0,0,0-2.832-2.257,69.99,69.99,0,0,1-18.566,9.206,13.653,13.653,0,0,0-3.688,1.56c-4.147,2.874-1.083,6.619,2.929,5.746C515.908,304.359,521.2,301.234,525.777,298.9Z" transform="translate(-478.05 -128.942)" fill="#db1e1b"/>
        <path id="Trazado_114612" data-name="Trazado 114612" d="M635.826,164.718s-30.6-8.378-37.269,7.18-9.916,42.569-8.548,45.305,14.7,18.977,32.141,19.147,28.38-19.147,28.38-19.147,14.19,2.564,18.806-8.036-1.2-25.3-13.506-16.583C644.374,195.662,633.432,177.2,635.826,164.718Z" transform="translate(-471.304 -139.131)" fill="#ffcdab"/>
        <path id="Trazado_114613" data-name="Trazado 114613" d="M609.223,191.108c-1.213,2.556-3.577,4.331-5.516,6.39a1.606,1.606,0,0,0-.573,1.111,1.654,1.654,0,0,0,.327.764c.588.905,1.319,1.9,2.393,2.007" transform="translate(-470.222 -136.823)" fill="none" stroke="#e89879" stroke-linecap="round" stroke-linejoin="round" stroke-width="1"/>
        <path id="Trazado_114614" data-name="Trazado 114614" d="M655.358,198.746a24.684,24.684,0,0,0-4.394,4.866" transform="translate(-466.369 -136.208)" fill="none" stroke="#e89879" stroke-linecap="round" stroke-linejoin="round" stroke-width="1"/>
        <path id="Trazado_114615" data-name="Trazado 114615" d="M653.129,200.909a5.943,5.943,0,0,1,2.712,2.772" transform="translate(-466.195 -136.034)" fill="none" stroke="#e89879" stroke-linecap="round" stroke-linejoin="round" stroke-width="1"/>
        <path id="Trazado_114616" data-name="Trazado 114616" d="M596.454,182.372a6.979,6.979,0,0,1,8.765-.182" transform="translate(-470.76 -137.659)" fill="none" stroke="#1a1a1a" stroke-linecap="round" stroke-linejoin="round" stroke-width="1.5"/>
        <path id="Trazado_114617" data-name="Trazado 114617" d="M618.263,181.077a7.549,7.549,0,0,1,10.05.483" transform="translate(-469.004 -137.767)" fill="none" stroke="#1a1a1a" stroke-linecap="round" stroke-linejoin="round" stroke-width="1.5"/>
        <path id="Trazado_114618" data-name="Trazado 114618" d="M618.591,189.717a8.049,8.049,0,0,1,9.959,2.1" transform="translate(-468.977 -137.008)" fill="none" stroke="#1a1a1a" stroke-linecap="round" stroke-linejoin="round" stroke-width="1.5"/>
        <path id="Trazado_114619" data-name="Trazado 114619" d="M596.491,191.65a6.228,6.228,0,0,1,8.671-1.345" transform="translate(-470.757 -136.984)" fill="none" stroke="#1a1a1a" stroke-linecap="round" stroke-linejoin="round" stroke-width="1.5"/>
        <path id="Trazado_114620" data-name="Trazado 114620" d="M629.713,203.264a39.347,39.347,0,0,1-17.429,13.961,11.6,11.6,0,0,1-3.976-1.9c-1.923-1.588-2.68-4.819-.886-6.559.983-.962,2.442-1.21,3.771-1.567a19.6,19.6,0,0,0,8.774-5.014,19.354,19.354,0,0,1,3.49-3.166,3.962,3.962,0,0,1,4.441-.032,4.4,4.4,0,0,1,1.113,1.6A8.93,8.93,0,0,1,629.713,203.264Z" transform="translate(-469.959 -136.243)" fill="#fefefe"/>
        <path id="Trazado_114621" data-name="Trazado 114621" d="M628.28,208.762a18.148,18.148,0,0,1-5.6,6.678c-2.215,1.7-5,3.134-7.8,2.28-.94-.292-1.988-.551-3.036-.864A39.347,39.347,0,0,0,629.274,202.9,11.46,11.46,0,0,1,628.28,208.762Z" transform="translate(-469.521 -135.874)"/>
        <path id="Trazado_114622" data-name="Trazado 114622" d="M571.82,348.378c.011-.054.022-.108.032-.173C571.831,348.324,571.82,348.378,571.82,348.378Z" transform="translate(-472.745 -124.169)" fill="#3a8ec1" opacity="0.36"/>
        <path id="Trazado_114623" data-name="Trazado 114623" d="M571.85,348.45c.238-1.243.465-2.388.7-3.425C572.185,346.84,571.947,348.018,571.85,348.45Z" transform="translate(-472.742 -124.425)" fill="#3a8ec1" opacity="0.36"/>
        <g id="Grupo_80900" data-name="Grupo 80900" transform="translate(73.52 113.117)">
          <g id="Grupo_80899" data-name="Grupo 80899">
            <path id="Trazado_114624" data-name="Trazado 114624" d="M687.994,254.491c-.767.746-1.524,1.47-2.28,2.172-49.954,46.6-95.791,18.467-111.664,5.846a44.342,44.342,0,0,1,2.982-4.862c10.643-14.652,32.233-10.481,32.233-10.481s1.934,14.5,18.056,16.943,23.534-18.553,23.534-18.553,18.3,1.232,30.212,5.446a35.286,35.286,0,0,1,4.6,1.967A17.535,17.535,0,0,1,687.994,254.491Z" transform="translate(-546.085 -245.555)" fill="#194f97"/>
            <path id="Trazado_114625" data-name="Trazado 114625" d="M727.013,309.2c-4.193,17.084-28.051,23.21-28.051,23.21s-1.534-1.307-3.955-3.425c-1.621-1.416-3.641-3.188-5.857-5.176a93.952,93.952,0,0,0,15.344-11.184,68.742,68.742,0,0,0,13.766-16.738A117.625,117.625,0,0,1,727.013,309.2Z" transform="translate(-536.814 -241.501)" fill="#194f97"/>
            <path id="Trazado_114626" data-name="Trazado 114626" d="M719.217,297.093a68.742,68.742,0,0,1-13.766,16.738,93.952,93.952,0,0,1-15.344,11.184c-4.02-3.609-8.688-7.91-12.837-12.027a76.592,76.592,0,0,0,23.362-22.151,93.754,93.754,0,0,0,6.148-9.952C711.307,286.515,715.641,292.155,719.217,297.093Z" transform="translate(-537.771 -242.709)" fill="#5ba2d6"/>
            <path id="Trazado_114627" data-name="Trazado 114627" d="M707.72,282.189a93.754,93.754,0,0,1-6.148,9.952,76.592,76.592,0,0,1-23.362,22.151H678.2c-2.4-2.366-4.6-4.657-6.418-6.71l-.011-.011c-.605-.692-1.167-1.362-1.675-1.988-.173-.227-.346-.432-.508-.648-.432-.746-.832-1.513-1.21-2.291a51.7,51.7,0,0,1-2.777-7.24c.065-.043.141-.086.216-.14,3.177-1.967,7.8-5.6,13.518-12.135.227-.249.443-.5.659-.756.141-.162.281-.335.421-.5.583-.681,1.167-1.394,1.772-2.139,1.027-1.275,2.075-2.626,3.144-4.074.335-.432.659-.886.994-1.34.972-1.34,1.956-2.745,2.971-4.236v-.011c1.145-1.686,2.323-3.479,3.512-5.381C697.563,269.892,702.771,276.03,707.72,282.189Z" transform="translate(-538.711 -244.013)" fill="#194f97"/>
            <path id="Trazado_114628" data-name="Trazado 114628" d="M701.1,265.571c-1.189,1.9-2.366,3.7-3.512,5.381v.011c-1.016,1.491-2,2.9-2.971,4.236-.335.454-.659.908-.994,1.34-1.07,1.448-2.118,2.8-3.144,4.074-.605.746-1.189,1.459-1.772,2.139-.141.162-.281.335-.421.5-.216.259-.432.508-.659.756-5.716,6.537-10.341,10.168-13.518,12.135-.076.054-.151.1-.216.14a51.7,51.7,0,0,0,2.777,7.24c-1.016.335-2.031.67-3.036.983-.756.238-1.5.465-2.247.681-.573.173-1.156.346-1.729.508-1.761.519-3.5.983-5.208,1.426-.4.1-.789.205-1.189.292-.843.216-1.675.421-2.507.605-.94.227-1.869.432-2.788.627q-3.242.7-6.354,1.232c-.918.162-1.826.3-2.734.443-.119.022-.238.043-.357.054-.886.14-1.772.27-2.647.378-.681.1-1.372.184-2.042.259-.432.054-.865.108-1.3.151-1.47.162-2.907.3-4.322.411l-1.264.1a.666.666,0,0,1-.14.011c-.616.043-1.232.086-1.837.119-.778.043-1.545.076-2.3.108a2.546,2.546,0,0,1-.281.011c-.81.032-1.6.054-2.388.076-24.669.486-40.964-6.073-47.425-9.282a.234.234,0,0,1-.054-.032c.065-.454.14-.9.205-1.34-.13-.011-.259-.011-.378-.032a19.131,19.131,0,0,1-1.977-.205h-.022c-8.709-1.253-14.4-6.678-17.689-11.108v-.011c4.182-10.849,8.58-21.309,12.307-28.138,15.873,12.621,61.71,40.758,111.664-5.846.756-.7,1.513-1.426,2.28-2.172A103.985,103.985,0,0,1,701.1,265.571Z" transform="translate(-547.003 -244.889)" fill="#5ba2d6"/>
            <path id="Trazado_114629" data-name="Trazado 114629" d="M583.39,298.641c-.065.443-.14.886-.205,1.34-1.081,7.045-2.42,15.528-3.847,23.718h-.011c-11.746,1.3-20-5.77-24.918-12.081,2.583-7.369,5.684-15.96,8.915-24.323,3.285,4.43,8.979,9.855,17.689,11.108h.022A23.175,23.175,0,0,0,583.39,298.641Z" transform="translate(-547.667 -242.193)" fill="#194f97"/>
            <path id="Trazado_114630" data-name="Trazado 114630" d="M579.83,321.886c-.162.94-.324,1.88-.5,2.809-.281,1.556-.562,3.1-.843,4.614-.184.972-.367,1.923-.551,2.863l-.065.324c-.162.821-.324,1.642-.475,2.442-.13.638-.259,1.275-.389,1.9-.011.032-.011.065-.022.1-.27,1.232-.508,2.41-.767,3.544a.254.254,0,0,1-.022.086q-.357,1.588-.713,3.047c-.054,0-.119-.011-.173-.011-21.071-1.6-27.143-13.939-27.143-13.939s.205-.627.573-1.761c1.016-3.047,3.263-9.79,6.17-18.1,3.782,4.862,9.552,10.168,17.365,11.756a23.7,23.7,0,0,0,7.067.367c.011.011.011,0,.022,0C579.517,321.918,579.679,321.907,579.83,321.886Z" transform="translate(-548.17 -240.38)" fill="#5ba2d6"/>
            <path id="Trazado_114631" data-name="Trazado 114631" d="M674.524,319.625c-.681,9.39-1.027,20.779-1.253,32.589-2.7,1.07-5.349,2.053-7.931,2.972-51.467,18.261-81.765,8.061-94.43,1.2.324-2.053.659-3.976.983-5.705.011-.054.022-.108.032-.173V350.5c.238-1.243.465-2.388.7-3.425.032-.173.076-.346.108-.519.151-.67.3-1.3.454-1.859.022-.065.032-.13.054-.195.032-.151.076-.3.119-.454.13-.443.259-.854.378-1.21a.238.238,0,0,1-.086-.011q.357-1.459.713-3.047a.254.254,0,0,0,.022-.086c.259-1.135.5-2.312.767-3.544.011-.032.011-.065.022-.1.13-.627.259-1.264.389-1.9.151-.8.313-1.621.475-2.442l.065-.324c.184-.94.367-1.891.551-2.863.281-1.513.562-3.058.843-4.614,13.031,3.89,46.442,10.579,93.8-3.306C672.363,320.284,673.444,319.96,674.524,319.625Z" transform="translate(-546.338 -239.589)" fill="#194f97"/>
            <path id="Trazado_114632" data-name="Trazado 114632" d="M673.5,349.785c-.151,7.121-.259,14.393-.367,21.481q-8.169,2.917-15.765,5.046c-46.928,13.226-77.3,5.251-89.362.562.994-8.158,2.064-16.262,3.134-22.919,12.664,6.862,42.963,17.062,94.43-1.2C668.156,351.838,670.8,350.855,673.5,349.785Z" transform="translate(-546.572 -237.159)" fill="#5ba2d6"/>
            <path id="Trazado_114633" data-name="Trazado 114633" d="M673.328,369.665c-.162,9.358-.324,18.391-.616,26.29-28.926,9.174-53.919,10.33-72.991,8.688a143.441,143.441,0,0,1-34.081-6.916c.713-6.678,1.588-14.587,2.561-22.454,12.059,4.69,42.433,12.664,89.362-.562Q665.164,372.572,673.328,369.665Z" transform="translate(-546.763 -235.558)" fill="#194f97"/>
            <path id="Trazado_114634" data-name="Trazado 114634" d="M672.846,393.995c-.216,5.662-.486,10.751-.875,14.966-43.19,22.238-107.99,4.419-107.99,4.419s.173-1.8.475-4.852c.313-3.123.767-7.575,1.318-12.761a143.441,143.441,0,0,0,34.081,6.916C618.926,404.325,643.919,403.169,672.846,393.995Z" transform="translate(-546.896 -233.598)" fill="#5ba2d6"/>
            <path id="Trazado_114635" data-name="Trazado 114635" d="M676.723,302.169c-1.221,4.03-2.053,10.535-2.647,18.531-.011.195-.032.389-.043.583-1.081.335-2.161.659-3.22.973-47.361,13.885-80.771,7.2-93.8,3.306.173-.929.335-1.869.5-2.809h.011c1.426-8.191,2.766-16.673,3.847-23.718a.234.234,0,0,0,.054.032c9.725,4.83,41.72,17.246,91.058,1.794,1-.313,2.021-.648,3.036-.983C675.891,300.656,676.291,301.423,676.723,302.169Z" transform="translate(-545.847 -241.247)" fill="#5ba2d6"/>
            <path id="Trazado_114636" data-name="Trazado 114636" d="M573.02,342.964c.022-.065.032-.13.054-.195.032-.151.076-.3.119-.454.086-.4.195-.81.292-1.221" transform="translate(-546.168 -237.859)" fill="none" stroke="#000" stroke-miterlimit="10" stroke-width="1"/>
            <path id="Trazado_114637" data-name="Trazado 114637" d="M584.166,283.735c-.549,1.477-4.588,27.162-10.673,62.915" transform="translate(-546.13 -242.48)" fill="none" stroke="#033b6d" stroke-linecap="round" stroke-linejoin="round" stroke-width="1"/>
            <path id="Trazado_114638" data-name="Trazado 114638" d="M670.263,303.759c-3.65-8.064-5.4-13.424-5.4-13.424" transform="translate(-538.77 -241.948)" fill="none" stroke="#033b6d" stroke-linecap="round" stroke-linejoin="round" stroke-width="1"/>
          </g>
          <path id="Trazado_114639" data-name="Trazado 114639" d="M679.956,305.282c-.605-.692-1.167-1.362-1.675-1.988-.173-.227-.346-.432-.508-.648-1.221,4.03-2.053,10.535-2.647,18.531-.011.195-.032.389-.043.583-.681,9.39-1.027,20.779-1.253,32.589-.151,7.121-.259,14.393-.367,21.481-.162,9.358-.324,18.391-.616,26.29-.216,5.662-.486,10.751-.875,14.966-43.19,22.238-107.99,4.419-107.99,4.419s.173-1.8.475-4.852c8.871-1.275,21.557-3.252,35.4-5.846,11.54-2.161,23.88-4.754,35.453-7.726,9.7-2.5,16.965-10.978,22.389-22.205a124.253,124.253,0,0,0,8.2-23.556,257.889,257.889,0,0,0,5.965-34.588c.929-8.569,1.416-16.079,1.664-21.395.238-5.143.259-8.223.259-8.223l1.124,2.2Z" transform="translate(-546.896 -241.724)" fill="#3a8ec1" opacity="0.14" style="mix-blend-mode: multiply;isolation: isolate"/>
          <path id="Trazado_114640" data-name="Trazado 114640" d="M728.306,312.846c-4.193,17.084-28.051,23.21-28.051,23.21s-1.534-1.307-3.955-3.425a21.242,21.242,0,0,0,9.487-16.36c.616-7.045-1.416-15.009-4.819-22.994a136.727,136.727,0,0,0-12.275-22.054v-.011c-3.771-5.641-7.629-10.773-10.957-14.955-1.729-2.161-3.3-4.063-4.646-5.662a35.286,35.286,0,0,1,4.6,1.967,17.535,17.535,0,0,1,2.323,1.524,103.985,103.985,0,0,1,12.189,11.746c4.754,5.2,9.963,11.335,14.912,17.494,4.528,5.63,8.861,11.27,12.437,16.208A117.625,117.625,0,0,1,728.306,312.846Z" transform="translate(-538.107 -245.149)" fill="#3a8ec1" opacity="0.14" style="mix-blend-mode: multiply;isolation: isolate"/>
          <path id="Trazado_114641" data-name="Trazado 114641" d="M584.12,294.445q-.276,1.815-.551,3.6c-1.4,9.023-2.863,17.57-4.2,25.123-.162.918-.324,1.815-.475,2.7-1.4,7.748-2.658,14.285-3.577,18.974-21.071-1.6-27.143-13.939-27.143-13.939s.205-.627.573-1.761c4.517,1.859,14.62,4.236,23.534-6.343,4.16-4.96,8.072-12.75,11.022-24.777v-.011c.27-1.1.529-2.237.789-3.415C584.1,294.542,584.109,294.5,584.12,294.445Z" transform="translate(-548.17 -241.617)" fill="#3a8ec1" opacity="0.14" style="mix-blend-mode: multiply;isolation: isolate"/>
        </g>
        <path id="Trazado_114642" data-name="Trazado 114642" d="M691.735,383.751c-1.61,1.459-2.917,2.669-3.868,3.577-3.058,15.041-12.167,26.452-17.753,30.093-1.48.962-2.712,1.383-3.523,1.178-3.868-.973-8.7-11.929-10.308-14.285-1.394-2.031-8.147-2.161-4.409-10.806a32.587,32.587,0,0,1,2.474-4.571c8.374-13.215,23.534-14.523,23.534-14.523Z" transform="translate(-466.386 -122.058)" fill="#ffcdab"/>
        <path id="Trazado_114643" data-name="Trazado 114643" d="M690.461,390.923c2.118-.781,3.238-3.265,3.054-5.516a11.821,11.821,0,0,0-2.793-6.066c-2.844-3.665-6.462-6.644-10.046-9.59-5.223-4.293-8.079,2.008-4.655,6.225C680.328,381.283,685.708,386,690.461,390.923Z" transform="translate(-464.471 -122.549)" fill="#f2852f"/>
        <path id="Trazado_114644" data-name="Trazado 114644" d="M670.113,416c-1.48.962-2.712,1.383-3.523,1.178-3.868-.973-8.7-11.929-10.308-14.285-1.394-2.031-8.147-2.161-4.409-10.806.778,2.7,2.291,5.208,5.165,4.873,6.073-.713,2.853,5.921,5.716,7.791s-1.264.8,2.226,4.365A37.133,37.133,0,0,1,670.113,416Z" transform="translate(-466.386 -120.634)" fill="#f7c39f"/>
        <path id="Trazado_114645" data-name="Trazado 114645" d="M608.654,242.5c-1.01,9.264-2.023,18.576-1.526,27.881s2.578,18.686,7.366,26.681a6.94,6.94,0,0,0,1.908,2.283c2.539,1.722,6-.195,8.018-2.506a39.1,39.1,0,0,0,5.629-9.494,282.54,282.54,0,0,0,16.861-46.781" transform="translate(-469.911 -132.84)" fill="none" stroke="#1a1a1a" stroke-linecap="round" stroke-linejoin="round" stroke-width="1.5"/>
        <ellipse id="Elipse_4727" data-name="Elipse 4727" cx="3.707" cy="4.998" rx="3.707" ry="4.998" transform="translate(145.706 166.648)" fill="#f8d429"/>
      </g>
    </g>
  </g>
</svg>
