<svg xmlns="http://www.w3.org/2000/svg" width="250.173" height="268" viewBox="0 0 250.173 268">
  <g id="Grupo_80932" data-name="Grupo 80932" transform="translate(-143.723 -32.045)">
    <path id="Trazado_114646" data-name="Trazado 114646" d="M274.765,153.931c-1.55,23.991-19.953,46.9-44.875,48.318-28.625,2.193-54.9-13.505-83.415-13.671-14.54-1.247-28.176,4.321-42.345,6.118-32,1.175-36.879-36.434-30.911-60.675C98.39,19.738,276.507,35.287,274.765,153.931Z" transform="translate(84.545 -1.289)" fill="#6b8dff"/>
    <g id="Grupo_80927" data-name="Grupo 80927" transform="translate(225.016 32.045)">
      <path id="Trazado_114647" data-name="Trazado 114647" d="M438.694,371.957l-38.229,1.955L390.27,441.753h37.435l8.4-51.942,19.382,51.942h36.77l-19.129-78.068Z" transform="translate(-361.431 -173.754)" fill="#af3737"/>
      <g id="Grupo_80925" data-name="Grupo 80925">
        <path id="Trazado_114648" data-name="Trazado 114648" d="M467.882,293.221c-23.83,17.983-47.666,7.594-47.666,7.594L411.98,195.449a11.225,11.225,0,0,0,4.146,3.018,12.967,12.967,0,0,0,9.272-.069c6.557-2.434,8.762-6.2,9.5-8.556l.2-.727v-.023c.195-.865.269-1.1.269-1.1l-.991-.074,3.906-1.008Z" transform="translate(-370.707 -98.218)" fill="#6bb2ab"/>
        <path id="Trazado_114649" data-name="Trazado 114649" d="M451.924,212.024a1.324,1.324,0,0,0-1.454-1.16l-34.008,7.867-9.716,2.248a1.356,1.356,0,0,0-1.16,1.454,1.324,1.324,0,0,0,1.454,1.16l34.008-7.868,9.716-2.248A1.356,1.356,0,0,0,451.924,212.024Z" transform="translate(-367.971 -108.443)" fill="#f4e9dc"/>
        <path id="Trazado_114650" data-name="Trazado 114650" d="M450.95,233.838l-36.45,12.2-10.325,3.455c-1.605.538-.648,2.988.956,2.451l36.45-12.2,10.325-3.455C453.511,235.751,452.555,233.3,450.95,233.838Z" transform="translate(-367.019 -118.238)" fill="#f4e9dc"/>
        <path id="Trazado_114651" data-name="Trazado 114651" d="M464.358,268.93a1.327,1.327,0,0,0-1.454-1.16l-42.172,7.307-11.9,2.062a1.346,1.346,0,0,0-1.16,1.454,1.328,1.328,0,0,0,1.454,1.16l42.172-7.307,11.9-2.062A1.346,1.346,0,0,0,464.358,268.93Z" transform="translate(-368.863 -132.762)" fill="#f4e9dc"/>
        <path id="Trazado_114652" data-name="Trazado 114652" d="M468.707,295.5a1.347,1.347,0,0,0-1.7-.747L427.795,305.43l-11.13,3.031a1.324,1.324,0,0,0-.747,1.7,1.347,1.347,0,0,0,1.7.747l39.208-10.678,11.13-3.031A1.325,1.325,0,0,0,468.707,295.5Z" transform="translate(-372.355 -144.271)" fill="#f4e9dc"/>
        <path id="Trazado_114653" data-name="Trazado 114653" d="M471.218,330.88q-18.772,2.642-37.7,3.972-5.311.372-10.628.639c-1.689.085-1.394,2.7.294,2.614q18.933-.955,37.769-3.228,5.285-.639,10.557-1.382C473.183,333.259,472.9,330.643,471.218,330.88Z" transform="translate(-374.887 -159.729)" fill="#f4e9dc"/>
        <path id="Trazado_114654" data-name="Trazado 114654" d="M476.124,350.428q-20,3.041-39.791,7.24-5.58,1.185-11.14,2.461a1.356,1.356,0,0,0-1.16,1.454,1.323,1.323,0,0,0,1.454,1.16q19.713-4.522,39.666-7.895,5.624-.949,11.264-1.806C478.085,352.789,477.8,350.172,476.124,350.428Z" transform="translate(-375.854 -168.081)" fill="#f4e9dc"/>
        <path id="Trazado_114655" data-name="Trazado 114655" d="M609.96,45.627a51.684,51.684,0,0,1-8.443,10.359,50.978,50.978,0,0,1-8.157,15.956,17.108,17.108,0,0,0-12.471-5.4c-1.025-3.724-.262-7.774-1.033-11.585-.609-3.027-2.192-5.893-2.139-8.98a1.785,1.785,0,0,1,.539-1.47,1.289,1.289,0,0,1,1.268-.071,3.157,3.157,0,0,1,1.03.824,22.8,22.8,0,0,1,3.7,6.449,91.656,91.656,0,0,1,10.584-18.5,3,3,0,0,1,1.168-1.084,1.044,1.044,0,0,1,1.369.465,1.513,1.513,0,0,1-.14,1.055q-2.762,7.013-5.52,14.036l.027.01a78.452,78.452,0,0,1,7.587-12.372,13.14,13.14,0,0,1,2.354-2.584,1.5,1.5,0,0,1,1.25-.407,1.1,1.1,0,0,1,.71,1.023,3.18,3.18,0,0,1-.28,1.287c-1.524,4.047-3.315,7.99-5.139,11.908q3.326-5.263,7.039-10.278c.448-.606,1.156-1.285,1.844-.974.574.254.675,1.026.595,1.651a11.539,11.539,0,0,1-1.58,3.968c-1.687,3.04-3.421,6.051-5.159,9.061a31.4,31.4,0,0,1,7.2-6.024,3.04,3.04,0,0,1,1.028-.453,1.082,1.082,0,0,1,1.031.328C610.621,44.337,610.3,45.076,609.96,45.627Z" transform="translate(-441.526 -32.045)" fill="#f99958"/>
        <path id="Trazado_114656" data-name="Trazado 114656" d="M381.048,192.506l-1.82-8.453s-4.708,4.271-5.323,10.267c0,0-17,13.6-21.093,19.3s-12.835,45.537-12.9,50.3c-.1,8.043,32.35,36.706,32.35,36.706-4.608,5.334-.979,13.4-.979,13.4a35.391,35.391,0,0,0,23.787,1.947Zm-14.538,70.149,7.947-26.632,1.679,41.92Z" transform="translate(-339.914 -96.997)" fill="#f2b34e"/>
        <path id="Trazado_114657" data-name="Trazado 114657" d="M536.914,94.485s-9.553,42.374-18.521,49.59S487,174.034,487,174.034l4.095,36.6,9.163,36.229s4.192,3.3,3.705,10.618-23.784,16.379-23.784,16.379L467.7,209.518l-20.354-61.067-.578-1.73-5.784-9.295c3-.739,9.169,2.3,9.169,2.3l27.3-2.537,26.316-11.254,16.769-34.763c.315-.086.624-.166.928-.235a19.053,19.053,0,0,1,14.827,3.087C536.7,94.308,536.914,94.485,536.914,94.485Z" transform="translate(-383.099 -57.022)" fill="#f2b34e"/>
        <path id="Trazado_114658" data-name="Trazado 114658" d="M466.866,203.5a77.066,77.066,0,0,0-4.319-16.84,75.309,75.309,0,0,0-4.126-8.99c-.159-.294-.651-.107-.49.191a76.141,76.141,0,0,1,9.082,33.235,74.9,74.9,0,0,1-.264,9.818c-.031.336.488.42.519.082A76.156,76.156,0,0,0,466.866,203.5Z" transform="translate(-390.328 -94.208)" fill="#ea8c11"/>
        <path id="Trazado_114659" data-name="Trazado 114659" d="M411,246.494a95.677,95.677,0,0,1-11.347-42.863c-.008-.338-.531-.278-.523.059a96.043,96.043,0,0,0,11.38,43C410.67,246.979,411.162,246.792,411,246.494Z" transform="translate(-365.217 -105.266)" fill="#ea8c11"/>
        <path id="Trazado_114660" data-name="Trazado 114660" d="M519.247,200.206q-.348,6.914-.7,13.828l-.2,3.914c-.017.334.5.42.52.082q.348-6.914.7-13.828l.2-3.913C519.783,199.954,519.264,199.868,519.247,200.206Z" transform="translate(-416.16 -103.808)" fill="#ea8c11"/>
        <path id="Trazado_114661" data-name="Trazado 114661" d="M526.733,205.591q-2.349,6.8-4.09,13.794c-.082.328.438.409.519.082q1.722-6.915,4.05-13.659C527.322,205.491,526.843,205.272,526.733,205.591Z" transform="translate(-417.989 -106.134)" fill="#ea8c11"/>
        <path id="Trazado_114662" data-name="Trazado 114662" d="M556.407,156.659a18.074,18.074,0,0,0-4.094-3.8c-.279-.188-.615.218-.333.407a17.642,17.642,0,0,1,4,3.7C556.191,157.234,556.617,156.926,556.407,156.659Z" transform="translate(-430.483 -83.647)" fill="#ea8c11"/>
        <path id="Trazado_114663" data-name="Trazado 114663" d="M400.137,261.053l-.049,7.8c0,.337.521.277.523-.059l.049-7.8C400.662,260.657,400.14,260.718,400.137,261.053Z" transform="translate(-365.626 -129.778)" fill="#ea8c11"/>
        <path id="Trazado_114664" data-name="Trazado 114664" d="M418.111,388.463c-1.757.657-5.47-9.537-5.47-9.537s-2.256,6.612-7.264,8.29l-1.541-8.995-.105-.589a1.259,1.259,0,0,0,.132-.1,32.484,32.484,0,0,0,8.321-10.021c-.058-.079-.116-.152-.174-.231.221.137.436.289.652.447a11.4,11.4,0,0,1,3.9,5.639C419.411,381.782,419.868,387.805,418.111,388.463Z" transform="translate(-367.182 -175.29)" fill="#f99958"/>
        <path id="Trazado_114665" data-name="Trazado 114665" d="M409.7,359.281c-.021.037-.042.079-.063.116a33.768,33.768,0,0,1-1.909,3.151,33.1,33.1,0,0,1-6.917,7.343c-.873.679-1.783,1.315-2.72,1.9a.575.575,0,0,1-.415-.031c-.31-.242-.621-.479-.931-.72a.262.262,0,0,1,.332-.405c.278.216.557.426.836.642A31.082,31.082,0,0,0,400.7,369.3a1.255,1.255,0,0,0,.132-.1,32.484,32.484,0,0,0,8.321-10.021c-.058-.079-.116-.152-.174-.231q-4.135-5.515-8.606-10.757c-.221-.258.206-.568.426-.31q4.592,5.381,8.827,11.057a.247.247,0,0,1,.037.074A.218.218,0,0,1,409.7,359.281Z" transform="translate(-364.157 -166.96)" fill="#ea8c11"/>
        <path id="Trazado_114666" data-name="Trazado 114666" d="M410.637,387.79c-.93,3.756-4.008,6.424-7.2,8.328-.992.592-2.015,1.129-3.044,1.655-.3.152-.111.644.191.49,3.56-1.819,7.2-3.9,9.333-7.416a10.658,10.658,0,0,0,1.242-2.975C411.237,387.543,410.717,387.463,410.637,387.79Z" transform="translate(-365.691 -183.964)" fill="#ea8c11"/>
        <path id="Trazado_114667" data-name="Trazado 114667" d="M612.836,56.966a17.879,17.879,0,0,0-.821,2.3.264.264,0,0,0,.218.3.269.269,0,0,0,.3-.219,16.762,16.762,0,0,1,.781-2.163A.263.263,0,0,0,612.836,56.966Z" transform="translate(-456.179 -42.629)" fill="#d36d29"/>
        <path id="Trazado_114668" data-name="Trazado 114668" d="M610.853,62.583a29.154,29.154,0,0,0-9.945-3.609.263.263,0,0,0-.082.519,28.749,28.749,0,0,1,9.81,3.569C610.928,63.234,611.142,62.753,610.853,62.583Z" transform="translate(-451.309 -43.55)" fill="#d36d29"/>
        <path id="Trazado_114669" data-name="Trazado 114669" d="M590.868,69.59a21.781,21.781,0,0,0-1.674-3.862.265.265,0,0,0-.368-.058.269.269,0,0,0-.058.368,21.074,21.074,0,0,1,1.609,3.744C590.481,70.1,590.971,69.912,590.868,69.59Z" transform="translate(-446.229 -46.392)" fill="#d36d29"/>
        <path id="Trazado_114670" data-name="Trazado 114670" d="M601.04,69.585c-.223-.25-.651.057-.425.309a15.556,15.556,0,0,1,3.709,7.552c.06.33.584.275.523-.059A16.054,16.054,0,0,0,601.04,69.585Z" transform="translate(-451.283 -48.046)" fill="#d36d29"/>
        <path id="Trazado_114671" data-name="Trazado 114671" d="M527.106,369.639a34.218,34.218,0,0,1-11.88-7.133,33.634,33.634,0,0,1-2.766-2.876c-.219-.256-.646.051-.425.309a34.72,34.72,0,0,0,11.158,8.64,34.256,34.256,0,0,0,3.7,1.538C527.206,370.229,527.426,369.751,527.106,369.639Z" transform="translate(-413.434 -171.98)" fill="#ea8c11"/>
      </g>
      <g id="Grupo_80926" data-name="Grupo 80926" transform="translate(20.08 41.611)">
        <path id="Trazado_114672" data-name="Trazado 114672" d="M408.337,116.8l3,7.87-28.968,11.034-3-7.87a16.821,16.821,0,0,1-1.152-6.366,4.921,4.921,0,0,1-2.411-1.1,1.942,1.942,0,0,1-.719-2.152,2.492,2.492,0,0,1,1.667-1.3c-.879-.639-1.709-1.561-1.165-2.691s1.788-1.334,2.924-1.367c-.662-1.206-1.246-2.723-.277-3.919a2.1,2.1,0,0,1,1.961-.7,4.22,4.22,0,0,1,1.628.652,6.5,6.5,0,0,1,.168-3.312,1.232,1.232,0,0,1,1.019-.872,1.987,1.987,0,0,1,1.427.526,14.545,14.545,0,0,0,2.758,1.8,12.754,12.754,0,0,0,1.612.625C396.67,104.912,405.016,108.083,408.337,116.8Z" transform="translate(-374.975 -104.702)" fill="#af3737"/>
        <path id="Trazado_114673" data-name="Trazado 114673" d="M413.6,137.769c-.194.1-.4.185-.613.267l.884,2.321a12.551,12.551,0,0,1,.815,4.637,12.771,12.771,0,0,1-.849,4.393l0,.005a11.152,11.152,0,0,1-.494,1.111,12.594,12.594,0,0,1-15.871,6.169,12.937,12.937,0,0,1-1.3-.581,12.619,12.619,0,0,1-6.02-6.73l-.879-2.322a7.42,7.42,0,0,1-1.055.317c-5.917,1.314-8.928-6.151-6.937-8.9.055-.077.117-.152.176-.219a2.668,2.668,0,0,1,2.921-.96,4.3,4.3,0,0,1,1.188.533l-.208-7.773a32.927,32.927,0,0,0,9.5-2.213c1.062-.4,2-.8,2.815-1.2a19.793,19.793,0,0,0,4.8-2.953,43.208,43.208,0,0,0,4.125,3.6c.048.038.1.074.143.109a12.637,12.637,0,0,0,1.465.979c.1.057.194.112.293.164a6.1,6.1,0,0,0,.947.433.98.98,0,0,0,.1.039,4.342,4.342,0,0,1,.326-.991,2.88,2.88,0,0,1,1.843-1.692,3.121,3.121,0,0,1,1.537,0C416.649,127.055,419.417,134.985,413.6,137.769Z" transform="translate(-377.41 -112.808)" fill="#f99958"/>
        <path id="Trazado_114674" data-name="Trazado 114674" d="M433.139,181.815l-.057.195c-.733,2.354-2.938,6.122-9.5,8.556a12.967,12.967,0,0,1-9.272.069,11.225,11.225,0,0,1-4.146-3.018l-.137-1.724-.618-2.875-1.672-7.737a12.626,12.626,0,0,0,17.662-6.7l1.374,2.211,5.784,9.295Z" transform="translate(-388.975 -131.997)" fill="#f99958"/>
        <path id="Trazado_114675" data-name="Trazado 114675" d="M425.408,168.582s-.33,13.684-15.991,14.437l-1.669-7.738a12.626,12.626,0,0,0,17.66-6.7Z" transform="translate(-388.978 -131.998)" fill="#d36d29"/>
        <path id="Trazado_114676" data-name="Trazado 114676" d="M415.435,151.463q-2.033,1.142-4.107,2.206-1.038-5.052-2.223-10.072c-.083-.352-.62-.182-.537.17q1.227,5.186,2.294,10.407c.04.2.277.226.422.151q2.252-1.15,4.457-2.389C416.057,151.758,415.75,151.286,415.435,151.463Z" transform="translate(-389.326 -121.239)" fill="#d36d29"/>
        <circle id="Elipse_4728" data-name="Elipse 4728" cx="2.211" cy="2.211" r="2.211" transform="translate(13.91 30.746)" fill="#d36d29"/>
        <circle id="Elipse_4729" data-name="Elipse 4729" cx="2.211" cy="2.211" r="2.211" transform="translate(29.811 22.813)" fill="#d36d29"/>
        <ellipse id="Elipse_4730" data-name="Elipse 4730" cx="1.585" cy="1.956" rx="1.585" ry="1.956" transform="translate(12.869 25.789) rotate(-26.515)" fill="#36344c"/>
        <ellipse id="Elipse_4731" data-name="Elipse 4731" cx="1.585" cy="1.956" rx="1.585" ry="1.956" transform="translate(23.81 20.811) rotate(-26.515)" fill="#36344c"/>
        <path id="Trazado_114677" data-name="Trazado 114677" d="M397.71,142.947a1.137,1.137,0,0,0-.8-.291l-.3.052a1.119,1.119,0,0,0-.5.317l-1.947,1.71a1.125,1.125,0,0,0-.291.8,1.151,1.151,0,0,0,.369.793,1.137,1.137,0,0,0,.8.291l.3-.052a1.121,1.121,0,0,0,.5-.318l1.947-1.71a1.127,1.127,0,0,0,.291-.8A1.154,1.154,0,0,0,397.71,142.947Z" transform="translate(-383.053 -120.918)" fill="#36344c"/>
        <path id="Trazado_114678" data-name="Trazado 114678" d="M413.56,135.368a1.136,1.136,0,0,1,.247-.812l.22-.206a1.116,1.116,0,0,1,.552-.205l2.536-.527a1.127,1.127,0,0,1,.812.247,1.15,1.15,0,0,1,.412.773,1.138,1.138,0,0,1-.247.812l-.22.206a1.116,1.116,0,0,1-.552.205l-2.536.527a1.127,1.127,0,0,1-.812-.247A1.15,1.15,0,0,1,413.56,135.368Z" transform="translate(-391.461 -117.053)" fill="#36344c"/>
        <path id="Trazado_114679" data-name="Trazado 114679" d="M425.627,161.039a4.577,4.577,0,0,1-3.213,3.214c-1.316.357-3.2.179-3.445-1.468-.237-1.6,1.257-2.635,2.688-2.73.005,0,.01.006.016.006a4.168,4.168,0,0,1,.568-1.81,1.982,1.982,0,0,1,1.915-1.147C425.838,157.4,425.98,159.739,425.627,161.039Z" transform="translate(-393.763 -127.084)" fill="#f4e9dc"/>
      </g>
    </g>
    <g id="Grupo_80931" data-name="Grupo 80931" transform="translate(143.723 85.328)">
      <g id="Grupo_80928" data-name="Grupo 80928" transform="translate(31.419 121.685)">
        <path id="Trazado_114680" data-name="Trazado 114680" d="M329.515,430.588h-30.5l-8.215-51.4-8.916,51.4H253.6s-1.813-32.666.14-58.078c1.032-13.49,5.009-23.133,8.51-29.214,0,0,2.468,5.923,7.162,7.726,9.467,3.642,21.18,4.636,32.506-12.164l15.037-1.3a18.115,18.115,0,0,1,1.172,1.473,35.962,35.962,0,0,1,4.413,9.417v.01C330.076,371.4,329.515,430.588,329.515,430.588Z" transform="translate(-252.83 -337.556)" fill="#6bb2ab"/>
        <path id="Trazado_114681" data-name="Trazado 114681" d="M314.524,343.5l-.152,17.3-.04,4.563-3.579.055.55-16.683.158-4.789c.011-.334-.509-.42-.519-.082l-.56,16.99-.158,4.789a.27.27,0,0,0,.289.3l4.108-.063c.154,0,.231-.16.233-.291l.152-17.3.042-4.85C315.05,343.1,314.527,343.164,314.524,343.5Z" transform="translate(-277.354 -339.974)" fill="#389688"/>
        <path id="Trazado_114682" data-name="Trazado 114682" d="M305.053,395.982l-9.454-9.739-2.695-2.775c-.236-.243-.566.167-.333.407l9.454,9.739,2.695,2.776C304.956,396.632,305.287,396.222,305.053,395.982Z" transform="translate(-269.777 -357.142)" fill="#389688"/>
        <path id="Trazado_114683" data-name="Trazado 114683" d="M301.879,403.332q-4.206-1.579-8.546-2.756c-.326-.089-.406.432-.082.519q4.267,1.159,8.41,2.716C301.977,403.929,302.2,403.451,301.879,403.332Z" transform="translate(-270.013 -364.48)" fill="#389688"/>
      </g>
      <g id="Grupo_80929" data-name="Grupo 80929" transform="translate(50.212)">
        <path id="Trazado_114684" data-name="Trazado 114684" d="M357.714,190.251c-2.756,8.153-13.382,7.49-17.99,14.092-10.047,11.352-13.666,3.219-22.829-2.762-7.049-3.12-16.386.758-22.229-5.355-5.181-7.417,1.073-13.456-7.485-21.288-4.271-5.786,1.615-11.867,2.646-17.716,1.425-7.485.21-15.849,4.361-22.593,6.1-9.894,19.915-13.03,28.447-4.939,4.14,3.219,4.992,8.337,6.628,13.024a16.79,16.79,0,0,0,6.049,8.069c8.09,5.823,5.449,4.492,7.679,16.385C347.83,176.269,362.116,175.385,357.714,190.251Z" transform="translate(-285.645 -125.082)" fill="#36344c"/>
        <path id="Trazado_114685" data-name="Trazado 114685" d="M357.182,216.4c-47.978,12.856-62.985-9.836-65.394-14.228-.105-.195-.184-.363-.242-.479a2.167,2.167,0,0,1-.116-.237l14.271-1.22.01-1.257.094-8.079a11.722,11.722,0,0,0,16.485-.447l2.557,9.431c4.54.657,13.724,2.067,18.889,3.424,7.054,1.857,11.372,9.658,11.372,9.658Z" transform="translate(-288.117 -153.015)" fill="#d36d29"/>
        <path id="Trazado_114686" data-name="Trazado 114686" d="M352.631,228.289l7.786-18.773,1.834.325-.675,18.447S359.211,231.213,352.631,228.289Z" transform="translate(-314.268 -161.16)" fill="#f2b34e"/>
        <path id="Trazado_114687" data-name="Trazado 114687" d="M332.965,190.457s-4.366,6.91-16.555,6.587l.071-6.145a11.717,11.717,0,0,0,16.484-.443Z" transform="translate(-298.791 -153.017)" fill="#aa3617"/>
        <path id="Trazado_114688" data-name="Trazado 114688" d="M329,158.1l.143,2.2a11.27,11.27,0,0,1-22.492,1.454l-.143-2.2c-6.273.4-7.094-7.469-4.544-9.384a2.646,2.646,0,0,1,3.849.629c.094.111,11.09-5.872,15.356-10.336.548-.575,1.079-1.159,1.592-1.766l.066.056c.137.53.294,1.052.467,1.572a26.328,26.328,0,0,0,5.139,9.01l.014.19s1.346-2.728,3.85-1.316a3.438,3.438,0,0,1,1.36,1.66c.045.105.086.217.127.329C334.8,153.1,333.79,157.791,329,158.1Z" transform="translate(-292.04 -130.9)" fill="#d36d29"/>
        <path id="Trazado_114689" data-name="Trazado 114689" d="M329.645,168.534q-2.058.235-4.125.392.891-4.5,1.65-9.017c.053-.318-.445-.363-.5-.046q-.782,4.671-1.707,9.316c-.035.174.148.28.293.269q2.242-.167,4.475-.422C330.053,168.99,329.965,168.5,329.645,168.534Z" transform="translate(-302.445 -139.852)" fill="#aa3617"/>
        <circle id="Elipse_4732" data-name="Elipse 4732" cx="1.965" cy="1.965" r="1.965" transform="translate(16.112 25.514)" fill="#aa3617"/>
        <circle id="Elipse_4733" data-name="Elipse 4733" cx="1.965" cy="1.965" r="1.965" transform="translate(31.872 24.495)" fill="#aa3617"/>
        <ellipse id="Elipse_4734" data-name="Elipse 4734" cx="1.408" cy="1.739" rx="1.408" ry="1.739" transform="matrix(0.998, -0.065, 0.065, 0.998, 17.883, 20.487)" fill="#36344c"/>
        <ellipse id="Elipse_4735" data-name="Elipse 4735" cx="1.408" cy="1.739" rx="1.408" ry="1.739" transform="matrix(0.998, -0.065, 0.065, 0.998, 28.561, 20.179)" fill="#36344c"/>
        <path id="Trazado_114690" data-name="Trazado 114690" d="M318.638,156.119a1.013,1.013,0,0,0-.553-.513l-.262-.06a.992.992,0,0,0-.515.09l-2.184.729a1,1,0,0,0-.513.553,1.024,1.024,0,0,0,.029.777,1.01,1.01,0,0,0,.553.513l.262.06a1,1,0,0,0,.515-.089l2.184-.73a1,1,0,0,0,.513-.553A1.021,1.021,0,0,0,318.638,156.119Z" transform="translate(-297.995 -138.097)" fill="#36344c"/>
        <path id="Trazado_114691" data-name="Trazado 114691" d="M334.533,155.2a1.012,1.012,0,0,1,.483-.58l.251-.093a1,1,0,0,1,.523.022l2.26.442a1,1,0,0,1,.58.482,1.024,1.024,0,0,1,.071.775,1.013,1.013,0,0,1-.482.58l-.252.093a1,1,0,0,1-.522-.022l-2.26-.442a1,1,0,0,1-.58-.482A1.025,1.025,0,0,1,334.533,155.2Z" transform="translate(-306.515 -137.651)" fill="#36344c"/>
        <path id="Trazado_114692" data-name="Trazado 114692" d="M334.3,181.652a4.048,4.048,0,0,1-3.91,1.514c-1.307-.225-3.244-1.477-2.523-3.057.564-1.222,2.182-1.155,3.28-.66a3.566,3.566,0,0,1,.736-.8,2.247,2.247,0,0,1,2.033-.364,1.6,1.6,0,0,1,1.074,1.42A2.921,2.921,0,0,1,334.3,181.652Z" transform="translate(-303.619 -147.769)" fill="#f4e9dc"/>
      </g>
      <g id="Grupo_80930" data-name="Grupo 80930" transform="translate(0 32.215)">
        <path id="Trazado_114693" data-name="Trazado 114693" d="M245.088,236.922l-.284,19.636c-3.9,7.974-9.968,12-16.422,11.467-11.663-.967-19.447-50.56-19.447-50.555s-.005-.011-.01-.016c-1.972-2.683-2.945-5.965-4.093-9.105a78.2,78.2,0,0,0-6.48-13.539c-.274-.463-.558-1.063-.247-1.5a1.155,1.155,0,0,1,1.268-.284,5.977,5.977,0,0,1,2.825,2.357q2.312,2.951,4.618,5.9a86.056,86.056,0,0,1-3.056-12.693,9.851,9.851,0,0,1,.068-4.04,1.13,1.13,0,0,1,.631-.841.808.808,0,0,1,.763.231,2.137,2.137,0,0,1,.452.694,38.094,38.094,0,0,1,1.7,4.582q1.514,4.672,3.024,9.353h.01a95.851,95.851,0,0,1-2.346-15.607,2.332,2.332,0,0,1,.079-.878.8.8,0,0,1,.631-.548,1.044,1.044,0,0,1,.816.432,7.725,7.725,0,0,1,1.273,2.167,54.791,54.791,0,0,1,2.183,6.544c.652,2.272,1.31,4.539,1.957,6.807-.7-4.961-1.368-10-.642-14.955.074-.484.247-1.073.731-1.178s.884.347,1.125.768a16.451,16.451,0,0,1,1.594,5.376q1.334,7.574,3.062,15.065a56.917,56.917,0,0,1,5.208-8.753,3.011,3.011,0,0,1,.852-.878,1.041,1.041,0,0,1,1.152,0,1.522,1.522,0,0,1,.31,1.457c-.51,3.2-1.972,6.159-2.819,9.284-.578,2.141-.862,4.345-1.425,6.486a13.433,13.433,0,0,1-2.677,5.533L229.6,234.6l2.467-6.207A58.331,58.331,0,0,0,245.088,236.922Z" transform="translate(-197.969 -181.333)" fill="#d36d29"/>
        <path id="Trazado_114694" data-name="Trazado 114694" d="M396.279,304.2c-8.125,6.036-32.045,19.109-32.045,19.109v.01l.451,11.661c-5.245-.606-8.821-6.607-8.821-6.607s-1.523,10.739-3.376,10.463-2.655-6.271-1.608-15.092a10.854,10.854,0,0,1,8.942-9.853l17.94-19.481-3.417-6.442c4.969-1.338,12.483-4.058,18.434-9.242l4.011,7.65S404.4,298.169,396.279,304.2Z" transform="translate(-263.108 -222.949)" fill="#d36d29"/>
        <path id="Trazado_114695" data-name="Trazado 114695" d="M353.424,249.217c-5.951,5.185-13.465,7.9-18.434,9.242a47.346,47.346,0,0,1-5.325,1.147l-6.146-8.471-6.838,31.773-15.038,1.3c-11.326,16.8-21.393,19.01-33.837,12.558-4.464-2.314-5.831-8.12-5.831-8.12a37.81,37.81,0,0,1,5.831-7.97l.171-12.017.281-19.636a58.442,58.442,0,0,1-13.024-8.53,25.876,25.876,0,0,1-3.036-3.076,191.545,191.545,0,0,1,8.26-18.569,17.376,17.376,0,0,1,14.206-9.187s.036.085.116.24c.06.116.14.281.245.476,2.409,4.393,17.417,27.085,65.395,14.231Z" transform="translate(-221.141 -193.439)" fill="#f4e9dc"/>
        <path id="Trazado_114696" data-name="Trazado 114696" d="M222.352,209.692a33.708,33.708,0,0,0-9.6,3.9c-.291.174.021.6.309.425a32.9,32.9,0,0,1,9.352-3.806C222.736,210.138,222.682,209.614,222.352,209.692Z" transform="translate(-204.235 -193.447)" fill="#aa3617"/>
        <path id="Trazado_114697" data-name="Trazado 114697" d="M229.062,239.624a31.285,31.285,0,0,0-5.8,2.975c-.284.185.026.61.309.426a30.647,30.647,0,0,1,5.684-2.91A.263.263,0,0,0,229.062,239.624Z" transform="translate(-208.728 -206.232)" fill="#aa3617"/>
        <path id="Trazado_114698" data-name="Trazado 114698" d="M261.268,288.574l-7.25-13.482c-.158-.294-.651-.107-.49.191l7.25,13.482C260.936,289.059,261.428,288.872,261.268,288.574Z" transform="translate(-221.695 -221.332)" fill="#aa3617"/>
        <path id="Trazado_114699" data-name="Trazado 114699" d="M360.534,361.074a.269.269,0,0,0-.3.219l-.585,2.291a.265.265,0,0,0,.219.3.268.268,0,0,0,.3-.219l.585-2.291A.265.265,0,0,0,360.534,361.074Z" transform="translate(-267.051 -258.134)" fill="#aa3617"/>
        <path id="Trazado_114700" data-name="Trazado 114700" d="M371.59,349.657l-1.645-3.466c-.144-.3-.636-.116-.49.191l1.645,3.467C371.244,350.152,371.736,349.964,371.59,349.657Z" transform="translate(-271.232 -251.71)" fill="#aa3617"/>
        <path id="Trazado_114701" data-name="Trazado 114701" d="M370.2,372.045a17.4,17.4,0,0,1-10.6-6.819.263.263,0,0,0-.425.309,17.809,17.809,0,0,0,10.944,7.029C370.451,372.631,370.532,372.111,370.2,372.045Z" transform="translate(-266.829 -259.864)" fill="#389688"/>
        <path id="Trazado_114702" data-name="Trazado 114702" d="M279.742,249.481c0-.337-.524-.277-.522.059q.033,7.091.066,14.184c0,.338.525.278.523-.058Q279.775,256.573,279.742,249.481Z" transform="translate(-232.687 -210.356)" fill="#e2cab0"/>
        <path id="Trazado_114703" data-name="Trazado 114703" d="M304.273,276.316a13.624,13.624,0,0,1-7.644,4.7,13.485,13.485,0,0,1-12.943-4.379c-.219-.255-.647.052-.426.309a14.191,14.191,0,0,0,8.155,4.672,14.021,14.021,0,0,0,13.265-4.965A.263.263,0,0,0,304.273,276.316Z" transform="translate(-234.387 -221.878)" fill="#e2cab0"/>
        <path id="Trazado_114704" data-name="Trazado 114704" d="M352.682,276.72a13.618,13.618,0,0,1-7.644,4.7,13.488,13.488,0,0,1-12.943-4.378c-.219-.255-.647.052-.426.309a14.191,14.191,0,0,0,8.155,4.672,14.02,14.02,0,0,0,13.264-4.965A.263.263,0,0,0,352.682,276.72Z" transform="translate(-255.072 -222.05)" fill="#e2cab0"/>
        <path id="Trazado_114705" data-name="Trazado 114705" d="M372.426,273.333q-2.618-5.153-5.73-10.03c-.183-.286-.608.025-.426.309q3.074,4.814,5.665,9.912C372.088,273.822,372.58,273.635,372.426,273.333Z" transform="translate(-269.865 -216.31)" fill="#e2cab0"/>
        <path id="Trazado_114706" data-name="Trazado 114706" d="M342.23,328.576l-3.57,5.1c-.194.276.212.611.407.333l3.57-5.1C342.83,328.634,342.424,328.3,342.23,328.576Z" transform="translate(-258.064 -244.205)" fill="#e2cab0"/>
        <path id="Trazado_114707" data-name="Trazado 114707" d="M306.118,344.082a26.748,26.748,0,0,1-11.573,7.823A16.98,16.98,0,0,1,281,350.744a13.427,13.427,0,0,1-4.971-4.953c-.167-.294-.591.018-.426.309a14.768,14.768,0,0,0,10.559,7.013,20.657,20.657,0,0,0,14.215-3.4,31.238,31.238,0,0,0,6.149-5.3C306.753,344.164,306.345,343.832,306.118,344.082Z" transform="translate(-231.125 -250.837)" fill="#e2cab0"/>
        <path id="Trazado_114708" data-name="Trazado 114708" d="M401.407,302.7a.269.269,0,0,0-.367-.058l-2.395,1.42a.265.265,0,0,0-.058.368.269.269,0,0,0,.368.058l2.394-1.42A.265.265,0,0,0,401.407,302.7Z" transform="translate(-283.671 -233.147)" fill="#aa3617"/>
      </g>
      <path id="Trazado_114709" data-name="Trazado 114709" d="M335.392,205.867a15.964,15.964,0,0,1-19.834.554c-.271-.2-.6.2-.333.407a16.491,16.491,0,0,0,20.476-.535C335.96,206.076,335.653,205.649,335.392,205.867Z" transform="translate(-248.029 -159.576)" fill="#eddac5"/>
      <circle id="Elipse_4736" data-name="Elipse 4736" cx="2.498" cy="2.498" r="2.498" transform="translate(74.148 50.277)" fill="#f2b34e"/>
    </g>
  </g>
</svg>
