<svg xmlns="http://www.w3.org/2000/svg" width="217" height="255" viewBox="0 0 217 255">
  <g id="Grupo_82962" data-name="Grupo 82962" transform="translate(-834 -3238)">
    <path id="Rectángulo_34017" data-name="Rectángulo 34017" d="M80,0H217a0,0,0,0,1,0,0V241a14,14,0,0,1-14,14H14A14,14,0,0,1,0,241V80A80,80,0,0,1,80,0Z" transform="translate(834 3238)" fill="#6b8dff"/>
    <g id="Grupo_80942" data-name="Grupo 80942" transform="translate(632.143 3214.585)">
      <path id="Trazado_114780" data-name="Trazado 114780" d="M274.765,153.931c-1.55,23.991-19.953,46.9-44.875,48.318-28.625,2.193-54.9-13.505-83.415-13.671-14.54-1.247-28.176,4.321-42.345,6.118-32,1.175-36.879-36.434-30.911-60.675C98.39,19.738,276.507,35.287,274.765,153.931Z" transform="translate(138.885 -22.918)" fill="#ffd947"/>
      <g id="Grupo_80937" data-name="Grupo 80937" transform="translate(209.904 49.416)">
        <g id="Grupo_80933" data-name="Grupo 80933" transform="translate(0 10.009)">
          <path id="Trazado_114710" data-name="Trazado 114710" d="M365.82,178.834l-.932.548-1.054.623-15.932,9.4-1.389.82-4.072-7.473-7.585,16.027-7.213,15.234c.431,2,.825,4.285,1.193,6.814.532,3.667,1,7.846,1.41,12.37a132.643,132.643,0,0,1-17.353-2.581c-23.256-5.153-32.555-15.117-35.573-19.36,3-5.749,5.243-9.379,5.243-9.379l.49-23.464-6.116,4.045-1.065-1.554-11.263-16.443-1.086-1.587s14.851-12.663,23.07-13.855c.155-.021.308-.038.458-.053,4.9-.463,10.88-.585,14.846-.612h.1v.6a13.884,13.884,0,0,0,26.966-.639c1.709,0,3.689.006,5.792.032a46.941,46.941,0,0,1,9.241.815c4.4.931,8.714,2.97,11.274,7.473C359.725,164.478,365.82,178.834,365.82,178.834Z" transform="translate(-236.272 -108.061)" fill="#6bb2ab"/>
          <path id="Trazado_114711" data-name="Trazado 114711" d="M334.119,301.231q-3.026.759-6.073,1.256c-2.694.447-5.387.756-8.059.937-23.629,1.655-45.65-5.951-49.78-7.474a177.5,177.5,0,0,1,10.4-23.794c3.018,4.243,12.317,14.207,35.573,19.36a132.645,132.645,0,0,0,17.353,2.581c.187,2.033.362,4.136.521,6.292C334.076,300.667,334.1,300.949,334.119,301.231Z" transform="translate(-239.559 -168.962)" fill="#e88846"/>
          <path id="Trazado_114712" data-name="Trazado 114712" d="M249.5,141.952c-.452.229-22.926,11.476-29.367,12.376-6.755.942-11.955-4.508-9.7-10.944l14.968-42.765c-1.373-7.74-6.015-14.468-8.927-21.777-.256-.638-.421-1.527.17-1.879.607-.356,1.31.245,1.751.793q2.866,3.577,5.626,7.234a65.531,65.531,0,0,1-2.63-12.5c-.064-.591-.037-1.336.5-1.591.655-.3,1.293.42,1.645,1.054a60.739,60.739,0,0,1,5.339,13.025,101.36,101.36,0,0,1-.75-14.037c.016-.751.207-1.709.947-1.826a1.11,1.11,0,0,1,1.006.5,3.257,3.257,0,0,1,.437,1.091,143.332,143.332,0,0,1,2.954,14.346,55.291,55.291,0,0,1,.479-14.064c.106-.655.314-1.416.932-1.65a1.325,1.325,0,0,1,1.485.628,3.892,3.892,0,0,1,.457,1.666q1.206,10.2,2.412,20.387a24.489,24.489,0,0,1,6.174-4.983c.623-.356,1.454-.67,2.012-.218a1.3,1.3,0,0,1,.283,1.453,4.248,4.248,0,0,1-.905,1.278,25.439,25.439,0,0,0-3.545,5.083c-1.1,2.065-1.911,4.28-3.135,6.271a17.972,17.972,0,0,1-3.823,3.878l-3.93,24.635,5.868-3.9Z" transform="translate(-209.904 -69.109)" fill="#e88846"/>
          <path id="Trazado_114713" data-name="Trazado 114713" d="M485.794,203.768c-13.861,15.3-25.737,24.561-33.444,29.713a9.677,9.677,0,0,1-14.026-3.678l-8.773-17.385,15.932-9.4,3.023,7.777,31.815-15.682Z" transform="translate(-317.92 -131.074)" fill="#e88846"/>
          <path id="Trazado_114714" data-name="Trazado 114714" d="M302.767,191.024q-.541,3.833-.755,7.7c-.018.339.507.426.526.083q.213-3.865.755-7.7A.266.266,0,0,0,302.767,191.024Z" transform="translate(-255.2 -128.957)" fill="#389688"/>
          <path id="Trazado_114715" data-name="Trazado 114715" d="M416.087,207a53.546,53.546,0,0,1-1.9-6c-.083-.331-.579-.135-.5.194a53.675,53.675,0,0,0,1.9,6A.266.266,0,0,0,416.087,207Z" transform="translate(-310.117 -133.887)" fill="#389688"/>
          <path id="Trazado_114716" data-name="Trazado 114716" d="M419.953,201.665q-.284,2.475-.57,4.951c-.039.34.487.424.526.083q.284-2.475.57-4.951C420.517,201.409,419.992,201.324,419.953,201.665Z" transform="translate(-312.919 -134.189)" fill="#389688"/>
          <path id="Trazado_114717" data-name="Trazado 114717" d="M326.935,223.125a15.656,15.656,0,0,1-16.982-4.066c-.23-.249-.663.061-.43.313a16.186,16.186,0,0,0,17.606,4.249A.266.266,0,0,0,326.935,223.125Z" transform="translate(-258.861 -142.805)" fill="#389688"/>
          <path id="Trazado_114718" data-name="Trazado 114718" d="M386.948,229.323a15.655,15.655,0,0,1-17.412-1.317c-.266-.21-.645.165-.376.377a16.183,16.183,0,0,0,18.058,1.4A.266.266,0,0,0,386.948,229.323Z" transform="translate(-288.176 -147.22)" fill="#389688"/>
          <path id="Trazado_114719" data-name="Trazado 114719" d="M249.535,97.909a38.909,38.909,0,0,0-11.167,1.868c-.326.1-.132.6.194.5a38.419,38.419,0,0,1,11.033-1.835C249.936,98.431,249.876,97.9,249.535,97.909Z" transform="translate(-223.819 -83.272)" fill="#c4532c"/>
          <path id="Trazado_114720" data-name="Trazado 114720" d="M250.918,135.122l-4.858-2.345c-.31-.149-.529.336-.22.485l4.858,2.345C251.007,135.755,251.226,135.271,250.918,135.122Z" transform="translate(-227.503 -100.405)" fill="#c4532c"/>
        </g>
        <g id="Grupo_80934" data-name="Grupo 80934" transform="translate(46.469)">
          <path id="Trazado_114721" data-name="Trazado 114721" d="M362.811,93.8l-.139,2.22a11.379,11.379,0,0,1-22.713-1.427l.139-2.22c-6.335-.4-6.148-8.389-3.348-9.981a2.672,2.672,0,0,1,3.774,1.123,1.817,1.817,0,0,1,.117.2l.016-.234a43.848,43.848,0,0,0,16.571-8.352c.623-.506,1.229-1.022,1.82-1.565l.058.064c.069.548.16,1.091.266,1.634a26.58,26.58,0,0,0,3.992,9.683l-.011.192s1.7-2.56,4.024-.825a3.475,3.475,0,0,1,1.15,1.837c.032.112.059.229.085.346C369.267,89.53,367.649,94.1,362.811,93.8Z" transform="translate(-317.84 -61.293)" fill="#e88846"/>
          <path id="Trazado_114722" data-name="Trazado 114722" d="M366.182,139.618a13.886,13.886,0,0,1-26.966.639v-.6h.107c2.385-.016,3.987.01,4.12.01l.181-1.3,1.081-7.734a11.322,11.322,0,0,0,15.852,1.6l1.033,7.415C362.584,139.628,364.2,139.618,366.182,139.618Z" transform="translate(-319.965 -89.353)" fill="#e88846"/>
          <path id="Trazado_114723" data-name="Trazado 114723" d="M362.587,100.527a46.942,46.942,0,0,0-9.241-.815c-2.1-.026-4.083-.032-5.792-.032-1.985,0-3.6.011-4.593.021l-1.033-7.415a11.33,11.33,0,0,0,4.242-8.144l.139-2.22c4.838.3,6.457-4.269,5.8-7.3-.026-.117-.053-.234-.085-.346a3.474,3.474,0,0,0-1.15-1.837c-2.326-1.735-4.024.825-4.024.825l.011-.192a26.58,26.58,0,0,1-3.992-9.683c-.107-.543-.2-1.086-.266-1.634l-.058-.064c-.591.543-1.2,1.059-1.82,1.565a43.848,43.848,0,0,1-16.571,8.352l-.133.032a2.672,2.672,0,0,0-3.774-1.123c-2.8,1.592-2.986,9.582,3.348,9.981l-.139,2.22a11.3,11.3,0,0,0,2.619,7.974l-1.261,9.038c-.133,0-1.735-.026-4.12-.01h-.2c-3.966.026-9.943.149-14.846.612-.149.016-.3.032-.458.053a6.345,6.345,0,0,1-3.753-6.845c.682-3.588,4.285-5.818,5.951-9.065,1.98-3.859.969-8.543,1.8-12.8a15.243,15.243,0,0,1,13.387-11.929,13.256,13.256,0,0,1,23.6-4.961c2.864-.484,5.887,1.272,7.421,3.8,1.666,2.731,1.873,6.122,1.5,9.3-.239,2.065-.687,4.253-.155,6.207.027.1.053.192.085.287a5.6,5.6,0,0,0,.3.745c.814,1.64,2.406,2.726,3.731,3.993a11.305,11.305,0,0,1,3.039,4.636,7.3,7.3,0,0,1-.325,5.446,4.931,4.931,0,0,0-.942,2.539,4.389,4.389,0,0,0,.91,1.847A8.375,8.375,0,0,1,362.587,100.527Z" transform="translate(-301.338 -49.416)" fill="#af3737"/>
          <path id="Trazado_114724" data-name="Trazado 114724" d="M365.6,104.885q-2.092-.028-4.181-.136,1.467-4.389,2.807-8.819c.094-.312-.4-.42-.493-.11q-1.381,4.578-2.9,9.111c-.057.171.113.3.259.307q2.266.12,4.535.151C365.947,105.394,365.922,104.889,365.6,104.885Z" transform="translate(-330.588 -72.145)" fill="#c4532c"/>
          <circle id="Elipse_4737" data-name="Elipse 4737" cx="1.984" cy="1.984" r="1.984" transform="translate(24.042 28.382)" fill="#c4532c"/>
          <circle id="Elipse_4738" data-name="Elipse 4738" cx="1.984" cy="1.984" r="1.984" transform="translate(39.956 29.38)" fill="#c4532c"/>
          <ellipse id="Elipse_4739" data-name="Elipse 4739" cx="1.756" cy="1.422" rx="1.756" ry="1.422" transform="translate(26.508 26.842) rotate(-86.41)" fill="#36344c"/>
          <ellipse id="Elipse_4740" data-name="Elipse 4740" cx="1.756" cy="1.422" rx="1.756" ry="1.422" transform="translate(37.242 27.902) rotate(-86.41)" fill="#36344c"/>
          <path id="Trazado_114725" data-name="Trazado 114725" d="M355.872,90.494a1.02,1.02,0,0,0-.488-.584l-.255-.094a1.01,1.01,0,0,0-.528.023l-2.281.451a1.011,1.011,0,0,0-.585.488,1.034,1.034,0,0,0-.07.782,1.02,1.02,0,0,0,.488.584l.255.094a1,1,0,0,0,.528-.023l2.281-.451a1.012,1.012,0,0,0,.585-.488A1.034,1.034,0,0,0,355.872,90.494Z" transform="translate(-326.065 -69.271)" fill="#36344c"/>
          <path id="Trazado_114726" data-name="Trazado 114726" d="M374.554,91.528a1.022,1.022,0,0,1,.557-.519l.264-.061a1,1,0,0,1,.52.089l2.207.732a1.012,1.012,0,0,1,.519.557,1.034,1.034,0,0,1-.028.785,1.02,1.02,0,0,1-.557.519l-.264.061a1.007,1.007,0,0,1-.52-.089l-2.207-.732a1.012,1.012,0,0,1-.519-.558A1.034,1.034,0,0,1,374.554,91.528Z" transform="translate(-337.299 -69.838)" fill="#36344c"/>
          <path id="Trazado_114727" data-name="Trazado 114727" d="M365.071,132.224s-5.032,6.088-16.673,4.283l.821-5.88a11.322,11.322,0,0,0,15.852,1.6Z" transform="translate(-324.481 -89.353)" fill="#c4532c"/>
          <path id="Trazado_114728" data-name="Trazado 114728" d="M369.475,121.449a4.087,4.087,0,0,1-4.109,1.014c-1.28-.392-3.06-1.895-2.136-3.384.721-1.152,2.334-.878,3.371-.24a3.578,3.578,0,0,1,.841-.712,2.267,2.267,0,0,1,2.082-.1,1.609,1.609,0,0,1,.893,1.559A2.944,2.944,0,0,1,369.475,121.449Z" transform="translate(-331.649 -83.054)" fill="#f4e9dc"/>
        </g>
        <g id="Grupo_80936" data-name="Grupo 80936" transform="translate(13.831 124.9)">
          <path id="Trazado_114729" data-name="Trazado 114729" d="M320.285,410.976H291.871l-7.841-62.47-15.985,62.47H237.119s9.177-65.43,14.8-85.551c.607-2.167,1.288-4.322,2.018-6.451,4.95,1.826,35.595,12.387,63.913,5.281C320.5,360.217,320.285,410.976,320.285,410.976Z" transform="translate(-237.119 -306.877)" fill="#f2b34e"/>
          <g id="Grupo_80935" data-name="Grupo 80935" transform="translate(7.995)">
            <path id="Trazado_114730" data-name="Trazado 114730" d="M328.028,350.417c-26.583-4-37.3-31.964-37.3-31.964-17.7,19.732-37.878,21.409-37.878,21.409.937-16.059,9.043-37.133,11.8-43.888a1.3,1.3,0,0,1,2.252-.261,55.873,55.873,0,0,0,24.81,19.727,61.741,61.741,0,0,0,34.376,2.869,1.082,1.082,0,0,1,1.293.82C330.6,333.777,328.028,350.417,328.028,350.417Z" transform="translate(-252.851 -295.172)" fill="#d36a3c"/>
            <path id="Trazado_114731" data-name="Trazado 114731" d="M318.075,337.779l-9.618,46.168s8.361,4.883,20.125,0l-5.031-43.208Z" transform="translate(-280.196 -316.125)" fill="#d36a3c"/>
            <path id="Trazado_114732" data-name="Trazado 114732" d="M327.381,340.979l.2,49.425s8.608,3.774,17.857-3.552l-12.578-44.54Z" transform="translate(-289.503 -317.698)" fill="#d36a3c"/>
            <path id="Trazado_114733" data-name="Trazado 114733" d="M333.054,336.636c-1.477,2.234-2.6,5.128-5.051,6.452-3.515.8-9.018-1.354-9.741-5.222-.45-2.716,2.312-10.2,6.116-9.236C327.327,329.764,334.854,332.545,333.054,336.636Z" transform="translate(-284.994 -311.583)" fill="#d36a3c"/>
            <path id="Trazado_114734" data-name="Trazado 114734" d="M336.55,343.581a8.221,8.221,0,0,1-3.619,4.563,8.117,8.117,0,0,1-6.489.721c-.323-.1-.546.382-.22.485a8.58,8.58,0,0,0,10.813-5.548C337.138,343.478,336.654,343.255,336.55,343.581Z" transform="translate(-288.854 -318.899)" fill="#c13a0a"/>
            <path id="Trazado_114735" data-name="Trazado 114735" d="M328.285,356.8q-.238,7.376-.477,14.753-.239,7.41-.479,14.819-.134,4.154-.269,8.307c-.011.337.515.425.526.083q.239-7.376.477-14.753l.479-14.819q.135-4.154.269-8.307C328.821,356.548,328.3,356.461,328.285,356.8Z" transform="translate(-289.345 -325.373)" fill="#c13a0a"/>
            <path id="Trazado_114736" data-name="Trazado 114736" d="M329.571,333.746a12.179,12.179,0,0,0-6.054,8.928.266.266,0,0,0,.526.083,11.678,11.678,0,0,1,5.841-8.581C330.183,334.01,329.867,333.581,329.571,333.746Z" transform="translate(-287.601 -314.123)" fill="#c13a0a"/>
            <path id="Trazado_114737" data-name="Trazado 114737" d="M302.536,328.411q-5.747-4.037-11.725-7.732-1.691-1.046-3.4-2.062c-.294-.175-.511.312-.22.485q5.975,3.559,11.735,7.463,1.645,1.115,3.272,2.259C302.478,329.02,302.817,328.608,302.536,328.411Z" transform="translate(-269.671 -306.683)" fill="#c13a0a"/>
            <path id="Trazado_114738" data-name="Trazado 114738" d="M299.38,335.422a124.749,124.749,0,0,1-12.67-3.326q-1.767-.565-3.516-1.183c-.321-.113-.543.371-.22.485a126.229,126.229,0,0,0,12.639,3.729q1.836.438,3.684.821C299.632,336.018,299.714,335.492,299.38,335.422Z" transform="translate(-267.587 -312.74)" fill="#c13a0a"/>
            <path id="Trazado_114739" data-name="Trazado 114739" d="M367.885,353.818q-6.752-1.99-13.35-4.46-1.867-.7-3.72-1.436c-.318-.126-.539.358-.22.485q6.6,2.625,13.387,4.771,1.9.6,3.821,1.166C368.13,354.44,368.21,353.913,367.885,353.818Z" transform="translate(-300.842 -321.103)" fill="#c13a0a"/>
            <path id="Trazado_114740" data-name="Trazado 114740" d="M358.822,359.393a71.94,71.94,0,0,1-11.263-8.657c-.251-.235-.586.178-.337.412a72.605,72.605,0,0,0,11.38,8.73C358.892,360.058,359.109,359.571,358.822,359.393Z" transform="translate(-299.217 -322.462)" fill="#c13a0a"/>
            <path id="Trazado_114741" data-name="Trazado 114741" d="M332.988,429.6c-.008-.342-.538-.282-.529.059q.05,2.022.1,4.044c.008.342.537.282.529-.059Q333.038,431.625,332.988,429.6Z" transform="translate(-292 -361.169)" fill="#c13a0a"/>
            <path id="Trazado_114742" data-name="Trazado 114742" d="M338.552,424.846c-.011-.342-.54-.282-.529.06q.1,3.206.2,6.412c.011.342.54.282.529-.059Q338.652,428.053,338.552,424.846Z" transform="translate(-294.736 -358.83)" fill="#c13a0a"/>
            <path id="Trazado_114743" data-name="Trazado 114743" d="M343.6,430.574a.266.266,0,0,0-.529.059q.223,1.628.446,3.255a.266.266,0,0,0,.529-.059Q343.824,432.2,343.6,430.574Z" transform="translate(-297.218 -361.647)" fill="#c13a0a"/>
            <path id="Trazado_114744" data-name="Trazado 114744" d="M348.952,429.593a46.748,46.748,0,0,1-1.206-5.906.266.266,0,0,0-.529.059,47.756,47.756,0,0,0,1.239,6.04C348.546,430.116,349.041,429.921,348.952,429.593Z" transform="translate(-299.256 -358.26)" fill="#c13a0a"/>
            <path id="Trazado_114745" data-name="Trazado 114745" d="M354.271,430.827l-.69-2.269a.266.266,0,1,0-.5.193l.691,2.269a.269.269,0,0,0,.345.151A.272.272,0,0,0,354.271,430.827Z" transform="translate(-302.136 -360.685)" fill="#c13a0a"/>
            <path id="Trazado_114746" data-name="Trazado 114746" d="M357.919,426.1l-2.078-4.929c-.133-.315-.63-.123-.5.193l2.078,4.93C357.556,426.612,358.053,426.421,357.919,426.1Z" transform="translate(-303.244 -357.057)" fill="#c13a0a"/>
            <path id="Trazado_114747" data-name="Trazado 114747" d="M312.839,417.254q-.392,2.368-.783,4.736a.266.266,0,0,0,.526.083q.392-2.368.783-4.736A.266.266,0,0,0,312.839,417.254Z" transform="translate(-281.964 -355.102)" fill="#c13a0a"/>
            <path id="Trazado_114748" data-name="Trazado 114748" d="M316.759,423.774q-.183,1.278-.365,2.555a.266.266,0,0,0,.525.083q.183-1.278.365-2.555A.266.266,0,0,0,316.759,423.774Z" transform="translate(-284.098 -358.308)" fill="#c13a0a"/>
            <path id="Trazado_114749" data-name="Trazado 114749" d="M322.7,418.134l-.455,5.77c-.026.339.5.425.526.083l.455-5.77C323.252,417.878,322.726,417.791,322.7,418.134Z" transform="translate(-286.976 -355.534)" fill="#c13a0a"/>
          </g>
        </g>
      </g>
      <g id="Grupo_80941" data-name="Grupo 80941" transform="translate(299.934 64.664)">
        <path id="Trazado_114750" data-name="Trazado 114750" d="M463.2,216.087l-.152,2.567c14.058,26.413,17.366,89.819,17.366,89.819-.828.193-1.647.381-2.465.554a114.41,114.41,0,0,1-29.437,2.434,120.655,120.655,0,0,1-18.891-2.358A118.692,118.692,0,0,1,397.9,297.937c-1.22-.656-1.865-1.047-1.865-1.047,4.112-29.04,21.737-61.912,21.737-61.912l-1.215-5.758c.34,2.4.315,7.852-5.458,12.467-3.624,2.892-10.688,5.89-17.132,8.249-.163-2.155-.335-4.259-.523-6.292-.417-4.523-.879-8.706-1.413-12.37L400.07,225s-.879-6.429-2.018-15.775c-.208-1.713-.417-3.425-.6-5.077-1.235-10.693,1.138-20.055,6.8-22.53,2.5-1.1,7.191-3.039,11.12-4.63a79.912,79.912,0,0,0,20.558,17.447,62.552,62.552,0,0,0,10.52-23.938c.01-.046.02-.1.03-.142,1.652-.168,4.488-.478,6.216-.712,5.377-.717,12.284,3.034,14.652,8.015s7.349,21.574,7.349,21.574l2.663-8,.341.061,11.283,2.084.9.163c.544,31.815-4.315,37.782-10.21,38.178a9.307,9.307,0,0,1-8.533-4.142Z" transform="translate(-389.499 -123.746)" fill="#f2b34e"/>
        <path id="Trazado_114751" data-name="Trazado 114751" d="M427.174,433.328,413.249,461.72h-26.2l8.4-39.56A118.767,118.767,0,0,0,427.174,433.328Z" transform="translate(-387.049 -247.969)" fill="#f99958"/>
        <path id="Trazado_114752" data-name="Trazado 114752" d="M534.283,472.449H508.04l-4.87-26.034a114.483,114.483,0,0,0,29.436-2.438Z" transform="translate(-444.154 -258.698)" fill="#f99958"/>
        <g id="Grupo_80938" data-name="Grupo 80938" transform="translate(21.375 29.871)">
          <path id="Trazado_114753" data-name="Trazado 114753" d="M439.805,284.621a8.829,8.829,0,0,1,.244,1.165Z" transform="translate(-434.368 -210.202)" fill="#f2b34e"/>
          <path id="Trazado_114754" data-name="Trazado 114754" d="M577.148,149.018c-1.2,3.518-3.444,6.584-4.956,9.981-1.006,2.257-1.682,4.652-2.565,6.962a18.224,18.224,0,0,1-3.561,6.148c-.069,1.948-.138,3.891-.208,5.845l-11.285-2.081q.5-2.779.99-5.563a17.347,17.347,0,0,1-2.353-6.377,26.767,26.767,0,0,0-2.039-6.946c-.979-1.879-2.5-3.567-2.789-5.664a1.432,1.432,0,0,1,.372-1.357,1.067,1.067,0,0,1,.99-.1,2.87,2.87,0,0,1,.862.559A21.181,21.181,0,0,1,556,157.391q1.2-4.751,2.39-9.512a81.528,81.528,0,0,1,2.417-8.33c.112-.3.256-.623.553-.724.41-.133.8.25.99.638a5.472,5.472,0,0,1,.383,2.385,69.755,69.755,0,0,1-.915,12.283h0a127.092,127.092,0,0,1,3.321-12.384,8.316,8.316,0,0,1,1.581-3.135.942.942,0,0,1,.873-.4c.357.1.489.521.553.878a21.6,21.6,0,0,1-.42,8.213c-.464,2.241-1.075,4.455-1.475,6.7a112.4,112.4,0,0,1,4.647-10.827,8.294,8.294,0,0,1,1.41-2.15,1.114,1.114,0,0,1,1.092-.415c.425.16.532.7.537,1.16a11.868,11.868,0,0,1-.426,2.927c-.415,1.682-.99,3.322-1.565,4.956q-1.166,3.322-2.337,6.643a65,65,0,0,1,6.414-7.969c.256-.276.639-.569.974-.388S577.275,148.645,577.148,149.018Z" transform="translate(-487.752 -138.193)" fill="#f99958"/>
          <path id="Trazado_114755" data-name="Trazado 114755" d="M581.254,171.9a24.483,24.483,0,0,0-7.909-3.047c-.336-.066-.419.46-.083.526a24.054,24.054,0,0,1,7.772,3.006C581.327,172.56,581.544,172.073,581.254,171.9Z" transform="translate(-499.893 -153.267)" fill="#d36d29"/>
          <path id="Trazado_114756" data-name="Trazado 114756" d="M571.829,204.766l-4.505-1.5c-.322-.108-.545.376-.22.485l4.505,1.5C571.931,205.358,572.153,204.874,571.829,204.766Z" transform="translate(-496.892 -170.185)" fill="#d36d29"/>
          <path id="Trazado_114757" data-name="Trazado 114757" d="M435.807,264.677q-2.418-9.389-4.836-18.777l-1.358-5.273c-.085-.331-.581-.135-.5.194q2.417,9.389,4.836,18.777l1.358,5.273C435.4,265.2,435.892,265.006,435.807,264.677Z" transform="translate(-429.108 -188.483)" fill="#ea8c11"/>
          <path id="Trazado_114758" data-name="Trazado 114758" d="M459.3,261.883a17.593,17.593,0,0,1-13.742,4.544,16.558,16.558,0,0,1-4.109-.97c-.32-.12-.541.364-.22.485a18.113,18.113,0,0,0,14.842-1.083,16.979,16.979,0,0,0,3.541-2.545C459.861,262.082,459.551,261.649,459.3,261.883Z" transform="translate(-434.992 -198.987)" fill="#ea8c11"/>
          <path id="Trazado_114759" data-name="Trazado 114759" d="M506.571,252.938a17.594,17.594,0,0,1-13.741,4.544,16.509,16.509,0,0,1-4.11-.97c-.32-.12-.541.364-.22.485a18.113,18.113,0,0,0,14.842-1.083,16.979,16.979,0,0,0,3.541-2.545C507.131,253.136,506.821,252.7,506.571,252.938Z" transform="translate(-458.238 -194.588)" fill="#ea8c11"/>
          <path id="Trazado_114760" data-name="Trazado 114760" d="M526.9,225.709q-.268-2.01-.536-4.021a.266.266,0,0,0-.529.059l1.871,14.04q.268,2.01.536,4.021a.266.266,0,0,0,.529-.059Q527.836,232.729,526.9,225.709Z" transform="translate(-476.674 -179.142)" fill="#ea8c11"/>
          <path id="Trazado_114761" data-name="Trazado 114761" d="M522.63,230.544a46.126,46.126,0,0,1-3.087-6.768c-.116-.322-.613-.129-.5.194a46.954,46.954,0,0,0,3.152,6.887C522.367,231.156,522.8,230.841,522.63,230.544Z" transform="translate(-473.329 -180.199)" fill="#ea8c11"/>
          <path id="Trazado_114762" data-name="Trazado 114762" d="M550.747,229.837q-1.351,5.33-2.223,10.765a.266.266,0,0,0,.526.083q.871-5.429,2.223-10.765C551.357,229.588,550.83,229.507,550.747,229.837Z" transform="translate(-487.831 -183.157)" fill="#ea8c11"/>
          <path id="Trazado_114763" data-name="Trazado 114763" d="M489.189,275.344a98.238,98.238,0,0,1-17.916,7.393q-2.3.694-4.642,1.275a34.206,34.206,0,0,0,3.341-2.645,17.036,17.036,0,0,0,1.806-1.917,9.138,9.138,0,0,0,1.438-2.308,2.084,2.084,0,0,0-.232-2.163,1.825,1.825,0,0,0-2.244-.143,9.688,9.688,0,0,0-3.686,3.482,12.631,12.631,0,0,0-1.785,5.12,26.17,26.17,0,0,0-2.325-4.124c-1.019-1.41-2.47-3.049-4.278-3.35-1.568-.261-3.3.923-2.865,2.646a5.044,5.044,0,0,0,1.53,2.251,13.066,13.066,0,0,0,2.186,1.708,16.952,16.952,0,0,0,4.732,2,98.674,98.674,0,0,1-11.926,1.9,97.623,97.623,0,0,1-10.89.441c-.341-.005-.28.524.059.529a98.184,98.184,0,0,0,19.372-1.634c1.378-.256,2.75-.546,4.116-.859A21.656,21.656,0,0,1,464.23,289a2.9,2.9,0,0,1-.961,1.642.967.967,0,0,1-1.533-.348c-.1-.326-.6-.133-.5.193a1.415,1.415,0,0,0,1.564.911,2.268,2.268,0,0,0,1.59-1.321,10.672,10.672,0,0,0,.752-2.576,22.231,22.231,0,0,0,.358-2.47,9.63,9.63,0,0,0,3.639,3.9,3.9,3.9,0,0,0,4.659-.655c.229-.256-.185-.592-.412-.337a3.445,3.445,0,0,1-4.314.352,9.655,9.655,0,0,1-3.139-3.562,99.144,99.144,0,0,0,13.56-4.293,97.8,97.8,0,0,0,9.886-4.591C489.681,275.681,489.492,275.182,489.189,275.344Zm-28.465,7.313a11.431,11.431,0,0,1-3.881-3.131,1.938,1.938,0,0,1-.3-2.307,2.1,2.1,0,0,1,1.934-.744c1.64.213,2.977,1.727,3.908,2.977a27.12,27.12,0,0,1,2.667,4.765A17.41,17.41,0,0,1,460.724,282.657Zm5.016,1.334a11.127,11.127,0,0,1,4.346-8.132c.566-.4,1.455-1.043,2.185-.75.863.348.634,1.485.322,2.127a12.97,12.97,0,0,1-2.975,3.737A38.563,38.563,0,0,1,465.741,283.99Z" transform="translate(-435.057 -205.236)" fill="#af3737"/>
          <path id="Trazado_114764" data-name="Trazado 114764" d="M534.692,307.757a32.537,32.537,0,0,1-10.033-15.425c-.1-.328-.594-.134-.5.194a33.106,33.106,0,0,0,10.192,15.643C534.615,308.392,534.952,307.98,534.692,307.757Z" transform="translate(-475.847 -213.911)" fill="#ea8c11"/>
          <path id="Trazado_114765" data-name="Trazado 114765" d="M445,305.526a30.65,30.65,0,0,1-7.279,13.067,30.053,30.053,0,0,1-3.164,2.912c-.267.213.044.645.313.43a30.965,30.965,0,0,0,10.656-16.326C445.614,305.279,445.088,305.2,445,305.526Z" transform="translate(-431.738 -220.38)" fill="#ea8c11"/>
        </g>
        <g id="Grupo_80939" data-name="Grupo 80939" transform="translate(14.423 0)">
          <path id="Trazado_114766" data-name="Trazado 114766" d="M468.041,118.177v.005a11.207,11.207,0,0,1-3.908,1.667,26.181,26.181,0,0,0-2.571-6.649c.424,3.485.62,6.989.62,6.989-1.855.894-9.738,2.526-10.7,2.775l-.762-2.953a11.458,11.458,0,0,0,3.314-7.039,11.115,11.115,0,0,0-.041-2.5l-.285-2.221c5.1-.651,5.631-5.972,4.122-8.752a4.24,4.24,0,0,0-.457-.686,2.871,2.871,0,0,0-.95-.783c-2.5-1.21-3.695,1.3-3.812,1.555a.127.127,0,0,1-.02-.036,38.47,38.47,0,0,1-2.689-9.331q-.259-1.677-.366-3.375c.015,1.149-.025,2.3-.122,3.436a40.94,40.94,0,0,1-.971,5.987,29.906,29.906,0,0,1-5.026,2.3,39.151,39.151,0,0,0,.051-7.522c-.112-1.2-.274-2.4-.5-3.588-.03,1.225-.086,2.455-.178,3.674-.163,2.318-.427,4.63-.8,6.922-1.555.752-12.162,4.31-12.192,4.33a2.708,2.708,0,0,0-3.979-.437c-2.46,2.1-1.128,10.027,5.2,9.219l.285,2.211a11.435,11.435,0,0,0,4.625,7.786l-.005,2.724a28.154,28.154,0,0,1-11.73-.869,30.669,30.669,0,0,1-.371-8.65,33.728,33.728,0,0,0-2.485,8.442,12.21,12.21,0,0,1-5.85-2.058,23.117,23.117,0,0,1,1.9-10.256c1.357-3.441,3.115-6.724,4.386-10.2,1.642-4.5,2.5-9.392,5.194-13.351a19.06,19.06,0,0,1,7.568-6.333,23.863,23.863,0,0,1,7.318-1.2h.025a14.09,14.09,0,0,1,8.533,2.775c3.283,2.577,4.864,6.7,6.77,10.414.945,1.855,2,3.644,3.08,5.428.152.254.31.508.462.762,1.23,2.038,2.465,4.066,3.568,6.17C466.435,109.059,468.1,113.557,468.041,118.177Z" transform="translate(-415.428 -79.418)" fill="#36344c"/>
          <path id="Trazado_114767" data-name="Trazado 114767" d="M462.635,115.447l.285,2.221a11.111,11.111,0,0,1,.041,2.5,11.436,11.436,0,0,1-22.728.407l-.285-2.211c-6.327.808-7.659-7.115-5.2-9.219a2.708,2.708,0,0,1,3.979.437c.03-.02,10.637-3.578,12.192-4.33.371-2.292.635-4.6.8-6.922.091-1.22.147-2.45.178-3.674.224,1.189.386,2.389.5,3.588a39.148,39.148,0,0,1-.051,7.522,29.909,29.909,0,0,0,5.026-2.3,40.945,40.945,0,0,0,.971-5.987c.1-1.138.137-2.287.122-3.436q.107,1.7.366,3.375a38.477,38.477,0,0,0,2.689,9.331l.01.056s0-.005.01-.015v-.005c.117-.259,1.316-2.765,3.812-1.555a2.872,2.872,0,0,1,.95.783,4.242,4.242,0,0,1,.457.686C468.266,109.475,467.733,114.8,462.635,115.447Z" transform="translate(-424.36 -86.609)" fill="#f99958"/>
          <path id="Trazado_114768" data-name="Trazado 114768" d="M469.059,165.307c-.01.046-.02.1-.031.142a62.552,62.552,0,0,1-10.52,23.938A79.913,79.913,0,0,1,437.95,171.94c4.737-1.936,9.036-3.649,9.036-3.649h.005v-1.2l.005-3.924.005-2.724a11.37,11.37,0,0,0,14.789-1.154l.762,2.953.935,3.553C464.347,165.734,466.512,165.562,469.059,165.307Z" transform="translate(-426.504 -118.697)" fill="#f99958"/>
          <path id="Trazado_114769" data-name="Trazado 114769" d="M466.865,133.647q-1.971.351-3.953.628.585-4.389,1.044-8.794c.032-.31-.451-.322-.483-.014q-.471,4.55-1.081,9.086c-.023.17.16.261.3.242q2.151-.3,4.289-.678C467.285,134.062,467.17,133.592,466.865,133.647Z" transform="translate(-438.522 -101.953)" fill="#d36d29"/>
          <circle id="Elipse_4741" data-name="Elipse 4741" cx="1.898" cy="1.898" r="1.898" transform="translate(17.574 29.188)" fill="#d36d29"/>
          <circle id="Elipse_4742" data-name="Elipse 4742" cx="1.898" cy="1.898" r="1.898" transform="translate(32.707 27.25)" fill="#d36d29"/>
          <ellipse id="Elipse_4743" data-name="Elipse 4743" cx="1.361" cy="1.68" rx="1.361" ry="1.68" transform="matrix(0.992, -0.127, 0.127, 0.992, 18.861, 24.357)" fill="#36344c"/>
          <ellipse id="Elipse_4744" data-name="Elipse 4744" cx="1.361" cy="1.68" rx="1.361" ry="1.68" transform="matrix(0.992, -0.127, 0.127, 0.992, 29.138, 23.412)" fill="#36344c"/>
          <path id="Trazado_114770" data-name="Trazado 114770" d="M453.731,121.85a.975.975,0,0,0-.564-.461l-.256-.042a.964.964,0,0,0-.491.117l-2.061.836a.967.967,0,0,0-.462.564.989.989,0,0,0,.075.748.976.976,0,0,0,.565.461l.256.042a.96.96,0,0,0,.492-.118l2.061-.836a.969.969,0,0,0,.462-.565A.989.989,0,0,0,453.731,121.85Z" transform="translate(-432.359 -100.037)" fill="#36344c"/>
          <path id="Trazado_114771" data-name="Trazado 114771" d="M471.389,119.843a.978.978,0,0,1,.43-.589l.237-.105a.965.965,0,0,1,.506-.01l2.206.289a.967.967,0,0,1,.589.43.987.987,0,0,1,.115.742.973.973,0,0,1-.43.589l-.237.106a.963.963,0,0,1-.505.01l-2.206-.289a.968.968,0,0,1-.589-.43A.988.988,0,0,1,471.389,119.843Z" transform="translate(-442.933 -98.938)" fill="#36344c"/>
          <path id="Trazado_114772" data-name="Trazado 114772" d="M470.539,159.293s-1.122,7.444-14.8,7.8l.005-3.925.005-2.722a11.374,11.374,0,0,0,14.786-1.153Z" transform="translate(-435.253 -118.698)" fill="#d36d29"/>
          <path id="Trazado_114773" data-name="Trazado 114773" d="M471.792,171.237a127.814,127.814,0,0,1-7.486,11.964,131.568,131.568,0,0,1-9.356-9.669c-.213-.245-.626.052-.411.3a132.888,132.888,0,0,0,9.646,9.956.256.256,0,0,0,.357-.036,129.047,129.047,0,0,0,7.711-12.3C472.412,171.16,471.948,170.953,471.792,171.237Z" transform="translate(-434.632 -124.505)" fill="#36344c"/>
          <circle id="Elipse_4745" data-name="Elipse 4745" cx="2.07" cy="2.07" r="2.07" transform="translate(27.887 58.722)" fill="#af3737"/>
          <path id="Trazado_114774" data-name="Trazado 114774" d="M473.555,147.71a3.722,3.722,0,0,1-3.5,1.789c-1.266-.107-2.816-1.083-2.455-2.556a1.825,1.825,0,0,1,1.271-1.26,2.948,2.948,0,0,1,1.586.005,2.78,2.78,0,0,1,.691-1.108,1.714,1.714,0,0,1,1.972-.376C474.394,144.894,474.2,146.648,473.555,147.71Z" transform="translate(-441.058 -111.193)" fill="#f4e9dc"/>
        </g>
        <g id="Grupo_80940" data-name="Grupo 80940" transform="translate(58.877 43.079)">
          <path id="Trazado_114775" data-name="Trazado 114775" d="M525.407,178.523a7.009,7.009,0,0,1-2.976,4.391,1.226,1.226,0,0,1-1.9-.569c-.271-.916.4-1.837.687-2.667a10.521,10.521,0,0,0,.373-5.355c-.634,1.7-1.278,3.391-2.039,5.036-.388.841-.809,1.666-1.272,2.47a6.864,6.864,0,0,1-1.491,2.065,1.636,1.636,0,0,1-2.017.128,2.092,2.092,0,0,1-.548-2.081,20.175,20.175,0,0,1,.8-2.566l-.655,1.422a7.082,7.082,0,0,1-1.357,2.38,1.567,1.567,0,0,1-2.007.207,2.6,2.6,0,0,1-.57-2.283,13.358,13.358,0,0,1,.74-3.018q.487-1.477,1.016-2.938c.357-1,.724-1.98,1.1-2.97-.682,1.171-1.357,2.342-2.039,3.513-.548.948-1.1,1.9-1.65,2.853a4.2,4.2,0,0,1-1.544,1.885,1.331,1.331,0,0,1-1.836-.564,4.092,4.092,0,0,1-.064-2.348,20.014,20.014,0,0,1,3.54-8.176c-.553-.16-1.107-.325-1.655-.484a6.069,6.069,0,0,1-.623.846,5.667,5.667,0,0,1-2.15,1.48,1.916,1.916,0,0,1-2.065-.144c-.6-.633-.155-1.7.053-2.411a5.545,5.545,0,0,1,1.177-2.294,4.674,4.674,0,0,1,2.422-1.219c1.059-.25,2.135-.447,3.21-.617a15.284,15.284,0,0,1,6.553.09,17.575,17.575,0,0,1,5.408,2.869,9.945,9.945,0,0,1,2.15,1.969,6.881,6.881,0,0,1,1.16,2.688A14.112,14.112,0,0,1,525.407,178.523Z" transform="translate(-502.897 -164.181)" fill="#e88846"/>
          <path id="Trazado_114776" data-name="Trazado 114776" d="M529.678,174.686l-3.271,9.613c-.11.322.375.544.485.22l3.271-9.613C530.273,174.585,529.788,174.362,529.678,174.686Z" transform="translate(-514.451 -169.269)" fill="#c4532c"/>
          <path id="Trazado_114777" data-name="Trazado 114777" d="M539.6,177.923q-.164,1.409-.327,2.817c-.039.339.486.424.526.083l.326-2.817C540.167,177.667,539.642,177.582,539.6,177.923Z" transform="translate(-520.786 -170.832)" fill="#c4532c"/>
          <path id="Trazado_114778" data-name="Trazado 114778" d="M525.093,172.962a.268.268,0,0,0-.375.037,20.551,20.551,0,0,0-1.744,3.385c-.127.318.357.538.485.22a19.778,19.778,0,0,1,1.672-3.267A.275.275,0,0,0,525.093,172.962Z" transform="translate(-512.76 -168.47)" fill="#c4532c"/>
          <path id="Trazado_114779" data-name="Trazado 114779" d="M518.044,171.383a.269.269,0,0,0-.174-.107.259.259,0,0,0-.2.048l-.886.815a.289.289,0,0,0-.107.174.267.267,0,0,0,.222.3.258.258,0,0,0,.2-.048l.887-.815a.288.288,0,0,0,.106-.173A.271.271,0,0,0,518.044,171.383Z" transform="translate(-509.673 -167.669)" fill="#c4532c"/>
        </g>
      </g>
    </g>
  </g>
</svg>
