<svg xmlns="http://www.w3.org/2000/svg" xmlns:xlink="http://www.w3.org/1999/xlink" width="360.667" height="360.667" viewBox="0 0 360.667 360.667">
  <defs>
    <clipPath id="clip-path">
      <rect id="rect3283" width="360.667" height="360.667" rx="0.862" fill="none"/>
    </clipPath>
  </defs>
  <g id="Grupo_81221" data-name="Grupo 81221" transform="translate(0 0)">
    <g id="BACKGROUND" transform="translate(0 0)">
      <g id="Grupo_81218" data-name="Grupo 81218">
        <g id="Grupo_81217" data-name="Grupo 81217" clip-path="url(#clip-path)">
          <g id="layer1" transform="translate(5.416 17.71)">
            <circle id="circle3285" cx="153.837" cy="153.837" r="153.837" transform="translate(21.081 12.307)" fill="#ffdfe0"/>
            <g id="g3292" transform="translate(9.813 297.082)">
              <path id="path3288" d="M21.112,457.628a68.2,68.2,0,0,0,17.554,23.664l8.911-10.378-3.806,14.4a61.721,61.721,0,0,0,17.771,8.736,70.7,70.7,0,0,0,11.545,2.541l8.075-14.433-1.891,14.9c14.866.28,23.959-5.839,29.478-9.34l-10.98-12.546L114.01,484.5c5.882-4.469,12.043-14.08,12.043-14.08a118.1,118.1,0,0,0-23.786-22.433l-7.01,9.189,2.887-11.886c-7.394-4.534-15.789-8.059-24.589-8.744a50.457,50.457,0,0,0-8.333.056L60.595,451.77l.088-14.58a70.467,70.467,0,0,0-20.18,6.99l-1.269,11.982-2.683-9.811a88.13,88.13,0,0,0-15.439,11.277Z" transform="translate(-21.112 -436.402)" fill="#ffb998"/>
              <path id="path3290" d="M21.112,457.628l.014.03c2.618.259,76.788,7.627,104.751,12.546a116.906,116.906,0,0,0-23.609-22.216l-7.01,9.189,2.888-11.885c-7.394-4.535-15.789-8.059-24.589-8.745a50.463,50.463,0,0,0-8.333.056L60.6,451.769l.088-14.58a70.439,70.439,0,0,0-20.18,6.99l-1.269,11.981-2.683-9.811a88.175,88.175,0,0,0-15.439,11.277Z" transform="translate(-21.112 -436.402)" fill="#ec9982"/>
            </g>
            <g id="g3298" transform="translate(238.254 297.082)">
              <path id="path3294" d="M442.745,457.628a68.192,68.192,0,0,1-17.554,23.664l-8.911-10.378,3.806,14.4a61.721,61.721,0,0,1-17.771,8.736,70.685,70.685,0,0,1-11.545,2.541L382.7,482.16l1.891,14.9c-14.865.28-23.958-5.839-29.477-9.34l10.979-12.546-16.24,9.332c-5.882-4.469-12.043-14.08-12.043-14.08a118.121,118.121,0,0,1,23.786-22.433l7.01,9.189-2.888-11.886c7.394-4.534,15.789-8.059,24.59-8.744a50.448,50.448,0,0,1,8.332.056l4.628,15.166-.089-14.58a70.459,70.459,0,0,1,20.18,6.99l1.269,11.982,2.683-9.811a88.1,88.1,0,0,1,15.439,11.277Z" transform="translate(-337.805 -436.402)" fill="#ffb998"/>
              <path id="path3296" d="M442.814,457.628l-.013.03c-2.618.259-76.789,7.627-104.751,12.546a116.867,116.867,0,0,1,23.609-22.216l7.011,9.189-2.888-11.885c7.394-4.535,15.789-8.059,24.59-8.745a50.454,50.454,0,0,1,8.332.056l4.628,15.166-.088-14.58a70.435,70.435,0,0,1,20.179,6.99l1.269,11.981,2.683-9.811a88.168,88.168,0,0,1,15.44,11.277Z" transform="translate(-337.873 -436.402)" fill="#ec9982"/>
            </g>
            <g id="g3304" transform="translate(61.156 203.072)">
              <path id="path3300" d="M96.049,306.074s-4.52,10.4-3.648,28.756l11.188,6.255L93,342.127a124.557,124.557,0,0,0,5.171,23.44c1.658,5.181,3.4,9.848,5.185,14.059l13.069,3.794-9.769,3.4a96.3,96.3,0,0,0,22.458,30l.969-17.145,3.94,21.923c6,5.015,15.154,8.432,15.154,8.432a165.646,165.646,0,0,0-.665-35.375l-9.4-4.539,8.59-1.148a122.378,122.378,0,0,0-9.1-31.187c-1.5-3.293-3.132-6.441-4.842-9.444l-11.505.395,8.543-5.332a139.1,139.1,0,0,0-15.721-20.316l-7.711,3.023,4.166-6.7a119.589,119.589,0,0,0-15.482-13.335Z" transform="translate(-92.289 -306.074)" fill="#ffb998"/>
              <path id="path3302" d="M97.5,306.074l-.009.027c1.36,3.07,39.887,90.061,53.164,123.654a164.462,164.462,0,0,0-.69-35.093l-9.4-4.539,8.59-1.148a122.4,122.4,0,0,0-9.1-31.188c-1.5-3.292-3.132-6.44-4.842-9.444l-11.505.395,8.543-5.332a139.1,139.1,0,0,0-15.721-20.316l-7.711,3.023,4.166-6.7A119.66,119.66,0,0,0,97.5,306.075Z" transform="translate(-93.738 -306.074)" fill="#ec9982"/>
            </g>
            <g id="g3310" transform="translate(234.325 203.072)">
              <path id="path3306" d="M386.128,306.074s4.52,10.4,3.649,28.756l-11.189,6.255,10.586,1.042A124.552,124.552,0,0,1,384,365.567c-1.658,5.181-3.4,9.848-5.185,14.059L365.75,383.42l9.768,3.4a96.3,96.3,0,0,1-22.457,30l-.969-17.145-3.94,21.923c-6,5.015-15.154,8.432-15.154,8.432a165.7,165.7,0,0,1,.665-35.375l9.4-4.539-8.59-1.148a122.372,122.372,0,0,1,9.1-31.187c1.5-3.293,3.132-6.441,4.842-9.444l11.506.395-8.543-5.332A139.15,139.15,0,0,1,367.1,323.089l7.712,3.023-4.166-6.7a119.619,119.619,0,0,1,15.481-13.335Z" transform="translate(-332.361 -306.074)" fill="#ffb998"/>
              <path id="path3308" d="M386.125,306.074l.01.027c-1.36,3.07-39.888,90.061-53.165,123.654a164.518,164.518,0,0,1,.69-35.093l9.4-4.539-8.59-1.148a122.371,122.371,0,0,1,9.1-31.188c1.5-3.292,3.132-6.44,4.843-9.444l11.505.395-8.543-5.332A139.1,139.1,0,0,1,367.1,323.09l7.712,3.023-4.166-6.7a119.688,119.688,0,0,1,15.481-13.335Z" transform="translate(-332.357 -306.074)" fill="#ec9982"/>
            </g>
            <g id="g3321" transform="translate(0 227.155)">
              <path id="path3313" d="M17.932,344.862c-13.631,10.351-14.431,29.7.793,41.963l10.661-9.993L23.832,390.3c.836.482,1.7.949,2.6,1.394,10.709,5.277,22.222,9.856,32.938,14.538l6.871-8.978-2.813,10.777c11.318,5.1,21.465,10.429,28.386,17.009,14.149,13.451,18.76,17.434,26.03,16.376s5.533-7.715.837-18.678a148.655,148.655,0,0,0-8.171-18.584l-9.891,1.632,8.02-5.176a167.135,167.135,0,0,0-21.472-31.027A118.336,118.336,0,0,0,72.953,355.95L62.09,369.116l4.969-17.589C49.76,339.546,31.8,335.6,19.5,343.753q-.808.536-1.565,1.109Z" transform="translate(-7.508 -339.46)" fill="#ffb998"/>
              <path id="path3315" d="M124.232,454.03s-18.608-33.862-39.017-52.5S43.2,370.791,34.329,365.917a97.276,97.276,0,0,0-17.454-7.376s24.445,5.763,54.6,29.174,55.723,63.578,55.723,63.578Z" transform="translate(-10.118 -344.777)" fill="#c5654a"/>
              <path id="path3317" d="M115.261,429.392a20.634,20.634,0,0,0-7.022-1.578c-3.206.053-6.444,2.588-6.444,2.588a31.724,31.724,0,0,1,5.572-3.433,21.21,21.21,0,0,1,4.252-1.118l-5.189-7.241a12.718,12.718,0,0,0-6.142-.2c-3.452.717-6.129,3.872-6.129,3.872s2.146-3.29,4.38-4.464a20.175,20.175,0,0,1,5.672-1.606l-6.544-8.335a13.378,13.378,0,0,0-6.987,1.977,16.213,16.213,0,0,0-5.614,5.453s2.343-4.209,4.915-6.1a20.668,20.668,0,0,1,6.618-2.773l-7.3-7.481a20.316,20.316,0,0,0-7.569,2.99,23.7,23.7,0,0,0-6.909,7.464,26.094,26.094,0,0,1,5.215-7.9,22.93,22.93,0,0,1,7.352-4.493s-8.771-7.786-12.346-10.318a56.548,56.548,0,0,1-6.18-5.081s-3.517,2.356-8.985,6.758a28.832,28.832,0,0,0-7.925,10.759s2.2-6.308,5.148-9.734,10.555-8.721,10.555-8.721-7.337-5.328-9.58-6.962a53.314,53.314,0,0,0-5.088-3.177,26.651,26.651,0,0,0-9.256,6.524c-4.667,4.895-8.288,15.867-8.288,15.867s2.719-10.161,6.226-15.2A35.332,35.332,0,0,1,50.8,369.2s-6.866-4.511-9.115-5.785a40.039,40.039,0,0,0-4.762-2.23,119.335,119.335,0,0,0-9.606,8.564c-4.623,4.651-7.806,13.667-7.806,13.667s2.911-8.58,6.28-13.369,9.575-9.533,9.575-9.533A64.633,64.633,0,0,1,37.7,348.9a30.115,30.115,0,0,1,4.477-9.08s-5.651,12.084-5.594,16.666.711,4.529.711,4.529l13.829,7.663A63.126,63.126,0,0,1,54.99,356.24c2.774-6.382,6.389-8.719,6.389-8.719s-4.956,7.132-6.518,13.915-1.321,8.72-1.321,8.72l14.41,9.823s.568-2.949,3.914-9.159,9.791-10,9.791-10a39.831,39.831,0,0,0-8.309,9.641c-3.576,5.9-3.964,10.195-3.964,10.195l17.826,15.56a52.48,52.48,0,0,1,6.066-8.536c3.755-4.275,7.007-4.713,7.007-4.713a18.462,18.462,0,0,0-6.455,5.642,29.541,29.541,0,0,0-4.619,9.641l7.252,7.919a45.725,45.725,0,0,1,6.473-7.617c3.4-3,5.318-2.941,5.318-2.941s-2.049.383-6.281,5.253-4.537,6.506-4.537,6.506L104.5,415.7a17.018,17.018,0,0,1,4.454-5,10.8,10.8,0,0,1,6.274-2.24s-2.642-.121-5.673,2.722a11.259,11.259,0,0,0-3.416,6.356l5.823,7.356a23.853,23.853,0,0,1,3.969-4.4,7.271,7.271,0,0,1,3.822-1.9,25.15,25.15,0,0,0-4.622,4.268,9.316,9.316,0,0,0-2.064,4.118Z" transform="translate(-10.854 -339.561)" fill="#c5654a"/>
              <path id="path3319" d="M19.718,344.862a27.453,27.453,0,0,0-5.8,5.965c12.744,5.412,39.29,17.942,59.837,36.122,17.87,15.812,36.47,39.15,47.633,54.021,5.148-1.884,3.349-8.272-.915-18.23a148.655,148.655,0,0,0-8.171-18.584l-9.891,1.632,8.02-5.176a167.135,167.135,0,0,0-21.472-31.027A118.336,118.336,0,0,0,74.739,355.95L63.876,369.117l4.969-17.59c-17.3-11.981-35.259-15.931-47.562-7.775q-.808.536-1.565,1.109Z" transform="translate(-9.294 -339.46)" fill="#d66154" opacity="0.589" style="isolation: isolate"/>
            </g>
            <g id="g3331" transform="translate(235.932 227.155)">
              <path id="path3323" d="M441.942,344.862c13.631,10.351,14.431,29.7-.793,41.963l-10.662-9.993,5.555,13.472c-.836.482-1.7.949-2.6,1.394-10.708,5.277-22.221,9.856-32.937,14.538l-6.871-8.978,2.812,10.777c-11.318,5.1-21.465,10.429-28.386,17.009-14.149,13.451-18.76,17.434-26.03,16.376s-5.533-7.715-.837-18.678a148.651,148.651,0,0,1,8.171-18.584l9.891,1.632-8.02-5.176A167.093,167.093,0,0,1,372.7,369.584a118.335,118.335,0,0,1,14.219-13.635l10.863,13.166-4.968-17.589c17.3-11.981,35.258-15.931,47.562-7.775q.808.536,1.565,1.109Z" transform="translate(-335.29 -339.46)" fill="#ffb998"/>
              <path id="path3325" d="M337.547,454.03s18.608-33.862,39.017-52.5,42.015-30.739,50.886-35.614a97.3,97.3,0,0,1,17.455-7.376s-24.445,5.763-54.6,29.174-55.722,63.578-55.722,63.578Z" transform="translate(-334.586 -344.777)" fill="#c5654a"/>
              <path id="path3327" d="M350.412,429.392a20.628,20.628,0,0,1,7.021-1.578c3.206.053,6.444,2.588,6.444,2.588a31.737,31.737,0,0,0-5.572-3.433,21.223,21.223,0,0,0-4.253-1.118l5.19-7.241a12.716,12.716,0,0,1,6.141-.2c3.452.717,6.129,3.872,6.129,3.872s-2.145-3.29-4.38-4.464a20.168,20.168,0,0,0-5.672-1.606l6.544-8.335a13.377,13.377,0,0,1,6.987,1.977,16.2,16.2,0,0,1,5.614,5.453s-2.343-4.209-4.914-6.1a20.676,20.676,0,0,0-6.618-2.773l7.3-7.481a20.311,20.311,0,0,1,7.569,2.99,23.7,23.7,0,0,1,6.909,7.464,26.1,26.1,0,0,0-5.214-7.9,22.93,22.93,0,0,0-7.353-4.493s8.771-7.786,12.346-10.318a56.581,56.581,0,0,0,6.18-5.081s3.517,2.356,8.986,6.758a28.826,28.826,0,0,1,7.925,10.759s-2.2-6.308-5.148-9.734-10.555-8.721-10.555-8.721,7.337-5.328,9.58-6.962a53.313,53.313,0,0,1,5.088-3.177,26.644,26.644,0,0,1,9.256,6.524c4.667,4.895,8.289,15.867,8.289,15.867s-2.72-10.161-6.226-15.2a35.33,35.33,0,0,0-9.137-8.52s6.867-4.511,9.115-5.785a39.979,39.979,0,0,1,4.762-2.23,119.335,119.335,0,0,1,9.606,8.564c4.622,4.651,7.806,13.667,7.806,13.667s-2.911-8.58-6.28-13.369-9.575-9.533-9.575-9.533A64.6,64.6,0,0,0,427.97,348.9a30.116,30.116,0,0,0-4.477-9.08s5.65,12.084,5.593,16.666-.711,4.529-.711,4.529l-13.828,7.663a63.127,63.127,0,0,0-3.864-12.437c-2.775-6.382-6.389-8.719-6.389-8.719s4.955,7.132,6.518,13.915,1.321,8.72,1.321,8.72l-14.41,9.823s-.568-2.949-3.913-9.159-9.791-10-9.791-10a39.838,39.838,0,0,1,8.308,9.641c3.576,5.9,3.964,10.195,3.964,10.195l-17.826,15.56a52.5,52.5,0,0,0-6.066-8.536c-3.755-4.275-7.008-4.713-7.008-4.713a18.462,18.462,0,0,1,6.455,5.642,29.551,29.551,0,0,1,4.62,9.641l-7.252,7.919a45.7,45.7,0,0,0-6.472-7.617c-3.4-3-5.318-2.941-5.318-2.941s2.049.383,6.28,5.253,4.537,6.506,4.537,6.506l-7.074,8.332a17.015,17.015,0,0,0-4.454-5,10.8,10.8,0,0,0-6.274-2.24s2.642-.121,5.673,2.722a11.263,11.263,0,0,1,3.417,6.356l-5.824,7.356a23.823,23.823,0,0,0-3.969-4.4,7.268,7.268,0,0,0-3.822-1.9,25.175,25.175,0,0,1,4.622,4.268,9.319,9.319,0,0,1,2.063,4.118Z" transform="translate(-337.743 -339.561)" fill="#c5654a"/>
              <path id="path3329" d="M441.948,344.862a27.45,27.45,0,0,1,5.8,5.965C435,356.24,408.457,368.77,387.911,386.95c-17.87,15.812-36.47,39.15-47.633,54.021-5.148-1.884-3.349-8.272.916-18.23a148.655,148.655,0,0,1,8.171-18.584l9.891,1.632-8.02-5.176a167.094,167.094,0,0,1,21.471-31.027,118.335,118.335,0,0,1,14.219-13.635l10.863,13.167-4.968-17.59c17.3-11.981,35.258-15.931,47.562-7.775q.808.536,1.565,1.109Z" transform="translate(-335.296 -339.46)" fill="#d66154" opacity="0.589" style="isolation: isolate"/>
            </g>
            <path id="path3333" d="M418.386,77.094c-6.977,1-9.624,6.371-5.6,12.482C450.323,146.533,450.924,70.672,418.386,77.094Z" transform="translate(-119.919 -39.084)" fill="#ffdfe0" opacity="0.589" style="isolation: isolate"/>
            <path id="path3335" d="M97.477,40.694C89.51,43.321,70.6,49.732,74.9,62.047c7.362,21.082,34.726-10.161,41.915-14.272,6.85-3.918,23.516-5.022,25.995-14.1C148.326,13.465,103.238,31.879,97.477,40.694Z" transform="translate(-26.113 -24.551)" fill="#ffdfe0" opacity="0.589" style="isolation: isolate"/>
            <path id="path3337" d="M25.852,225.98a161.289,161.289,0,0,0,.044,29.871,146.653,146.653,0,0,0,2.99,17.028c1.334,5.86,9.567,21.016,4.244,26.438-.854.87-2.829.4-3.869.237-10.115-1.57-11.836-18.367-13.3-26.112-2.968-15.677-4.534-33.682-1.43-49.442.743-3.769,7.851-17.759,12.313-8.925,1.785,3.536-2.194,7.319-.99,10.9Z" transform="translate(-8.992 -76.843)" fill="#ffdfe0" opacity="0.589" style="isolation: isolate"/>
            <path id="path3339" d="M476.87,262.186c1.343,5.758.48,11.666-.484,17.414-1.177,7.019-5.779,14.3-4.925,21.61.229,1.961,2.607,3.177,4.089,3.918,9.56,4.78,10.459-12.949,11.081-18.343C489.1,265.419,476.87,239.029,476.87,262.186Z" transform="translate(-136.767 -88.264)" fill="#ffdfe0" opacity="0.589" style="isolation: isolate"/>
          </g>
        </g>
      </g>
    </g>
    <g id="OBJECTS" transform="translate(0 0)">
      <g id="Grupo_81220" data-name="Grupo 81220">
        <g id="Grupo_81219" data-name="Grupo 81219" clip-path="url(#clip-path)">
          <g id="layer8" transform="translate(36.322 74.687)">
            <g id="g3444">
              <g id="g3366" transform="translate(73.42 195.278)">
                <path id="path3341" d="M200.465,635.534c-3.543,7.622-3.636,12.616-1.958,16.574s7.055,4.336,10.847,7.063,2.859,6.2.684,8.56-6.341,3.343-13.8.727-3.294-6.615-9.324-8.854a94.492,94.492,0,0,1-17.779-9.4c-3.854-2.7-5.626-6.406-2.859-13.246a30.347,30.347,0,0,1,7.832-11.008Z" transform="translate(-155.702 -444.396)" fill="#1c2031"/>
                <path id="path3343" d="M169.361,684.145c.132,3.481.462,4.49,1.989,4.772s10.033-.569,11.44-.188,2.616.9,6,2.893,11.022,6.7,14.8,7.443,5.4.83,8.1-.687a10.726,10.726,0,0,0,4.021-4.712s-26.428-11.528-34.911-12.936-11.44,3.417-11.44,3.417Z" transform="translate(-156.937 -459.588)" fill="#9ca1ba"/>
                <path id="path3345" d="M167.981,656.084c-3.17,12.224-2.455,16.392.094,20.407s10.537,1.916,16.037,4.112,9.822,5.958,16.971,8.839,14.111-1.342,15.074-3.874,2.3-8.616-4.165-11.665a40.376,40.376,0,0,1-12.868-9.232c-1.834-2.2-4.786-12.211-4.786-12.211Z" transform="translate(-155.965 -451.783)" fill="#4b506b"/>
                <path id="path3348" d="M233.1,381.224,234,403.6s11.78,69.71,11.469,77.977a27.618,27.618,0,0,1-5.346,14.588L204.04,571.191s-7.988.7-16.473-5.217-14.95-19.665-14.95-19.665l35.029-67.585-21.912-85.6Z" transform="translate(-157.844 -376.198)" fill="#265a77"/>
                <path id="path3350" d="M215.462,437.844l14.049,62.3-37.577,80.228,2.921,3.147,37.826-84.676-15.105-68.186Z" transform="translate(-163.227 -389.973)" fill="#1b394f"/>
                <path id="path3352" d="M202.423,655.817l-10.243,3.724c.34,5.815,2.518,9.035,5.31,11.321s9.988,7.026,13.23,9,9.131-.791,8.12-4.435a4.657,4.657,0,0,0-.428-1.032,39.73,39.73,0,0,1-11.955-8.786c-1.264-1.513-3.039-6.687-4.033-9.791Z" transform="translate(-163.296 -452.718)" fill="#9ca1ba"/>
                <path id="path3354" d="M174.017,606.343l-1.4,2.7s6.463,13.749,14.948,19.665,16.475,5.218,16.475,5.218l1.217-2.529c-8.56-.9-16.05-3.553-20.772-8.359-4.272-4.348-8.865-13.387-10.469-16.694Z" transform="translate(-157.845 -438.932)" fill="#1b394f"/>
                <path id="path3356" d="M156.527,406.222s-3.729,9.874-4.351,17.735,6.434,29.751,7.926,38.058,5.1,58.773,4.973,70.172-1.244,23.974-3.232,28.24.684,2.924.248,8.308a133.316,133.316,0,0,1-1.616,13.539c-.778,4.336,3.014,4.391,10.35,5.385s18.152-1.119,20.949-2.14,3.45-1.147,3.356-5.846.591-53.15,2.518-71.529,2.269-32.589,3.232-43.932,7.49-48.017,7.49-48.017l3.232-5.413-1.678-20.239-41.525.224Z" transform="translate(-152.137 -378.795)" fill="#336c8b"/>
                <path id="path3358" d="M159.221,392.8s27.942,3.3,43.156,1.12,28-11.518,28-11.518l-1.337-8.141-68.783,11.63Z" transform="translate(-154.111 -374.257)" fill="#183c57"/>
                <path id="path3360" d="M182.886,392.216a121.991,121.991,0,0,0-5.222,12.882c-1.648,5.342-1.679,10.63-1.275,20.435s2.439,56.892,3.029,74.949c.576,17.594.009,84.356-.022,87.819.926.061,1.883.087,2.862.078.04-4.192.472-51.359.175-66.595-.31-15.931-5.408-104.7-4.568-111.054s8.173-18,8.173-18Z" transform="translate(-158.836 -379.262)" fill="#184260"/>
                <path id="path3362" d="M177.36,428.173s7.832-.126,12.37-3.987,4.041-20.728,4.041-20.728l3.325.21s.342,13.679-4.227,20.448-15.416,6.532-15.416,6.532Z" transform="translate(-159.166 -382.394)" fill="#184260"/>
                <path id="path3364" d="M198.278,655.972a48.788,48.788,0,0,1-19.482,3.465c-8.288-.172-12.875-1.009-15.184-1.629.4,2.8,4.091,2.962,10.41,3.818,7.335.993,18.152-1.12,20.95-2.141C197.2,658.67,198.065,658.419,198.278,655.972Z" transform="translate(-155.335 -452.762)" fill="#184260"/>
              </g>
              <g id="g3406">
                <path id="path3368" d="M92.459,164.69l-1.6-11.043s2.222-9.287,1.927-12.043-1.43-8.127-1.741-10.428,1.088-6.539.233-7.525-2.984,1.294-4.584,2.924a6.21,6.21,0,0,0-1.617,5.791,9.668,9.668,0,0,1-.606,5.434c-.529,1.2-1.663-.643-1.663-.643l-3.7-8.56a15.918,15.918,0,0,0-8.921,2.629c-4.708,2.965-9.06,12.75-8.7,13.945a61.238,61.238,0,0,0,5.688,10.5c2.3,3.2,3.419,3.147,4.553,5.133a28.674,28.674,0,0,1,2.02,6.21s0-.076,6.387.378a25.835,25.835,0,0,0,12.323-2.7Z" transform="translate(-53.45 -109.077)" fill="#dd7467"/>
                <path id="path3370" d="M76.013,123.058s-4.041-19.064-5.5-19.428-3.046.364-3.03,2.1,2.548,15.008,2.191,15.763-1.151.147-2.067-.986-7.459-15.582-8.967-15.98-4.771.8-3.5,2.6,8.516,17.329,8.516,17.329-9.123-13.644-10.878-14.329-2.719,3.28-2.02,4.552,9.884,16.882,9.884,16.882L54.637,123.9s-1.947-3.437-3.691-1.187c-1.3,1.675-.265,3.476,1.2,6.28s6.775,12.273,6.775,12.273,3.5.3,7.91-2.692,9.185-15.512,9.185-15.512Z" transform="translate(-50.354 -103.539)" fill="#dd7467"/>
                <path id="path3372" d="M179.641,342.683s13.092,5.058,25.055,4.14S225.1,337.5,225.1,337.5s-2.167-33.33-4.239-42.189-29.458-79-29.458-79l-29.129,15.76a184.684,184.684,0,0,0,2.794,47.515c4.929,24.358,14.568,63.1,14.568,63.1Z" transform="translate(-81.415 -134.964)" fill="#ffe1c3"/>
                <path id="path3374" d="M230.944,374.377a70.445,70.445,0,0,1-19.24,7.48c-9.869,2.38-20.65.725-27.1-.761.773,3.157,1.386,5.634,1.386,5.634s13.091,5.059,25.054,4.14,20.408-9.325,20.408-9.325-.2-2.968-.509-7.169Z" transform="translate(-87.765 -179.013)" fill="#ffb28a"/>
                <path id="path3376" d="M183.006,307.006c2.732,10.088,1.57,37.385,1.13,45.042s-2.543,11.331-2.543,11.331-16.42,6.188-33.092-.819a179.827,179.827,0,0,1-30.486-16.814s12.685-27.509,13.563-35.407,2.669-7.587-2.449-14.214-17.394-20.543-25.494-37.06-4.176-22.493,1.821-29.8,23.673-4.9,23.673-4.9,47.19-17.435,51.679-14.849,9.67,7.417,12.527,19.286,11.743,64.725,16.483,73.3,7.85,16.587,14.663,21.645,12.4,3.617,10.455,9.4-12.307,20.332-18.085,23.4-12.339.382-12.339.382-4.207-25.516-5.305-36.9a129.475,129.475,0,0,0-2.889-18.268S184.137,252.073,181,239.555a47.475,47.475,0,0,0-12.087-20.9l-35.353,12.8s21.475,27.749,28.037,38.3,21.413,37.244,21.413,37.244Z" transform="translate(-63.924 -132.999)" fill="#3b405e"/>
                <path id="path3378" d="M142.195,282.482s18.373,30.383,19.78,37.415-7.494,60.419-7.494,60.419l-3.033-.91s9.275-49.085,9.1-55.356-2.484-8.14-4.154-11.324-16.417-28.8-16.417-28.8Z" transform="translate(-75.328 -153.405)" fill="#131c2f"/>
                <path id="path3380" d="M108.1,230.49c9.418,7.071,13.349,21,14.888,28.3s2.424,7.483,1.244,10.413S105.565,280.08,98.6,281.325s-15.509-1.21-19.006-3.105-5.455-3.742-6.853-9.448-3.155-16.575,5.595-22.687,19.3-12.224,22.643-13.386,7.117-2.209,7.117-2.209Z" transform="translate(-56.271 -138.916)" fill="#484e75"/>
                <path id="path3382" d="M190.269,298.261S167.7,268.8,156.455,255.733s-24.395-27.692-29.2-33.711-.5-16.178,2.857-23.709,11.083-23.326,26.531-19.978,31.082,14.256,35.321,20.854,6.656,20.289,8.509,30.052,3.108,63.763,3.108,63.763-13.375-49.2-19.591-63.254-5.341-14.028-12.812-17.131-16.105.982-15.948,4.655,7.316,14.157,15.636,27.834S184.932,279.4,187.1,285.163a71.66,71.66,0,0,1,3.171,13.1Z" transform="translate(-71.186 -124.255)" fill="#656b91"/>
                <path id="path3384" d="M188.975,223.329a30.008,30.008,0,0,1,10.345,14.059c3.281,9.346,6.672,24.584,6.938,27.8s5.73,3.123,8.022,2.776,4.113-1.42,3.925-4.655.172-12.5-4.584-21.533-8.445-17.06-10.55-20.472a20.5,20.5,0,0,0-4.1-4.995Z" transform="translate(-88.983 -134.964)" fill="#38bba3"/>
                <path id="path3386" d="M151.716,223.791c.941,5.425,2.025,7.107,6.923,15.838s13.784,19.413,20.315,31.224,6.106,30.484,7.927,31.868,10.172.848,10.958.028-2.088-21.737-7.3-34.284-10.173-17.993-14.364-26.364-5.872-12.554-5.872-12.554Z" transform="translate(-78.6 -137.05)" fill="#38bba3"/>
                <path id="path3388" d="M151.715,223.79a26.756,26.756,0,0,0,3.436,9.57c5.454,3.314,5.877,4.7,11.639,4.654a28.287,28.287,0,0,0,6.982-.82c-2.43-5.076-3.47-7.646-3.47-7.646Z" transform="translate(-78.6 -137.049)" fill="#13756c"/>
                <path id="path3390" d="M199.214,216.316l-.038.018-.008,0-7,4.915a10.056,10.056,0,0,0-2.356,2.524h0a29.909,29.909,0,0,1,6.062,6.463c2.2-1.622,1.51-3.518,3.674-6.072a11.117,11.117,0,0,1,3.711-2.938,20.434,20.434,0,0,0-4.047-4.915Z" transform="translate(-89.217 -134.967)" fill="#13756c"/>
                <path id="path3392" d="M180.757,193.9c6.549,2.383,7.27,1.378,6.56,5.385s-1.409,5.515.1,9.876,1.943,1.678-.4,5.749-15.319,11.344-19.726,11.844-12.977-5.545-18.626-7.847-6.317-.92-6.883-5.22,1.443-3.511.345-8.137-1.466-5.46,1.487-7.763,37.142-3.886,37.142-3.886Z" transform="translate(-75.703 -128.721)" fill="#38bba3"/>
                <path id="path3394" d="M105.741,259a75.2,75.2,0,0,0,.218-20.854c-1.554-10.5-3.9-15.658-5.361-21.771s-.855-9.993-1.865-12.05a19.389,19.389,0,0,0-2.766-3.951l-22.5,1.049s-4.211,5.378-4.942,8.21.062,27.974-.731,37.324.824,10.322,3.761,14.176,1.337,5.28,7.382,6.007,8.283,1.028,14.064.182S105.741,259,105.741,259Z" transform="translate(-55.157 -130.525)" fill="#585e84"/>
                <path id="path3396" d="M74.38,194.731c7.033,3.465,17.212,2.919,20.88,1.927s4.118-1.7,4.538-3.119.2-9.092-.187-11.5-2.642-5.028-9.247-5.574-13.784.944-16.5,2.343-3.17,3.091-2.859,7.5-.466,4.609.078,6.35,3.3,2.067,3.3,2.067Z" transform="translate(-56.073 -123.83)" fill="#232951"/>
                <path id="path3398" d="M126.121,396.086c-.219.48-.779,1.725-.779,1.725a179.829,179.829,0,0,0,30.486,16.814c16.671,7.008,33.092.818,33.092.818a15.524,15.524,0,0,0,1.028-2.559,85.03,85.03,0,0,1-14.236,2.406c-12.989,1.246-20.329-3.493-25.691-6.548-5-2.848-21.583-11.454-23.9-12.655Z" transform="translate(-71.25 -185.062)" fill="#131c2f"/>
                <path id="path3400" d="M273.839,374.327a58.419,58.419,0,0,1-5.155,12.892c-3.538,5.983-9.714,12.51-14.813,13.282a29.926,29.926,0,0,1-9.249-.408l.458,2.83s6.561,2.686,12.338-.38,16.139-17.619,18.086-23.4c.925-2.745.135-3.861-1.665-4.818Z" transform="translate(-104.49 -178.999)" fill="#131c2f"/>
                <path id="path3402" d="M170.878,370.808c8.7,1.516,26.132,1.948,26.132,1.948l-.835,1.989s-9.275-.322-16.352-1.077-9.648-1.33-9.648-1.33Z" transform="translate(-83.744 -178.018)" fill="#131c2f"/>
                <path id="path3404" d="M256.515,353.562A28.734,28.734,0,0,1,244.97,364.7l1.319,1.66a40.436,40.436,0,0,0,9.143-7.891c.955-1.158,1.689-2.137,2.257-2.955q-.6-.953-1.174-1.948Z" transform="translate(-104.587 -173.212)" fill="#131c2f"/>
              </g>
              <g id="g3442" transform="translate(55.335 3.607)">
                <path id="path3408" d="M146.724,197.834c-2.548.307-3.761,2.189-1.445,3.657a32.194,32.194,0,0,0,7.529,4.07,34.289,34.289,0,0,0,15.6,1.787c5.245-.748,9.441-4.451,13.023-5.375s4.212-1.79,4.453-3.367,1.1-2.413-2.106-2.5-22.993.151-28.3.269a28.169,28.169,0,0,0-8.757,1.459Z" transform="translate(-131.797 -132.937)" fill="#13756c"/>
                <path id="path3410" d="M142.011,168.128s-1.844-4.242-4.474-3.734-3.807,3.628-3.195,6.273,2.1,6.294,4.2,7.771a3.948,3.948,0,0,0,4.332-.1s.04-.544.071-3.768a24.894,24.894,0,0,0-.934-6.443Z" transform="translate(-129.049 -124.093)" fill="#cb6558"/>
                <path id="path3412" d="M197.051,167.466s1.845-4.242,4.474-3.734,3.806,3.628,3.195,6.273-2.1,6.294-4.2,7.771a3.95,3.95,0,0,1-4.333-.1s-.039-.545-.07-3.769a24.893,24.893,0,0,1,.934-6.443Z" transform="translate(-146.308 -123.908)" fill="#cb6558"/>
                <path id="path3414" d="M138.484,168.247c-2.354-.133-1.876,4.451-1.06,6.713s2.579,3.738,3.59,3.778,1.383-2.1.812-5.1-1.721-5.533-3.341-5.395Z" transform="translate(-129.765 -125.177)" fill="#a03c2f"/>
                <path id="path3416" d="M199.128,169.706c1.41-1.832,3.027-2,3.874-1.07s1.092,2.532-.132,4.941-1.861,4.1-3.24,4.834a1.256,1.256,0,0,1-1.9-.472Z" transform="translate(-146.757 -125.133)" fill="#a03c2f"/>
                <path id="path3418" d="M163.2,137.174S147.624,142.057,144.6,149.8s-2.3,13.452-2.3,13.452,1.794,14.844,3.071,17.893,8.5,7.753,10.868,8.915S163.2,191,163.2,191s4.594.227,6.963-.934,9.589-5.865,10.867-8.915,2.787-18.126,2.787-18.126,1.016-5.473-2.013-13.219-18.6-12.629-18.6-12.629Z" transform="translate(-131.289 -116.519)" fill="#dd7467"/>
                <path id="ellipse3420" d="M156.438,175.3c.822,0,1.487,1.179,1.487,2.635s-.666,2.634-1.487,2.634-1.487-1.179-1.487-2.634S155.617,175.3,156.438,175.3Z" transform="translate(-134.836 -127.145)" fill="#fff"/>
                <path id="path3422" d="M181.367,151.314c-2.1.863-3.5,1.389-5.354-.561s-1.044-2.2-2.512-5.493-2.417-4.761-4.388-4.917-4.756,1.06-8.344.371-4.387-1.3-6.122-.773a18.035,18.035,0,0,0-6.35,4.09c-1.319,1.53-.754,3.4-2.708,4.56s-6.915,4.172-6.915,4.172-2.889-4.677-5.291-3.7-3.077-3.786-2.912-5.4a15.113,15.113,0,0,1,.494-2.68s-4.584-5.514-3.814-10.1,5.541-8.672,5.541-8.672a22.4,22.4,0,0,1,3.085-5.5c2.213-2.96,7.08-6.365,14.52-7.184s10.071.374,13.713-.339,5.235-1.1,5.942.25a3.539,3.539,0,0,1,.369,2.476,49.255,49.255,0,0,1,6.554-2.331c1.947-.36,2.716,1.508,3.124,3.462a37.9,37.9,0,0,1,.4,5.729,2.931,2.931,0,0,1,3.6.322c1.6,1.611.534,6.411-.087,7.944a5.067,5.067,0,0,1-.965,1.8s2.049-1.363,2.833,1.808-.659,2.331-1.955,5.934-1.146,3.9-1.719,7.644-.738,7.085-.738,7.085Z" transform="translate(-127.065 -108.54)" fill="#3b405e"/>
                <path id="path3424" d="M168.611,108.542a10.419,10.419,0,0,0-1.412.147,22.8,22.8,0,0,1,2.005,2.159c1.7,2.062.99,2.872,2.4,2.451s6.164-2.887,7.12.421a14.732,14.732,0,0,1,0,6.909s5.23-1.271,4.824,2.478a19.907,19.907,0,0,1-1.637,6.206,3.375,3.375,0,0,1,2.2,1.777c.571,1.4-.022,1.141-1.956,4.058s-1.923,4.985-3.483,4.372-.166-6.775-.012-8.649-.606-1.586-2.957.343-6.714,2.486-7.176.721,2.286-3.863,1.462-4.9-1.768,1.677-6.383,5.341-9.32,2.909-13.814,2.914-6.452,3.757-7.463,7.253-3.185,5.251-3.724,3.7-2.318-.488-3.911-1.561-.98-1.38.1-4.852,2-4.358,2-4.358a4.02,4.02,0,0,0-2.9,1.436c-1.495,1.538-1.562,2.055-1.562,2.055s-1.32-.836-3.367-1.976a22.339,22.339,0,0,0,2.537,4,15.2,15.2,0,0,0-.494,2.68c-.164,1.617.51,6.383,2.912,5.4s5.292,3.7,5.292,3.7,4.96-3.014,6.915-4.172,1.388-3.03,2.706-4.559a18.052,18.052,0,0,1,6.351-4.091c1.735-.529,2.535.084,6.122.773s6.373-.526,8.343-.37,2.92,1.629,4.387,4.917.661,3.542,2.514,5.492,3.255,1.425,5.351.562c0,0,.166-3.338.739-7.086s.423-4.041,1.719-7.643,2.738-2.763,1.953-5.935-2.832-1.808-2.832-1.808a5.061,5.061,0,0,0,.964-1.8c.62-1.533,1.689-6.333.088-7.944a2.93,2.93,0,0,0-3.6-.321,37.913,37.913,0,0,0-.4-5.73c-.408-1.953-1.178-3.822-3.125-3.462a49.427,49.427,0,0,0-6.554,2.331,3.537,3.537,0,0,0-.369-2.476,1.788,1.788,0,0,0-1.87-.9Z" transform="translate(-127.592 -108.54)" fill="#262a44"/>
                <g id="g3440" transform="translate(16.589 41.768)">
                  <path id="ellipse3426" d="M156.438,175.3c.822,0,1.487,1.179,1.487,2.635s-.666,2.634-1.487,2.634-1.487-1.179-1.487-2.634S155.617,175.3,156.438,175.3Z" transform="translate(-151.426 -168.913)" fill="#1e2133"/>
                  <path id="ellipse3428" d="M186.031,175.3c.822,0,1.487,1.179,1.487,2.635s-.666,2.634-1.487,2.634-1.487-1.179-1.487-2.634S185.21,175.3,186.031,175.3Z" transform="translate(-159.672 -168.913)" fill="#1e2133"/>
                  <path id="path3430" d="M150.065,169.325c.122,1.192.783,1.361,1.854.842s1.693-1.129,3.014-1,1.737,1.049,2.714,1.134,1.648-.545,1.482-1.2-1.743-1.8-4.157-1.891-4.984.962-4.907,2.123Z" transform="translate(-150.064 -166.654)" fill="#3b405e"/>
                  <path id="path3432" d="M181.644,167.884c.111,1.826.943,1.5,2.425,1.264s2.453-.712,3.524-.379,1.943,1.394,2.686,1.019,1.06-.817.638-1.613-2.664-1.561-4.6-1.7-4.412.3-4.679,1.414Z" transform="translate(-158.864 -166.444)" fill="#3b405e"/>
                  <path id="path3434" d="M166.964,187.337c1.337,1.878,1.875,2.4,3.191,2.455s4.14-1.366,4.029-2.158-1.026-1.446-3.23-1.738a5.766,5.766,0,0,0-3.752.607c-.356.177-.239.834-.239.834Z" transform="translate(-154.768 -171.846)" fill="#bd3735"/>
                  <path id="path3436" d="M160.361,193.272a27.063,27.063,0,0,0,6.588,1.627,49.569,49.569,0,0,0,7.982-.53c1.51-.322,2.4-1.63,2.975-1.271s-.991,3.8-2.875,4.973c-1.347.837-7.891,1.648-10.361,1.048a6.872,6.872,0,0,1-4.625-4.223c-.643-1.643.317-1.624.317-1.624Z" transform="translate(-152.783 -173.854)" fill="#ffe0e0"/>
                  <path id="path3438" d="M161.115,194.287c-.319,0-.413.34-.183.928.283.724.465.663,1.293,1.016a22.9,22.9,0,0,0,3.28.914c.555.1.236.4-.91.156s-2.308-.508-2.689-.578-.71-.049-.271.687l0,.006a6.353,6.353,0,0,0,3.3,2.051,16.77,16.77,0,0,0,4.575.112,36.755,36.755,0,0,0,4.9-.831,2.155,2.155,0,0,0,.972-1.105c.241-.532.574-.857.042-.846s-1.374.17-2.163.268-1.294-.032-.89-.133,2.862-.506,3.667-.752,1.169-.809,1.1-1.227-.423-.58-1.149-.413c-.11.025-.307.069-.56.118-.078.023-.158.043-.239.06-.263.056-.607.11-1,.162a32.091,32.091,0,0,1-6.033.518,36.194,36.194,0,0,1-6.8-1.057.7.7,0,0,0-.255-.052Z" transform="translate(-153.057 -174.203)" fill="#fff"/>
                </g>
              </g>
            </g>
          </g>
          <g id="layer7" transform="translate(163.613 76.934)">
            <path id="path312699" d="M1937.75,1583.8c-7.45,1.446-16.914-2.993-23.851.535" transform="translate(-696.953 -518.045)" fill="#22263c"/>
            <path id="path312903" d="M1942.16,1672.884c-8.679-2.62-15.853,3.739-23.826,4.779" transform="translate(-698.189 -542.936)" fill="#22263c"/>
            <g id="g3608">
              <g id="g3462" transform="translate(0 33.933)">
                <path id="path3446" d="M277.261,232.695c-1.437,2.468.617,7.889,1.344,10.767s5.978,7.883,8.928,9.28,6.209-1.627,6.209-1.627,2.394-3.427-.556-9.2-2.981-7.6-7.909-9.606S277.261,232.695,277.261,232.695Z" transform="translate(-240.738 -175.379)" fill="#dc581a"/>
                <path id="path3448" d="M276.138,235.57S262.854,248,259.595,250.4s-9.222,10.5-11.2,13.541a8.43,8.43,0,0,0-.664,8.313c1.02,2.1,3.584,4.782,5.515,4.928a33.431,33.431,0,0,0,6.132-.688s10.751-5.763,17.655-12.108a48.214,48.214,0,0,0,9.885-12.262,26.687,26.687,0,0,0-3.321-9.794A16.893,16.893,0,0,0,276.138,235.57Z" transform="translate(-232.426 -176.512)" fill="#e68c81"/>
                <path id="path3450" d="M284.625,235.57s-3.428,3.208-7.228,6.678a37.168,37.168,0,0,0,17.544,10.109L295,249.8a27.044,27.044,0,0,0-2.912-7.476,16.888,16.888,0,0,0-7.46-6.757Z" transform="translate(-240.915 -176.512)" fill="#c9585d"/>
                <path id="path3452" d="M299.661,210.623c-5.124-1.18-7.348.467-10.406,4.249s-11.8,11.9-11.8,11.9,1.313-.535,3.661,1.919,2.007,1.681,4.324,6.93,8.5,9.571,8.5,9.571,3.4-3.225,5.437-9.947,3.661-8.132,3.568-13.609-3.279-11.012-3.279-11.012Z" transform="translate(-240.931 -169.455)" fill="#ffd996"/>
                <g id="g3458">
                  <path id="path3454" d="M253.319,197.337a41.121,41.121,0,0,0,2.926-6.132,22.116,22.116,0,0,1,2.331-5.621,19.013,19.013,0,0,0,2.126-4.566c.356-1.166-.071-2.944.54-4.906s1.391-2.849.611-3.2a2.647,2.647,0,0,0-2.89.633,4.053,4.053,0,0,0-1.774,2.884,8.626,8.626,0,0,1-.96,2.875,5.843,5.843,0,0,1-1.192,1.713c-.538.622-2.031,1.21-2.56.5a15.346,15.346,0,0,1-1.561-4c-.185-.936-.447-2.064-.447-2.064s1.578-12.924,1.544-14.344-.616-2.579-1.9-2.762-2.938,13.946-3.6,14.434-.882.391-1.217-.183-.519-18.032-1.973-18.645-2.822-.131-3.069,1.639.965,16.417.936,17.24-.392,1.019-.94.32-2.953-13.075-4.281-14.4-3.709-.048-3.374,1.362,3.995,15.339,3.791,15.807-.839.144-1.174-.232-4.473-7.209-5.807-8.049-3.4,1.12-2.249,3.336,5.595,8.847,5.987,9.94,3.031,10.322,4.772,13.45,2.134,3.554,2.516,4.291a5.21,5.21,0,0,1,.431,1.818Z" transform="translate(-226.821 -153.697)" fill="#e68c81"/>
                  <path id="path3456" d="M264.186,257.607a76,76,0,0,0-1.251-14.027c-1.313-5.908-3.677-19.366-4.016-23.1s-.355-8.251-.355-8.251l-14.087,2.315a16.878,16.878,0,0,0-.649,6.1c.4,2.627-2.116,16.015-.942,27.735s-.046,13.2,2.333,15.876,3.382,5.074,4.834,5.512,3.475-1.063,6.626-2.433,7.507-9.731,7.507-9.731Z" transform="translate(-231.21 -170.008)" fill="#e68c81"/>
                </g>
                <path id="path3460" d="M272.955,247.7c-1.158,1.047-2.287,2.058-3.317,2.965l1.027,11.619Z" transform="translate(-238.753 -179.892)" fill="#c9585d"/>
              </g>
              <g id="g3492" transform="translate(103.147 85.513)">
                <path id="path3464" d="M397.381,260.147c-.232,2.982-2.811,4.358-6.75,8.355s-20.805,5.546-20.805,5.546,3.661-4.838,8.881-10.384,8.094-7.153,10.7-6.9,7.97,3.385,7.97,3.385Z" transform="translate(-369.818 -233.99)" fill="#dc581a"/>
                <path id="path3466" d="M369.816,271.109s11.292,19.913,12.784,23.11,3.044,10.007,4.476,14.581,8,20.856,9.907,25.838,4.437,14.479,4.437,14.479a12.889,12.889,0,0,0,5.113.238c3.182-.391,6.385-4.609,6.385-4.609s-7.52-38.8-11.072-47.91c-3.165-8.124-11.171-42.336-11.171-42.336s-6.563,2.14-11.656,4.3S369.816,271.109,369.816,271.109Z" transform="translate(-369.816 -233.367)" fill="#e68c81"/>
                <path id="path3468" d="M392.151,259.854l-20.341,11.9.9,5c.687,1.218,1.511,2.684,2.357,4.192,8.664-1.908,15.679-8.6,19.157-12.508-.953-3.886-1.541-6.331-2.075-8.575Z" transform="translate(-370.372 -234.859)" fill="#c9585d"/>
                <path id="path3470" d="M382.2,225.2c3.1.312,3.861,2.134,5.035,3.885s10.148,22.271,10.148,22.271a14.087,14.087,0,0,0-8.017,3.42c-3.738,3.273-7.089,6.874-11.121,9.189a12.74,12.74,0,0,1-8.418,1.293s.015-12.087.555-18.392.618-7.027,2.194-12.373S382.2,225.2,382.2,225.2Z" transform="translate(-369.818 -225.203)" fill="#ffd996"/>
                <g id="g3490" transform="translate(27.253 108.249)">
                  <path id="path3472" d="M435.222,405.106c-.415,2.266-.671,4.427-1.764,5.621s-3.964.889-3.964.889.983-4.738,1.562-6.37a2.5,2.5,0,0,1,2.96-1.425c.524.157,1.206,1.285,1.206,1.285Z" transform="translate(-413.699 -383.207)" fill="#e68c81"/>
                  <path id="path3474" d="M424.56,376.068s5.564,16.455,6.022,18.7.589,2.049-.251,3.372-2.512,1.435-5.986.988-7.918-.816-8.912-1.986-.044-1.8-.11-3.907-1.467-13.384-1.467-13.384.113-3.284,4.285-4.247,6.418.462,6.418.462Z" transform="translate(-409.342 -375.271)" fill="#e68c81"/>
                  <path id="path3476" d="M412.112,381.165s-1.623,4.023-2.65,7.193a15.291,15.291,0,0,0-.928,6.3c.044,1.868.393,3.544-.142,5.7s-1.464,3.691-.034,3.662,2.294-1.161,3.178-2.05.972-1.376,1.409-3.514,2.272-3.278,2.818-4.138,1.158-2.4.928-6.709-.7-7.623-.7-7.623Z" transform="translate(-407.597 -376.584)" fill="#e68c81"/>
                  <path id="path3478" d="M430.039,404.63c-.459,3.814-.754,6.316-2.173,7.6s-5.2,2.713-6.182,2.3-.492-3.539,1.213-5.549,2.173-4.02,2.851-5.023,1.026-1.495,2.282-.983a4.917,4.917,0,0,1,2.01,1.656Z" transform="translate(-411.383 -382.934)" fill="#e68c81"/>
                  <path id="path3480" d="M425.426,404.055s-1.081,6.159-1.6,7.476a22.559,22.559,0,0,1-3.408,5.013c-1.277,1.46-4.544,2.241-4.893,1.666s-.153-2.738,1.114-4.94a19.158,19.158,0,0,0,2.611-6.061c.5-2.354,1.387-4.684,2.632-4.635a10.867,10.867,0,0,1,3.55,1.479Z" transform="translate(-409.762 -382.88)" fill="#e68c81"/>
                  <path id="path3482" d="M413.722,403.522l-.164,6.429-1.868,5.932s-1.922,3.1-2.447,4.163-.753,2.61.263,2.944,2.4-.924,3.342-1.883,3.6-4.974,3.6-4.974,2.293-5.337,2.654-6.542a44.406,44.406,0,0,0,.732-4.925s.611-1.067-1.431-2.227-4.686,1.081-4.686,1.081Z" transform="translate(-407.932 -382.75)" fill="#e68c81"/>
                  <path id="path3484" d="M420.825,411.277a13.682,13.682,0,0,1-.664,5.163,7.8,7.8,0,0,1-2.714,4.213,20.1,20.1,0,0,0,2.146-4.373c.7-2.525,1.08-5.026,1.232-5Z" transform="translate(-410.341 -385.305)" fill="#9b1a26"/>
                  <path id="path3486" d="M426.822,408.612a7.571,7.571,0,0,1-.26,3.785c-.542,2.072-1.577,3.448-1.732,3.35-.13-.082.68-1.638,1.163-3.5s.675-3.644.829-3.636Z" transform="translate(-412.396 -384.562)" fill="#9b1a26"/>
                  <path id="path3488" d="M432.153,407.078a6.124,6.124,0,0,1,.055,2.854c-.214,1.585-.775,2.751-.953,2.682a15.018,15.018,0,0,1,.371-2.761c.2-1.523.335-2.786.527-2.775Z" transform="translate(-414.18 -384.135)" fill="#9b1a26"/>
                </g>
              </g>
              <g id="g3522" transform="translate(73.34 229.623)">
                <path id="path3494" d="M328.494,432.8s12.481,47.5,13.222,51.479.8,21.395,2.163,26.816,11.616,48.74,11.616,48.74l13.407-1.07s-2.811-48.559-2.626-54.689-1.236-12.818-1.7-18.7-4.171-60.389-4.171-60.389Z" transform="translate(-328.494 -424.986)" fill="#e68c81"/>
                <path id="path3496" d="M361.882,439.577l-30.672,4.76c.835,3.192,1.984,7.61,3.089,11.849,14.562,2.062,24.186-1.691,28.447-3.964C362.322,446.021,362.141,443.383,361.882,439.577Z" transform="translate(-329.251 -429.052)" fill="#c9585d"/>
                <g id="g3520" transform="translate(18.447 125.75)">
                  <path id="path3498" d="M368.284,679.114c-.27,5.036.154,7.7,1.483,8.914s9.615,1.116,11.554,1.359,1.383-1.619,2.425-1.887,1.884,1.289,5.329,1.79,17.355.922,20.621.459,2.811-4.873,2.811-4.873Z" transform="translate(-358.007 -621.553)" fill="#bed0df"/>
                  <path id="path3500" d="M354.067,604.056c7.821-4.718,18.415-4.758,24.531-4.738s8.235,1.17,8.345,4.208,1.791,33.108,3.32,37.708,5.111,9.417,9.917,11.354,6.532.776,8.039,5.082,1.027,6.213-1.158,6.871-21.188.128-25.842-.845-7.405-1.14-11.533-2.143-6.269-4.266-5.9-10.518,1.223-8.71,1.18-11.482-10.9-35.5-10.9-35.5Z" transform="translate(-354.067 -599.315)" fill="#4b506b"/>
                  <path id="path3502" d="M390.877,599.4c.127,7.3.76,34.612,3.216,42.6,2.842,9.245,5.127,9.876,8.463,11.169a73.794,73.794,0,0,0,7.045,2.254l2.767-2.134c-.584-.179-1.22-.392-1.93-.678-4.806-1.937-8.388-6.753-9.917-11.354s-3.211-34.671-3.32-37.708c-.1-2.675-1.754-3.884-6.324-4.148Z" transform="translate(-364.325 -599.339)" fill="#bed0df"/>
                  <path id="path3504" d="M414.758,672.655a8.056,8.056,0,0,0-4.733,4.415,16.752,16.752,0,0,0-.34,8.069c5.888.2,11.639.182,12.782-.163,2.185-.658,2.664-2.564,1.156-6.87s-3.232-3.146-8.038-5.083c-.281-.113-.555-.237-.827-.368Z" transform="translate(-369.472 -619.753)" fill="#4b506b"/>
                  <path id="path3506" d="M389.356,608.171a34.788,34.788,0,0,1,4.878-.379c2.039.05,2.461.331,2.659.468s.211.953.237,1.312.011.381-.247.4a14.451,14.451,0,0,0-3.98-.007c-2.885.293-3.515.683-3.722.463a3.742,3.742,0,0,1-.214-1.772c.041-.539.388-.486.388-.486Z" transform="translate(-363.789 -601.676)" fill="#22263c"/>
                  <path id="path3508" d="M390.225,618.069a34.688,34.688,0,0,1,4.878-.379c2.039.05,2.461.331,2.659.468s.211.952.237,1.312.012.381-.247.4a14.408,14.408,0,0,0-3.98-.007c-2.885.292-3.515.683-3.722.463a3.734,3.734,0,0,1-.213-1.772c.041-.539.387-.485.387-.485Z" transform="translate(-364.031 -604.435)" fill="#22263c"/>
                  <path id="path3510" d="M391.26,627.159a34.727,34.727,0,0,1,4.878-.379c2.039.051,2.461.332,2.658.469s.211.952.237,1.311.012.381-.246.4a14.4,14.4,0,0,0-3.98-.008c-2.884.293-3.514.683-3.721.464a3.744,3.744,0,0,1-.214-1.772c.041-.539.388-.485.388-.485Z" transform="translate(-364.32 -606.967)" fill="#22263c"/>
                  <path id="path3512" d="M391.739,637.157a34.683,34.683,0,0,1,4.878-.379c2.04.05,2.461.331,2.659.469s.211.952.237,1.311.012.381-.247.4a14.414,14.414,0,0,0-3.98-.007c-2.885.293-3.515.683-3.722.463a3.732,3.732,0,0,1-.213-1.772c.041-.539.387-.485.387-.485Z" transform="translate(-364.453 -609.754)" fill="#22263c"/>
                  <path id="path3514" d="M392.592,646.343a34.662,34.662,0,0,1,4.878-.379c2.04.05,2.462.331,2.659.468s.211.952.237,1.312.011.38-.246.4a14.433,14.433,0,0,0-3.98-.008c-2.884.293-3.514.684-3.721.464a3.734,3.734,0,0,1-.214-1.772c.041-.538.388-.485.388-.485Z" transform="translate(-364.691 -612.314)" fill="#22263c"/>
                  <path id="path3516" d="M393.8,656.273a34.755,34.755,0,0,1,4.663-1.482c2-.417,2.472-.24,2.695-.151s.423.879.53,1.223.1.368-.149.445a14.418,14.418,0,0,0-3.876.9c-2.741.943-3.265,1.468-3.517,1.3a3.731,3.731,0,0,1-.612-1.677c-.083-.533.267-.56.267-.56Z" transform="translate(-365.062 -614.701)" fill="#22263c"/>
                  <path id="path3518" d="M398.626,666.392a34.756,34.756,0,0,1,3.618-3.294c1.64-1.213,2.146-1.249,2.386-1.262s.751.622.992.89.243.294.051.467a14.421,14.421,0,0,0-3.146,2.437c-2.1,2-2.355,2.7-2.653,2.651s-.958-.818-1.257-1.268.008-.62.008-.62Z" transform="translate(-366.445 -616.737)" fill="#22263c"/>
                </g>
              </g>
              <g id="g3550" transform="translate(29.58 222.017)">
                <path id="path3524" d="M267.828,414.441s11.647,59.945,12.48,64.783.618,8.272,1.421,11.886,11.245,67.563,11.245,67.563L304.9,556.88s2.348-20.811,2.379-35.728-3.182-29.709-3.676-32.725,1.482-10.94,1.112-14.889,1.7-44.027,1.7-44.027Z" transform="translate(-267.828 -414.441)" fill="#e68c81"/>
                <path id="path3526" d="M270.947,430.525c1.169,6.022,1.951,10.05,3.906,20.157,16.5,3.542,26.6,2.352,31.568,1.13.2-4.317.4-8.531.551-11.663Z" transform="translate(-268.697 -418.923)" fill="#c9585d"/>
                <g id="g3548" transform="translate(17.099 135.687)">
                  <path id="path3528" d="M291.565,682.382s-.237,7.236,1.432,8.758,12.866,2.78,19.384,2.134,11.43-.674,12.419-3.469a8.177,8.177,0,0,0-.594-5.8s-5.538-2.8-14.945-3.062a87.324,87.324,0,0,0-17.7,1.439Z" transform="translate(-291.538 -624.386)" fill="#bed0df"/>
                  <path id="path3530" d="M294.14,603.613c5.761-1.258,16.6-1.12,20.049-.973s5.128,1.362,5.854,4.164-2.41,32.029-1.761,35.116,6.843,18.191,5.807,21.36-8.727,3.892-15.616,3.913-14.025-1.877-15.879-3.489-.942-4,.17-9.509,5.406-10.892,5.375-14.958-3.923-28.853-4.7-31.675.7-3.948.7-3.948Z" transform="translate(-291.533 -602.547)" fill="#4b506b"/>
                  <path id="path3532" d="M311.628,602.547a111.841,111.841,0,0,0-11.279.49c.861,5.243,5.6,34.164,5.824,36.8.247,2.885-3.645,14.367-3.645,14.367l16.018-.668s-3.585-9.85-3.786-13.645c-.172-3.258,2.271-29.454,3-37.156-.35-.045-.718-.077-1.113-.094-1.076-.045-2.876-.09-5.017-.092Z" transform="translate(-293.989 -602.547)" fill="#bed0df"/>
                  <path id="path3534" d="M305.371,667.176c-8.04.015-12.833,6.457-13.811,11.377a3.4,3.4,0,0,0,1.037,3.161c1.854,1.613,8.99,3.507,15.879,3.488s14.581-.744,15.616-3.913a3.43,3.43,0,0,0,.11-1.113c-1.846-6.206-7.566-12.32-17.826-12.969-.34-.022-.674-.03-1-.03Z" transform="translate(-291.534 -620.557)" fill="#4b506b"/>
                  <path id="path3536" d="M300.977,607.386a22.885,22.885,0,0,1,7.763-1.332,18.521,18.521,0,0,1,8.572,1.164.959.959,0,0,1,.578,1.3,1.009,1.009,0,0,1-1.308.312c-2.26-1.036-5.044-1.068-7.768-.989a22.274,22.274,0,0,0-7.174,1.2,1.008,1.008,0,0,1-1.3-.384.969.969,0,0,1,.641-1.266Z" transform="translate(-293.964 -603.51)" fill="#22263c"/>
                  <path id="path3538" d="M302.185,619.063c.03-.034.063-.072.1-.107a6.987,6.987,0,0,1,1.5-1.19,13.253,13.253,0,0,1,6.6-1.611h.04a10.769,10.769,0,0,1,6.577,1.8,7.532,7.532,0,0,1,.722.574,1,1,0,0,1,.386.8.445.445,0,0,1-.238.361.736.736,0,0,1-.473.076,1.4,1.4,0,0,1-.745-.338,6.506,6.506,0,0,0-.588-.447,9.613,9.613,0,0,0-5.59-1.471l-.088,0h0a12.405,12.405,0,0,0-5.737,1.345,5.839,5.839,0,0,0-1.254.935,1.066,1.066,0,0,1-.081.08,1.293,1.293,0,0,1-.237.188c-.2.219-.583.046-.755.074s-.537-.439-.339-.742a1.1,1.1,0,0,1,.2-.325l0,0Z" transform="translate(-294.43 -606.336)" fill="#22263c"/>
                  <path id="path3540" d="M303.012,628.97c.027-.04.056-.082.085-.122a6.016,6.016,0,0,1,1.435-1.332,10.68,10.68,0,0,1,6.139-1.622h0c.152-.011.307-.022.463-.026a8.636,8.636,0,0,1,6.518,2.412,5,5,0,0,1,.588.791.96.96,0,0,1,.042,1,.78.78,0,0,1-.45.349.831.831,0,0,1-.506.012.886.886,0,0,1-.541-.435,2.977,2.977,0,0,0-.4-.534c-1.208-1.315-3.336-1.742-5.3-1.775-.17,0-.338,0-.5,0h0a9.524,9.524,0,0,0-5.163,1.354,4.691,4.691,0,0,0-1.141,1.045c-.022.03-.047.059-.07.089a.9.9,0,0,1-.2.2c-.169.242-.553-.043-.718-.039a.95.95,0,0,1-.439-.982,1.118,1.118,0,0,1,.161-.378l0,0Z" transform="translate(-294.676 -609.044)" fill="#22263c"/>
                  <path id="path3542" d="M304.571,640.507c.022-.04.042-.08.064-.12a4.864,4.864,0,0,1,1.187-1.317,8.5,8.5,0,0,1,5.41-1.632h0c.157-.015.316-.022.478-.03a7.215,7.215,0,0,1,5.755,2.513,4.389,4.389,0,0,1,.467.765.891.891,0,0,1-.076.935.879.879,0,0,1-.471.32.8.8,0,0,1-.478.012.642.642,0,0,1-.439-.4,2.43,2.43,0,0,0-.291-.507c-.935-1.267-2.812-1.772-4.548-1.821q-.253-.005-.5,0h0a7.368,7.368,0,0,0-4.448,1.355,3.6,3.6,0,0,0-.905,1.021c-.019.03-.034.057-.05.086a.713.713,0,0,1-.153.193c-.117.233-.473-.05-.613-.05a1.088,1.088,0,0,1-.495-.955,1,1,0,0,1,.1-.368h0Z" transform="translate(-295.131 -612.261)" fill="#22263c"/>
                  <path id="path3544" d="M304.909,653.419c.023-.04.043-.08.064-.12a4.876,4.876,0,0,1,1.187-1.317,8.5,8.5,0,0,1,5.411-1.632h0c.156-.015.315-.022.477-.03a7.214,7.214,0,0,1,5.755,2.513,4.321,4.321,0,0,1,.467.766.89.89,0,0,1-.075.934.879.879,0,0,1-.471.32.8.8,0,0,1-.478.012.642.642,0,0,1-.439-.4,2.431,2.431,0,0,0-.291-.507c-.935-1.267-2.813-1.772-4.548-1.82q-.253-.007-.5,0h0a7.372,7.372,0,0,0-4.448,1.355,3.6,3.6,0,0,0-.905,1.021c-.019.03-.034.058-.051.087a.707.707,0,0,1-.152.193c-.117.232-.472-.051-.613-.05a1.088,1.088,0,0,1-.495-.954.99.99,0,0,1,.1-.369l0,0Z" transform="translate(-295.226 -615.859)" fill="#22263c"/>
                  <path id="path3546" d="M305.583,664.545c.023-.04.043-.08.065-.12a4.863,4.863,0,0,1,1.187-1.317,8.5,8.5,0,0,1,5.41-1.632h0c.156-.015.315-.022.477-.03a7.213,7.213,0,0,1,5.755,2.513,4.333,4.333,0,0,1,.467.766.891.891,0,0,1-.076.934.882.882,0,0,1-.47.32.812.812,0,0,1-.478.011.643.643,0,0,1-.439-.4,2.413,2.413,0,0,0-.291-.507c-.935-1.267-2.812-1.772-4.548-1.82-.168,0-.335,0-.5,0h0a7.364,7.364,0,0,0-4.448,1.354,3.615,3.615,0,0,0-.906,1.021c-.019.03-.034.058-.05.087a.708.708,0,0,1-.153.193c-.117.233-.472-.051-.613-.05a1.089,1.089,0,0,1-.495-.954.983.983,0,0,1,.105-.368h0Z" transform="translate(-295.414 -618.959)" fill="#22263c"/>
                </g>
              </g>
              <g id="g3558" transform="translate(19.71 157.79)">
                <path id="path3552" d="M284.3,325.4a55.463,55.463,0,0,0-20.575,33.893c-4.078,22.549-9.576,49.38-9.576,49.38a24.455,24.455,0,0,0,5.22,1.474c2.318.278,4.233-8.453,4.233-8.453l2.038,9.12s11.307,6.77,41.829,7.576,41.7-6.9,41.7-6.9l-.4-8.132,3.646,7.576,3.553-.973s-2.44-36.84-8.372-53.717-14.612-22.91-14.612-22.91Z" transform="translate(-254.145 -325.402)" fill="#e03c4c"/>
                <path id="path3554" d="M344.815,407.13c-.047.123-4.2-1.195-11.139-4.29a122.819,122.819,0,0,1-24.9-14.645,78.187,78.187,0,0,1-19.071-20.7c-3.86-6.278-5.157-10.526-5.036-10.574a89.6,89.6,0,0,0,5.621,10.2,82.168,82.168,0,0,0,19.1,20.28,136.331,136.331,0,0,0,24.587,14.784c6.824,3.254,10.886,4.817,10.839,4.939Z" transform="translate(-262.65 -334.186)" fill="#9b1a26"/>
                <path id="path3556" d="M345.448,387.412a41.824,41.824,0,0,1-14.074,1.093c-7.369-.581-13.359-3.894-13.236-4.124s6.1,2.581,13.312,3.133,13.963-.36,14-.1Z" transform="translate(-271.977 -341.834)" fill="#9b1a26"/>
              </g>
              <g id="g3592" transform="translate(41.762)">
                <path id="path3560" d="M316.639,116.087s-11.119-2.526-16.077,6.685-.852,19.159-1.551,24.054-5.308,3.883-9.918,10.223-5.527,10.832-2.993,14.391a19.321,19.321,0,0,0,5.68,5.3,22.006,22.006,0,0,1-.524-4,3.6,3.6,0,0,1,1.2-3.136,10.839,10.839,0,0,0,4.521,8.129c4.391,2.929,7.951,2.064,7.951,2.064L303.86,177a8.833,8.833,0,0,0,4.871,3.971c3.757,1.485,9.087,1.78,11.665,1.907s9.415-1.317,9.415-1.317.765-7.048.546-22.255-5.81-23.562-9.961-29.451-3.757-13.772-3.757-13.772Z" transform="translate(-284.717 -109.195)" fill="#414376"/>
                <path id="path3562" d="M321.879,123.465a19.456,19.456,0,0,1,14.636-16.151c13.368-3.421,22.368,7.068,25.448,17.488s-.349,15.109,4.544,21.174,5.308,3.46,11.228,13.133,5.592,18.019,3.452,20.319-3.779,1.848-3.779,1.848l-.394-3.313a6.223,6.223,0,0,1-4.674,4.522c-4.041,1.071-4.653.639-4.653.639l3.364-6.95a12.15,12.15,0,0,1-6.16,4.62c-4.15,1.357-5.33,1.818-5.526.511a2.226,2.226,0,0,0-1.42-1.71,9.041,9.041,0,0,1-5.439,1.71,19.857,19.857,0,0,1-7.121-1.268l.764-18.618s-16.164-31.84-20.446-34.071-3.822-3.883-3.822-3.883Z" transform="translate(-295.069 -106.655)" fill="#383a6a"/>
                <path id="path3564" d="M314.46,126.973c-11.4,7.494-12.037,14.647-11.367,24.522s3.013,6.848-1.687,11.663-7.466,3.27-6.98,10.388c0,.022,0,.043.007.064a2.875,2.875,0,0,1,.717-.887,10.835,10.835,0,0,0,4.521,8.13c4.391,2.929,7.952,2.064,7.952,2.064l-1.07-2.791a8.83,8.83,0,0,0,4.87,3.97c3.757,1.484,9.087,1.779,11.665,1.906s9.416-1.316,9.416-1.316.763-7.048.545-22.255a57.061,57.061,0,0,0-.462-6.582c3.341,6.193,5.9,11.233,5.9,11.233l-.765,18.618a19.857,19.857,0,0,0,7.121,1.268,9.037,9.037,0,0,0,5.44-1.711,2.229,2.229,0,0,1,1.419,1.711c.2,1.307,1.376.845,5.525-.511a12.157,12.157,0,0,0,6.162-4.621l-1.429,2.953c1.607-2.19,2.337-4.407,2.314-8.234-.03-5.254-2.679-8.176-6.331-14.493a43.947,43.947,0,0,1-4.622-10.309s-3.126,4.345-12.838.331S327.6,137.82,323.827,133.191a20.813,20.813,0,0,0-9.367-6.218Z" transform="translate(-287.407 -112.317)" fill="#1c1d3e" opacity="0.473" style="isolation: isolate"/>
                <path id="path3566" d="M352.687,178.467s-3.19,17.4-2.942,20.919,5.461,6.69,5.73,6.878-8.58,5.154-14.99,5.3-8.851-2.926-10.759-4.376a62.5,62.5,0,0,1-5.445-5.3s3.746-1.182,4.611-2.743,1.776-10.367,1.776-10.367Z" transform="translate(-295.742 -126.666)" fill="#c9585d"/>
                <path id="path3568" d="M354.177,178.8l-21.509,10.076s-.556,5.35-1.211,8.448a9.088,9.088,0,0,0,2.242.931c3.84,1.139,11.359-1.3,16.464-7.274,1.238-1.447,2.236-2.7,3.04-3.77.542-3.356,1.082-6.412,1.334-7.819Z" transform="translate(-297.742 -126.759)" fill="#7e182b"/>
                <path id="path3570" d="M318.341,128.009s-6.237,4.935-7.952,10.425-.677,7.177-.24,11.153-.087,6.2.59,10.882a21.648,21.648,0,0,0,4.4,10.425c2.02,2.742,3.146,4.208,4.281,6.095s4.4,1.829,6.171,1.829,8.678-2.32,11.106-3.57a36.985,36.985,0,0,0,9.271-6.871,32.548,32.548,0,0,0,5.455-8.153,4.222,4.222,0,0,0,4.6-.648c2-1.927,3.309-7.9,1.179-11.118s-4.6-.555-5.275.855-1.584,1.223-1.584,1.223-3.265-.747-7.82-6.69-1.966-5.554-6.816-9.938-6.979-4.866-6.979-4.866-1.878-.477-4.7-1.248a10.869,10.869,0,0,0-5.691.216Z" transform="translate(-291.605 -112.463)" fill="#e68c81"/>
                <g id="g3588" transform="translate(19.5 28.421)">
                  <ellipse id="ellipse3572" cx="1.27" cy="2.566" rx="1.27" ry="2.566" transform="translate(3.511 6.642)" fill="#12143d"/>
                  <ellipse id="ellipse3574" cx="1.27" cy="2.566" rx="1.27" ry="2.566" transform="translate(21.899 6.642)" fill="#12143d"/>
                  <path id="path3576" d="M324.879,159.916c.137,3.157-.327,3.858-1.464,4.858s-1.277,1.285-.967,2.178a2.8,2.8,0,0,0,.907,1.307s-1.939-.837-1.789-2.369,1.717-1.285,2.595-2.98a5.625,5.625,0,0,0,.718-2.994Z" transform="translate(-314.483 -149.917)" fill="#bb4154"/>
                  <path id="path3578" d="M321.385,176.013a28.642,28.642,0,0,0,9.273-.1c2.4-.521,3.369-.744,4.391.386s-.05,3.89-1.529,5.45-5.041,2.256-7.913,1.64-4.56-3.429-5.194-4.73-.12-2.9.972-2.647Z" transform="translate(-314.088 -154.257)" fill="#6e2d4c"/>
                  <path id="path3580" d="M333.491,175.486a14.267,14.267,0,0,0-2.585.429,28.617,28.617,0,0,1-9.273.1.862.862,0,0,0-.606.065c.094.928.365,2.133,1.125,2.526,1.294.668,5.645.456,8.152.1s3.31-.084,3.648-1.234a8.214,8.214,0,0,0,.224-1.9,2.578,2.578,0,0,0-.686-.081Z" transform="translate(-314.336 -154.256)" fill="#fff"/>
                  <path id="path3582" d="M330.938,182.185c-2.272.035-3.928,1.83-4.629,2.748a5.509,5.509,0,0,0,1.017.325c2.873.617,6.433-.079,7.913-1.64.141-.149.278-.308.41-.476a11.206,11.206,0,0,0-4.413-.952c-.1-.005-.2-.005-.3,0Z" transform="translate(-315.807 -156.123)" fill="#ffb0c2"/>
                  <path id="path3584" d="M311.987,148.755a5.072,5.072,0,0,1,6.892-1.033,4.49,4.49,0,0,1,.791.745.879.879,0,0,1-.177,1.317.942.942,0,0,1-1.22-.154,1.345,1.345,0,0,0-.336-.336c-1.174-.83-3.674-.835-4.506.48a1.075,1.075,0,0,1-1.182.447.925.925,0,0,1-.261-1.466Z" transform="translate(-311.75 -146.268)" fill="#383a6a"/>
                  <path id="path3586" d="M338.347,147.1a6.829,6.829,0,0,1,8.523,1.029.976.976,0,0,1-.157,1.53,1.11,1.11,0,0,1-1.364-.128,4.88,4.88,0,0,0-5.843-.654,1.13,1.13,0,0,1-1.394-.217,1,1,0,0,1,.234-1.56Z" transform="translate(-319.019 -146.055)" fill="#383a6a"/>
                </g>
                <path id="path3590" d="M371.337,158.872c-2.667.522-3.07,3.636-3.211,5.774a2.576,2.576,0,0,0,2.42,2.98c.951-.03,2.5-2.357,2.768-4.358s.063-4.694-1.977-4.4Z" transform="translate(-307.958 -121.2)" fill="#d86768"/>
              </g>
              <g id="g3606" transform="translate(40.835 74.959)">
                <path id="path3594" d="M290.868,318.156s-2.207,4.976-.848,7.429,11.986,5.706,25.934,7.41,25.949-.056,28.359-1.056,1.8-5.411-.141-8.576-30.335-9.636-39.572-8.85-13.733,3.643-13.733,3.643Z" transform="translate(-285.144 -239.518)" fill="#e24f17"/>
                <path id="path3596" d="M301.326,210.767s-1.9,7.9-1.684,12.659.959,2.613-.709,6.2-4.45,8.125-6.89,16.494.9,12.7,1.174,18.829-3.1,7.9-6.872,11.407-3.322,4.922-1.777,7.9a15.637,15.637,0,0,0,4.588,5.01s3.059.542,6.257,1.043,5.713,2.092,18.395,4.6,28.653-.437,28.653-.437,4.928-3.273,5.84-7.27-1.422-4.525-1.05-11.5,2.779-10.664,4.926-17.65.279-15.785.325-20.5,5.622-16.376,5.622-16.376l-13.484-4.893-1.711-.229c-2.57,1.452-8.909,4.4-13.827,4.507-6.41.146-8.851-2.926-10.758-4.376a46,46,0,0,1-4.21-3.988l-1.994-.267Z" transform="translate(-283.431 -210.626)" fill="#ff9e2b"/>
                <path id="path3598" d="M320.613,210.573a1.2,1.2,0,0,0-1.243.705c-.415.84,5.014,6.641,10.486,10.337s12.364,1.7,17.06.521,11.337-4.754,10.911-5.5c-.3-.532-2.815-1.345-4.25-1.773.281.19.477.315.523.347.271.188-8.581,5.155-14.991,5.3s-8.851-2.926-10.758-4.376a62.32,62.32,0,0,1-5.444-5.3l.09-.031a15.538,15.538,0,0,0-2.385-.234Z" transform="translate(-293.44 -210.571)" fill="#ffd996"/>
                <path id="path3600" d="M305.114,274.045c12.72,9.23,38.595,7.17,39.111,4.712a25.788,25.788,0,0,0-16.943-10.266,30.034,30.034,0,0,0-22.169,5.555Z" transform="translate(-289.474 -226.618)" fill="#ff6c13" opacity="0.542" style="isolation: isolate"/>
                <path id="path3602" d="M342.858,304.923a15.441,15.441,0,0,1-4.565-1.568,49.358,49.358,0,0,1-10.078-6.568q-.6-.483-1.2-.977c-7.4-6.164-13.1-12.864-12.98-12.972s6.014,6.387,13.366,12.509q.591.491,1.187.972a56.6,56.6,0,0,0,9.879,6.67c2.715,1.381,4.408,1.862,4.387,1.934Z" transform="translate(-291.96 -230.709)" fill="#893819"/>
                <path id="path3604" d="M348.147,296.64a25.734,25.734,0,0,1-7.526,1.235c-3.983.162-7.436-1.135-7.381-1.283a41.3,41.3,0,0,0,7.356.682C344.5,297.106,348.121,296.484,348.147,296.64Z" transform="translate(-297.311 -234.538)" fill="#893819"/>
              </g>
            </g>
            <path id="path315866" d="M1675.583,1583.412s9.123-6.276,24.595-6.748,23.442,4.393,23.442,4.393" transform="translate(-630.543 -516.288)" fill="#893819"/>
          </g>
        </g>
      </g>
    </g>
  </g>
</svg>
