<svg xmlns="http://www.w3.org/2000/svg" xmlns:xlink="http://www.w3.org/1999/xlink" width="125" height="125" viewBox="0 0 125 125">
  <defs>
    <clipPath id="clip-path">
      <rect id="Rectángulo_34176" data-name="Rectángulo 34176" width="85" height="98" transform="translate(284.667 2784)" fill="#fff"/>
    </clipPath>
  </defs>
  <g id="Grupo_82963" data-name="Grupo 82963" transform="translate(-264.667 -3090)">
    <circle id="Elipse_4789" data-name="Elipse 4789" cx="62.5" cy="62.5" r="62.5" transform="translate(264.667 3090)" fill="#6b8dff"/>
    <g id="Enmascarar_grupo_91" data-name="Enmascarar grupo 91" transform="translate(0 320)" clip-path="url(#clip-path)">
      <g id="discurso-de-burbuja" transform="translate(284.667 2795.283)">
        <path id="Trazado_115743" data-name="Trazado 115743" d="M49.066,32.647S43.738,27,34.277,28.3s-19.9,19.844-19.9,19.844,6.948,25,34.686,26.3c27.739-1.3,34.686-26.3,34.686-26.3S73.319,29.6,63.857,28.3s-14.79,4.347-14.79,4.347Zm0,0" fill="#ff3d43"/>
        <path id="Trazado_115744" data-name="Trazado 115744" d="M49.066,68.457C28,67.473,18.927,52.815,15.78,45.82c-.892,1.42-1.4,2.323-1.4,2.323s6.948,25,34.686,26.3c27.739-1.3,34.686-26.3,34.686-26.3s-.508-.9-1.4-2.323c-3.145,6.995-12.219,21.653-33.286,22.637Zm0,0" fill="#d72e2e"/>
        <path id="Trazado_115745" data-name="Trazado 115745" d="M49.066,52.357c-10.651,0-16.765-3.24-16.765-3.24,2.148-2.371,10.617-5.54,16.765-5.54s14.618,3.169,16.766,5.54C65.832,49.116,59.718,52.357,49.066,52.357Zm0,0" fill="#67676b"/>
        <path id="Trazado_115746" data-name="Trazado 115746" d="M61.193,46.317a45.712,45.712,0,0,1-12.127,1.551,45.71,45.71,0,0,1-12.126-1.551,14.319,14.319,0,0,0-4.639,2.8s6.114,3.24,16.765,3.24,16.766-3.24,16.766-3.24a14.319,14.319,0,0,0-4.639-2.8Zm0,0" fill="#545456"/>
        <path id="Trazado_115747" data-name="Trazado 115747" d="M37.233,32.8l0,0c4.564-3.326,7.447-8.218,7.447-13.673C44.683,9.114,34.959.993,22.965.993S1.247,9.114,1.247,19.132,10.97,37.271,22.965,37.271a25.972,25.972,0,0,0,4.692-.425,24.034,24.034,0,0,0,10.8,4.265A1.473,1.473,0,0,0,39.9,39Zm0,0" fill="#fff5cf"/>
        <path id="Trazado_115748" data-name="Trazado 115748" d="M37.233,32.8l0,0c4.564-3.326,7.447-8.218,7.447-13.673C44.683,9.114,34.959.993,22.965.993q-1.136,0-2.244.1c10.94.938,19.474,8.658,19.474,18.043,0,5.455-2.884,10.348-7.447,13.673l0,0L35.408,39a1.587,1.587,0,0,1-.093,1.436,28.093,28.093,0,0,0,3.139.674A1.473,1.473,0,0,0,39.9,39Zm0,0" fill="#ffeca1"/>
        <path id="Trazado_115749" data-name="Trazado 115749" d="M65.866,47.471a25.472,25.472,0,0,0-6.51-3.192,33.377,33.377,0,0,0-10.29-1.949A35.029,35.029,0,0,0,33.785,46.49a5.283,5.283,0,0,0-.8.491c-.275.179-.534.381-.815.551-.573.347-1.162.668-1.767.956a9.243,9.243,0,0,1-5.669,1.129,1.247,1.247,0,0,0-.534,2.437,7.506,7.506,0,0,0,1.605.167,14.438,14.438,0,0,0,6.319-1.806,28.779,28.779,0,0,0,4.228,1.521A47.064,47.064,0,0,0,49.066,53.6a47.069,47.069,0,0,0,12.717-1.667,28.827,28.827,0,0,0,4.228-1.521,14.434,14.434,0,0,0,6.318,1.806,7.51,7.51,0,0,0,1.606-.167,1.247,1.247,0,0,0-.534-2.437,9.24,9.24,0,0,1-5.669-1.129,20.852,20.852,0,0,1-1.866-1.017Zm-16.8,3.639a42.114,42.114,0,0,1-14.288-2.3c.1-.067.166-.119.2-.148a32.55,32.55,0,0,1,14.083-3.834,32.557,32.557,0,0,1,14.083,3.834c.038.029.109.08.2.148a42.114,42.114,0,0,1-14.288,2.3Zm0,0"/>
        <path id="Trazado_115750" data-name="Trazado 115750" d="M84.84,47.531A75.873,75.873,0,0,0,74.2,33.24,1.247,1.247,0,1,0,72.437,35,73.695,73.695,0,0,1,82.4,48.293,38.962,38.962,0,0,1,75.844,60.02,35.214,35.214,0,0,1,65.584,68.7a37.4,37.4,0,0,1-16.517,4.5,37.06,37.06,0,0,1-17.518-5.076,1.247,1.247,0,1,0-1.284,2.138,39.551,39.551,0,0,0,18.744,5.433h.116a39.888,39.888,0,0,0,17.668-4.812A37.664,37.664,0,0,0,77.78,61.591a39.919,39.919,0,0,0,7.175-13.116,1.244,1.244,0,0,0-.115-.945Zm0,0"/>
        <path id="Trazado_115751" data-name="Trazado 115751" d="M27.6,65.352a39.06,39.06,0,0,1-11.87-17.06,81.575,81.575,0,0,1,6.8-9.778c.142,0,.284,0,.427,0a27.259,27.259,0,0,0,4.38-.351,26.236,26.236,0,0,0,10.917,4.176,2.53,2.53,0,0,0,2.421-.983,2.826,2.826,0,0,0,.358-2.851l-2.276-5.3a20.656,20.656,0,0,0,3.185-3.164A15.2,15.2,0,0,1,48.16,33.5a1.245,1.245,0,0,0,.9.389h0a1.251,1.251,0,0,0,.9-.386c.2-.211,5.052-5.159,13.718-3.971a11.894,11.894,0,0,1,5.125,2.325,1.247,1.247,0,0,0,1.455-2.025,14.285,14.285,0,0,0-6.242-2.77,19.248,19.248,0,0,0-14.962,3.907A18.33,18.33,0,0,0,43.446,27.9a16.984,16.984,0,0,0,2.482-8.771c0-10.69-10.3-19.387-22.965-19.387A24.527,24.527,0,0,0,4.78,7.283,1.247,1.247,0,0,0,6.62,8.967,22.034,22.034,0,0,1,22.964,2.239c11.288,0,20.471,7.578,20.471,16.893a15.788,15.788,0,0,1-6.843,12.6,1.247,1.247,0,0,0-.505,1.562l2.664,6.2a.338.338,0,0,1-.008.291c-.033.065-.075.094-.1.1a25.482,25.482,0,0,1-7.814-2.526,25.387,25.387,0,0,0,2.571-.946,1.247,1.247,0,0,0-.987-2.29,24.069,24.069,0,0,1-9.45,1.907c-11.288,0-20.471-7.578-20.471-16.892A14.256,14.256,0,0,1,4,12.774a1.247,1.247,0,1,0-2.237-1.1A16.728,16.728,0,0,0,0,19.132C0,28.832,8.483,36.89,19.515,38.3a82.259,82.259,0,0,0-6.221,9.232,1.243,1.243,0,0,0-.115.945A40.588,40.588,0,0,0,26.034,67.289a1.247,1.247,0,1,0,1.571-1.937Zm0,0"/>
        <path id="Trazado_115752" data-name="Trazado 115752" d="M12.749,16.5H34.416a1.247,1.247,0,1,0,0-2.493H12.749a1.247,1.247,0,1,0,0,2.493Zm0,0"/>
        <path id="Trazado_115753" data-name="Trazado 115753" d="M12.749,24.36H25.224a1.247,1.247,0,1,0,0-2.493H12.749a1.247,1.247,0,1,0,0,2.493Zm0,0"/>
      </g>
    </g>
  </g>
</svg>
