<svg xmlns="http://www.w3.org/2000/svg" xmlns:xlink="http://www.w3.org/1999/xlink" width="92" height="92" viewBox="0 0 92 92">
  <defs>
    <clipPath id="clip-path">
      <rect id="Rectángulo_33821" data-name="Rectángulo 33821" width="92" height="92" transform="translate(210 4023)" fill="#fff"/>
    </clipPath>
  </defs>
  <g id="Enmascarar_grupo_51" data-name="Enmascarar grupo 51" transform="translate(-210 -4023)" clip-path="url(#clip-path)">
    <g id="madre" transform="translate(210 4023)">
      <g id="Grupo_80236" data-name="Grupo 80236">
        <path id="Trazado_113708" data-name="Trazado 113708" d="M55.759,71.777,65.321,90.61l.031.007,16.379.035c0-3.242-.026-6.277-.124-9.04Z" fill="#fff0af"/>
        <path id="Trazado_113709" data-name="Trazado 113709" d="M65.321,90.61,60.174,78.542a14.653,14.653,0,0,0,4.2-.775,8.211,8.211,0,0,0,.528.767A8.021,8.021,0,0,0,71.3,81.612H81.608q-.049-1.4-.125-2.7l-31.9-13.655L62.267,90.61l3.086.007Z" fill="#ffe07d"/>
        <path id="Trazado_113710" data-name="Trazado 113710" d="M16.138,20.008a10.036,10.036,0,0,0-3.748,8.574c.3,3.292,2.763,7.125,6.917,7.758,2.906.443,6.616-.425,8.153-2.053C25.232,28.339,21.7,19.3,21.7,19.3a11.4,11.4,0,0,0-5.559.7Z" fill="#ffcdbe"/>
        <path id="Trazado_113711" data-name="Trazado 113711" d="M19.571,35.6a7.128,7.128,0,0,1-6.525-7.02c0-4.035.806-6.265,3.093-8.576A9.329,9.329,0,0,0,10.269,28.8a9.96,9.96,0,0,0,8.779,9.863,16.328,16.328,0,0,0,9.3-1.74c-.346-.944-.415-1.376-.885-2.632A14.521,14.521,0,0,1,19.571,35.6Z" fill="#ebae9d"/>
        <path id="Trazado_113712" data-name="Trazado 113712" d="M23.654,19.3c0,7.318,4.06,11.5,5.773,14.687l29.74-5.575c.021-7,.047-16.588.047-21.748C54.975,2.7,48.438,1.348,42.775,1.348a27.161,27.161,0,0,0-11,2.192A18.647,18.647,0,0,0,23.654,19.3Z" fill="#ffcdbe"/>
        <path id="Trazado_113713" data-name="Trazado 113713" d="M34.248,29.4a35.969,35.969,0,0,1-4.5,3.6c-1.952-3.506-5.354-6.971-5.354-13.691,0-9.51,5-13.948,7.387-15.764C26.024,6.12,21.7,11.123,21.7,19.3c0,8.289,4.659,12.2,6.647,17.616h30.8s.012-3.625.027-8.5Z" fill="#ebae9d"/>
        <path id="Trazado_113714" data-name="Trazado 113714" d="M58.519,47.963c1.653-2.283,2.922-6.153,4.163-11.652,1.91-.08,3.873-1.214,3.873-3.063,0-2-2.738-3-3.516-5.821a8.965,8.965,0,0,1,.08-4.312c1.619-7.866-.322-13.091-3.9-16.447,0,8.754-11.819,8.673-11.819,8.673S46.347,20.6,41.031,26.05a4.044,4.044,0,0,0-3.37-1.855,4.213,4.213,0,0,0-4.1,4.316,7.111,7.111,0,0,0,1.172,4c1.184,1.759,3.59,12.952,3.59,12.952l17.16,3.577Z" fill="#c38778"/>
        <path id="Trazado_113715" data-name="Trazado 113715" d="M45.768,58.571V48.536a24.7,24.7,0,0,0,8.4,1.907,5.194,5.194,0,0,0,4.348-2.48c-.562,0-3.546-.107-4.348-.215-7.048-.946-13.716-3.829-13.716-8.958l-.04-3.4a6.658,6.658,0,0,1-5.686-2.876,25.175,25.175,0,0,1-6.387,4.408,13.821,13.821,0,0,1,.883,4.852c0,4.82-1.547,9.5-3.019,14.3Z" fill="#b46e5a"/>
        <path id="Trazado_113716" data-name="Trazado 113716" d="M73.861,60.478A12.307,12.307,0,0,0,53.907,51.5c-1.892,2.412-3.262,7.063-2,10.03l4.369,10.242c1.233,2.177,5.216,2.048,7.064,1.389.459-2.1,11.472-10.3,11.472-10.3,0-.049,0-.1,0-.147a2.974,2.974,0,0,0-.958-2.23Z" fill="#c38778"/>
        <path id="Trazado_113717" data-name="Trazado 113717" d="M67.057,66.542a8.074,8.074,0,0,0-3.715,5.178c-1.848.659-4,.864-5.268.048L53.707,61.526a14.6,14.6,0,0,1,.2-10.03,12.285,12.285,0,0,0-4.65,9.633V71.635l6.123,2.829c3.176,2.39,7.827,1.349,10.92-.542.824-.5,6.413-7.678,6.413-7.678a3.967,3.967,0,0,0,2.1-3.388,7.5,7.5,0,0,0-3.507,1.089Z" fill="#b46e5a"/>
        <path id="Trazado_113718" data-name="Trazado 113718" d="M62.266,90.61l-11.39-26.7a12.888,12.888,0,0,0-11.854-7.831H28.9S24.727,63.3,24.727,69.8c0,9.163,5.857,20.849,5.857,20.849H43.7l.864-1.131,2.066,1.131Z" fill="#ff9a9f"/>
        <path id="Trazado_113719" data-name="Trazado 113719" d="M30.584,90.652a52.384,52.384,0,0,1-4.3-20.984c0-4.765,1.277-9.23,2.615-13.594h-2.7c-1.338,4.364-2.615,8.829-2.615,13.594a52.384,52.384,0,0,0,4.3,20.984Z" fill="#ff8086"/>
        <path id="Trazado_113720" data-name="Trazado 113720" d="M46.631,90.652H43.7L38.32,78.037A1.348,1.348,0,0,1,40.8,76.98Z" fill="#ff8086"/>
        <path id="Trazado_113721" data-name="Trazado 113721" d="M71.3,78.018l9.981-1.8a25.467,25.467,0,0,0-1.7-7.909,4.8,4.8,0,0,0-6.863-2.069l-4.25,2.6a5.3,5.3,0,0,0-2.444,3.241C66.573,74.32,68.479,78.018,71.3,78.018Z" fill="#c38778"/>
        <path id="Trazado_113722" data-name="Trazado 113722" d="M71.3,76.222a5.334,5.334,0,0,1-5.279-4.139A5.447,5.447,0,0,0,71.3,78.917H81.483q-.083-1.409-.2-2.7Z" fill="#b46e5a"/>
      </g>
      <g id="Grupo_80237" data-name="Grupo 80237">
        <path id="Trazado_113723" data-name="Trazado 113723" d="M43.7,92a1.348,1.348,0,0,1-1.24-.819l-5.38-12.615a1.348,1.348,0,0,1,2.479-1.057l5.38,12.615A1.348,1.348,0,0,1,43.7,92ZM27.889,92a1.348,1.348,0,0,1-1.24-.819,53.8,53.8,0,0,1-4.4-21.513c0-5.313,1.508-10.206,2.966-14.937,1.372-4.453,2.668-8.659,2.668-12.959a12.265,12.265,0,0,0-.366-3,16.73,16.73,0,0,1-8.658,1.222,11.858,11.858,0,0,1-7.012-3.639A10.95,10.95,0,0,1,8.921,28.8a10.7,10.7,0,0,1,3.38-7.922,11.616,11.616,0,0,1,8.091-3A17.3,17.3,0,0,1,27.626,4.367,26.127,26.127,0,0,1,42.775,0a33.685,33.685,0,0,1,7.994.921,1.348,1.348,0,0,1-.641,2.618A31.437,31.437,0,0,0,42.775,2.7,23.436,23.436,0,0,0,29.2,6.556c-4.083,2.931-6.153,7.22-6.153,12.747,0,5.19,1.977,8.578,3.888,11.855a43.657,43.657,0,0,1,2.1,3.893,23.974,23.974,0,0,0,3.99-2.8,8.724,8.724,0,0,1-.808-3.742,5.567,5.567,0,0,1,5.45-5.664,5.322,5.322,0,0,1,3.375,1.216,21.794,21.794,0,0,0,5.039-8.985A1.348,1.348,0,0,1,47.4,13.993h.011a17.914,17.914,0,0,0,5.411-.963c3.136-1.132,4.826-3.079,5.028-5.789a15.71,15.71,0,0,0-3.279-2.123A1.348,1.348,0,1,1,55.755,2.7c5.362,2.635,11.221,8.363,8.684,20.686a7.657,7.657,0,0,0-.1,3.682,6.528,6.528,0,0,0,1.736,2.658A5.271,5.271,0,0,1,67.9,33.248c0,1.811-1.436,3.783-4.121,4.291A39.672,39.672,0,0,1,60.4,47.52q.58-.049,1.168-.049a13.536,13.536,0,0,1,5.9,1.337,1.348,1.348,0,1,1-1.166,2.43,10.861,10.861,0,0,0-4.735-1.072A11.007,11.007,0,0,0,50.612,60.694a14.287,14.287,0,0,1,1.5,2.683l1.094,2.566a1.182,1.182,0,0,0,1.131-.715A1.348,1.348,0,0,1,56.81,66.31,3.878,3.878,0,0,1,54.3,68.5l2.169,5.085c2.364,1.544,5.666.906,8.028-.216a6.621,6.621,0,0,1,3.263-5.675l4.247-2.6,0,0a2.617,2.617,0,0,0,1.461-2.386c0-.8-.513-1.476-1.12-1.476a1,1,0,0,0-.73.366,1.348,1.348,0,1,1-2.03-1.774,3.7,3.7,0,0,1,2.633-1.285,10.848,10.848,0,0,0-2.533-4.77,1.348,1.348,0,0,1,2-1.81A13.7,13.7,0,0,1,75.171,59.9a4.377,4.377,0,0,1,1,2.807,5.466,5.466,0,0,1-.21,1.525A6.141,6.141,0,0,1,80.8,67.746c1.907,4.116,2.28,11.515,2.28,22.906a1.348,1.348,0,0,1-2.7,0c0-3.551-.026-7.124-.179-10.388H71.3a6.62,6.62,0,0,1-6.27-4.182,12.471,12.471,0,0,1-7.092.942l5.569,13.057a1.348,1.348,0,1,1-2.479,1.057l-11.39-26.7a11.524,11.524,0,0,0-10.615-7.013,1.348,1.348,0,0,1,0-2.7,14.234,14.234,0,0,1,5.4,1.059V49.445c-1.1-.464-1.815-.825-1.9-.868a1.348,1.348,0,0,1,1.227-2.4c.057.029,5.771,2.917,10.423,2.917,2.289,0,4-2.061,5.6-7.056a8.037,8.037,0,0,1-5.094-2.957,1.348,1.348,0,0,1,2.193-1.568,5.626,5.626,0,0,0,3.66,1.919q.418-1.565.835-3.419a1.348,1.348,0,0,1,1.258-1.05c1.242-.052,2.582-.723,2.582-1.716,0-.455-.426-.943-1.12-1.7a9.015,9.015,0,0,1-2.347-3.762,9.384,9.384,0,0,1-.08-4.2c-1.34-1.081-3.7-1.615-6.411-1.437a1.348,1.348,0,0,1-.176-2.69A13.384,13.384,0,0,1,62.159,20.7c.572-4.454-.124-8.124-2.075-10.983C59.179,12.4,57,14.4,53.663,15.591a20.348,20.348,0,0,1-5.226,1.056,26.6,26.6,0,0,1-6.422,10.324,1.348,1.348,0,0,1-2.041-.085,1.379,1.379,0,0,1-.086-.121,2.707,2.707,0,0,0-2.228-1.223,2.871,2.871,0,0,0-2.755,2.969,5.281,5.281,0,0,0,5.51,5.529,1.348,1.348,0,1,1,0,2.7,8.186,8.186,0,0,1-5.836-2.276,28.238,28.238,0,0,1-4.6,3.141,14.93,14.93,0,0,1,.591,4.171c0,4.425-1.253,8.756-2.542,12.955h5.6a1.348,1.348,0,0,1,0,2.7H27.205A42.513,42.513,0,0,0,24.94,69.668a51.152,51.152,0,0,0,4.188,20.455A1.348,1.348,0,0,1,27.889,92ZM73.414,67.395l-4.248,2.6A4.089,4.089,0,0,0,71.3,77.569H80.04c-.28-3.658-.784-6.741-1.687-8.69a3.4,3.4,0,0,0-2.125-1.846,3.467,3.467,0,0,0-2.81.359h0Zm-26.3-10.148q.584.4,1.126.864a13.567,13.567,0,0,1,3.534-6.5,27.493,27.493,0,0,1-4.661-1.145ZM20.3,20.574a8.894,8.894,0,0,0-6.16,2.271A8.032,8.032,0,0,0,11.616,28.8a8.579,8.579,0,0,0,7.624,8.529A14.326,14.326,0,0,0,26.6,36.219a41.564,41.564,0,0,0-2-3.7c-1.848-3.168-3.925-6.728-4.22-11.942H20.3ZM59.288,71.817a3.73,3.73,0,0,1-.394-.02,1.348,1.348,0,0,1,.285-2.68,2.446,2.446,0,0,0,1.616-.588,1.348,1.348,0,1,1,1.941,1.87,5.079,5.079,0,0,1-3.447,1.418Zm2.929-6.7a3.88,3.88,0,0,1-1.56-.329,1.348,1.348,0,0,1,1.082-2.468,1.193,1.193,0,0,0,1.572-.614,1.348,1.348,0,1,1,2.469,1.082,3.9,3.9,0,0,1-3.562,2.33ZM55.859,30.835a5.753,5.753,0,0,1-4.187-1.816,1.348,1.348,0,0,1,1.98-1.828,3,3,0,0,0,2.977.837,1.348,1.348,0,0,1,.793,2.576,5.31,5.31,0,0,1-1.564.232Z"/>
      </g>
    </g>
  </g>
</svg>
