<svg xmlns="http://www.w3.org/2000/svg" xmlns:xlink="http://www.w3.org/1999/xlink" width="92" height="92" viewBox="0 0 92 92">
  <defs>
    <clipPath id="clip-path">
      <rect id="Rectángulo_33822" data-name="Rectángulo 33822" width="92" height="92" transform="translate(629 4023)" fill="#fff"/>
    </clipPath>
  </defs>
  <g id="_5" data-name="5" transform="translate(-629 -4023)" clip-path="url(#clip-path)">
    <g id="medico" transform="translate(629 4023)">
      <g id="Grupo_80238" data-name="Grupo 80238">
        <path id="Trazado_113724" data-name="Trazado 113724" d="M25.634,25.574l-4.586-5.119H17.516a2.1,2.1,0,0,0-2.01,2.108L15.5,26.127c0,2.321,1.867,3.6,5.541,3.6Z" fill="#e5c093" fill-rule="evenodd"/>
      </g>
      <g id="Grupo_80239" data-name="Grupo 80239">
        <path id="Trazado_113725" data-name="Trazado 113725" d="M65.277,22.563a2.1,2.1,0,0,0-2.01-2.108H59.736l-4.124,4.635,4.124,4.635c3.679,0,5.541-1.278,5.541-3.6V22.563Z" fill="#e5c093" fill-rule="evenodd"/>
      </g>
      <g id="Grupo_80240" data-name="Grupo 80240">
        <path id="Trazado_113726" data-name="Trazado 113726" d="M64.63,72.122a3.719,3.719,0,1,1-7.438,0C57.192,67.225,64.63,67.225,64.63,72.122ZM74.389,88.24c0-7.3.031-12.2.005-19.345-.2-4.032-8.375-11.2-14.557-13.877L54.8,52.848H25.977L19.16,55.781l-5.805,2.494c-4.63,1.991-6.94,3.808-6.965,9.891-.031,7.545.005,12.528.005,20.073a2.368,2.368,0,0,0,2.29,2.413H72.1a2.368,2.368,0,0,0,2.29-2.413Z" fill="#eceaed" fill-rule="evenodd"/>
      </g>
      <g id="Grupo_80241" data-name="Grupo 80241">
        <path id="Trazado_113727" data-name="Trazado 113727" d="M34.846,70.885l3.633-1.226V64.7L35.94,59.971l-3.358-.331-1.094,4.414Z" fill="#b6b1b7" fill-rule="evenodd"/>
      </g>
      <g id="Grupo_80242" data-name="Grupo 80242">
        <path id="Trazado_113728" data-name="Trazado 113728" d="M31.91,42.55V53.958l8.481,3.732,8.481-3.732V42.55c0-.031-.153.092-.188.112-5.836,3.452-10.979,3.4-16.775-.112Z" fill="#f1d0a5" fill-rule="evenodd"/>
      </g>
      <g id="Grupo_80243" data-name="Grupo 80243">
        <path id="Trazado_113729" data-name="Trazado 113729" d="M59.736,25.832c-11.611-18.174-20.148-23.143-38.693,0v3.894a12.177,12.177,0,0,0,.346,2.82C22.482,37.215,26.1,42.2,30.8,45.431c.046-.01.982.636,1.109.713a20.911,20.911,0,0,0,3.633,1.751,14.031,14.031,0,0,0,4.849.952,14.026,14.026,0,0,0,4.844-.952,20.951,20.951,0,0,0,3.638-1.751c.071-.046.809-.519.814-.519,4.839-3.212,8.588-8.313,9.708-13.078a12.446,12.446,0,0,0,.341-2.82V25.832Z" fill="#ffe4c1" fill-rule="evenodd"/>
      </g>
      <g id="Grupo_80244" data-name="Grupo 80244">
        <path id="Trazado_113730" data-name="Trazado 113730" d="M28.878,18.445a12.605,12.605,0,0,0,2.681,1.563C38.6,23.093,50.079,22.039,52.5,18.42c1.007,3.467,3.7,7.412,7.24,7.412V17.951C59.736,7.49,51.875,1.961,43.77,1.4H41.007A16.239,16.239,0,0,0,29.4,7.021c-5.841.881-8.339,6.435-8.344,10.93l-.005,2.5-.005,5.376C27.051,25.623,27.514,21.973,28.878,18.445Z" fill="#d19a6e" fill-rule="evenodd"/>
      </g>
      <g id="Grupo_80245" data-name="Grupo 80245">
        <path id="Trazado_113731" data-name="Trazado 113731" d="M55.793,24.075a27.445,27.445,0,0,1-.341,6.333c-1.537,6.547-7.627,12.987-14.16,15.349a14.04,14.04,0,0,1-4.844.957,14.04,14.04,0,0,1-4.844-.957c-.249-.087-.494-.183-.738-.285.341.234.687.458,1.043.672A20.911,20.911,0,0,0,35.543,47.9a14.031,14.031,0,0,0,4.849.952,14.026,14.026,0,0,0,4.844-.952,20.951,20.951,0,0,0,3.638-1.751c4.778-2.892,9.235-8.125,10.522-13.6a12.446,12.446,0,0,0,.341-2.82V25.832a5.769,5.769,0,0,1-3.943-1.756Z" fill="#f1d0a5" fill-rule="evenodd"/>
      </g>
      <g id="Grupo_80246" data-name="Grupo 80246">
        <path id="Trazado_113732" data-name="Trazado 113732" d="M59.736,17.951A15.692,15.692,0,0,0,49.407,2.638a15.655,15.655,0,0,1,6.385,13.175V24.08a5.786,5.786,0,0,0,3.943,1.751v-7.88Z" fill="#c38c66" fill-rule="evenodd"/>
      </g>
      <g id="Grupo_80247" data-name="Grupo 80247">
        <path id="Trazado_113733" data-name="Trazado 113733" d="M45.932,70.885l3.358-6.832L47.915,59.64l-3.077.331L42.3,64.7l.311,5.134Z" fill="#b6b1b7" fill-rule="evenodd"/>
      </g>
      <g id="Grupo_80248" data-name="Grupo 80248">
        <path id="Trazado_113734" data-name="Trazado 113734" d="M42.3,64.7l2.534-4.734.959-3.429-5.406-.648L35.94,56.913v3.057L38.478,64.7H42.3Z" fill="#ffe07d" fill-rule="evenodd"/>
      </g>
      <g id="Grupo_80249" data-name="Grupo 80249">
        <path id="Trazado_113735" data-name="Trazado 113735" d="M49.29,64.053l5.51-11.2-5.928-.682-8.481,3.726,4.447,4.078Z" fill="#c3ddff" fill-rule="evenodd"/>
      </g>
      <g id="Grupo_80250" data-name="Grupo 80250">
        <path id="Trazado_113736" data-name="Trazado 113736" d="M35.94,59.971l4.452-4.078L31.91,52.166l-5.932.682,5.51,11.2Z" fill="#c3ddff" fill-rule="evenodd"/>
      </g>
      <g id="Grupo_80251" data-name="Grupo 80251">
        <path id="Trazado_113737" data-name="Trazado 113737" d="M60.911,75.843a3.721,3.721,0,1,0-3.719-3.721A3.718,3.718,0,0,0,60.911,75.843Z" fill="#b6b1b7" fill-rule="evenodd"/>
      </g>
      <g id="Grupo_80252" data-name="Grupo 80252">
        <path id="Trazado_113738" data-name="Trazado 113738" d="M45.932,70.885,42.3,64.7,40.389,62.95,38.478,64.7l-3.633,6.18,5.546,11.271Z" fill="#ffe07d" fill-rule="evenodd"/>
      </g>
      <g id="Grupo_80253" data-name="Grupo 80253">
        <path id="Trazado_113739" data-name="Trazado 113739" d="M45.932,70.885,42.3,64.7H38.478l-1.363,2.321h3.673l3.831,6.526Z" fill="#ffd064" fill-rule="evenodd"/>
      </g>
      <g id="Grupo_80254" data-name="Grupo 80254">
        <path id="Trazado_113740" data-name="Trazado 113740" d="M44.838,59.971,41.714,57.11l-1.323-1.217L39.064,57.11,35.94,59.971,37.084,62.1l3.175-2.912,3.353,3.075Z" fill="#ffd064" fill-rule="evenodd"/>
      </g>
      <g id="Grupo_80255" data-name="Grupo 80255">
        <path id="Trazado_113741" data-name="Trazado 113741" d="M54.8,52.848l-5.928-.682-1.557.682-.305.132-2.569,1.13,2.386.748,6.055,1.889Z" fill="#9dc6fb" fill-rule="evenodd"/>
      </g>
      <g id="Grupo_80256" data-name="Grupo 80256">
        <path id="Trazado_113742" data-name="Trazado 113742" d="M59.838,55.017,54.8,52.848l-1.918,3.9,4.783,1.492a14.02,14.02,0,0,1,3.246,1.4c-.005-.433-.031-.86-.071-1.283a8.052,8.052,0,0,1-1-3.34Z" fill="#dad8db" fill-rule="evenodd"/>
      </g>
      <g id="Grupo_80257" data-name="Grupo 80257">
        <path id="Trazado_113743" data-name="Trazado 113743" d="M74.389,88.24c0-7.3.031-12.2.005-19.345l-.921.916c-.376.3-.565.458-.753.463s-.376-.168-.758-.463l-2.788-2.769c.01,6.735-.01,15.033-.01,21.2a2.372,2.372,0,0,1-2.295,2.413H72.1a2.368,2.368,0,0,0,2.29-2.413Z" fill="#dad8db" fill-rule="evenodd"/>
      </g>
      <g id="Grupo_80258" data-name="Grupo 80258">
        <path id="Trazado_113744" data-name="Trazado 113744" d="M37.115,48.394a19.326,19.326,0,0,1-2.432-.835,21.536,21.536,0,0,1-2.773-1.415v3.121c7.556,3.609,12.058,2.113,13.234,1.583.4-.178.316,0,.316.463v2.352l1.552-.682,1.862-.815V46.144c-.036.02-.076.041-.112.066a.016.016,0,0,0-.01.005,20.268,20.268,0,0,1-3.516,1.68,14.207,14.207,0,0,1-4.844.952,12.715,12.715,0,0,1-3.276-.453Z" fill="#e5c093" fill-rule="evenodd"/>
      </g>
      <g id="Grupo_80259" data-name="Grupo 80259">
        <path id="Trazado_113745" data-name="Trazado 113745" d="M82.224,61.131l1.191-1.181a8.07,8.07,0,0,0,0-11.088c-2.671-2.769-6.986-2.077-9.84.5-.529.473-.717.708-.855.708s-.331-.234-.855-.708c-2.854-2.576-7.174-3.268-9.845-.5a7.959,7.959,0,0,0-2.2,5.427c-.005.244.005.484.02.728a8.05,8.05,0,0,0,1,3.34,7.88,7.88,0,0,0,1.18,1.593l1.2,1.181,8.746,8.68c.382.3.57.458.758.463s.376-.168.753-.463l.921-.916Z" fill="#ff8086" fill-rule="evenodd"/>
      </g>
      <g id="Grupo_80260" data-name="Grupo 80260">
        <path id="Trazado_113746" data-name="Trazado 113746" d="M83.415,48.862A6.157,6.157,0,0,0,77.05,47.4c.076.071.153.148.229.224a8.07,8.07,0,0,1,0,11.088l-1.191,1.181-7.062,7,.148.148,2.788,2.769c.382.3.57.458.758.463s.376-.168.753-.463l.921-.916,7.83-7.763,1.191-1.181a8.07,8.07,0,0,0,0-11.088Z" fill="#e5646e" fill-rule="evenodd"/>
      </g>
      <g id="Grupo_80261" data-name="Grupo 80261">
        <path id="Trazado_113747" data-name="Trazado 113747" d="M33.1,32.53a1.348,1.348,0,0,0,1.348-1.348v-.947a1.348,1.348,0,1,0-2.7,0v.947A1.348,1.348,0,0,0,33.1,32.53Z"/>
        <path id="Trazado_113748" data-name="Trazado 113748" d="M48.171,32.5a1.348,1.348,0,0,0,1.348-1.348v-.921a1.348,1.348,0,1,0-2.7,0v.921A1.348,1.348,0,0,0,48.171,32.5Z"/>
        <path id="Trazado_113749" data-name="Trazado 113749" d="M40.552,41.91h.087a4.728,4.728,0,0,0,3.421-1.518,1.348,1.348,0,0,0-1.945-1.866,2.041,2.041,0,0,1-1.476.689H40.6a1.852,1.852,0,0,1-1.352-.65,1.348,1.348,0,1,0-2.016,1.789A4.519,4.519,0,0,0,40.552,41.91Z"/>
        <path id="Trazado_113750" data-name="Trazado 113750" d="M41.994,16.771a25.268,25.268,0,0,0,8.23-1.445,1.348,1.348,0,1,0-.879-2.548,20.515,20.515,0,0,1-10.767.973c-2.784-.56-4.569-1.744-5.1-2.669a1.348,1.348,0,1,0-2.334,1.348c1.316,2.281,5.369,4.341,10.854,4.341Z"/>
        <path id="Trazado_113751" data-name="Trazado 113751" d="M84.385,47.927c-3.379-3.5-8.52-2.414-11.665.391-3.15-2.807-8.29-3.895-11.67-.391a9.131,9.131,0,0,0-1.776,2.642,16.071,16.071,0,0,0-6.708-5.4,23.811,23.811,0,0,0,8.141-12.315,14.667,14.667,0,0,0,.307-1.834c5.029-.444,5.609-3.513,5.609-4.891V22.563a3.453,3.453,0,0,0-3.357-3.455H61.084V17.951A17.112,17.112,0,0,0,49.356,1.184,21.062,21.062,0,0,0,37.973.47,16.877,16.877,0,0,0,28.68,5.778c-6.154,1.216-8.97,7.094-8.976,12.171v1.159H17.516a3.453,3.453,0,0,0-3.357,3.453l-.005,3.566c0,1.378.58,4.447,5.61,4.891a14.212,14.212,0,0,0,.313,1.836A23.609,23.609,0,0,0,27.8,44.823a16.007,16.007,0,0,0-9.74,9.96l-5.243,2.254c-5.152,2.215-7.77,4.544-7.781,11.128l-.01,7.076a1.348,1.348,0,0,0,1.346,1.35h0a1.348,1.348,0,0,0,1.348-1.346l.01-7.076c.009-5.447,1.881-6.82,6.15-8.656l3.457-1.486a15.764,15.764,0,0,0-.106,1.8V64c-3.108.575-5.912,3.269-5.912,7.915v3.833a1.348,1.348,0,0,0,2.7,0V71.919c0-3.687,2.253-5.338,4.486-5.338a4.234,4.234,0,0,1,3.049,1.268,5.659,5.659,0,0,1,1.437,4.07v3.833a1.348,1.348,0,0,0,2.7,0V71.918c0-4.568-2.71-7.248-5.754-7.884V59.823a12.924,12.924,0,0,1,.373-3.069l5.028-2.161,4.931,10.026,8.918,18.132a1.36,1.36,0,0,0,2.419,0L55.445,54.593l3.149,1.356a9.375,9.375,0,0,0,.923,2.8c.028.367.047.73.047,1.079v7.414a5.067,5.067,0,1,0,2.7,0V62.08l.008.008,8.746,8.68a2.371,2.371,0,0,0,2.041.818c.006,3.345,0,6.286,0,9.36,0,2.262-.008,4.617-.008,7.295a1.029,1.029,0,0,1-.957,1.065H63.912V82.156a1.348,1.348,0,0,0-2.7,0V89.3H19.561V82.156a1.348,1.348,0,1,0-2.7,0V89.3H8.7a1.029,1.029,0,0,1-.957-1.065c0-1.2,0-2.167,0-3.069,0-1.21,0-2.3,0-3.649A1.348,1.348,0,0,0,6.4,80.177h0a1.348,1.348,0,0,0-1.345,1.351c0,1.347,0,2.432,0,3.638,0,.9,0,1.875,0,3.074A3.712,3.712,0,0,0,8.7,92H72.084a3.712,3.712,0,0,0,3.653-3.761c0-2.676,0-5.029.008-7.29.006-3.709.013-7.224,0-11.493l3.136-3.113a1.348,1.348,0,0,0-1.9-1.913l-4.263,4.231-8.554-8.49L62.979,59a6.757,6.757,0,0,1-1.244-7.345A6.513,6.513,0,0,1,62.99,49.8c2.221-2.3,5.765-1.428,7.972.563.144.13.261.241.357.332a1.978,1.978,0,0,0,1.4.723,1.952,1.952,0,0,0,1.382-.708c.1-.094.221-.208.376-.347,2.206-1.991,5.748-2.865,7.967-.564A6.7,6.7,0,0,1,82.455,59l-1.18,1.17a1.348,1.348,0,0,0,1.9,1.914l1.191-1.181.021-.021a9.415,9.415,0,0,0,0-12.959Zm-23.3-25.99V21.8h2.183a.765.765,0,0,1,.662.76v3.564c0,.489,0,1.857-2.845,2.181V21.937ZM19.695,25.831h0v2.477c-2.844-.325-2.845-1.692-2.845-2.179l.005-3.566a.765.765,0,0,1,.662-.76H19.7l-.005,4.026ZM22.4,17.953c0-4.1,2.259-8.854,7.2-9.6a1.347,1.347,0,0,0,.846-.484c3.838-4.739,11.413-6.482,18.012-4.145,6.312,2.235,9.932,7.421,9.932,14.227V24.21c-2.092-.844-3.829-3.518-4.6-6.167a1.36,1.36,0,0,0-2.415-.373c-1.065,1.593-5.033,2.745-9.651,2.8a25.4,25.4,0,0,1-8.092-1.119c-4.256-1.7-5.025-2.965-5.358-3.437a1.348,1.348,0,0,0-2.2,1.553,9.12,9.12,0,0,0,1.214,1.386c-.051.144-.1.288-.153.429-.947,2.681-1.611,4.558-4.741,5.068Zm.3,14.282a10.873,10.873,0,0,1-.309-2.508v-2.65c4.892-.622,6.154-3.712,7.169-6.567,3.378,1.918,7.917,2.662,11.82,2.662l.379,0c3.514-.044,7.637-.719,10.174-2.392,1.307,2.917,3.584,5.592,6.456,6.248v2.7a11.14,11.14,0,0,1-.305,2.512c-1.4,5.963-7.122,12.149-13.306,14.389a12.728,12.728,0,0,1-4.386.872A12.741,12.741,0,0,1,36,46.628C29.815,44.386,24.1,38.2,22.7,32.234ZM33.258,51.286V48.4c.6.285,1.211.543,1.827.766a15.33,15.33,0,0,0,5.307,1.032,15.315,15.315,0,0,0,5.3-1.033c.617-.224,1.228-.482,1.831-.768v2.892l-7.134,3.134Zm9.9,8.971-1.659,3.1H39.285l-1.662-3.1,2.768-2.537ZM25.428,51.618,21.746,53.2a13.35,13.35,0,0,1,8.76-6.348l.056.037v4.075l-4.73.544a2.733,2.733,0,0,0-.4.109Zm2.6,2.351,3.671-.422L37.958,56.3,31.9,61.844Zm5.112,10.4,2.429-2.227,1.361,2.537-1.98,3.369ZM40.391,79.1,36.377,70.94l2.872-4.887h2.283l2.87,4.889Zm5.436-11.057-1.978-3.37,1.358-2.537,2.429,2.228Zm3.048-6.2L42.825,56.3l6.257-2.749,3.667.422ZM55.35,51.618a1.354,1.354,0,0,0-.4-.109l-4.726-.544V47.17a13.336,13.336,0,0,1,7.085,5.29Zm7.933,20.5a2.372,2.372,0,1,1-2.372-2.374A2.375,2.375,0,0,1,63.283,72.122Z"/>
      </g>
    </g>
  </g>
</svg>
