<svg xmlns="http://www.w3.org/2000/svg" xmlns:xlink="http://www.w3.org/1999/xlink" width="92" height="92" viewBox="0 0 92 92">
  <defs>
    <clipPath id="clip-path">
      <rect id="Rectángulo_33823" data-name="Rectángulo 33823" width="92" height="92" transform="translate(1050 4023)" fill="#fff"/>
    </clipPath>
  </defs>
  <g id="_6" data-name="6" transform="translate(-1050 -4023)" clip-path="url(#clip-path)">
    <g id="coach" transform="translate(1050 4024.717)">
      <g id="Grupo_80270" data-name="Grupo 80270">
        <g id="Grupo_80266" data-name="Grupo 80266">
          <path id="Trazado_113752" data-name="Trazado 113752" d="M29.954,55.746A11.462,11.462,0,0,0,18.492,67.208V84.4a2.866,2.866,0,0,0,2.866,2.866H44.283L47.15,86.1l2.865,1.168H72.941A2.866,2.866,0,0,0,75.807,84.4v-17.2A11.462,11.462,0,0,0,64.344,55.746H61.478l-14.329,4.3-14.329-4.3Z" fill="#f25a3c"/>
          <g id="Grupo_80265" data-name="Grupo 80265">
            <g id="Grupo_80264" data-name="Grupo 80264">
              <path id="Trazado_113753" data-name="Trazado 113753" d="M64.344,55.746H60.368a11.462,11.462,0,0,1,11.46,11.462V84.4a2.866,2.866,0,0,1-2.866,2.866h3.978A2.866,2.866,0,0,0,75.807,84.4v-17.2A11.462,11.462,0,0,0,64.344,55.746Z" fill="#e63a3a"/>
            </g>
          </g>
        </g>
        <g id="Grupo_80267" data-name="Grupo 80267">
          <path id="Trazado_113754" data-name="Trazado 113754" d="M44.283,62.619h5.731v24.65H44.283Z" fill="#cfd7e6"/>
          <path id="Trazado_113755" data-name="Trazado 113755" d="M61.478,55.746a14.328,14.328,0,0,1-7.74,12.727,1.44,1.44,0,0,1-1.557-.146l-5.031-3.984-5.031,3.984a1.44,1.44,0,0,1-1.557.146,14.327,14.327,0,0,1-7.74-12.728Z" fill="#f3f5f9"/>
          <path id="Trazado_113756" data-name="Trazado 113756" d="M57.5,55.746a14.312,14.312,0,0,1-6.257,11.838l.938.743a1.439,1.439,0,0,0,1.557.146,14.328,14.328,0,0,0,7.74-12.727H57.5Z" fill="#cfd7e6"/>
        </g>
        <g id="Grupo_80268" data-name="Grupo 80268">
          <path id="Trazado_113757" data-name="Trazado 113757" d="M31.388,19.244V9.895a8.6,8.6,0,0,1,8.6-8.6H54.314a8.6,8.6,0,0,1,8.6,8.6v9.349Z" fill="#f25a3c"/>
          <path id="Trazado_113758" data-name="Trazado 113758" d="M38.553,19.244V9.895a8.6,8.6,0,1,1,17.194,0v9.349Z" fill="#e9efff"/>
          <path id="Trazado_113759" data-name="Trazado 113759" d="M54.314,1.3H50.327a8.6,8.6,0,0,1,8.6,8.6v9.349h3.987V9.895A8.6,8.6,0,0,0,54.314,1.3Z" fill="#e63a3a"/>
          <path id="Trazado_113760" data-name="Trazado 113760" d="M47.15,1.3a8.616,8.616,0,0,0-2,.236,8.6,8.6,0,0,1,6.6,8.361v9.349h4V9.895A8.6,8.6,0,0,0,47.15,1.3Z" fill="#d3dcfb"/>
          <path id="Trazado_113761" data-name="Trazado 113761" d="M55.747,47.15v8.6a8.6,8.6,0,0,1-17.194,0v-8.6Z" fill="#fb9"/>
          <path id="Trazado_113762" data-name="Trazado 113762" d="M29.956,35.686A2.866,2.866,0,0,1,27.09,32.82V27.089a2.866,2.866,0,0,1,2.866-2.866H64.344a2.866,2.866,0,0,1,2.866,2.866V32.82a2.866,2.866,0,0,1-2.866,2.866Z" fill="#fb9"/>
          <path id="Trazado_113763" data-name="Trazado 113763" d="M64.344,24.223H60.366a2.866,2.866,0,0,1,2.866,2.866V32.82a2.866,2.866,0,0,1-2.866,2.866h3.979A2.866,2.866,0,0,0,67.21,32.82V27.089A2.866,2.866,0,0,0,64.344,24.223Z" fill="#ffa27d"/>
          <path id="Trazado_113764" data-name="Trazado 113764" d="M32.821,21.046v14.64a14.328,14.328,0,1,0,28.657,0V21.046L47.15,19.613Z" fill="#ffd9b3"/>
          <path id="Trazado_113765" data-name="Trazado 113765" d="M66.967,24.512a2.826,2.826,0,0,1-3.55.658A33.495,33.495,0,0,0,47.15,21.357,33.494,33.494,0,0,0,30.884,25.17a2.826,2.826,0,0,1-3.55-.658l-.015-.018a2.868,2.868,0,0,1,.807-4.355A39.032,39.032,0,0,1,47.15,15.626a39.032,39.032,0,0,1,19.025,4.513,2.868,2.868,0,0,1,.807,4.355Z" fill="#ff7f40"/>
          <path id="Trazado_113766" data-name="Trazado 113766" d="M66.174,20.139A39.032,39.032,0,0,0,47.15,15.626c-.679,0-1.341.016-1.989.043A38.3,38.3,0,0,1,62.2,20.139,2.868,2.868,0,0,1,63,24.494l-.015.018a2.829,2.829,0,0,1-.275.284c.251.129.487.254.7.374a2.826,2.826,0,0,0,3.55-.658l.015-.018a2.868,2.868,0,0,0-.807-4.355Z" fill="#f25a3c"/>
        </g>
        <g id="Grupo_80269" data-name="Grupo 80269">
          <path id="Trazado_113767" data-name="Trazado 113767" d="M72.94,45.609h5.731v9.049H72.94Z" fill="#736b6b"/>
          <path id="Trazado_113768" data-name="Trazado 113768" d="M80.154,47.149h-8.7a1.384,1.384,0,0,1-1.384-1.384V42.8a1.384,1.384,0,0,1,1.384-1.384h8.7A1.384,1.384,0,0,1,81.538,42.8v2.964A1.384,1.384,0,0,1,80.154,47.149Z" fill="#ffdf40"/>
          <path id="Trazado_113769" data-name="Trazado 113769" d="M80.154,41.417H76.175A1.384,1.384,0,0,1,77.559,42.8v2.964a1.384,1.384,0,0,1-1.384,1.384h3.979a1.384,1.384,0,0,0,1.384-1.384V42.8a1.384,1.384,0,0,0-1.384-1.384Z" fill="#ffbe40"/>
          <circle id="Elipse_4712" data-name="Elipse 4712" cx="11.461" cy="11.461" r="11.461" transform="translate(59.583 64.345) rotate(-45)" fill="#f3f5f9"/>
          <path id="Trazado_113770" data-name="Trazado 113770" d="M75.806,52.88a11.525,11.525,0,0,0-1.989.176,11.461,11.461,0,0,1,0,22.575,11.462,11.462,0,1,0,1.989-22.75Z" fill="#cfd7e6"/>
        </g>
        <path id="Trazado_113771" data-name="Trazado 113771" d="M24.31,56.582l3.463-4.233a1.433,1.433,0,0,0-.1-1.921l-2.123-2.123a1.433,1.433,0,0,0-2.026,0L14.494,57.34a5.809,5.809,0,0,0-.2,8.074,5.732,5.732,0,0,0,9.52-5.985,2.89,2.89,0,0,1,.494-2.848Z" fill="#ffdf40"/>
        <path id="Trazado_113772" data-name="Trazado 113772" d="M27.678,50.429l-2.123-2.123a1.433,1.433,0,0,0-2.026,0l-.976.976L23.7,50.429a1.433,1.433,0,0,1,.1,1.921l-3.463,4.233a2.89,2.89,0,0,0-.493,2.848,5.732,5.732,0,0,1-3.367,7.424,5.734,5.734,0,0,0,7.346-7.424,2.89,2.89,0,0,1,.493-2.848l3.463-4.233A1.433,1.433,0,0,0,27.678,50.429Z" fill="#ffbe40"/>
      </g>
      <g id="Grupo_80271" data-name="Grupo 80271">
        <path id="Trazado_113773" data-name="Trazado 113773" d="M41.418,32.685a1.3,1.3,0,0,0,1.3-1.3V29.955a1.3,1.3,0,1,0-2.595,0v1.433A1.3,1.3,0,0,0,41.418,32.685Z"/>
        <path id="Trazado_113774" data-name="Trazado 113774" d="M52.881,32.685a1.3,1.3,0,0,0,1.3-1.3V29.955a1.3,1.3,0,1,0-2.595,0v1.433A1.3,1.3,0,0,0,52.881,32.685Z"/>
        <path id="Trazado_113775" data-name="Trazado 113775" d="M49.163,9.895a1.3,1.3,0,0,0-1.3-1.3H46.433a1.3,1.3,0,1,0,0,2.595h1.433A1.3,1.3,0,0,0,49.163,9.895Z"/>
        <path id="Trazado_113776" data-name="Trazado 113776" d="M47.15,39.85a4.179,4.179,0,0,0,3.6-2.08,1.3,1.3,0,1,0-2.245-1.3,1.567,1.567,0,0,1-2.717,0,1.3,1.3,0,0,0-2.245,1.3A4.18,4.18,0,0,0,47.15,39.85Z"/>
        <path id="Trazado_113777" data-name="Trazado 113777" d="M88.566,64.343a12.78,12.78,0,0,0-8.6-12.059V48.446h.184a2.684,2.684,0,0,0,2.681-2.681V42.8a2.684,2.684,0,0,0-2.681-2.681h-8.7A2.684,2.684,0,0,0,68.777,42.8v2.964a2.684,2.684,0,0,0,2.681,2.681h.184v3.838a12.762,12.762,0,0,0-4.3,2.521,12.791,12.791,0,0,0-3-.357h-7.3V47.772a15.612,15.612,0,0,0,5.677-10.788h1.623a4.168,4.168,0,0,0,4.163-4.163V27.089a4.143,4.143,0,0,0-.444-1.872A4.163,4.163,0,0,0,66.8,19c-.759-.422-1.626-.86-2.6-1.291V9.895A9.895,9.895,0,0,0,54.314,0H39.985a9.906,9.906,0,0,0-9.895,9.895v7.819c-.97.431-1.836.869-2.6,1.291a4.163,4.163,0,0,0-1.259,6.213,4.144,4.144,0,0,0-.443,1.871V32.82a4.168,4.168,0,0,0,4.163,4.163h1.623a15.612,15.612,0,0,0,5.677,10.788v6.677h-7.3a12.807,12.807,0,0,0-2.41.23l1.234-1.508a2.722,2.722,0,0,0-.182-3.659l-2.123-2.123a2.733,2.733,0,0,0-3.861,0l-9.034,9.034a7.137,7.137,0,0,0-.221,9.884,6.973,6.973,0,0,0,3.839,2.084V84.4a4.168,4.168,0,0,0,4.163,4.163h6.856a1.3,1.3,0,1,0,0-2.595H21.357A1.57,1.57,0,0,1,19.789,84.4V68.382a6.969,6.969,0,0,0,3.644-1.934,7.041,7.041,0,0,0,1.6-7.481,1.474,1.474,0,0,1-.093-.6,10.133,10.133,0,0,1,5.018-1.325h1.625a15.577,15.577,0,0,0,8.385,12.582,2.742,2.742,0,0,0,2.96-.28l.062-.049V85.972H33.4a1.3,1.3,0,1,0,0,2.595H72.941A4.168,4.168,0,0,0,77.1,84.4V77.038A12.778,12.778,0,0,0,88.566,64.343Zm-66.968.27a4.434,4.434,0,0,1-6.358-.09,4.526,4.526,0,0,1,.172-6.265l9.034-9.034a.136.136,0,0,1,.192,0l2.123,2.123a.135.135,0,0,1,.009.182L23.306,55.76a4.282,4.282,0,0,0-.749,1.364c0,.013-.009.025-.013.038a4.118,4.118,0,0,0,.061,2.731A4.443,4.443,0,0,1,21.6,64.613ZM71.372,45.765V42.8a.087.087,0,0,1,.086-.086h8.7a.087.087,0,0,1,.086.086v2.964a.087.087,0,0,1-.086.086h-8.7a.087.087,0,0,1-.087-.086Zm2.866,2.681h3.137v3.237a12.372,12.372,0,0,0-3.137,0V48.446ZM50.247,65.141a9.92,9.92,0,0,0,6.71-8.1h3.159A12.993,12.993,0,0,1,53.14,67.322a.144.144,0,0,1-.155-.011ZM65.912,32.82a1.57,1.57,0,0,1-1.568,1.568H62.776V26.3l.011.006a4.136,4.136,0,0,0,3.072.38,1.574,1.574,0,0,1,.054.4V32.82ZM54.314,2.595a7.3,7.3,0,0,1,7.3,7.3v6.788a39.108,39.108,0,0,0-4.57-1.306V9.895a9.871,9.871,0,0,0-3.223-7.3ZM39.85,14.885V9.895a7.3,7.3,0,0,1,14.6,0v4.991a48.127,48.127,0,0,0-14.6,0ZM32.685,9.895a7.308,7.308,0,0,1,7.3-7.3h.493a9.87,9.87,0,0,0-3.223,7.3v5.482a39.118,39.118,0,0,0-4.57,1.306ZM27.968,22.367a1.574,1.574,0,0,1,.787-1.094,37.561,37.561,0,0,1,18.394-4.35,37.561,37.561,0,0,1,18.395,4.35,1.571,1.571,0,0,1,.437,2.395l-.013.016a1.532,1.532,0,0,1-1.923.352,34.914,34.914,0,0,0-16.9-3.975,34.916,34.916,0,0,0-16.9,3.975,1.532,1.532,0,0,1-1.923-.352l-.02-.025A1.558,1.558,0,0,1,27.968,22.367Zm.419,10.453V27.089a1.568,1.568,0,0,1,.054-.4,4.13,4.13,0,0,0,3.072-.381l.011-.006v8.091H29.955a1.57,1.57,0,0,1-1.568-1.569Zm5.732,2.866V25.062A34.274,34.274,0,0,1,47.15,22.655a34.269,34.269,0,0,1,13.031,2.408V35.687a13.031,13.031,0,1,1-26.062,0ZM47.15,51.312a15.528,15.528,0,0,0,7.3-1.814v6.2c0,.016,0,.031,0,.047s0,.021,0,.031a7.3,7.3,0,0,1-14.6-.019s0-.008,0-.012,0-.014,0-.022V49.5A15.531,15.531,0,0,0,47.15,51.312Zm-5.837,16a.143.143,0,0,1-.154.011,12.993,12.993,0,0,1-6.976-10.278h3.161a9.919,9.919,0,0,0,6.709,8.1Zm4.268-.07L47.149,66l1.569,1.242V85.972H45.581Zm30.226,7.269a10.073,10.073,0,0,1-6.147-2.069,1.3,1.3,0,1,0-1.571,2.065,12.624,12.624,0,0,0,6.421,2.531V84.4a1.57,1.57,0,0,1-1.568,1.568H51.312V69.3l.062.049a2.742,2.742,0,0,0,2.96.281A15.578,15.578,0,0,0,62.72,57.043h1.624c.326,0,.65.017.971.048A12.748,12.748,0,0,0,64.4,70.063,1.3,1.3,0,1,0,66.716,68.9a10.059,10.059,0,0,1-1.075-4.555A10.166,10.166,0,1,1,75.806,74.509Z"/>
        <path id="Trazado_113778" data-name="Trazado 113778" d="M80.105,63.046h-3V58.612a1.3,1.3,0,1,0-2.595,0v5.731a1.3,1.3,0,0,0,1.3,1.3h4.3a1.3,1.3,0,1,0,0-2.595Z"/>
        <path id="Trazado_113779" data-name="Trazado 113779" d="M8.326,61.478a1.3,1.3,0,0,0-1.3-1.3H1.3a1.3,1.3,0,0,0,0,2.595H7.029A1.3,1.3,0,0,0,8.326,61.478Z"/>
        <path id="Trazado_113780" data-name="Trazado 113780" d="M11.728,71.817,6.764,74.683a1.3,1.3,0,1,0,1.3,2.247l4.964-2.866a1.3,1.3,0,0,0-1.3-2.247Z"/>
        <path id="Trazado_113781" data-name="Trazado 113781" d="M6.764,48.272l4.964,2.866a1.3,1.3,0,0,0,1.3-2.247L8.061,46.025a1.3,1.3,0,1,0-1.3,2.247Z"/>
      </g>
    </g>
  </g>
</svg>
