<svg xmlns="http://www.w3.org/2000/svg" width="125" height="125" viewBox="0 0 125 125">
  <g id="a" transform="translate(-264.667 -1991)">
    <circle id="Elipse_4746" data-name="Elipse 4746" cx="62.5" cy="62.5" r="62.5" transform="translate(264.667 1991)" fill="#ffd947"/>
    <g id="carta-a" transform="translate(254.227 2008)">
      <g id="Grupo_80951" data-name="Grupo 80951" transform="translate(40.61 1.172)">
        <path id="Trazado_114781" data-name="Trazado 114781" d="M110.085,73.135,88.268,15.325C86.7,11.153,84.145,8.5,79.7,8.5a10.67,10.67,0,0,0-4.692.924,10.89,10.89,0,0,0-5.349,5.661l-22.1,58.024a9.518,9.518,0,0,0,17.79,6.776l2.765-7.26a1.563,1.563,0,0,1,1.46-1.007H89.647a1.563,1.563,0,0,1,1.462,1.011l2.728,7.228a9.447,9.447,0,0,0,4.257,4.9c2.38,1.33,5.349,1.039,8.051.02C111.063,82.922,111.941,78.054,110.085,73.135ZM82.413,52.58H76.877a.781.781,0,0,1-.73-1.06l2.78-7.3a.781.781,0,0,1,1.461,0l2.755,7.3A.781.781,0,0,1,82.413,52.58Z" transform="translate(-46.928 -8.344)" fill="#6bd9e7"/>
        <g id="Grupo_80949" data-name="Grupo 80949" transform="translate(28.077)">
          <path id="Trazado_114782" data-name="Trazado 114782" d="M263.264,72.292,241.447,14.481A10.912,10.912,0,0,0,231.313,7.5a10.787,10.787,0,0,0-4.691,1.08,10.838,10.838,0,0,1,5.448,5.9l21.817,57.811a9.52,9.52,0,0,1-4.176,11.622,9.483,9.483,0,0,0,13.553-11.622Z" transform="translate(-226.622 -7.5)" fill="#02c7dd"/>
        </g>
        <path id="Trazado_114783" data-name="Trazado 114783" d="M132.435,16.8V11.442a2.952,2.952,0,0,1,1.693-2.671,2.924,2.924,0,0,1,1.258-.055l.13.06c1.914,0,2.6,1.857,2.145,3.716l-1.427,5.495Z" transform="translate(-119.074 -8.491)" fill="#c68d7a"/>
        <path id="Trazado_114784" data-name="Trazado 114784" d="M144.538,7.5a2.933,2.933,0,0,0-1.256.284,2.952,2.952,0,0,1,1.6,3.368L143.652,16.2l2.409.455,1.344-5.5A2.951,2.951,0,0,0,144.538,7.5Z" transform="translate(-128.227 -7.5)" fill="#bc7c63"/>
        <path id="Trazado_114785" data-name="Trazado 114785" d="M73.395,56.606c-2.3-6.1-3.915-5.514-8.533-5.123l-.076.037a5.477,5.477,0,0,1-4.8,0c-4.226-2.068-9.45-1.229-11.767,4.905-2.543,6.734-1.4,12.5,4.036,18.09,3.319,3.412,6.363,3.229,8.229,2.57a5.666,5.666,0,0,1,1.065-.263c.277-.041,1.037-.129,1.316-.129.643,0,.878-.29,1.494-.073,1.867.659,2.018-1.92,5.337-5.331C75.132,65.7,75.938,63.34,73.395,56.606Z" transform="translate(-46.927 -43.786)" fill="#fe93d3"/>
        <g id="Grupo_80950" data-name="Grupo 80950" transform="translate(14.623 6.72)">
          <path id="Trazado_114786" data-name="Trazado 114786" d="M155.516,56.429c-2.3-6.1-7.478-6.962-11.69-4.941a9.209,9.209,0,0,1,3.876,4.941c2.543,6.734,1.4,12.5-4.036,18.09a10.536,10.536,0,0,1-3.152,2.309,5.767,5.767,0,0,1,.836-.062,5.707,5.707,0,0,1,1.9.324c1.867.659,4.91.841,8.229-2.57C156.915,68.934,158.058,63.163,155.516,56.429Z" transform="translate(-140.513 -50.511)" fill="#fe73c5"/>
        </g>
      </g>
      <g id="Grupo_80952" data-name="Grupo 80952" transform="translate(39.44 0)">
        <path id="Trazado_114787" data-name="Trazado 114787" d="M232.678,227.64a1.938,1.938,0,0,0-1.824-1.264h0a1.939,1.939,0,0,0-1.825,1.258l-2.78,7.3a1.953,1.953,0,0,0,1.825,2.648h5.535a1.953,1.953,0,0,0,1.827-2.643Zm-4.041,7.6,2.212-5.808,2.192,5.808Z" transform="translate(-196.949 -191.005)"/>
        <path id="Trazado_114788" data-name="Trazado 114788" d="M320.788,193.958,305.309,152.95a1.172,1.172,0,0,0-2.193.827L318.6,194.785a8.356,8.356,0,0,1-4.862,10.756,8.066,8.066,0,0,1-2.856.518,8.481,8.481,0,0,1-7.9-5.38l-2.728-7.228a2.748,2.748,0,0,0-2.559-1.769H294.67a1.172,1.172,0,1,0,0,2.344h3.022a.393.393,0,0,1,.366.253l2.728,7.228a10.6,10.6,0,0,0,5.611,5.929,10.8,10.8,0,0,0,4.46.975,10.48,10.48,0,0,0,3.7-.677A10.7,10.7,0,0,0,320.788,193.958Z" transform="translate(-253.801 -128.412)"/>
        <path id="Trazado_114789" data-name="Trazado 114789" d="M75.3,63.27H63.255A2.749,2.749,0,0,0,60.7,65.031l-2.765,7.26a8.478,8.478,0,0,1-7.89,5.356,8.079,8.079,0,0,1-2.88-.527,8.356,8.356,0,0,1-4.829-10.77l11.656-30.6c.188-.052.378-.108.57-.176a4.592,4.592,0,0,1,3.023,0,7.733,7.733,0,0,0,2.589.455,9.985,9.985,0,0,0,6.87-3.313,18.912,18.912,0,0,0,5.315-9.183A17.566,17.566,0,0,0,71.335,13.4a9.955,9.955,0,0,0-5.486-6.077c-.253-.1-.511-.185-.771-.26A9.673,9.673,0,0,1,82.271,8.2l4.668,12.359a1.172,1.172,0,0,0,2.192-.828L84.455,7.348,84.437,7.3A12.018,12.018,0,0,0,62.6,6.717a9.859,9.859,0,0,0-2.12.241L60.93,5.1A4.123,4.123,0,1,0,52.8,4.123V7.281a9.459,9.459,0,0,0-6.169-.087A1.172,1.172,0,1,0,47.4,9.408a7.508,7.508,0,0,1,5.755.55,6.649,6.649,0,0,0,5.83,0,7.4,7.4,0,0,1,6-.46,7.693,7.693,0,0,1,4.157,4.726,15.309,15.309,0,0,1,.925,8.813,16.66,16.66,0,0,1-4.7,8.046c-1.57,1.614-4.06,3.32-7,2.282a6.914,6.914,0,0,0-4.583,0c-2.939,1.038-5.429-.669-7-2.282a16.658,16.658,0,0,1-4.7-8.046A15.306,15.306,0,0,1,43,14.224a10.687,10.687,0,0,1,1.021-2.05A1.172,1.172,0,1,0,42.06,10.9a13.025,13.025,0,0,0-1.25,2.5,17.566,17.566,0,0,0-1.023,10.138A18.911,18.911,0,0,0,45.1,32.717a10.288,10.288,0,0,0,6.284,3.288L40.145,65.516A10.7,10.7,0,0,0,46.33,79.31a10.49,10.49,0,0,0,3.74.69,10.8,10.8,0,0,0,4.425-.959,10.6,10.6,0,0,0,5.629-5.915l2.765-7.26a.393.393,0,0,1,.365-.252H75.3a1.172,1.172,0,1,0,0-2.344ZM55.146,8.185V4.123a1.779,1.779,0,1,1,3.507.422L57.831,7.91a4.274,4.274,0,0,1-2.685.275Z" transform="translate(-39.44 0)"/>
      </g>
    </g>
  </g>
</svg>
