<svg xmlns="http://www.w3.org/2000/svg" xmlns:xlink="http://www.w3.org/1999/xlink" width="125" height="125" viewBox="0 0 125 125">
  <defs>
    <clipPath id="clip-path">
      <rect id="Rectángulo_34029" data-name="Rectángulo 34029" width="69.388" height="80" transform="translate(284.667 2114)" fill="#fff"/>
    </clipPath>
  </defs>
  <g id="e" transform="translate(-264.667 -2188)">
    <circle id="Elipse_4781" data-name="Elipse 4781" cx="62.5" cy="62.5" r="62.5" transform="translate(264.667 2188)" fill="#ffd947"/>
    <g id="Enmascarar_grupo_59" data-name="Enmascarar grupo 59" transform="translate(8 97)" clip-path="url(#clip-path)">
      <g id="letra-e" transform="translate(288.603 2114)">
        <g id="Grupo_80965" data-name="Grupo 80965" transform="translate(1.172 1.172)">
          <path id="Trazado_114790" data-name="Trazado 114790" d="M62.06,60.284H48.369a1.562,1.562,0,0,1-1.562-1.562V51.23a1.562,1.562,0,0,1,1.563-1.562H60.231a9.4,9.4,0,1,0,.14-18.807h-12A1.562,1.562,0,0,1,46.807,29.3l-1.562-4.014,1.562-3.478a1.562,1.562,0,0,1,1.563-1.562H62.06A9.4,9.4,0,1,0,62.2,1.436H38.92L35.438,3C30.245,3,28,5.646,28,10.839V69.688a9.4,9.4,0,0,0,9.4,9.4H62.2a9.4,9.4,0,1,0-.14-18.807Z" transform="translate(-15.557 -1.436)" fill="#fe93d3"/>
          <g id="Grupo_80964" data-name="Grupo 80964" transform="translate(38.424 0)">
            <path id="Trazado_114791" data-name="Trazado 114791" d="M59.827,56.288H69.2a9.4,9.4,0,1,0,.14-18.807H59.968a9.4,9.4,0,1,1-.14,18.807Z" transform="translate(-59.827 -8.056)" fill="#fe73c5"/>
            <path id="Trazado_114792" data-name="Trazado 114792" d="M71.61,10.964a9.495,9.495,0,0,1-9.543,9.279h9.375a9.4,9.4,0,1,0,.14-18.807H62.207a9.4,9.4,0,0,1,9.4,9.528Z" transform="translate(-60.239 -1.436)" fill="#fe73c5"/>
            <path id="Trazado_114793" data-name="Trazado 114793" d="M71.442,73.525H62.067a9.4,9.4,0,1,1,.14,18.807h9.375a9.4,9.4,0,1,0-.14-18.807Z" transform="translate(-60.239 -14.677)" fill="#fe73c5"/>
          </g>
          <path id="Trazado_114794" data-name="Trazado 114794" d="M35.726,9.84,14.9,10.682c-.863,0-2.142-.143-2.142.72V32.667c0,.863,4.263.384,5.126.384l17.843-.384A1.562,1.562,0,0,0,37.289,31.1V11.4A1.562,1.562,0,0,0,35.726,9.84Z" transform="translate(-12.757 -2.979)" fill="#eef5f6"/>
          <path id="Trazado_114795" data-name="Trazado 114795" d="M47.367,11.667H39.554a1.562,1.562,0,0,1,1.562,1.562v18.14a1.562,1.562,0,0,1-1.562,1.563h7.812c.863,0,1.562.863,1.562,0V11.667c0-.863-.7,0-1.562,0Z" transform="translate(-17.679 -3.244)" fill="#deecf1"/>
          <path id="Trazado_114796" data-name="Trazado 114796" d="M32.673,9.84H14.32A1.562,1.562,0,0,0,12.757,11.4l6.325,6.983,6.507-1.7,2.46,3.82,5.8-2.292C33.845,17.353,33.536,9.84,32.673,9.84Z" transform="translate(-12.757 -2.979)" fill="#6bd9e7"/>
          <path id="Trazado_114797" data-name="Trazado 114797" d="M37.543,3a1.562,1.562,0,0,0-1.562-1.562H22.068A1.562,1.562,0,0,0,20.505,3V16.842L26.1,23.015h7.419l4.028-6.173V3Z" transform="translate(-14.181 -1.436)" fill="#d1f19e"/>
          <path id="Trazado_114798" data-name="Trazado 114798" d="M38.334,9.84V22.853L48.705,11.4A1.562,1.562,0,0,0,47.143,9.84Z" transform="translate(-17.455 -2.979)" fill="#02c7dd"/>
          <path id="Trazado_114799" data-name="Trazado 114799" d="M39.97,1.436H33.72A1.562,1.562,0,0,1,35.283,3V23.015h.659l5.591-6.173V3A1.562,1.562,0,0,0,39.97,1.436Z" transform="translate(-16.608 -1.436)" fill="#a2e62e"/>
          <path id="Trazado_114800" data-name="Trazado 114800" d="M14.32,37.047H34.632c3.424-.3,5.512-1.475,5.512-2.338l-3.95-4.541L29.261,25.45a1.563,1.563,0,0,0-1.758,0L12.757,35.484a1.562,1.562,0,0,0,1.563,1.563Z" transform="translate(-12.757 -5.797)" fill="#fee45a"/>
          <path id="Trazado_114801" data-name="Trazado 114801" d="M48.929,36.607l-7.812-5.316v5.316a1.562,1.562,0,0,1-1.562,1.562h7.812A1.562,1.562,0,0,0,48.929,36.607Z" transform="translate(-17.679 -6.919)" fill="#fed402"/>
        </g>
        <g id="Grupo_80966" data-name="Grupo 80966" transform="translate(0 0)">
          <path id="Trazado_114802" data-name="Trazado 114802" d="M26.378,10.748H34.96a1.172,1.172,0,0,0,0-2.344H26.378a1.172,1.172,0,1,0,0,2.344Z" transform="translate(-13.872 -1.544)"/>
          <path id="Trazado_114803" data-name="Trazado 114803" d="M36.132,15.894a1.172,1.172,0,0,0-1.172-1.172H26.378a1.172,1.172,0,1,0,0,2.344H34.96A1.172,1.172,0,0,0,36.132,15.894Z" transform="translate(-13.872 -2.704)"/>
          <path id="Trazado_114804" data-name="Trazado 114804" d="M20.381,0a2.738,2.738,0,0,0-2.734,2.734V6.86h-3.59A2.736,2.736,0,0,0,11.326,9.5c0,.021,0,.042,0,.063s0,.018,0,.027V30.859h0a1.172,1.172,0,0,0,.006.119,2.735,2.735,0,0,0,2.728,2.614h1.5a1.172,1.172,0,1,0,0-2.344h-1.5a.383.383,0,0,1-.047,0L27.9,21.794a.388.388,0,0,1,.439,0l13.889,9.451a.382.382,0,0,1-.047,0H20.668a1.172,1.172,0,1,0,0,2.344h3.1V52.61a1.172,1.172,0,1,0,2.344,0V33.594H42.181a2.738,2.738,0,0,0,2.595-1.878,2.73,2.73,0,0,0,.53.052h4.887a1.172,1.172,0,0,0,0-2.344H45.306a.391.391,0,0,1-.391-.391V21.542a.391.391,0,0,1,.391-.391H62.121A10.686,10.686,0,0,0,72.836,10.716,10.575,10.575,0,0,0,62.262,0Zm18.21,9.2h3.59a.387.387,0,0,1,.251.093l-3.841,4.241V9.2Zm3.981,3.43v16.01L33.6,22.54ZM68.12,4.793a8.175,8.175,0,0,1,2.372,5.892,8.334,8.334,0,0,1-8.371,8.122H45.306a2.729,2.729,0,0,0-.391.031V9.595c0-.009,0-.018,0-.027s0-.042,0-.063a2.736,2.736,0,0,0-2.73-2.644h-3.59V2.734a2.73,2.73,0,0,0-.031-.391h23.7A8.173,8.173,0,0,1,68.12,4.793ZM13.666,12.634l8.971,9.905-8.971,6.1ZM17.647,9.2v4.335L13.806,9.3a.387.387,0,0,1,.251-.093h3.59ZM26.58,19.856l-1.987,1.352-4.6-5.082V2.734a.391.391,0,0,1,.391-.391H35.856a.391.391,0,0,1,.391.391V16.126l-4.6,5.082-1.987-1.352a2.719,2.719,0,0,0-3.077,0Z" transform="translate(-11.322 0)"/>
          <path id="Trazado_114805" data-name="Trazado 114805" d="M64.921,65.469H48.106a.391.391,0,0,1-.391-.391V57.587a.391.391,0,0,1,.391-.391H63.093A10.686,10.686,0,0,0,73.808,46.761,10.576,10.576,0,0,0,63.233,36.045H58.1a1.172,1.172,0,0,0,0,2.344h5.133a8.232,8.232,0,0,1,8.231,8.341,8.334,8.334,0,0,1-8.371,8.122H48.106a2.738,2.738,0,0,0-2.734,2.734v7.492a2.738,2.738,0,0,0,2.734,2.734H64.921a8.334,8.334,0,0,1,8.371,8.122,8.232,8.232,0,0,1-8.231,8.341H37.14a8.241,8.241,0,0,1-8.232-8.232V64.337a1.172,1.172,0,1,0-2.344,0V76.045A10.588,10.588,0,0,0,37.14,86.62H65.061A10.575,10.575,0,0,0,75.636,75.9,10.686,10.686,0,0,0,64.921,65.469Z" transform="translate(-14.121 -6.621)"/>
        </g>
      </g>
    </g>
  </g>
</svg>
