<svg xmlns="http://www.w3.org/2000/svg" width="83.888" height="71.133" viewBox="0 0 83.888 71.133">
  <g id="Grupo_81059" data-name="Grupo 81059" transform="translate(-119.183 -114.994)">
    <g id="Grupo_81053" data-name="Grupo 81053" style="mix-blend-mode: overlay;isolation: isolate">
      <path id="Trazado_114995" data-name="Trazado 114995" d="M173.791,131.323l8.2,33.442-59.436,20.362Z" fill="#3c384f"/>
      <path id="Trazado_114996" data-name="Trazado 114996" d="M122.555,186.127a1,1,0,0,1-.724-1.689l51.236-53.805a1,1,0,0,1,1.695.451l8.2,33.443a1,1,0,0,1-.647,1.184l-59.436,20.362A.988.988,0,0,1,122.555,186.127Zm50.7-52.791L126.1,182.856l54.7-18.741Z" fill="#3c384f"/>
      <path id="Trazado_114997" data-name="Trazado 114997" d="M179.946,136.349l-57.391,48.778,79.517-32.57Z" fill="#3c384f"/>
      <path id="Trazado_114998" data-name="Trazado 114998" d="M122.555,186.127a1,1,0,0,1-.648-1.762L179.3,135.587a1,1,0,0,1,1.239-.045l22.126,16.208a1,1,0,0,1-.212,1.732l-79.517,32.57A.992.992,0,0,1,122.555,186.127Zm57.437-48.505-52,44.2,72.051-29.512Z" fill="#3c384f"/>
      <path id="Trazado_114999" data-name="Trazado 114999" d="M173.791,131.323l-51.237,53.8,33.724-66.761Z" fill="#3c384f"/>
      <path id="Trazado_115000" data-name="Trazado 115000" d="M122.554,186.127a1,1,0,0,1-.892-1.451l33.724-66.761a1,1,0,0,1,1.488-.353l17.512,12.957a1,1,0,0,1,.129,1.493l-51.236,53.805A1,1,0,0,1,122.554,186.127Zm34.083-66.252L126.5,179.533l45.785-48.08Z" fill="#3c384f"/>
      <path id="Trazado_115001" data-name="Trazado 115001" d="M152.272,131.657q-4.211,8.715-8.881,17.194c-.621,1.128,1.1,2.138,1.727,1.009q4.67-8.477,8.881-17.193C154.557,131.513,152.833,130.5,152.272,131.657Z" fill="#3c384f"/>
      <path id="Trazado_115002" data-name="Trazado 115002" d="M150.469,145.51a1.018,1.018,0,0,0-.46-.6,1.008,1.008,0,0,0-.77-.1.987.987,0,0,0-.6.46q-.51,1.065-1.019,2.131a1.07,1.07,0,0,0-.1.77,1.018,1.018,0,0,0,.46.6,1.008,1.008,0,0,0,.77.1.983.983,0,0,0,.6-.46q.51-1.065,1.019-2.131A1.069,1.069,0,0,0,150.469,145.51Z" fill="#3c384f"/>
      <path id="Trazado_115003" data-name="Trazado 115003" d="M186.911,152.908q-9.747,4.212-19.406,8.623c-1.169.534-.154,2.258,1.009,1.727q9.658-4.411,19.406-8.623C189.1,154.126,188.081,152.4,186.911,152.908Z" fill="#3c384f"/>
    </g>
    <g id="Grupo_81058" data-name="Grupo 81058">
      <g id="Grupo_81057" data-name="Grupo 81057">
        <g id="Grupo_81054" data-name="Grupo 81054">
          <path id="Trazado_115004" data-name="Trazado 115004" d="M171.42,128.951l8.2,33.442-59.436,20.362Z" fill="#fff"/>
          <path id="Trazado_115005" data-name="Trazado 115005" d="M120.183,183.756a1,1,0,0,1-.724-1.69l51.237-53.8a1,1,0,0,1,1.7.451l8.2,33.442a1,1,0,0,1-.647,1.184L120.508,183.7A1.016,1.016,0,0,1,120.183,183.756Zm50.7-52.792-47.157,49.521,54.7-18.741Z"/>
        </g>
        <g id="Grupo_81055" data-name="Grupo 81055">
          <path id="Trazado_115006" data-name="Trazado 115006" d="M177.575,133.978l-57.391,48.778,79.517-32.57Z" fill="#fff"/>
          <path id="Trazado_115007" data-name="Trazado 115007" d="M120.184,183.756a1,1,0,0,1-.648-1.762l57.391-48.779a1,1,0,0,1,1.238-.044l22.126,16.207a1,1,0,0,1-.212,1.732l-79.517,32.571A.988.988,0,0,1,120.184,183.756Zm57.436-48.5-52,44.2,72.051-29.513Z"/>
        </g>
        <g id="Grupo_81056" data-name="Grupo 81056">
          <path id="Trazado_115008" data-name="Trazado 115008" d="M171.42,128.951l-51.237,53.8,33.724-66.761Z" fill="#fff"/>
          <path id="Trazado_115009" data-name="Trazado 115009" d="M120.183,183.756a1,1,0,0,1-.892-1.451l33.724-66.761a1,1,0,0,1,1.487-.353l17.513,12.956a1,1,0,0,1,.129,1.494l-51.236,53.8A1,1,0,0,1,120.183,183.756ZM154.265,117.5,124.13,177.162l45.785-48.08Z"/>
        </g>
        <path id="Trazado_115010" data-name="Trazado 115010" d="M149.9,129.286Q145.69,138,141.02,146.48c-.622,1.128,1.1,2.138,1.727,1.009q4.67-8.477,8.881-17.193C152.185,129.142,150.461,128.126,149.9,129.286Z"/>
        <path id="Trazado_115011" data-name="Trazado 115011" d="M148.1,143.138a1.02,1.02,0,0,0-.46-.6,1.01,1.01,0,0,0-.771-.1.983.983,0,0,0-.6.459q-.51,1.066-1.019,2.132a1.069,1.069,0,0,0-.1.77,1.021,1.021,0,0,0,.459.6,1.01,1.01,0,0,0,.771.1.988.988,0,0,0,.6-.46l1.02-2.131A1.077,1.077,0,0,0,148.1,143.138Z"/>
        <path id="Trazado_115012" data-name="Trazado 115012" d="M184.54,150.537q-9.747,4.21-19.406,8.623c-1.17.534-.154,2.258,1.009,1.726q9.658-4.41,19.406-8.623C186.727,151.754,185.71,150.031,184.54,150.537Z"/>
      </g>
    </g>
  </g>
</svg>
