<svg xmlns="http://www.w3.org/2000/svg" width="145.756" height="116.281" viewBox="0 0 145.756 116.281">
  <g id="Grupo_80391" data-name="Grupo 80391" transform="translate(-235.594 -253.757)">
    <g id="Grupo_80388" data-name="Grupo 80388">
      <path id="Trazado_113891" data-name="Trazado 113891" d="M299.5,328.225c-.2,1.377-.4,2.753-.589,4.131a.976.976,0,0,1-.329.628c-.267.254-.3.343-.089.617a.874.874,0,0,1,.029,1.042c-.162.254-.454.364-.128.7.023.024-.289.312-.364.508-.192.507,0,1.105-.451,1.572-.415.429-.284,1.057-.391,1.6a8.129,8.129,0,0,0-.229,1.688c.011.562-.568.775-.6,1.293-.029.5-.136,1-.209,1.5-.746.434-.514,1.22-.627,1.861-.089.5-.789.675-.6,1.291.082.265-.626.249-.27.675.335.4-.353.352-.318.681.032.3-.11.625-.11.937,0,.375-.255.531-.474.745-.026.025.172.281.266.43-.673.293-.256,1.117-.641,1.439-.479.4-.235,1.024-.527,1.321a2.786,2.786,0,0,0-.591,1.7c-.077.422-.555.592-.583,1.1-.02.353-.406.69-.641,1.025-.068.1-.262.172-.257.247.074,1.015-.746,1.6-1.137,2.392-.141.285-.6.469-.114.824-.286.235-.713.42-.82.719-.118.325-.413.446-.52.718-.088.226-.035.57-.185.7-.512.439-.689,1.105-1.153,1.567-.252.249-.28.658-.66.837-.481.227-.578.536-.233,1.04a.766.766,0,0,1-.243.984,3.13,3.13,0,0,1-2.139.84c-.286.035-.56.239-.839.238a9.384,9.384,0,0,1-1.314-.172,9.145,9.145,0,0,0-1.876-.242c-.7.049-1.016-.658-1.67-.666a13.412,13.412,0,0,1-1.69-.228c-.488-.808-1.353-.546-2.048-.64-.539-.074-.76-.583-1.286-.627-.465-.038-1.025.085-1.353-.467-.067-.114-.328-.125-.505-.16-.489-.1-.98-.182-1.47-.271-.283-.579-1-.254-1.295-.547-.511-.505-1.124-.424-1.692-.609-.442-.143-.731-.608-1.3-.571a3.078,3.078,0,0,1-1.305-.192c-.434-.173-.748-.575-1.3-.566a9.573,9.573,0,0,1-1.5-.2l-1.69-.243-1.5-.216-1.5-.216a8.171,8.171,0,0,1-1.5-.235c-.537-.185-.9.357-1.41.212a4.453,4.453,0,0,0-1.31-.182,2.583,2.583,0,0,0-1.005.29c-.334.159.067.265.08.408a.5.5,0,0,0,.059.144c-.111.039-.227.122-.331.11-.442-.05-.526-.49-.767-.758-.108-.12-.143-.128-.281,0-.437.4-.464-.154-.618-.313a.407.407,0,0,1,.1-.627,4.309,4.309,0,0,0,.6-.466.567.567,0,0,0,.1-.488,1.377,1.377,0,0,1-.232-.671c.033-.732.457-1.437.124-2.2-.3-.679.071-1.345.124-2.016a18.593,18.593,0,0,1,.324-2.252c.114-.562-.449-.985-.193-1.6a6.535,6.535,0,0,0,.268-1.679c.059-.48.3-.988-.18-1.4l.206-1.5c-.554-.471-.1-1.056-.18-1.582-.575-.375.074-1.1-.441-1.533-.111-.092-.028-.481.04-.711a2.611,2.611,0,0,0-.162-1.41c-.091-.392-.431-.719-.261-1.214.129-.377-.439-.743-.189-1.206.027-.05.038-.161.012-.177-.579-.38.059-1.123-.456-1.516.04-.54-.524-.991-.234-1.568a16.435,16.435,0,0,1-.567-1.662c-.155-.495-.308-1.011-.509-1.5-.222-.542-.356-1.118-.554-1.664-.18-.5-.324-1.008-.528-1.5a5.036,5.036,0,0,0-.6-1.477,2.258,2.258,0,0,1-.275-.647,3.948,3.948,0,0,0-.873-1.768c-.416-.343-.225-.932-.611-1.3a2.313,2.313,0,0,1-.672-1.268,1.34,1.34,0,0,0-.664-.884c-.516-.209-.716-.648-1.048-.995a11.9,11.9,0,0,1-1.431-1.364c-.656-.005-.587-.981-1.27-.95-.213-.478-.849-.452-1.081-.938-.241-.5-.96-.541-1.168-1.119-.1-.289-.422-.2-.644-.284-.15-.057-.371-.177-.388-.294-.092-.638-.466-1.276-.062-1.928.1-.166.173-.132.269.039.174.311.422.447.756.2q.683-.511,1.367-1.023c.2-.151.452-.463.6-.421.678.194.873-.736,1.494-.581a15.475,15.475,0,0,1,3.622-1.4c1.213-.439,2.47-.757,3.651-1.277.4-.178.889.267,1.212-.22.489.051.858-.461,1.375-.286.438.147.725-.427,1.223-.236.215.082.543-.194.828-.222s.578.118.883-.117c.429-.331.981.227,1.413-.088.357-.259.849-.117,1.153-.461.613.236,1.19-.08,1.777-.1a5.015,5.015,0,0,0,1.41-.183c.43-.135.977.311,1.4-.186.426.016.934.185,1.258.011.464-.247.845-.054,1.262-.061.364-.006.758.3,1.082.016.363-.317.714-.106,1.069-.082.375.025.748.089,1.122.136.563-.537,1.214-.216,1.773-.075s.879-.4,1.415-.234a2.493,2.493,0,0,0,1.461.121c.383-.138.493-.1.685.177a.367.367,0,0,0,.343.072,1.241,1.241,0,0,1,1.224-.2c.371.074.75.112,1.125.166.626.09,1.25.2,1.878.265.529.056,1.087.353,1.575-.128.254.741.673-.008,1.023.1a9.327,9.327,0,0,0,1.5.235,5.508,5.508,0,0,1,1.306.209,4.7,4.7,0,0,0,1.675.621,19.151,19.151,0,0,1,2.066.279,10.734,10.734,0,0,0,1.877.246c.632-.023.864.657,1.482.641a10.21,10.21,0,0,1,1.689.223c.374.7,1.091.478,1.67.615.367.087.452.571.916.54a5.011,5.011,0,0,1,1.111.169c.293.673,1,.36,1.468.618.2.662,1.094.216,1.348.856.049.125.457.13.7.144a.349.349,0,0,0,.266-.2c.069-.241.071-.525.435-.45a1.378,1.378,0,0,1,.676.224,3.06,3.06,0,0,1,.9,2.293c.023.415.441.744.219,1.216-.179.378.113.687.2,1.03a2.939,2.939,0,0,1-.133,1.118c-.083.488.453.853.208,1.411a.959.959,0,0,0,.137,1.215,9.783,9.783,0,0,0-.107,1.114c.01.782-.576,1.554,0,2.36.108.152-.03.483-.065.731Q299.774,326.348,299.5,328.225Z"/>
      <path id="Trazado_113892" data-name="Trazado 113892" d="M252.131,356.427c.081-.563.183-1.123.236-1.689.044-.473.334-.966-.113-1.425-.086-.089,0-.356.021-.537.1-.752.247-1.5.311-2.254.05-.591.408-1.193-.071-1.8-.11-.139.066-.481.054-.727-.023-.479.348-.941-.019-1.446-.283-.39.036-.842.033-1.268-.6-.33,0-.994-.353-1.348-.384-.383.144-.872-.222-1.217-.219-.206-.144-.453-.106-.7a1.221,1.221,0,0,0-.16-1.057c-.146-.191.091-.677-.057-.863-.294-.371-.084-.718-.139-1.064-.045-.278-.4-.483-.244-.84-.346-.242-.222-.673-.4-.983-.06-.106-.193-.228-.172-.313a4.833,4.833,0,0,0-.694-3.083c.128-.493-.453-.876-.216-1.4a.386.386,0,0,0-.082-.331c-.639-.7-.65-1.651-1.034-2.453-.254-.53-.224-1.184-.677-1.632-.2-.2-.083-.532-.193-.662-.33-.392-.238-.93-.591-1.319a3.209,3.209,0,0,1-.514-1.486c-.11-.454-.736-.7-.588-1.3q-.342-.454-.682-.91l-1.818-2.429-1.136-1.518c-.726.008-.7-1.036-1.431-1.021a6.764,6.764,0,0,0-.578-.748c-.16-.16-.457-.2-.583-.374a3.84,3.84,0,0,0-1.537-1.2c-.1-.05-.207-.39-.149-.456a3.9,3.9,0,0,1,2.625-1.46,1.29,1.29,0,0,0,.7-.125,4.679,4.679,0,0,1,.82-.3c.113-.046.195-.169.308-.218.377-.166.792-.493,1.139-.435.908.152,1.582-.473,2.4-.573.209-.025.4-.254.678-.172a1.215,1.215,0,0,0,1.372-.314.565.565,0,0,1,.481-.167c.526.232.9-.4,1.408-.2.443.175.713-.41,1.221-.236.428.146.853-.408,1.4-.183.2.081.469-.392.825-.234a.934.934,0,0,1,1.024-.235,1,1,0,0,0,1.011-.212c.256.744.7-.1,1.017.119.438-.568,1.247.085,1.678-.508.374.048.748.094,1.121.145s.751.107,1.126.161c.367-.621,1.112.06,1.517-.439a.218.218,0,0,1,.156-.082c.377.045.751.113,1.127.154a1.413,1.413,0,0,0,1.069-.109c.25-.16.715,0,1.081.04.56.056,1.118.126,1.677.19.43-.476.936-.142,1.413-.131.63-.5,1.307-.172,1.962-.1.941.11,1.874.295,2.817.387.589.057,1.2.426,1.792-.081.1-.083.36.02.545.046q4.035.579,8.07,1.155c.26.037.5.077.613.341.078.182.128.17.275.049a.641.641,0,0,1,.483-.171c.382.143.613.555,1.111.542.436-.012.874.147,1.314.163a2.213,2.213,0,0,1,1.118.529,4.936,4.936,0,0,0,1.071.258c.154.05.249.319.4.347.682.131,1.374.212,2.062.311.46.668,1.209.575,1.856.624.542.042.865.4,1.3.574.4.16.966.015,1.277.247a1.679,1.679,0,0,0,.944.48c.227.011.3.159.3.373.007.543-.323,1.057-.018,1.635.275.524-.052,1.092-.068,1.642a.254.254,0,0,0,.1.154c.266.233.136.346-.083.543-.254.228.231.347.181.579a1.656,1.656,0,0,1-.108.344c-.023.05-.112.067-.144.117-.094.147-.288.379-.244.444.525.787.112,1.579.016,2.348-.276,2.195-.616,4.381-.931,6.57a9.8,9.8,0,0,0-.2,1.5c.008.5-.451.717-.544,1.108-.147.612-.187,1.248-.287,1.872-.077.477.01,1.033-.567,1.293-.072.5-.143,1-.216,1.5s-.146,1-.22,1.5c-.743.435-.6,1.232-.6,1.857,0,.651-.61.906-.65,1.479a4.018,4.018,0,0,1-.284,1.459c-.12.249-.371.437-.417.771-.1.742-.251,1.477-.381,2.215-.745.326-.121,1.385-.912,1.714-.093.039-.06.352-.11.532-.112.4.022.858-.406,1.191-.374.291-.2.818-.324,1.226-.579.26-.524.818-.554,1.294-.04.635-.672.978-.674,1.666,0,.492-.543.884-.651,1.436-.034.172-.32.306-.382.582-.1.466.061,1.023-.412,1.38-.4.3-.042,1.06-.712,1.207.151.747-.808,1.1-.652,1.855.093.447-.575.509-.5.914.094.53-.609.659-.537,1.1.088.541-.6.63-.557,1.106-.666.258-.3,1.205-.976,1.458a.771.771,0,0,1-.673.793A1.361,1.361,0,0,1,282,365.3a1,1,0,0,0-.61-.357c-.44-.038-.876-.12-1.314-.183-.563-.081-1.13-.142-1.688-.248-.527-.1-1.166.05-1.481-.591a16.858,16.858,0,0,1-1.685-.259c-.267-.066-.472-.355-.738-.459-.284-.112-.634-.069-.9-.2-.2-.1-.271-.381-.569-.418-.556-.069-1.106-.189-1.658-.288-.35-.61-1.075-.271-1.5-.562-1.207-.833-2.62-.646-3.937-.908-.553-.11-.814-.729-1.479-.642a4.87,4.87,0,0,1-1.5-.2c-.093-.018-.142-.2-.238-.278-.283-.22-.309-.249-.634-.06-.234.135-.522.282-.656.079a1.156,1.156,0,0,0-.956-.472c-.876-.119-1.75-.26-2.628-.371-.415-.052-.834-.251-1.246.126-.125.115-.472-.008-.717-.03-.556-.051-1.112-.107-1.668-.161-.443.467-.947.076-1.42.115-.162.013-.3.217-.468.284a.392.392,0,0,1-.531-.345c.047-.377.106-.751.16-1.127Z" fill="#fff"/>
      <path id="Trazado_113893" data-name="Trazado 113893" d="M287.22,321.7c-.875-.126-1.748-.262-2.625-.371a.838.838,0,0,1-.618-.346c-.09-.117-.389-.229-.468-.171a.926.926,0,0,1-1.451-.143c-.054-.064-.369.144-.541.11-.15-.029-.253-.287-.4-.321a.675.675,0,0,0-.487.158c-.146.115-.179.119-.284-.023a.777.777,0,0,0-.415-.314c-.87-.149-1.747-.267-2.622-.386-.471-.065-.959-.242-1.381.152-.265-.594-.842-.453-1.309-.53-.408-.067-.816-.246-1.247.107-.172.141-.594,0-.9-.046-1.875-.264-3.748-.547-5.625-.8-.468-.063-.94-.3-1.431.1-.173.14-.6-.047-.9-.052-.6-.012-1.214-.425-1.781.093l-1.866-.238c-.225-.36-.419-.388-.834-.153-.325.185-.855-.288-1.244.011-.439.337-.842.044-1.258.042-.611,0-1.269-.431-1.814-.069-.585.389-1.25-.368-1.763.253-.072.086-.349,0-.531-.005-.476-.012-.983-.342-1.409.14a11.046,11.046,0,0,1-1.484-.192c-.263-.067-.383-.4-.722-.5-.362-.109-.137-.541-.1-.827a.288.288,0,0,1,.409-.244,1.194,1.194,0,0,0,1.036-.213c.229-.133.579.185.888-.043a1.009,1.009,0,0,1,.5-.156c.484-.04.982.346,1.447.017.439-.31.927.141,1.244-.048a1.939,1.939,0,0,1,1.6-.108c.52.135.873-.416,1.409-.216a6.338,6.338,0,0,0,1.3.206c.559-.488,1.176-.161,1.773-.13.418.022.727-.4,1.217-.227a8.138,8.138,0,0,0,1.493.235,7.1,7.1,0,0,1,1.306.206c.438.151.638-.344,1.031-.26.431.092.873.135,1.31.194.372.05.746.092,1.118.137.274-.722.824.51,1.105-.157a1.687,1.687,0,0,0,1.087.516c.515.105.872-.392,1.408-.22a10.476,10.476,0,0,0,1.681.262l1.5.215,1.687.243,1.5.216,1.687.242a11.753,11.753,0,0,1,1.5.228c.749.208,1.673-.141,2.241.684.049.071.24.043.365.061.437.063.875.12,1.311.191.478.077,1.018.02,1.291.567.437.063.875.125,1.312.189.059.009.154.017.168.051.2.512.78.33,1.076.583.234.2.49.327.726.5a1.74,1.74,0,0,1,.391.586,2.256,2.256,0,0,1-.788.422c-.5-.07-1-.143-1.5-.214Z"/>
      <path id="Trazado_113894" data-name="Trazado 113894" d="M281.1,328.87l-.527-.075c-.437-.063-.881-.1-1.308-.2-.409-.1-.935.1-1.2-.35-.241-.4-.822.413-.913-.3-.245-.044-.489-.094-.735-.13-1-.146-2-.255-2.994-.444-.64-.122-1.4.089-1.876-.614-.072-.107-.353-.076-.538-.1q-1.217-.179-2.434-.351c-.5-.072-1-.147-1.5-.215-.428-.058-.891-.041-1.1-.54a.879.879,0,0,0-.15.11c-.248.281-.379.114-.533-.111a.384.384,0,0,0-.313-.135,3.5,3.5,0,0,1-.836.226c-.189-.013-.349-.3-.546-.426-.1-.062-.258-.016-.367-.067-.325-.152-.767.614-1.006-.131-.695.626-1.431.082-2.141.051-.752-.033-1.5-.208-2.249-.3-.311-.039-.358-.321-.519-.495a.4.4,0,0,1,.037-.638c.234-.181.445-.5.8-.352.414.165.681-.242,1.024-.228a1.329,1.329,0,0,0,1.045-.208c.182-.15.461.047.592.292a1.276,1.276,0,0,0,.113.152c.834-.664,1.682-.03,2.519,0a23.027,23.027,0,0,1,2.435.331l2.622.377,2.434.35c.562.081,1.127.143,1.684.248.523.1,1.145-.037,1.472.57.518-.691.7.376,1.2.226a3.377,3.377,0,0,1,1.3.153c1.311.189,2.628.346,3.93.581.513.093.87.6,1.478.6a13.487,13.487,0,0,1,1.873.249c.562.081,1.128.14,1.684.248.645.126,1.109.764,1.855.665.1-.014.245.248.364.387s.162.222-.006.414c-.319.366-.812.2-1.162.48-.148.117-.469.037-.707.01-.5-.057-1-.139-1.5-.211C283.227,329.562,282.1,328.824,281.1,328.87Z"/>
      <path id="Trazado_113895" data-name="Trazado 113895" d="M271.328,331.3c1.936.278,3.873.548,5.807.84.592.089,1.262.005,1.664.618.3,0,.6.2.892-.054.066-.059.242-.112.27-.081.626.7,1.525.4,2.274.628.568.175,1.286-.067,1.677.6.5.079.989.162,1.486.235a1.459,1.459,0,0,1,1.134.517c.172.23.722-.005.958.426.173.315.633.08.837.279a1.37,1.37,0,0,0,.73.5c.045.007.076.1.114.145-.093.057-.222.186-.274.16-.682-.34-1.308.187-1.964.11-.627-.075-1.254-.156-1.873-.273-.466-.088-1.04.059-1.312-.526a1.292,1.292,0,0,1-.293.146,1.563,1.563,0,0,1-1.38-.178,1.237,1.237,0,0,0-.616-.343c-1.126-.146-2.25-.311-3.372-.484a.766.766,0,0,1-.479-.205c-.293-.41-.579-.4-.929-.094-.03.025-.165-.064-.246-.11-.152-.086-.3-.252-.449-.253-.2,0-.488.241-.584.17-.192-.142-.321-.331-.6-.366-1-.125-2.005-.247-3-.436-.641-.122-1.377.069-1.887-.6-.138-.18-.593-.122-.9-.167-2.56-.37-5.119-.746-7.682-1.1a.911.911,0,0,1-.727-.492.668.668,0,0,1-.083-.282c0-.029.116-.107.144-.092.513.263.936-.161,1.4-.173a12.167,12.167,0,0,1,1.312.167c.533.046,1-.381,1.591-.169a7.678,7.678,0,0,0,1.491.235l1.687.242,1.5.216Z"/>
      <path id="Trazado_113896" data-name="Trazado 113896" d="M277.013,340.56c-.034.431-.051.766-.386.681s-.77.629-1.012-.116c-.436-.066-.876-.111-1.306-.2-.406-.088-.852.012-1.188-.409-.291-.364-.813-.225-1.231-.309a14.327,14.327,0,0,0-1.5-.215.922.922,0,0,1-.608-.362c-.24-.247-.348.227-.581.184-.062-.011-.155.005-.183-.031-.535-.676-1.337-.557-2.047-.665-2.685-.407-5.374-.8-8.066-1.153a1.163,1.163,0,0,1-.862-.615c-.142-.209-.043-.628.158-.614.546.039.991-.491,1.588-.206.464.222.862-.385,1.4-.188a4.672,4.672,0,0,0,1.3.173c.1.006.193-.154.3-.212a.469.469,0,0,1,.634.169c.108.126.36.3.433.258.989-.571,1.947,0,2.909.066.942.066,1.877.255,2.814.39.822.9,2,.489,2.978.814.455.152,1-.054,1.38.426.3.384.948.086,1.194.357.338.373.752.366,1.112.555.3.16.489.566.688.886A.671.671,0,0,1,277.013,340.56Z"/>
      <path id="Trazado_113897" data-name="Trazado 113897" d="M282.8,356.714c-.508-.177-1.211.076-1.647-.556-.077-.112-.343-.088-.518-.14-.52-.154-1.115.012-1.574-.43-.437-.421-1.056-.265-1.584-.406-.335-.828-1.485-.2-1.839-1.023-.026-.061-.24-.029-.36-.062-.411-.113-.874.006-1.24-.3-.446-.379-.982-.636-1.423-1.02a2.724,2.724,0,0,1-.339-.449c.262-.153.522-.431.784-.433a11.409,11.409,0,0,1,1.684.216c.562.8,1.469.546,2.227.671.431.071.529.5.908.549.437.053.873.123,1.309.186l1.123.161c.68.887,1.727.544,2.6.722.474.1.568.7,1.078.6l.353,1.352c-.02.46-.129.562-.553.507C283.477,356.816,283.166,356.767,282.8,356.714Z"/>
      <path id="Trazado_113898" data-name="Trazado 113898" d="M269.572,345.6a3.308,3.308,0,0,1-1.1-.188c-.245-.137-.388-.424-.747-.459a16.511,16.511,0,0,0-2.242-.28c-.7.031-1-.677-1.66-.673a9.976,9.976,0,0,1-1.663-.255c-.167-.533-.513-.163-.787-.156-.18-.443-.6-.38-.954-.44-.372-.063-.748-.107-1.121-.164-.612-.093-.687-.218-.5-.884.03-.105.134-.271.2-.27a5.355,5.355,0,0,1,.927.1,1.034,1.034,0,0,0,1.039-.217c.051-.05.313.1.473.173.128.055.125.417.381.164a.739.739,0,0,1,1.015-.03c.366.393.6.52,1.077.183.161-.113.331.392.688.41a12.047,12.047,0,0,1,1.868.262c.518.11,1.114-.037,1.52.536.127.18.587.192.887.171.667-.047.962.817,1.66.635a1.211,1.211,0,0,1,.406,1.317c-.036.1-.167.232-.246.227-.376-.027-.749-.1-1.123-.149Z"/>
      <path id="Trazado_113899" data-name="Trazado 113899" d="M265.548,353.084c-.5-.072-1.008-.113-1.5-.224-.469-.106-1.027.046-1.389-.4-.334-.408-.914-.111-1.2-.373-.7-.644-1.708-.938-2.159-1.865a1.016,1.016,0,0,0-.112-.153c.1-.053.207-.162.3-.15.815.1,1.625.241,2.441.334a1.04,1.04,0,0,1,.769.442c.086.112.377.046.515.145.32.229.562-.592.908-.025.224.369.7.173,1.04.294.295.1.415-.285.633-.248.141.024.241.26.373.388.037.036.121.026.184.03.28.02.615-.56.839.077.367.068.734.141,1.1.2s.754.1,1.123.174c.1.021.169.166.255.252.245.245.27.406.077.552-.3.229-.621.438-.906.687a.937.937,0,0,1-.855.217C267.177,353.3,266.361,353.2,265.548,353.084Z"/>
      <path id="Trazado_113900" data-name="Trazado 113900" d="M277,348.214c.562.081,1.132.13,1.685.252.52.114,1.163-.067,1.5.553.494.083.988.158,1.48.252a3.456,3.456,0,0,1,1.243.3,3.193,3.193,0,0,1,1.3,1.239,2,2,0,0,0,.337.455c.245.278-.092.289-.187.374-.128.115-.334.265-.468.234-.578-.134-1.292.087-1.679-.588-.372-.06-.748-.1-1.113-.185-.521-.12-1.168.059-1.479-.591l-1.5-.216c-.431-.747-1.215-.539-1.855-.621-.434-.056-.5-.532-.912-.551a2.852,2.852,0,0,1-.909-.179.811.811,0,0,1-.337-.443.961.961,0,0,1-.044-.518c.012-.065.207-.146.309-.135.564.064,1.126.154,1.688.234Z"/>
      <path id="Trazado_113901" data-name="Trazado 113901" d="M264.869,347.237l.935.134a18.964,18.964,0,0,0,2.056.279c.706.025,1.109.705,1.847.694.547-.008.7.646.987,1.024.113.147.016.474-.028.712-.018.1-.161.253-.229.245-1-.126-2-.275-2.992-.418-.484-.81-1.362-.431-2.034-.674-.459-.166-1.06.075-1.4-.361s-.836-.2-1.184-.411c-.6-.356-1.144-.8-1.706-1.211-.024-.017,0-.126.026-.179.052-.1.108-.267.187-.282a1.644,1.644,0,0,1,.545.02C262.876,346.948,263.872,347.093,264.869,347.237Z"/>
      <path id="Trazado_113902" data-name="Trazado 113902" d="M280.112,344.445c.873.126,1.743.307,2.62.354.454.024.522.507.912.542a2.675,2.675,0,0,1,.92.161.877.877,0,0,1,.439.587,3.742,3.742,0,0,1-.125,1.111.34.34,0,0,1-.278.18c-.689-.08-1.374-.187-2.06-.286-.721-.746-1.71-.639-2.6-.723-.553-.052-.705-.724-1.285-.608-.483.1-.729-.374-1.105-.519a1.11,1.11,0,0,1-.679-.791c-.034-.11.173-.426.245-.418C278.117,344.148,279.114,344.3,280.112,344.445Z"/>
      <path id="Trazado_113903" data-name="Trazado 113903" d="M283.232,340.294a4.715,4.715,0,0,0,1.124.144c.526-.056.675.5,1.106.561.375.049.753.094,1.124.169a.554.554,0,0,1,.276.213c.273.348.514.723.8,1.055.255.293.115.591.072.885-.015.1-.17.272-.217.259-.577-.17-1.288.109-1.733-.5-.036-.048-.076-.11-.127-.128-.4-.139-.924.067-1.216-.344-.272-.384-.679-.24-1.011-.368-.553-.215-1-.7-1.668-.619a7.48,7.48,0,0,1-.6-.7c-.1-.149-.471-.31-.086-.545.2-.124.342-.358.65-.3C282.228,340.167,282.731,340.222,283.232,340.294Z"/>
      <path id="Trazado_113904" data-name="Trazado 113904" d="M290.676,321.623l-.563-.081" fill="none" stroke="#000" stroke-linecap="round" stroke-linejoin="round" stroke-width="2"/>
      <path id="Trazado_113905" data-name="Trazado 113905" d="M289,335.948c-.188-.027-.469.014-.547-.093-.348-.476-.761-.143-1.143-.15" fill="none" stroke="#000" stroke-linecap="round" stroke-linejoin="round" stroke-width="2"/>
      <path id="Trazado_113906" data-name="Trazado 113906" d="M250.8,360.355c-.086.422-.194.85.216,1.177.043.034.123.022.186.031" fill="none" stroke="#000" stroke-linecap="round" stroke-linejoin="round" stroke-width="2"/>
    </g>
    <g id="Grupo_80389" data-name="Grupo 80389">
      <path id="Trazado_113907" data-name="Trazado 113907" d="M381.307,350.825a.988.988,0,0,1-.385,1.113c-.259.2-.117.589-.4.807-.248.194-.4.505-.65.7-.277.219-.247.549-.4.808-.426.01-.6.365-.849.617a1.791,1.791,0,0,1-.73.536c-.306.1-.527.506-.747.8a3.307,3.307,0,0,1-.84.634c-.322.235-.729.318-.99.7a2.414,2.414,0,0,1-1.5.938c-.094.032-.246.035-.274.1-.154.326-.557.218-.767.483-.176.222-.511.274-.756.466-.207.162-.587-.007-.836.31-.213.271-.692-.005-.966.392-.175.254-.723-.018-.947.407-.042.08-.291.051-.445.073-.307.044-.719-.018-.9.158-.277.273-.565.227-.865.271-.262.457-.722.329-1.123.395-.343.056-.54.457-.968.387a3.38,3.38,0,0,0-.954.05c-.3.04-.429.424-.808.379a4.411,4.411,0,0,0-.937.082c-.3.533-.956.123-1.254.437-.366.388-.807.172-1.163.334-.265.121-.438.424-.712.03a.329.329,0,0,0-.3.02c-.22.4-.7.228-.944.42a1.319,1.319,0,0,1-.837.323c-.426.017-.851.05-1.277.076-.659.579-1.488.333-2.24.46-.546.092-.984.509-1.605.436a9.1,9.1,0,0,0-1.593.079c-.592.623-1.384.318-2.082.44-.365.064-.8-.052-1.1.107a1.784,1.784,0,0,1-.822.346c-.745.021-1.488.084-2.233.13-.159.01-.436-.024-.459.037-.2.536-.744.277-1.09.494a2.63,2.63,0,0,1-1.823.636c-1.6.1-3.194.152-4.783.31-.965.1-2.01-.2-2.881.481-.85.052-1.7.078-2.551.166-.5.051-1.078-.155-1.453.38a10.589,10.589,0,0,1-1.266.087c-.445-.02-.654.467-1.127.417s-.973.134-1.429.047c-.553-.106-.8.439-1.288.431a7.372,7.372,0,0,0-1.433.094c-.332.06-.573.509-.962.351a5.054,5.054,0,0,1-.754-.537c-.075-.048-.251-.065-.294-.018-.547.6-1.286.3-1.93.43a.99.99,0,0,1-1.125-.363.476.476,0,0,0-.562-.17c-.478.142-.753-.2-1.125-.377a8.293,8.293,0,0,1-1.626-1.17,7.188,7.188,0,0,0-1.615-1.188,6.352,6.352,0,0,1-1.453-1.232L309.538,364l-1.436-1.271c-.24-.211-.634-.392-.684-.642-.088-.434-.41-.588-.656-.838-.223-.227-.475-.427-.715-.638.005-.547-.62-.656-.765-1.106-.155-.481-.737-.626-.921-1.027s-.6-.613-.732-.955c-.147-.377-.471-.547-.634-.845-.2-.368-.519-.631-.734-.959a5.417,5.417,0,0,0-1.132-1.584c-.056-.043-.021-.2-.037-.306a8.429,8.429,0,0,0-.628-1.169c-.388-.212-.387-.719-.736-.958a7.99,7.99,0,0,0-1.158-2.391,4.7,4.7,0,0,0-.525-.891c-.141-.179-.279-.355-.139-.536s.257-.472.582-.48a7.68,7.68,0,0,0,.786-.071c.04-.005.078-.071.106-.115a2.191,2.191,0,0,1,.942-.742c-.124-.676.7-.447.873-.921.133-.363.547-.622.836-.927.56.054.571-.733,1.132-.733.146,0,.335-.253.43-.43.239-.445.752-.518,1.076-.845.131-.132.418-.134.51-.275.24-.373.721-.436.951-.742a6.737,6.737,0,0,1,1.938-1.442,13.8,13.8,0,0,0,1.492-.993,13.9,13.9,0,0,1,1.673-.929c.628-.4,1.255-.784,1.91-1.136.608-.325,1.172-.732,1.809-1.007.225-.514.956-.1,1.167-.637.427.014.645-.525,1.116-.42a.323.323,0,0,0,.259-.122c.224-.3.676-.246.871-.58a1.141,1.141,0,0,0,.964-.38c.525.132.8-.4,1.248-.479.132-.024.261-.263.36-.244.426.085.627-.327.969-.389a6.565,6.565,0,0,1,.8-.055c.169-.553.762-.216,1.069-.509a3.9,3.9,0,0,1,.629-.387c.085-.053.171-.186.237-.174.556.1.98-.408,1.443-.382.628.036.992-.616,1.605-.455.213-.549.92-.155,1.18-.618a.2.2,0,0,1,.113-.1c.456-.084,1.01.119,1.354-.237.321-.333.891.013,1.084-.5.013-.033.082-.054.129-.064.45-.1.956.1,1.354-.256.359-.319.812-.112,1.205-.226s.645-.486,1.128-.4a6.549,6.549,0,0,0,1.113-.047c.335,0,.417-.452.808-.388a4.46,4.46,0,0,0,.954-.045c.52-.675,1.278-.323,1.924-.424a16.443,16.443,0,0,1,2.072-.13c.128,0,.255.181.393.2a5.391,5.391,0,0,0,.752,0c.365-.563.664-.231,1.008.046.447.362.574.985,1.091,1.278-.02.448.355.617.624.842s.452.606.908.543c.071-.01.156.13.244.183.485.294.765.817,1.365,1.023.466.159.775.744,1.237.948a10.483,10.483,0,0,1,2.456,1.919c.435.371,1.052.443,1.4.923.44-.071.643.288.916.512a5.347,5.347,0,0,0,1.633,1.155c.275.091.4.518.8.4a8.519,8.519,0,0,0,.725.623,7.638,7.638,0,0,1,.9.527c.384.359.931.4,1.3.8a5.028,5.028,0,0,0,1.141.736,3.624,3.624,0,0,1,.9.527c.269.3.661.247.948.479.221.178.576.148.792.413a1.569,1.569,0,0,0,.6.515c.239.086.46.219.681.287a1.221,1.221,0,0,1,.665.331c.372.462.961.559,1.42.87.539-.1.648.718,1.21.567.255.361.789.22,1.051.594a.7.7,0,0,0,.524.288c.284.03.515.26.819.334.328.079.613.447.924.455.353.01.514.331.839.322.362-.01.495.356.754.521s.573-.009.89.148c1.06.523,2.169.946,3.26,1.407.253.376.693-.022,1.011.262a1.759,1.759,0,0,0,.936.416c.322.033.481.45.841.292.241.208.483.415.722.626C381.269,350.182,381.268,350.183,381.307,350.825Z"/>
      <path id="Trazado_113908" data-name="Trazado 113908" d="M337.919,365.172c-.638.039-1.277.067-1.914.121-.351.03-.731-.067-1.007.316-.083.116-.39.082-.6.1-.637.045-1.275.086-1.914.117-.356.017-.721.139-1.029-.213-.092-.106-.166.414-.419.194a.688.688,0,0,0-.568-.18c-.635.056-1.273.089-1.91.131-.473.628-1.252.147-1.748.45a3.442,3.442,0,0,1-1.621.388c-.44.5-1.05.355-1.6.419-.339.682-1.26.062-1.63.723-.043.076-.3.034-.459.045s-.439-.022-.46.036c-.208.6-.93.137-1.2.616a.312.312,0,0,1-.53-.024c-.355-.489-1.026-.456-1.414-.919a7.79,7.79,0,0,0-1.191-1.062c-.226-.178-.652-.229-.733-.436-.114-.292-.173-.436-.51-.419-.117.006-.23-.211-.369-.272-.284-.125-.037-.665-.542-.629-.348.025-.519-.329-.744-.533s-.593-.243-.785-.418c-.41-.375-1.024-.576-1.154-1.235-.05-.253-.4-.1-.512-.217-.423-.442-1.091-.67-1.227-1.368q-.838-.741-1.676-1.482c-.153-.136-.337-.248-.32-.5.024-.36-.051-.642-.517-.54-.086-.177-.153-.492-.262-.508-.612-.086-.736-.607-.931-1.017-.239-.5-.788-.675-1.047-1.132a3.7,3.7,0,0,0-.687-1.147c-.428-.365-.572-.973-1.1-1.275-.364-.21-.446-.654-.659-.989a11.055,11.055,0,0,0-.882-1.531,12.117,12.117,0,0,1-.992-1.493,6.09,6.09,0,0,0-.919-.869s.142-.143.2-.231c.237-.354.787-.287.961-.735.125-.323.569-.184.75-.492a.9.9,0,0,1,.592-.467c.216-.051.381-.333.561-.519.148-.153.276-.444.427-.454.456-.028.553-.463.854-.627.262-.142.509-.3.767-.449a3.9,3.9,0,0,0,1.357-.934c.074-.1.275-.1.417-.144s.356-.053.411-.149c.3-.527.934-.614,1.305-1.073.3-.37.845-.492,1.253-.773.246-.169.583-.187.747-.5a.73.73,0,0,1,.652-.352,5.919,5.919,0,0,0,1.774-1.053,1.154,1.154,0,0,1,.8-.394,3.841,3.841,0,0,0,.9-.495c.128-.072.269-.2.392-.191.383.038.579-.2.774-.448a.608.608,0,0,1,.519-.292.6.6,0,0,0,.427-.114c.232-.3.7-.233.865-.6a1,1,0,0,0,.965-.38c.556.055.927-.342,1.363-.572a3.545,3.545,0,0,1,1.53-.594c.369-.015.662-.488,1.126-.361a.831.831,0,0,1,.805-.378c.31-.01.421-.468.79-.394a.665.665,0,0,1,.662-.329,1.3,1.3,0,0,0,1.361-.584.406.406,0,0,1,.25-.148c.156-.031.32-.014.478-.038.357-.055.8.11,1.056-.17.27-.3.679-.11.842-.287a1.225,1.225,0,0,1,.989-.359c.1,0,.281.008.3-.039.208-.5.792-.187,1.075-.512.065-.074.15-.168.237-.18.414-.06.832-.1,1.249-.139.226-.424.643-.285.992-.321.364-.036.529-.483.967-.4a2.021,2.021,0,0,0,.949-.058c.377-.119.664-.442,1.132-.39.418.046.861-.11,1.271-.043.448.072.515-.5.972-.421a5.428,5.428,0,0,0,1.273-.057l1.116-.068c.713-.608,1.6-.329,2.4-.468.353-.061.478.112.454.44.384.274.39.827.839,1.081a1.108,1.108,0,0,1,.582.7,1.138,1.138,0,0,0,.651.646,6.509,6.509,0,0,1,1.983,1.489c.548.476,1.269.673,1.775,1.232a12.687,12.687,0,0,0,1.672,1.482c.269.209.653.229.918.513a2.433,2.433,0,0,0,.981.753c.407.11.6.41.88.619s.561.49.843.735.681.185.925.5a2.291,2.291,0,0,0,1.021.641c.315.13.537.411.916.525.422.126.643.707,1.123.812.563.123.763.715,1.257.887a2.751,2.751,0,0,1,1.33.652c.228.271.6.117.816.389a4.038,4.038,0,0,0,.593.534.873.873,0,0,0,.254.167,5.589,5.589,0,0,1,.973.338,10.605,10.605,0,0,1,.852.719c.108.081.335.016.424.1.339.329.829.35,1.19.687.341.318.975.325,1.307.648.358.349.875.307,1.19.689.338.408.932.344,1.342.613a10.46,10.46,0,0,0,1.623.748,9.775,9.775,0,0,0,1.511.593c.285.071.493.377.848.263.335-.108.488.408.843.266.208.256.593.2.793.393.243.237.636.073.815.387.021.037.1.082.126.069.505-.247.85.336,1.326.249.218-.04.441-.011.421.3-.015.23.192.578-.219.637-.376.053-.489.37-.7.581-.375.368-.727.759-1.089,1.14-.55-.039-.559.785-1.132.71a8.5,8.5,0,0,1-2.221,1.5c-.37.236-.867.363-1.084.829a.292.292,0,0,1-.256.122c-.432-.124-.623.307-.965.4s-.557.4-.968.392c-.266,0-.437.378-.806.368-.212-.005-.418.254-.648.328s-.528-.033-.709.242a.389.389,0,0,1-.254.141c-.263.033-.531.039-.8.055-.2.578-.929.14-1.177.623a.2.2,0,0,1-.116.094c-.392.086-.867-.13-1.157.325-.361.045-.721.1-1.084.134-.408.04-.63.512-1.128.411a.9.9,0,0,0-.995.315c-.081.114-.4.042-.6.088-.394.089-.841-.107-1.189.259-.29.3-.7.114-1.053.194-.309.517-.842.409-1.282.378-.472-.034-.75.3-1.13.4a6.352,6.352,0,0,1-1.1.107c-.264.481-.741.3-1.137.363-.347.059-.754-.081-1,.328-.036.06-.188.056-.288.072-.7.11-1.475-.109-2.081.448l-1.117.069c-.319.02-.716-.072-.938.085a1.567,1.567,0,0,1-.984.359c-.318-.007-.638.033-.957.053-.523.662-1.281.292-1.923.433-.54.12-1.154-.108-1.618.409-.1.113-.415.014-.621.059-.746.16-1.6-.2-2.242.453Z" fill="#fff"/>
      <path id="Trazado_113909" data-name="Trazado 113909" d="M327.33,354.931c.744-.046,1.488-.09,2.232-.138.309-.02.649.037.829-.32a1.257,1.257,0,0,1,1.431.262,4.172,4.172,0,0,0,1.019.641,3.939,3.939,0,0,1,1.262,1.335c.193.328.508.612.715.967.229.391.864.469.85,1.064.319.282.62.589.961.841a3.086,3.086,0,0,1,.749,1.117.421.421,0,0,1-.334.665c-.489,0-.75.529-1.286.435a4.171,4.171,0,0,0-1.271.066c-.445.064-.973-.136-1.3.363-.634.049-1.268.144-1.9.131a2.536,2.536,0,0,0-1.131.391c-.314.138-.746-.088-1.009.289-.151.217-.4.146-.586.133a2.981,2.981,0,0,0-1.542.553c-.441.214-.783.632-1.352.606a3.706,3.706,0,0,1-1.169-.233c-.291-.081-.473-.438-.839-.3-.3.114-.486-.1-.682-.28-.228-.208-.2-.56-.489-.755a9.5,9.5,0,0,1-.965-.835c-.064-.6-.765-.784-.9-1.374-.061-.272-.564-.327-.581-.693-.02-.436-.407-.205-.571-.354a4.86,4.86,0,0,1-1.347-1.477c-.164-.354-.2-.591.156-.772.7-.359,1.27-1.006,2.166-.959.343.017.532-.455.966-.383.3.05.421-.432.8-.365a3.344,3.344,0,0,0,.8-.038c.368-.029.82.057,1.079-.127a1.5,1.5,0,0,1,.842-.313C325.736,355.032,326.533,354.98,327.33,354.931Z"/>
      <path id="Trazado_113910" data-name="Trazado 113910" d="M338.464,335.332c.273.009.6-.079.778.044.464.314,1.035.367,1.483.684.3.212.547.62.856.663.44.061.612.38.894.587a6.289,6.289,0,0,1,.835.738c.259.273.687.16.934.493a5.516,5.516,0,0,0,.823.75c.279.246.572.478.833.743.331.335.9.265,1.158.715a2.7,2.7,0,0,1,1.383.941,2.685,2.685,0,0,0,.929.493,3.189,3.189,0,0,1,1.04.611c.368.376.794.7,1.2,1.039.585-.089.75.731,1.345.619.384.52,1.116.526,1.519,1.032a1.239,1.239,0,0,0,.785.432c.225.042.39.453.605.475a1.505,1.505,0,0,1,.909.54.949.949,0,0,0,.967.371.2.2,0,0,1,.15.01c.333.223.528.625,1.058.58a2.51,2.51,0,0,1,.973.311c.139.053.29.236.387.2.411-.132.682.315,1,.252.462-.091.734.374,1.162.293a.663.663,0,0,1,.078.2,2.6,2.6,0,0,1-.92.44c-.331.023-.505.265-.778.33-.4-.454-.9-.191-1.341-.147-.409.042-.676-.293-1-.262a1.131,1.131,0,0,1-.967-.395.818.818,0,0,0-.4-.178c-.3-.054-.481-.329-.826-.346-.207-.01-.382-.439-.6-.471a1.091,1.091,0,0,1-.781-.437c-.188-.265-.5-.1-.69-.287s-.392-.359-.6-.528a1.7,1.7,0,0,0-.378-.257,9.336,9.336,0,0,1-1.086-.456,3.589,3.589,0,0,1-.836-.735c-.285-.332-.752-.273-1.057-.593a2.279,2.279,0,0,0-1.1-.845c-.46-.094-.619-.585-1-.719a5.777,5.777,0,0,1-1.86-1.374c-.35-.312-.854-.3-1.175-.7a9.946,9.946,0,0,0-1.18-1.069l-1.075-.95c-.358-.317-.713-.639-1.076-.949a1.8,1.8,0,0,0-.911-.536c-.322-.051-.447-.6-.908-.515-1.011-.566-1.019-.62-1.682-.52-.5.077-.458-.28-.577-.531-.054-.114-.323-.116-.183-.325a.941.941,0,0,1,.319-.349A2.482,2.482,0,0,1,338.464,335.332Z"/>
      <path id="Trazado_113911" data-name="Trazado 113911" d="M329.667,338.772a1.63,1.63,0,0,1,1.247.424,3.653,3.653,0,0,0,1.335.673c.485.094.632.753,1.2.612.257.354.747.28,1.051.6a5.5,5.5,0,0,0,.9.53,5.01,5.01,0,0,1,.719.631c.329.338.856.3,1.173.706a2.681,2.681,0,0,0,1.073.932c.8.269,1.233.941,1.862,1.387.672.475,1.111,1.27,1.993,1.46l1.794,1.586c.04.035.086.107.118.1.558-.1.709.582,1.2.612.1.006.255.044.268.1.078.32.158.6.589.513.031-.006.077.068.119.1a8.024,8.024,0,0,0,1.716,1.36,5.154,5.154,0,0,1,1.575,1.282c.423.411,1.016.488,1.418.908.368.383.791.712,1.19,1.064.438.388.86.8,1.321,1.155.257.2.227.447.253.7.02.2-.08.275-.25.322-.5.139-.88-.2-1.279-.362-.457-.187-.691-.787-1.285-.8a8.674,8.674,0,0,1-1.178-1.071c-.291-.373-.763-.292-1.059-.6a4.066,4.066,0,0,0-.962-.832c-.45-.233-.954-.347-1.045-.952a2.053,2.053,0,0,1-1.042-.609c-.165-.141-.559.067-.554-.362s-.406-.192-.576-.346a6.281,6.281,0,0,1-.593-.533c-.449-.525-1.171-.633-1.648-1.131s-1.033-.919-1.542-1.386c-.233-.214-.622-.092-.8-.4-.123-.214-.216-.562-.385-.605a1.365,1.365,0,0,1-.672-.327c-.19-.185-.4-.354-.6-.531-.678-.6-1.331-1.23-2.042-1.786-.439-.343-.724-.855-1.373-1-.519-.112-.773-.782-1.4-.911-.316-.065-.556-.473-.846-.7-.234-.188-.618-.1-.794-.407s-.561-.217-.8-.406c-.289-.234-.56-.49-.839-.737-.239-.212-.483-.419-.715-.638a.712.712,0,0,1-.108-.217Z"/>
      <path id="Trazado_113912" data-name="Trazado 113912" d="M324.593,340.364a.971.971,0,0,1,.281.087c.292.2.483.5.916.534.317.029.447.568.9.546.121-.006.257.154.375.252a7,7,0,0,0,.6.518c.159.105.443.08.539.21.359.487,1.185.369,1.366.937s.671.78,1.024,1.141a16.172,16.172,0,0,1,1.284,1.188,5,5,0,0,0,.634.837,1.483,1.483,0,0,1,.566.71c.1.3.492.527.777.76s.256.653.606.864a2.168,2.168,0,0,1,.768.927c.157.309.652.453.789.763.388.873,1.209,1.284,1.844,1.884,1.082,1.022,2.221,1.982,3.337,2.969a2.3,2.3,0,0,1,.351.323.377.377,0,0,1,.028.3.4.4,0,0,1-.216.19c-.5.2-.837-.308-1.294-.313-.04,0-.079-.067-.12-.1a8.118,8.118,0,0,0-1.617-1.175,6.244,6.244,0,0,1-1.444-1.242,4.843,4.843,0,0,1-.514-.7c-.6.173-.378-.492-.676-.665a1.7,1.7,0,0,1-.773-.754,1.783,1.783,0,0,0-.574-.707c-.262-.263-.553-.5-.831-.744.077-.411-.293-.523-.5-.739a2.941,2.941,0,0,1-.645-.835c-.184-.4-.769-.549-.928-1.022-.149-.444-.563-.609-.86-.888-.815-.763-1.684-1.469-2.5-2.235-.494-.466-1.188-.6-1.652-1.125a12.73,12.73,0,0,0-1.425-1.275c-.365-.3-.456-.766-.7-1.139-.027-.042.069-.178.127-.257C324.466,340.36,324.542,340.371,324.593,340.364Z"/>
      <path id="Trazado_113913" data-name="Trazado 113913" d="M328.855,352.228c0,.037.033.19-.019.23a.59.59,0,0,1-.4.147c-.137-.029-.249-.181-.367-.285-1.908-1.687-3.806-3.387-5.731-5.055-.511-.443-.738-1.1-1.314-1.5a9.257,9.257,0,0,1-1.429-1.263c-.239-.251-.57-.207-.8-.394a7.1,7.1,0,0,1-.7-.64.342.342,0,0,1-.01-.3.369.369,0,0,1,.236-.167c.154-.033.356-.09.468-.022a7.435,7.435,0,0,0,.812.356c.314.146.478.5.917.53.254.019.48.387.719.6.755.668,1.514,1.332,2.263,2.007.262.235.627.4.617.843.248.167.4.53.795.4.617.693,1.578,1.055,1.927,2.005a20.011,20.011,0,0,0,1.561,1.357A1.2,1.2,0,0,1,328.855,352.228Z"/>
      <path id="Trazado_113914" data-name="Trazado 113914" d="M317.771,353.93a1.43,1.43,0,0,1-.2.347c-.109.113-.181.422-.439.151a3.245,3.245,0,0,1-.77-.94c-.156-.354-.605-.58-.924-.862.075-.473-.36-.361-.564-.528-.949-.773-1.854-1.6-2.76-2.425-.1-.087-.059-.318-.154-.41a10.418,10.418,0,0,0-.848-.7c-.031-.024-.114.024-.154,0a3.206,3.206,0,0,1-.385-.244.786.786,0,0,1-.222-.219,3.849,3.849,0,0,0-.165-.41c-.09-.127-.249-.2-.347-.327a3.078,3.078,0,0,1-.2-.391c-.049-.086-.129-.156-.176-.243a3.484,3.484,0,0,1-.179-.4.349.349,0,0,1-.011-.158,1,1,0,0,1,.057-.292c.051-.113.119-.07.228.03.551.5,1.127.978,1.668,1.49s1.271.671,1.773,1.235a17.44,17.44,0,0,0,1.542,1.388c.559.494,1.086,1.031,1.685,1.471a8.868,8.868,0,0,1,1.458,1.926C317.768,353.521,317.739,353.717,317.771,353.93Z"/>
      <path id="Trazado_113915" data-name="Trazado 113915" d="M322.832,353.019c0,.234.045.389-.006.432-.107.091-.294.2-.394.162-.186-.071-.441-.221-.474-.378a1.6,1.6,0,0,0-.638-.842c-.117-.109-.238-.212-.358-.318l-1.791-1.584-1.672-1.479c-.263-.806-1.033-1.144-1.578-1.685-.528-.523-1.109-.992-1.665-1.486a.7.7,0,0,1-.205-.227c-.034-.089-.044-.254.008-.3.11-.088.366-.191.391-.159.362.481.994.518,1.418.895,2.064,1.838,4.127,3.678,6.221,5.482.3.255.33.617.586.878C322.826,352.57,322.8,352.895,322.832,353.019Z"/>
      <path id="Trazado_113916" data-name="Trazado 113916" d="M331.156,361.1a2.176,2.176,0,0,1-.616.02c-.089-.021-.174-.235-.183-.366a.233.233,0,0,1,.289-.261.511.511,0,0,1,.269.09.434.434,0,0,0,.761-.048.377.377,0,0,1,.257-.115.642.642,0,0,1,.269.091.118.118,0,0,1-.006.1c-.189.156-.258.46-.575.46C331.466,361.075,331.311,361.093,331.156,361.1Z" fill="#fff"/>
      <path id="Trazado_113917" data-name="Trazado 113917" d="M333.8,360.656c-.386-.018-.59-.022-.791-.041a.153.153,0,0,1-.11-.1c0-.037.054-.089.1-.116.352-.22.838.117,1.153-.28.275-.346.679-.15,1.02-.215.074-.014.17.087.255.136-.079.058-.167.175-.235.165C334.6,360.114,334.243,360.867,333.8,360.656Z" fill="#fff"/>
      <path id="Trazado_113918" data-name="Trazado 113918" d="M329.783,356.7c-.091-.028-.219-.028-.266-.09a.377.377,0,0,1,.052-.532c.173-.182.306-.436.615-.356a.31.31,0,0,1,.179.214A.807.807,0,0,1,329.783,356.7Z" fill="#fff"/>
      <path id="Trazado_113919" data-name="Trazado 113919" d="M328.922,361.56c-.039,0-.19-.009-.338-.033-.044-.007-.108-.063-.11-.1a.148.148,0,0,1,.1-.112c.3-.044.609-.087.916-.1.082,0,.17.088.256.136-.079.058-.151.148-.239.168A4.14,4.14,0,0,1,328.922,361.56Z" fill="#fff"/>
      <path id="Trazado_113920" data-name="Trazado 113920" d="M327.175,362.2c-.035.036-.073.106-.1.1-.142-.013-.328,0-.409-.087s-.045-.266-.043-.4c0-.039.063-.109.1-.109A1.266,1.266,0,0,1,327.175,362.2Z" fill="#fff"/>
      <path id="Trazado_113921" data-name="Trazado 113921" d="M327.048,356.588c-.152-.041-.294-.076-.431-.121a.121.121,0,0,1-.006-.1.838.838,0,0,1,.842-.052.123.123,0,0,1,.008.1C327.329,356.477,327.193,356.529,327.048,356.588Z" fill="#fff"/>
      <path id="Trazado_113922" data-name="Trazado 113922" d="M329.489,338.943c.219.093.442.179.656.282.173.083.244.345.5.288" fill="none" stroke="#000" stroke-linecap="round" stroke-linejoin="round" stroke-width="2"/>
      <path id="Trazado_113923" data-name="Trazado 113923" d="M324.631,340.682c.155.218.5.272.517.609" fill="none" stroke="#000" stroke-linecap="round" stroke-linejoin="round" stroke-width="2"/>
      <path id="Trazado_113924" data-name="Trazado 113924" d="M309.418,345.939c.119.207.232.417.36.618.1.161.373.2.347.46" fill="none" stroke="#000" stroke-linecap="round" stroke-linejoin="round" stroke-width="2"/>
      <path id="Trazado_113925" data-name="Trazado 113925" d="M314.354,345.477c.283.249.563.5.85.744.03.025.1,0,.157-.005" fill="none" stroke="#000" stroke-linecap="round" stroke-linejoin="round" stroke-width="2"/>
      <path id="Trazado_113926" data-name="Trazado 113926" d="M332.565,360.375q.031.519.064,1.037" fill="none" stroke="#000" stroke-linecap="round" stroke-linejoin="round" stroke-width="2"/>
      <path id="Trazado_113927" data-name="Trazado 113927" d="M329.693,360.551c.063.157.082.373.2.457a.812.812,0,0,1,.36.791" fill="none" stroke="#000" stroke-linecap="round" stroke-linejoin="round" stroke-width="2"/>
    </g>
    <g id="Grupo_80390" data-name="Grupo 80390">
      <path id="Trazado_113928" data-name="Trazado 113928" d="M343.427,290.061c.618,0,1.235.014,1.852,0,.407-.012.841.129,1.186-.293.105-.129.458-.069.7-.071.864-.006,1.729-.019,2.592.007a1.126,1.126,0,0,0,.8-.331c.2-.162.466-.045.617.182.1.157.152.147.272.027a1.178,1.178,0,0,1,.447-.25,2.234,2.234,0,0,1,.368-.01c.813-.118,1.711.312,2.439-.368.494,0,.99-.033,1.48.01a2.107,2.107,0,0,0,1.156-.354c.3-.147.718-.036,1.071-.1.073-.015.067-.325.141-.477.1-.207.568-.279.616-.1.2.74,1.02,1.421.2,2.28-.175.181-.125.572-.409.747.3.278.349.544-.04.788.105.367-.288.515-.349.777a3.5,3.5,0,0,0-.014,1.105c.046.5-.648.766-.381,1.331.226.478-.3.733-.407,1.13-.1.377-.464.72-.318,1.149.174.511-.572.676-.378,1.145.209.505-.593.649-.384,1.141a.841.841,0,0,0-.355.96,2.918,2.918,0,0,1-.368,1.517c-.1.276-.468.4-.382.77a.73.73,0,0,1-.335.785c.039.93-.663,1.578-.922,2.4-.033.105-.217.192-.209.277a1.65,1.65,0,0,1-.7,1.756c-.037.023-.047.1-.052.16-.03.359.063.8-.114,1.055s-.148.615-.371.77c-.339.236-.208.656-.495.928-.329.312.059.986-.5,1.262.227.54-.42.889-.341,1.322.094.515-.5.7-.4,1.148-.377.31-.295.908-.738,1.176.2.492-.427.65-.44,1.132-.011.4-.509.764-.653,1.191s-.585.769-.42,1.329c.036.123-.259.407-.457.523-.482.282-.077.817-.38,1.149-.235.258-.647.413-.612.853.046.578-.4.947-.595,1.422-.125.306-.126.723-.5.9.126.421-.4.574-.388.95s-.412.522-.438.944a1.648,1.648,0,0,1-.63,1.007c-.362.291-.317.766-.636,1.047-.184.162-.511.378-.487.52.076.443-.365.588-.428.958a2,2,0,0,1-.543,1.054c-.528.5-.674,1.262-1.283,1.711a1.644,1.644,0,0,0-.813,1.14c-.015.142-.243.265-.377.393-.041.041-.1.107-.139.1-.6-.073-.72.594-1.173.751a4.332,4.332,0,0,1-.777.345c-.289.035-.457.383-.584.347-.665-.184-1.058.539-1.7.439-.233-.036-.5.262-.771.332-.232.06-.5-.022-.735.025-.158.032-.281.225-.44.27-.553.157-1.019.625-1.663.46-.4-.1-.532.459-.96.382a1.753,1.753,0,0,0-1.089.019,1.667,1.667,0,0,1-1.162.338c-.282.428-.715.356-1.142.38-.64.036-1.351-.245-1.884.361H324.05c-.74.6-1.617.336-2.439.353-.446.01-.637.533-1.147.408a5.779,5.779,0,0,0-1.291-.022c-.232,0-.246.429-.545.271a4.234,4.234,0,0,0-.447-.262,1.393,1.393,0,0,0-.367-.009c-.379-.027-.517.5-.961.386a3.837,3.837,0,0,0-.923-.014,10.265,10.265,0,0,1-1.11-.009c-.4-.044-.654.248-.969.344a5.248,5.248,0,0,1-1.47.035c-.617,0-1.235-.023-1.851.006-.642.03-1.345-.212-1.884.364h-4.258c-.732-.659-1.623-.268-2.439-.372-.114-.014-.3-.018-.326-.083-.273-.571-.971-.029-1.289-.509-.072-.108-.357-.057-.474-.159a.919.919,0,0,1-.2-.459c-.045-.169,0-.379-.087-.517-.113-.185-.4-.317-.063-.528.386-.242.473-.662.654-1.028a6.429,6.429,0,0,1,.4-.759c.167-.247.539-.457.545-.69.016-.625.917-.692.771-1.359.428-.342.482-.914.871-1.323a7.386,7.386,0,0,0,.979-1.8,2.677,2.677,0,0,0,.355-.774c.049-.366.387-.455.529-.712.332-.6.67-1.2.962-1.823s.6-1.229.894-1.85c.1-.216.266-.391.223-.648a.648.648,0,0,1,.278-.629c.271-.24.566-.475.47-.918a.444.444,0,0,1,.063-.337,5.013,5.013,0,0,0,.632-.669c.164-.294-.117-.73.274-1,.257-.176.038-.621.4-.759a3.794,3.794,0,0,1,.785-1.9c-.089-.674.565-1.174.436-1.857.608-.341.121-1.208.74-1.544a1.5,1.5,0,0,1,.342-1.165c.18-.23-.044-.675.3-.987.294-.266-.106-.864.4-1.128.063-.033.058-.218.065-.334a1.592,1.592,0,0,1,.305-1.184c.235-.256-.043-.835.41-1.126a.552.552,0,0,0-.1-.465,7.066,7.066,0,0,0-1.105-.454c-.164-.057-.37-.016-.515-.1-.311-.171-.42-.63-.843-.644-.374-.013-.525-.459-.952-.425-.16.013-.356-.311-.519-.5-.142-.16-.243-.172-.4-.005-.336.362-.728.676-1.033,1.06-.247.309-.681.17-.927.5-.1.131-.447.079-.683.1s-.495-.071-.667.177-.422.194-.66.194c-.433,0-.866.022-1.3-.006-.347-.023-.75.164-1.027-.194s-.788.037-.987-.271c-.309-.479-.822-.1-1.153-.379a2.7,2.7,0,0,0-1.009-.7c-.416-.126-.657-.822-1.075-.957-.516-.166-.755-.573-1.148-.818-.553-.345-.546-1.05-1.033-1.438a13.343,13.343,0,0,1-1.184-1.171c-.078-.081-.178-.2-.167-.294.052-.4-.527-.535-.38-.959l-.741-.8c.1-.683-.959-.807-.74-1.545a5.023,5.023,0,0,0-.711-1.38c-.094-.1-.037-.353-.027-.535.018-.338-.208-.33-.453-.41-.507-.166-.694.478-1.147.387a1.347,1.347,0,0,0-1.415.6,5,5,0,0,1-1.708,1.244c-.149.082-.349.094-.467.2-.409.375-.772.8-1.191,1.164a4.211,4.211,0,0,1-1.107.894,3.9,3.9,0,0,0-1.211,1.086c-.317.356-.793.57-.939,1.088-.156.557-.677.835-1.038,1.234-.331.365-.715.684-1.037,1.057-.224.259-.17.688-.527.893-.279.16-.3.48-.418.748-.139.315-.564.526-.647.839a1.831,1.831,0,0,1-.649.842c-.314.313-.592.6-.5,1.1.016.089-.111.2-.142.305-.16.55-.712.956-.589,1.608-.219.274-.277.7-.491.885s-.685.121-1.042.121c-.25,0-.681-.488-.687-.739-.01-.431-.005-.863-.007-1.294-.523-.333-.347-.861-.362-1.33-.016-.493-.012-.988,0-1.481a.43.43,0,0,1,.155-.3c.426-.293-.254-.477-.078-.648a1.121,1.121,0,0,0,.3-.814c.052-.577-.262-1.239.345-1.705q.007-.922.014-1.845c.629-.456.257-1.13.382-1.7.06-.271.276-.507.347-.778a4.859,4.859,0,0,0,.019-.737.458.458,0,0,1,.159-.3,1.536,1.536,0,0,0,.592-1.432c-.01-.453.575-.789.353-1.328.407-.29.3-.9.741-1.174-.19-.53.2-.9.377-1.325.153-.369.415-.7.537-1.072.144-.442.547-.758.567-1.248a8.324,8.324,0,0,0,1.554-2.688c.144-.315.548-.528.639-.844a1.308,1.308,0,0,1,.535-.7c.6-.446.7-1.249,1.293-1.7a13.383,13.383,0,0,1,1.505-1.3c.623-.333.96-.917,1.495-1.3a4.293,4.293,0,0,1,.466-.211c.2-.112.385-.333.59-.35.514-.044.624-.645,1-.721.457-.094.795-.3.452-.632-.389-.38-.094-.846-.37-1.158a.882.882,0,0,1-.276-.633c.013-2.222.026-4.444-.007-6.665-.007-.508.5-.791.4-1.332a1.209,1.209,0,0,1,.351-1.324c-.157-1.579,1.173-2.608,1.481-4.015.476-.482.935-.983,1.434-1.439.433-.4.736-.94,1.407-1.078.32-.066.43-.622.838-.636.382-.013.52-.515.961-.408.1.024.271-.332.4-.324a1.953,1.953,0,0,0,1.159-.365c.229-.135.6-.025.911-.025.37,0,.741.015,1.11-.005.3-.017.417-.488.77-.357.212.078.38.29.594.348a1.8,1.8,0,0,0,.735,0,.6.6,0,0,0,.411-.237c.221-.466.27-1.037.714-1.364.46-.338.444-.956.9-1.314.354-.281.308-.974.808-1.109a1.518,1.518,0,0,0,.757-.42c.343-.355.64-.843,1.062-1.008a3.5,3.5,0,0,0,1.012-.691c.083-.071.227-.159.306-.131.489.168.738-.345,1.147-.381.355-.031.524-.437.959-.4.307.026.642-.33.954-.314.423.021.631-.326.962-.384.359-.063.743.025,1.107-.024.454-.061.778-.515,1.333-.38a4.293,4.293,0,0,0,1.291.009.879.879,0,0,0,.454-.231c.322-.277.527-.1.777.119.11.1.434.149.474.091.309-.442.754-.332,1.168-.335.356,0,.727-.086,1,.288.072.1.336.072.512.076.432.009.864-.005,1.3,0,.67.015,1.34.041,2.01.063.42.673,1.342-.058,1.79.639.074.116.463.031.707.037.124,0,.338-.038.357.006.262.622.941.156,1.28.5a.739.739,0,0,0,.649.236c.118-.011.3-.037.351.027.514.61,1.331.752,1.9,1.21a12.964,12.964,0,0,1,1.73,1.252c.522.579.761,1.346,1.359,1.854.161.73.855,1.273.741,2.1.4.292.386.709.376,1.145-.02.864-.006,1.728-.006,2.592-.662.522-.277,1.25-.369,1.884-.057.388.154.443.5.562a4.305,4.305,0,0,0,.967.359,2.107,2.107,0,0,1,1.07.505c.28.249.643.244.938.469a1.88,1.88,0,0,0,.9.456c.577.029.635.734,1.173.77.472.032.593.653.993.713.568.085.739.6,1.138.843s.37.739.66,1.021a5.145,5.145,0,0,1,.677,1.013c.25.389.226.966.753,1.183.1.04.238.2.219.264-.245.765.424,1.349.389,2.073-.03.615-.02,1.234,0,1.851.02.743.047,1.478-.714,1.928.153.478-.562.648-.4,1.129-.247.269-.61.5-.717.813a1.808,1.808,0,0,1-1.344,1.274c-.075.02-.154.193-.153.294,0,.322-.178.359-.445.424-.343.084-.4.4-.178.666a7.278,7.278,0,0,1,1.362,2.585c.079.27.306.507.346.776.048.317.182.4.463.4C341.7,290.058,342.563,290.061,343.427,290.061Z"/>
      <path id="Trazado_113929" data-name="Trazado 113929" d="M317.1,307.1q-1.2,0-2.4,0c-.421,0-.856.081-1.163-.352-.037-.052-.368.013-.474.116a.859.859,0,0,1-1.145.094c-.4-.219-.829-.385-1.229-.6a6.226,6.226,0,0,1-.9-.48,1.8,1.8,0,0,1-.468-.889c-.131-.542-.57-.767-.877-1.118a1.555,1.555,0,0,0-1.359.074c-.264.253-.663.495-.727.8-.16.757-.876.986-1.239,1.529a13.941,13.941,0,0,0-1.479.435c-.665.1-1.364-.05-2.03.045-.611.087-1.01-.313-1.461-.518a6.461,6.461,0,0,1-1.153-.771,19.238,19.238,0,0,1-1.853-1.806c.019-.526-.407-.609-.762-.762-.01-.557-.648-.762-.742-1.166-.112-.484-.565-.657-.674-1.021-.232-.771-.981-1.341-.859-2.238-.448-.352-.364-.851-.372-1.327-.007-.416-.5-.645-.387-1.147.093-.41-.046-.871.032-1.288.156-.839-.465-1.208-.939-1.644-.135-.124-.485-.076-.711-.014-.1.028-.146.281-.215.433a1.23,1.23,0,0,1-.061.16c-.11.176-.609.171-.615-.01-.017-.487-.583-.765-.443-1.308.1-.378-.526-.526-.362-.955s-.428-.576-.366-.956c.065-.4-.29-.667-.335-.964-.079-.518-.5-.667-.734-1-.156-.224-.421-.348-.618-.188-.217.177-.571.322-.534.69.059.577-.256,1.241.365,1.7,0,.308-.022.619.005.925.035.4-.084.8.241,1.206.218.275.032.842.194,1.2.118.264.336.467.306.8a.975.975,0,0,1-.789.829c-.1.008-.276-.084-.289-.154-.044-.237-.02-.485-.042-.727a1.073,1.073,0,0,0-.113-.505c-.176-.246-.469-.418-.608-.678s.066-.569-.153-.864a7.431,7.431,0,0,0-.782-1.164,1.237,1.237,0,0,0-.977-.347c-.691.016-.7,0-.693.712.006.471-.157,1,.367,1.329.092.456-.212.988.26,1.374a.28.28,0,0,1,.107.139c.079.407-.193.883.163,1.224.389.372.154.809.2,1.214.027.228.072.647-.165.634-.431-.025-.575.451-.954.409-.107-.012-.289-.077-.3-.139a1.028,1.028,0,0,0-.406-.76c.116-.131.352-.3.325-.385-.068-.209-.383-.29-.351-.6a1.04,1.04,0,0,0-.031-.538c-.1-.2-.346-.308-.352-.6,0-.145-.176-.3-.292-.426-.164-.184-.318-.426-.528-.507a1.178,1.178,0,0,0-.849-.05c-.226.116-.57.308-.531.681.061.577-.23,1.223.353,1.713.092.076-.011.358.017.539.125.812-.336,1.714.366,2.438-.015.487-.027.975-.051,1.461,0,.046-.077.113-.127.123-.035.007-.126-.071-.123-.1.059-.726-.633-1.29-.441-2.043.015-.058.027-.159,0-.179a3.866,3.866,0,0,0-.855-.528,2.175,2.175,0,0,0-.864-.019c-.051.005-.076.2-.131.3a2.344,2.344,0,0,0-.321.582c-.022.106.268.367.262.372-.435.363-.4.671.008,1.055.178.169.054.461-.172.614-.152.1-.148.155-.037.272a.816.816,0,0,1,.251.443c.029.554-.033,1.114.024,1.664a1.247,1.247,0,0,1-.54,1.264.352.352,0,0,0-.129.131,6.235,6.235,0,0,1-.545,1.249,3.249,3.249,0,0,0-.766,1.169c-.353.14-.139.577-.4.76-.227.162-.23.4-.265.634-.007.049-.081.088-.125.131-.07-.077-.2-.153-.2-.233a10.794,10.794,0,0,0-.032-1.661c-.1-.508.431-.7.4-1.147a10.742,10.742,0,0,1,.061-1.265c.584-.252.094-.908.507-1.282s.185-.945.135-1.4c-.071-.644.648-1.041.426-1.7-.027-.078.23-.266.373-.382a.922.922,0,0,0,.349-.787,3.219,3.219,0,0,1,.562-1.984,1.032,1.032,0,0,0,.156-.484.855.855,0,0,1,.368-.781c.138-.12.38-.279.364-.391a1.591,1.591,0,0,1,.527-1.285,5.1,5.1,0,0,0,.627-1.21,3.4,3.4,0,0,1,.708-.817c-.2-.493.592-.641.392-1.133a9.512,9.512,0,0,0,.778-.791c.25-.317.377-.763.678-1,.412-.322.331-.886.758-1.19.4-.283.685-.712,1.063-1.027a7.536,7.536,0,0,1,1.639-1.394c.578-.264.933-.984,1.494-1.327.349-.213.834-.328.952-.706.106-.336.135-.557.539-.527a5.079,5.079,0,0,0,.6-1.189.886.886,0,0,0-.2-.278c-.031-.031-.124.011-.179-.008a.891.891,0,0,1-.733-.89c.01-1.727.029-3.455-.011-5.181-.012-.511.516-.789.4-1.331a6.4,6.4,0,0,1-.018-1.292c.455-.267.229-.809.426-1.111a2.026,2.026,0,0,0,.33-.987c.032-.334.4-.538.383-.96a2.471,2.471,0,0,1,.347-.954.541.541,0,0,1,.214-.275c.5-.232.442-.831.782-1.163s.7-.69,1.052-1.036c.478.152.652-.548,1.128-.4.184-.369.607-.326.9-.508a2.693,2.693,0,0,1,1.8-.582c.409.055.644-.491,1.145-.378a7.912,7.912,0,0,0,1.291.024c.523.03,1.119-.21,1.513.366.308,0,.617-.008.925,0,.228.008.377-.12.344-.311-.1-.589.288-1.02.525-1.449.217-.395.548-.739.77-1.164.184-.353.545-.576.668-1.026a1.263,1.263,0,0,1,.76-.762c.589-.152.864-.621,1.282-.943a15.419,15.419,0,0,1,1.516-.8,16.339,16.339,0,0,1,2.382-.956c.422.141.612-.335.958-.364a8.281,8.281,0,0,0,1.106-.023c.445-.1.794-.48,1.334-.371a3.068,3.068,0,0,0,1.287,0c.444-.107.8-.468,1.336-.367a1.25,1.25,0,0,1,.632.283.508.508,0,0,0,.479.054c.7-.623,1.5-.245,2.255-.259.291.471.763.257,1.167.313.525.072,1.074-.167,1.584.2.478.344,1.061.107,1.594.167.292.6,1.068.124,1.406.627.462.069.767.531,1.281.495a.613.613,0,0,1,.472.168,2.848,2.848,0,0,0,1.168.775,3.587,3.587,0,0,1,1.961,1.933,1.6,1.6,0,0,1,.237.644c-.015.987-.01,1.974,0,2.961,0,.539-.586.915-.4,1.5-.383.229-.223.672-.372.953a2.177,2.177,0,0,0-.338,1.344c.036.282-.135.768.214.782.417.016.56.481.955.41a.637.637,0,0,1,.185,0c.46.063,1-.22,1.355.3a2.271,2.271,0,0,1,1.308.428,1.892,1.892,0,0,0,.766.367c.283.067.577-.032.836.239.232.243.7.165.881.536s.676.248.886.529c.3.407.788.51,1.153.792A7.425,7.425,0,0,1,339,274.06c.369.45.548,1.043,1.02,1.425-.041.488.542.753.4,1.334a4.117,4.117,0,0,0-.008,1.655c.108.613-.3,1.014-.508,1.465a10.586,10.586,0,0,1-.775,1.154,12.517,12.517,0,0,1-.783,1.152,2.937,2.937,0,0,1-1.513,1.231c-.308.078-.578.461-.781.763-.231.343-.7.162-.912.511-.1.176-.419.287-.088.528.05.036.111.079.128.131.106.329-.073.689.246,1.02a2.378,2.378,0,0,0,.924.477,3.045,3.045,0,0,1,1.669,1.706,1.437,1.437,0,0,1,.018,1.355,1.614,1.614,0,0,0-.245.833c-.062.475.187.979-.123,1.427-.394.57-.468,1.343-1.054,1.777-.329.243-.222.66-.5.916-.21.191-.5.329-.543.7-.064.539-.639.7-.907,1.1-.5-.077-.794.535-1.326.385-.213-.06-.343.1-.344.306,0,.3-.119.455-.425.427a2.347,2.347,0,0,0-1.417.589,9.622,9.622,0,0,0-1.017.656c-.353.282-.678.2-1.025.237-.249.684-1.092.083-1.4.648-.481.031-.962.058-1.442.1a1.153,1.153,0,0,0-.689.746c-.052.4.142.838-.257,1.194-.315.282.125.883-.4,1.124-.027.359-.08.718-.074,1.076a.825.825,0,0,1-.318.8c.058.566-.551.5-.742.777-.462.672-1.281.523-1.86.924-.255.177-.813-.051-1.032.138a1.377,1.377,0,0,1-1.018.255c-.369.012-.74,0-1.11,0Z" fill="#fff"/>
      <path id="Trazado_113930" data-name="Trazado 113930" d="M341.834,297.468c-1.3,0-2.591.005-3.887-.007a1.824,1.824,0,0,1-.49-.149c.135-.072.272-.141.407-.215.1-.056.287-.127.283-.176-.051-.529.454-.684.658-1.032s.3-.737.478-1.1a5.555,5.555,0,0,1,.591-1.046.932.932,0,0,0,.139-.685c0-.321.159-.416.446-.411a10.557,10.557,0,0,0,1.295-.006c.877-.1,1.811.284,2.636-.346.156-.119.492.029.725-.027.435-.1.732.223,1.106.288.31-.45.777-.241,1.181-.272.368-.028.74-.006,1.11-.006a5.193,5.193,0,0,1,1.291.019c.72.192,1.168-.554,1.892-.416a8.94,8.94,0,0,0,2.03.015c.152-.006.3-.155.445-.256a.436.436,0,0,1,.636.052,1.041,1.041,0,0,0,.249.161c.361-.512.9-.25,1.356-.323a.511.511,0,0,0,.283-.2c.18-.231.289-.061.395.06a4.332,4.332,0,0,1,.275.39c-.519.355-.189.91-.327,1.346a5.966,5.966,0,0,1-.587,1.051,1.028,1.028,0,0,0-.133.314c-.066.4.144.843-.254,1.2-.325.287.076.82-.384,1.147-.32.228.059.8-.387,1.138-.289.22.093.859-.413,1.107.073.82-.59,1.367-.769,2.084-.087.348-.542.517-.393.954.123.359-.388.558-.336.763.141.562-.292.888-.418,1.33-.092.322-.362.557-.383.96a1.759,1.759,0,0,1-.47,1.077c-.281.277-.122.738-.5.916a6.265,6.265,0,0,1-.64,1.772c-.256.505-.689.966-.581,1.609-.266.248-.31.62-.5.9-.14.211-.288.375-.248.644a.617.617,0,0,1-.005.365c-.211.353-.807.492-.713.99.107.562-.426.81-.49,1.3-.047.363-.4.687-.62,1.029.185.487-.591.641-.393,1.133-.619.237-.233.873-.506,1.275-.284.418-.436.94-.7,1.366-.243.4-.422.82-.632,1.226-.893,1.724-1.768,3.46-2.584,5.222-.19.411-.612.575-.762.978a10.216,10.216,0,0,1-.375.955c-.175.361-.407.694-.587,1.053a5.937,5.937,0,0,1-1.3,2.063,1.637,1.637,0,0,0-.629,1.009c0,.638-.554.5-.8.759a.57.57,0,0,1-.249.128c-.368-.515-.9-.261-1.364-.291-.492-.033-1,.049-1.478-.024-.435-.066-.61.356-.96.382-.306.023-.727-.122-.9.031a1.478,1.478,0,0,1-1.165.348c-.369-.02-.74,0-1.11,0-.263.463-.722.359-1.134.392-.166.726-.861-.356-1.046.306-.414.044-.943-.055-1.215.164-.409.331-.8.216-1.206.243-.43.029-.863.006-1.3.006-.282.623-1.075.111-1.406.631a.219.219,0,0,1-.138.1c-.49.015-.981.02-1.471.027-.336.539-.878.357-1.335.33-.415-.024-.642.271-.964.37s-.829-.071-1.051.116a1.6,1.6,0,0,1-1.01.279c-.465.059-.994-.2-1.387.217-.319.342-.879-.091-1.139.387-.028.051-.085.124-.13.125-.493.009-.986.006-1.48.006-.273.454-.721.4-1.141.363a1.422,1.422,0,0,0-1.125.332c-.42-.6-.754.28-1.2.064-.349-.168-.514.454-.951.366a5.752,5.752,0,0,0-1.107-.015,9.791,9.791,0,0,0-1.662.023c-.444.077-.8.448-1.334.366a11.106,11.106,0,0,0-1.663-.018c-.493,0-.987.007-1.48-.006-.107,0-.285-.063-.3-.129a1.391,1.391,0,0,1,.014-.5c.007-.049.083-.087.125-.132q.637-.66,1.274-1.323c-.048-.678.813-.819.859-1.508.022-.339.692-.5.622-1.024.36-.191.355-.6.507-.9a7.2,7.2,0,0,1,.9-1.3c.274-.341.287-.9.57-1.224.222-.255.124-.6.37-.781.309-.224.222-.533.247-.828a.52.52,0,0,1,.145-.306,10.328,10.328,0,0,0,1.675-3.013c.152-.289.537-.516.415-.936.378-.226.27-.626.379-.955.123-.371.536-.639.691-1.008.132-.314-.041-.794.14-1.041s.179-.558.359-.787c.108-.137.342-.219.259-.445-.18-.489.352-.733.373-1.145.015-.3-.084-.669.05-.9a2.577,2.577,0,0,0,.379-.775c.033-.156.326-.329.293-.416-.212-.561.459-.862.375-1.332-.077-.436.353-.608.382-.96.024-.3-.078-.619.244-.827.05-.032.123-.085.124-.13q.015-.646,0-1.3c-.005-.372.525-.523.375-.958-.239-.694.557-1.164.392-1.887-.1-.451.01-.485.518-.486,2.035,0,4.071.009,6.107-.008.4,0,.823.133,1.2-.228.33-.313.933.065,1.207-.17.783-.672,1.657-.164,2.463-.335.553.505,1.235.357,1.883.368.616.011,1.234-.011,1.85.007.408.012.841-.13,1.186.293.1.128.458.068.7.07.863.007,1.728-.025,2.59.013.519.024,1.088-.2,1.547.308.113.127.464.05.706.05,1.049,0,2.1,0,3.146,0a3.132,3.132,0,0,0,1.278-.036,2.13,2.13,0,0,1,1.161-.345c.187.013.283-.437.144-.606a3.78,3.78,0,0,0-1.678-.863c-.432-.006-.865.014-1.3-.006-.407-.019-.841.133-1.187-.291-.1-.129-.456-.071-.7-.072-1.111-.006-2.222.022-3.331-.014-.518-.016-1.115.228-1.528-.322-.638.025-1.331-.3-1.882.31a.361.361,0,0,1-.345.015c-.411-.561-1-.338-1.523-.356-.738-.026-1.479-.008-2.218-.018-.044,0-.1-.075-.126-.127a.163.163,0,0,1,.031-.128c.2-.3.583-.424.669-.836.057-.271.275-.507.345-.778a3.678,3.678,0,0,0,.015-.737c.012-.294.122-.37.5-.342.174.014.418,0,.5.1a.91.91,0,0,0,.826.267c4.626,0,9.253-.012,13.88.013.462,0,.644-.282.894-.527a.349.349,0,0,0,.049-.333,7.993,7.993,0,0,0-.613-.637c-.86.194-1.573-.481-2.439-.388a14.076,14.076,0,0,1-2.4,0,3.558,3.558,0,0,1-.958-.353c-.659.682-1.5.312-2.254.355-1.045.06-2.1,0-3.145.021a1.015,1.015,0,0,1-.969-.368.375.375,0,0,0-.345,0c-.291.493-.524.074-.822.019a12.726,12.726,0,0,0-1.827-.08c-.045,0-.112-.077-.122-.127-.007-.035.06-.1.107-.127.426-.246.971.194,1.376-.259.342-.381.814-.161,1.22-.16a2.99,2.99,0,0,0,1.27-.521,16.007,16.007,0,0,0,1.992-.993,4.3,4.3,0,0,1,2.851-.734c.368.037.719,0,.981.35.044.06.325-.028.48-.091.1-.042.178-.16.265-.244.391.594,1,.319,1.515.358a10.9,10.9,0,0,0,1.479,0c.641-.039,1.344.215,1.887-.36.03-.031.12-.01.181,0,.3.034.416.492.769.361.213-.078.408-.36.588-.341.752.083,1.055-.506,1.482-.906.067-.062.04-.225.056-.342.057-.427-.067-.623-.41-.623Q344.055,297.465,341.834,297.468Z" fill="#fff"/>
      <path id="Trazado_113931" data-name="Trazado 113931" d="M323.767,270.064c.309,0,.617,0,.925,0,.243,0,.634-.071.7.043.319.526.952.133,1.288.508.243.271.7.156.9.522s.581.371.892.524c-.007.485.368.727.655,1.023.257.266.543.507.773.794a.9.9,0,0,1,.117.5c.02.49-.005.983.037,1.471.012.139.194.263.3.394-.56.261-.149.909-.512,1.274a3.6,3.6,0,0,0-.407.749c-.061.1-.18.17-.256.266-.331.419-.884.66-1.006,1.247a9.26,9.26,0,0,0,.967,1.072c.478.4.547,1.048,1.029,1.438a8.267,8.267,0,0,1,1.175,1.176c.254.309.274.78.663,1.019a.434.434,0,0,1,.2.616c-.173.22-.323.543-.688.545a5.153,5.153,0,0,1-1.651-.041c-.42-.148-.7-.664-1.069-.991A2.833,2.833,0,0,1,328,283.06c-.059-.158-.25-.266-.381-.4a1.531,1.531,0,0,0-.185.459c-.022.554-.005,1.11-.01,1.665,0,.363-.082.457-.387.459-.493,0-.989-.033-1.479.011-.474.042-1.044-.25-1.4.149-.374.417-.959-.028-1.309.488-.206.3-.781-.035-1.135.385-.221.262-.848-.065-1.1.417-.612.011-1.224.031-1.836.021-.079,0-.185-.14-.228-.237a3.447,3.447,0,0,1-.356-.956.966.966,0,0,0-.346-.788l.3-.393c-.718-.454.029-1.461-.719-1.9-.065-.46.177-.955-.271-1.375-.294-.276.1-.843-.389-1.145-.122-.076-.115-.462-.07-.686.151-.757-.5-1.316-.467-2.033-.409-.241-.149-.708-.312-.975-.195-.319-.418-.582-.34-.974.047-.236-.182-.3-.257-.45a3.171,3.171,0,0,1-.457-1.1c-.023-.4-.279-.641-.377-.962a.81.81,0,0,1,.165-.845,2.931,2.931,0,0,1,1.959-1.078c.271-.056.4-.234.606-.337a.505.505,0,0,1,.478.059.786.786,0,0,0,.825.255c.591-.1.978.334,1.449.532.31.13.528.608.414.734-.232.257-.392.629-.842.6a5.008,5.008,0,0,1-.737-.014c-.309-.071-.538-.644-.9-.248-.319.345-.668.211-1.011.269-.058.01-.151.208-.13.232.393.445.435,1.107.8,1.506a4.634,4.634,0,0,1,.851,1.328c.2.459.679.863.493,1.46.2.216.394.608.6.618,1.1.053,2.211.019,3.316-.013.162-.005.169-.156.048-.252-.1-.077-.229-.159-.255-.262-.115-.451.146-.935-.252-1.386-.341-.385-.159-.957-.1-1.415.07-.544-.47-.814-.412-1.332a5.309,5.309,0,0,0-.049-1.457c-.033-.193-.31-.319-.319-.607a.992.992,0,0,1,.795-1.02C322.78,270.055,323.274,270.064,323.767,270.064Z"/>
      <path id="Trazado_113932" data-name="Trazado 113932" d="M306.131,294.875c-.184,0-.369.007-.553,0a1.1,1.1,0,0,1-.736-.693c-.042-.355.044-.784-.129-1.048a1.358,1.358,0,0,1-.246-.829,5.475,5.475,0,0,1,.018-1.1c.114-.492-.35-.741-.379-1.143-.032-.429-.007-.861-.007-1.292-.662-.519-.421-1.268-.33-1.87.094-.628-.464-.957-.42-1.515s.009-1.106.009-1.66c-.7-.988-.24-2.113-.365-3.169a1.589,1.589,0,0,0-.28-1.006,1.367,1.367,0,0,1-.069-1.048,1.388,1.388,0,0,1,.584-.639c.084-.059.325.065.473.145a8.56,8.56,0,0,1,2.616,2.389c.059.092.035.26.109.318.858.685,1.17,1.84,2.09,2.453.4.266.276.8.646,1.03.386.243.4.71.658,1.018s.273.756.626,1.049a1.746,1.746,0,0,1,.634,1.007c.06.511.436.7.687,1.017.181.229.2.522.361.78a.907.907,0,0,1-.816,1.366c-.246,0-.494-.019-.738.006a.679.679,0,0,1-.633-.266,6.742,6.742,0,0,1-1.578-1.933,1.029,1.029,0,0,0-1.112-.4,1.217,1.217,0,0,0-.551,1.24c.074.212.287.378.35.591.1.339-.157.77.135,1.045a.961.961,0,0,1,.247.828c0,.369.022.74-.007,1.107-.024.3.275.365.358.578-.471.259-.237.773-.414,1.117a.786.786,0,0,1-.684.532C306.5,294.87,306.316,294.875,306.131,294.875Z"/>
      <path id="Trazado_113933" data-name="Trazado 113933" d="M301.835,295.986c-.246,0-.492,0-.738,0-.215,0-.388-.139-.319-.327.2-.553-.4-.828-.417-1.326-.008-.218-.416-.412-.347-.765-.6-.379-.146-1.072-.418-1.482a11.314,11.314,0,0,1-.682-1.385c.187-.646-.262-1.13-.493-1.64a1.6,1.6,0,0,1-.246-.821.888.888,0,0,0-.37-.955c.216-.49-.586-.634-.378-1.14.19-.461-.564-.637-.379-1.142.045-.124-.084-.323-.155-.478-.262-.57-.345-1.206-.649-1.761a.418.418,0,0,0-.622.046c-.086.2.014.565-.284.567-.458,0-1,.242-1.347-.285-.071-.107-.331-.11-.143-.4.274-.424.415-.969.7-1.358a14.58,14.58,0,0,1,1.8-1.841.7.7,0,0,1,.478-.162c.513.037.874-.317,1.262-.523a1.015,1.015,0,0,1,1.285.026c.357.276.962-.028,1.282.479.072.114.343.086.462.191.272.24.507.523.758.788-.277.6.392.953.391,1.508a2.558,2.558,0,0,1-.321,1.109c.476.293.2.779.313,1.164.1.347-.51.44-.26.715.318.349.325.572,0,.913-.358.372.073.937-.259,1.367a2.538,2.538,0,0,0-.571,1.045,1.58,1.58,0,0,0,.136,1.224,15.031,15.031,0,0,1,.7,1.36,2.718,2.718,0,0,1,.257.823c.05.27.325.514.332.773a1.161,1.161,0,0,0,.393.953c-.142.421.461.56.367.954-.1.412.225.645.356.962.044.107-.115.429-.184.43a.726.726,0,0,0-.628.293.228.228,0,0,1-.142.1C302.45,295.991,302.142,295.986,301.835,295.986Z"/>
      <path id="Trazado_113934" data-name="Trazado 113934" d="M311.612,272.633c.173.032.454.008.5.1.288.563.957.053,1.294.5.117.157.415.167.614.275.451.248.466.8.753,1.174.179.236,0,.718.08,1.066.062.264.4.4.367.775-.039.421.055.861-.384,1.138.36.371-.759.619-.1,1.041.014.01-.2.338-.271.531a4.364,4.364,0,0,1-1.109,1.76,1.255,1.255,0,0,0,.038,1.883c.156.179.375.314.328.6a1.542,1.542,0,0,0,.564,1.438,2.469,2.469,0,0,1,.532,1.059c.115.384.563.656.387,1.136-.019.052-.017.154.013.173a.815.815,0,0,1,.338.961.836.836,0,0,1-.415.546c-.437.143-.747.538-1.262.535-.669,0-1.189-.132-1.269-.915-.653-.266-.093-1.082-.635-1.4-.076-.515-.51-.882-.512-1.464,0-.357-.343-.687-.369-1.137-.022-.361-.42-.683-.534-1.057-.151-.494-.54-.855-.588-1.435a3.783,3.783,0,0,0-.669-1.374c-.159-.271,0-.659-.29-1a6.308,6.308,0,0,1-.476-.9c-.253-.448-.309-1-.728-1.36.134-.515-.176-.9-.385-1.317a2.15,2.15,0,0,1-.255-.447,1.488,1.488,0,0,1-.062-.854,1.743,1.743,0,0,1,.767-.773,3.285,3.285,0,0,0,1.145-.8.237.237,0,0,1,.151-.074,5.23,5.23,0,0,0,1.285-.028C310.841,272.9,311.158,272.565,311.612,272.633Z"/>
      <path id="Trazado_113935" data-name="Trazado 113935" d="M335.538,320.427c-.676,0-1.351-.015-2.026.007a.808.808,0,0,1-.628-.278c-.2-.19-.418-.124-.629.06-.122.107-.4.243-.448.2-.622-.569-1.373-.324-2.07-.344-.433-.012-.646-.563-1.137-.386-.456.163-.761-.223-1.134-.365-.106-.04-.249-.039-.316-.112a.429.429,0,0,1-.082-.324c.015-.105.1-.279.168-.284.426-.028.857,0,1.284-.028.352-.026.77.175,1.048-.116.363-.383.8-.253,1.192-.233.574.028,1.236-.27,1.688.356.459-.067.964.182,1.37-.263.189-.208.242.165.382.177.479.042.96.059,1.44.086.8-.621,1.733-.285,2.608-.373a.775.775,0,0,1,.791.318c.27-.189.542-.4.781.04.511-.063.624.218.571.652a.96.96,0,0,1-.772.841c-.368.013-.737-.008-1.1.006s-.519.481-.954.38a4.131,4.131,0,0,0-.918-.013Z"/>
      <path id="Trazado_113936" data-name="Trazado 113936" d="M334.512,315.983c-.062,0-.152.027-.18,0-.538-.588-1.241-.317-1.878-.359-.489-.033-.982-.007-1.474-.007h-1.473c-.342-.473-.851-.34-1.32-.375s-.636-.523-.972-.764c-.248-.178-.145-.442-.152-.672-.011-.314.117-.422.43-.412.122,0,.3-.052.36.01.494.489,1.113.333,1.7.362.642.032,1.332-.177,1.873.37,1.289,0,2.579,0,3.868-.008.1,0,.208-.1.287-.185.272-.273.493-.206.769.024a.763.763,0,0,0,1.123-.058c.3-.291.516-.131.768.093a.576.576,0,0,0,.486.116c1.05-.417,1.043-.418,2.282.009a6.113,6.113,0,0,0,.715.061c.068.014.135.189.14.294s-.046.3-.106.309a6.148,6.148,0,0,0-1.3.419c-.571.27-1.3-.182-1.931.23-.606.4-1.3.1-1.952.171C335.872,315.682,335.12,315.431,334.512,315.983Z"/>
      <path id="Trazado_113937" data-name="Trazado 113937" d="M331.384,325.982c-.984,0-1.971-.047-2.951.015-.793.05-1.434-.645-2.245-.385a4.256,4.256,0,0,1-.593-.649.5.5,0,0,1,.174-.443c.624-.13,1.351.264,1.872-.39h2.029c2.213,0,4.43.06,6.639-.031a2.053,2.053,0,0,1,1.714.8c.233.243.015.277-.122.336a6.141,6.141,0,0,1-.954.365c-.454.112-.964-.153-1.391.21s-.937.109-1.406.159a12.055,12.055,0,0,1-1.29.01Z"/>
      <path id="Trazado_113938" data-name="Trazado 113938" d="M324.1,283.015a2.773,2.773,0,0,0,0,.377.3.3,0,0,1-.291.367,5.81,5.81,0,0,1-.735.006,1.681,1.681,0,0,0-.99.295.907.907,0,0,1-1.31-.731,2.735,2.735,0,0,0-.344-1.34c-.186-.321-.025-.838-.045-1.266-.005-.1-.132-.188-.176-.292-.377-.912-.275-1.105.578-1.108a10.407,10.407,0,0,1,1.1.007,1.19,1.19,0,0,0,.962-.367c.168-.148.5.079.5.319a1.541,1.541,0,0,1-.01.548c-.2.5.512.651.4,1.143a1.749,1.749,0,0,0,.016,1.085C323.915,282.376,324.165,282.632,324.1,283.015Z" fill="#fff"/>
      <path id="Trazado_113939" data-name="Trazado 113939" d="M327.058,274.925c0,.308-.021.618.006.924a.658.658,0,0,1-.3.618,1.525,1.525,0,0,0-.535.892c-.046.184-.581.149-.605-.043-.04-.321-.274-.52-.377-.773-.128-.318.093-.806-.074-1.073a1.35,1.35,0,0,1-.335-.977,2.388,2.388,0,0,0-.554-1.8,1.336,1.336,0,0,1-.184-.853c-.007-.251.37-.463.535-.279.282.315.625.28.964.383a1.922,1.922,0,0,1,1.1,1.1A2.882,2.882,0,0,1,327.058,274.925Z" fill="#fff"/>
      <path id="Trazado_113940" data-name="Trazado 113940" d="M307.061,286.258c-.017.112,0,.249-.061.33a.418.418,0,0,1-.294.131c-.1,0-.3-.06-.3-.1a3.994,3.994,0,0,0-.453-1.431.22.22,0,0,1,.038-.16.707.707,0,0,1,.123-.128c.316.334.641.66.938,1.01C307.112,285.976,307.061,286.138,307.061,286.258Z" fill="#fff"/>
      <path id="Trazado_113941" data-name="Trazado 113941" d="M299.285,282.468c0,.492,0,.984-.006,1.476,0,.045-.093.133-.117.124-.088-.028-.228-.08-.238-.141-.115-.7-.648-1.207-.817-1.879-.016-.066-.2-.086-.3-.134-.368-.174-.476-.418-.3-.63a3.561,3.561,0,0,1,1.5-.839c.058-.025.267.113.269.179C299.293,281.238,299.285,281.854,299.285,282.468Z" fill="#fff"/>
      <path id="Trazado_113942" data-name="Trazado 113942" d="M312.246,276.3a5.159,5.159,0,0,0,.006.736,1.078,1.078,0,0,1-.481,1.092.616.616,0,0,0-.273.628c.006.038-.088.132-.114.125-.088-.027-.244-.109-.238-.13.138-.481-.562-.651-.412-1.127-.613-.416-.718-1.227-1.3-1.674a5.8,5.8,0,0,1-.524-.517,6.125,6.125,0,0,1,.694-.549c.392-.229.815-.4,1.218-.616a.918.918,0,0,1,1.419.743C312.254,275.442,312.246,275.872,312.246,276.3Z" fill="#fff"/>
      <path id="Trazado_113943" data-name="Trazado 113943" d="M335.946,285.247c-.307-.073-.586-.279-.926-.185" fill="none" stroke="#000" stroke-linecap="round" stroke-linejoin="round" stroke-width="2"/>
    </g>
  </g>
</svg>
