<svg xmlns="http://www.w3.org/2000/svg" width="115.2" height="101.889" viewBox="0 0 115.2 101.889">
  <g id="Grupo_81051" data-name="Grupo 81051" transform="translate(-246.139 -174.965) rotate(14)">
    <g id="Grupo_81049" data-name="Grupo 81049" transform="translate(300.029 105.515)">
      <g id="Grupo_81048" data-name="Grupo 81048">
        <g id="Grupo_81047" data-name="Grupo 81047">
          <path id="Trazado_114989" data-name="Trazado 114989" d="M397.779,152.305c-1.048,10.392-5.279,23.1-15.112,29.419-9.883,6.354-25.2,2.817-36.409.1a130.9,130.9,0,0,1-18.79-5.9,37.1,37.1,0,0,1-13.793,7.987c3.871-4.18,4.109-9.794,3.878-12.893a48.326,48.326,0,0,1-7.337-5.363c-9.24-8.314-10.385-19.774-8.308-30.313a51,51,0,0,1,5.485-15.446,24.678,24.678,0,0,1,1.891-3.35c7.711-11.266,23.169-11.015,36.827-8.855,13.208,2.084,27.858,6.045,38.564,13.774A33.2,33.2,0,0,1,395.8,134.647C398.274,140.319,398.364,146.466,397.779,152.305Z" transform="translate(-300.213 -105.702)" fill="#fff"/>
          <path id="Trazado_114990" data-name="Trazado 114990" d="M368.04,185.92c-7.757,0-15.9-1.971-22.158-3.487a131.612,131.612,0,0,1-18.424-5.738,37.652,37.652,0,0,1-13.747,7.821.816.816,0,0,1-.818-1.339c3.517-3.8,3.853-8.9,3.69-11.864a48.778,48.778,0,0,1-7.1-5.232c-8.161-7.344-11.122-18.09-8.563-31.078a51.014,51.014,0,0,1,5.58-15.7,24.761,24.761,0,0,1,1.919-3.4c8.39-12.258,25.495-11.122,37.631-9.2,16.67,2.629,29.762,7.312,38.913,13.917a34.151,34.151,0,0,1,11.394,13.511c2.812,6.438,2.513,13.394,2.046,18.066h0c-.651,6.455-3.464,22.3-15.482,30.024C378.664,184.961,373.445,185.92,368.04,185.92Zm-40.756-10.991a.807.807,0,0,1,.31.061,128.7,128.7,0,0,0,18.672,5.858c10.349,2.506,25.992,6.293,35.777,0,11.422-7.336,14.114-22.6,14.741-28.816.45-4.49.74-11.163-1.917-17.25a32.51,32.51,0,0,0-10.855-12.842c-8.942-6.455-21.8-11.04-38.213-13.63-11.7-1.85-28.162-2.983-36.029,8.51a23.844,23.844,0,0,0-1.824,3.235,49.558,49.558,0,0,0-5.424,15.26c-1.7,8.641-1.689,20.784,8.054,29.549a47.615,47.615,0,0,0,7.213,5.27.814.814,0,0,1,.392.637,19.235,19.235,0,0,1-2.394,11.263,36.237,36.237,0,0,0,10.938-6.889A.816.816,0,0,1,327.284,174.929Zm70.311-22.81h0Z" transform="translate(-300.029 -105.515)"/>
          <g id="Grupo_81052" data-name="Grupo 81052" transform="translate(3.467 25.333)">
            <path id="Trazado_114991" data-name="Trazado 114991" d="M316.225,173.852a19.807,19.807,0,0,1-6.928-8.217.821.821,0,0,0-1.115-.292.834.834,0,0,0-.293,1.115,21.36,21.36,0,0,0,7.513,8.8C316.275,175.847,317.092,174.436,316.225,173.852Z" transform="translate(-304.932 -141.898)"/>
            <path id="Trazado_114992" data-name="Trazado 114992" d="M409.969,136.881c-.65-.823-1.8.337-1.152,1.152a22.776,22.776,0,0,1,4.758,15.661c-.075,1.047,1.556,1.042,1.63,0A24.435,24.435,0,0,0,409.969,136.881Z" transform="translate(-323.589 -136.599)"/>
            <path id="Trazado_114993" data-name="Trazado 114993" d="M412.477,152.823a.815.815,0,1,0-1.571.434,19.339,19.339,0,0,1,.474,1.944c.029.151.055.3.081.455q.022.133.042.266c0,.019.016.108.022.153q.064.483.1.968a.815.815,0,1,0,1.63,0A20.508,20.508,0,0,0,412.477,152.823Z" transform="translate(-324.005 -139.489)"/>
            <path id="Trazado_114994" data-name="Trazado 114994" d="M307.472,160.187a15.029,15.029,0,0,1-.943-2.14,17.643,17.643,0,0,1-.654-2.376.821.821,0,0,0-1-.569.835.835,0,0,0-.57,1,18.344,18.344,0,0,0,1.761,4.9.821.821,0,0,0,1.115.293A.833.833,0,0,0,307.472,160.187Z" transform="translate(-304.283 -140.017)"/>
          </g>
        </g>
      </g>
    </g>
    <path id="Trazado_115693" data-name="Trazado 115693" d="M13.343,5.432q0,2.312-.111,4.638t-.279,4.638q-.028.418-.056,1.128t-.111,1.532q-.084.822-.223,1.657a6.6,6.6,0,0,1-.432,1.518,3.27,3.27,0,0,1-.752,1.114,1.586,1.586,0,0,1-1.128.432,2.146,2.146,0,0,1-1.045-.251,2.377,2.377,0,0,1-.766-.655,3.079,3.079,0,0,1-.474-.919A3.454,3.454,0,0,1,7.8,19.193q0-.919.056-1.852t.167-1.852l-2.758.279q-.084.724-.181,1.741a9.549,9.549,0,0,1-.39,1.95,4.392,4.392,0,0,1-.877,1.6,2.035,2.035,0,0,1-1.616.669,1.8,1.8,0,0,1-1.059-.292,2.175,2.175,0,0,1-.669-.752,3.572,3.572,0,0,1-.362-1.017A5.4,5.4,0,0,1,0,18.608q0-1.671.139-3.329T.334,11.95Q.39,10.2.376,8.426T.418,4.875Q.446,4.29.46,3.51A6.114,6.114,0,0,1,.655,2.047,2.718,2.718,0,0,1,1.267.891a1.667,1.667,0,0,1,1.3-.474,2.423,2.423,0,0,1,1.811.627A3.473,3.473,0,0,1,5.237,2.6a7.594,7.594,0,0,1,.251,1.978v1.88q0,1.114-.056,2.187T5.32,10.808L8.3,10.362Q8.329,9,8.357,7.66t.111-2.674q.028-.641.056-1.365a5.034,5.034,0,0,1,.223-1.337A2.22,2.22,0,0,1,9.4,1.267a2.037,2.037,0,0,1,1.379-.4,1.805,1.805,0,0,1,1.267.446,3.319,3.319,0,0,1,.78,1.086,5.158,5.158,0,0,1,.4,1.365,8.686,8.686,0,0,1,.111,1.309Zm13.51,10.975a3.321,3.321,0,0,1-.6,1.852,6.865,6.865,0,0,1-1.5,1.616,8.358,8.358,0,0,1-1.936,1.142,4.943,4.943,0,0,1-1.894.432,4.785,4.785,0,0,1-2.632-.738,6.669,6.669,0,0,1-1.936-1.88,8.848,8.848,0,0,1-1.184-2.521,9.539,9.539,0,0,1-.4-2.688,12.526,12.526,0,0,1,.39-2.981,10.683,10.683,0,0,1,1.184-2.925,7.459,7.459,0,0,1,2.006-2.228A4.731,4.731,0,0,1,21.226,4.6a5.164,5.164,0,0,1,1.811.32,4.479,4.479,0,0,1,2.535,2.3,4.111,4.111,0,0,1,.39,1.811,5.517,5.517,0,0,1-.557,2.451,6.491,6.491,0,0,1-1.476,1.978,7.562,7.562,0,0,1-2.117,1.351,6.939,6.939,0,0,1-2.451.571,1.58,1.58,0,0,0,.655,1.17,2.281,2.281,0,0,0,1.3.362A2.306,2.306,0,0,0,22.4,16.63,9.844,9.844,0,0,0,23.427,16q.5-.348.989-.627A1.973,1.973,0,0,1,25.4,15.1a1.549,1.549,0,0,1,1,.362A1.162,1.162,0,0,1,26.853,16.407ZM22.34,9.582a1.68,1.68,0,0,0-.195-.752.644.644,0,0,0-.613-.39,1.644,1.644,0,0,0-1.031.32,2.676,2.676,0,0,0-.7.808,4.5,4.5,0,0,0-.432,1.045,5.024,5.024,0,0,0-.181,1.031q.39-.084.933-.223a5.451,5.451,0,0,0,1.031-.376,2.91,2.91,0,0,0,.836-.6A1.2,1.2,0,0,0,22.34,9.582Zm10.836-5.1q0,1.5-.125,3.022t-.125,3.05q0,1.978.125,3.956t.125,3.983q0,.5-.056,1.128a4.129,4.129,0,0,1-.265,1.156,2.257,2.257,0,0,1-.627.891,1.642,1.642,0,0,1-1.114.362,1.417,1.417,0,0,1-1.156-.655,5.606,5.606,0,0,1-.808-1.671,16.732,16.732,0,0,1-.529-2.27q-.209-1.254-.306-2.437t-.139-2.173q-.042-.989-.042-1.462,0-.529.042-1.532t.181-2.173q.139-1.17.376-2.382a12.57,12.57,0,0,1,.627-2.2,5.564,5.564,0,0,1,.933-1.616,1.661,1.661,0,0,1,1.3-.627,1.12,1.12,0,0,1,.933.4,2.5,2.5,0,0,1,.46.975,6.208,6.208,0,0,1,.167,1.2Q33.176,4.039,33.176,4.485Zm7.326,0q0,1.5-.125,3.022t-.125,3.05q0,1.978.125,3.956T40.5,18.5q0,.5-.056,1.128a4.129,4.129,0,0,1-.265,1.156,2.257,2.257,0,0,1-.627.891,1.642,1.642,0,0,1-1.114.362,1.417,1.417,0,0,1-1.156-.655,5.606,5.606,0,0,1-.808-1.671,16.732,16.732,0,0,1-.529-2.27q-.209-1.254-.306-2.437T35.5,12.828q-.042-.989-.042-1.462,0-.529.042-1.532t.181-2.173q.139-1.17.376-2.382a12.57,12.57,0,0,1,.627-2.2,5.564,5.564,0,0,1,.933-1.616,1.661,1.661,0,0,1,1.3-.627,1.12,1.12,0,0,1,.933.4,2.5,2.5,0,0,1,.46.975,6.208,6.208,0,0,1,.167,1.2Q40.5,4.039,40.5,4.485Zm7.41,17.688a4.169,4.169,0,0,1-2.479-.752A6.558,6.558,0,0,1,43.65,19.5a9.182,9.182,0,0,1-1.086-2.6,11.521,11.521,0,0,1-.362-2.827,13.588,13.588,0,0,1,.362-3.05,10.255,10.255,0,0,1,1.114-2.869A6.591,6.591,0,0,1,45.6,6.031a4.722,4.722,0,0,1,2.786-.822,4.223,4.223,0,0,1,2.66.85,6.425,6.425,0,0,1,1.769,2.117,9.68,9.68,0,0,1,.947,2.772,11.623,11.623,0,0,1,.195,2.841,16,16,0,0,1-.46,2.981,9.764,9.764,0,0,1-1.1,2.7,6.165,6.165,0,0,1-1.838,1.95A4.617,4.617,0,0,1,47.912,22.173ZM48.19,9.582a.909.909,0,0,0-.738.446,3.947,3.947,0,0,0-.529,1.086,8.7,8.7,0,0,0-.32,1.351,8.137,8.137,0,0,0-.111,1.24,9.167,9.167,0,0,0,.125,1.448,8.772,8.772,0,0,0,.348,1.435,3.955,3.955,0,0,0,.543,1.086.915.915,0,0,0,.738.432.943.943,0,0,0,.766-.418,3.31,3.31,0,0,0,.515-1.059,7.7,7.7,0,0,0,.279-1.407,13.272,13.272,0,0,0,.084-1.435,9.111,9.111,0,0,0-.111-1.351,8.57,8.57,0,0,0-.32-1.379A3.524,3.524,0,0,0,48.928,10,.921.921,0,0,0,48.19,9.582Zm12.4.111q0,.446-.056,1.212t-.167,1.643a18.028,18.028,0,0,1-.32,1.783,12.849,12.849,0,0,1-.487,1.643,4.047,4.047,0,0,1-.669,1.2,1.149,1.149,0,0,1-.891.46,1.262,1.262,0,0,1-1.045-.6,5.349,5.349,0,0,1-.724-1.532,13.479,13.479,0,0,1-.46-2.075q-.167-1.142-.251-2.242t-.1-2.033Q55.4,8.217,55.4,7.716V6.449q0-.766.07-1.63T55.7,3.106a6.844,6.844,0,0,1,.46-1.546A3.114,3.114,0,0,1,56.965.432,1.853,1.853,0,0,1,58.218,0a1.324,1.324,0,0,1,1.1.571,4.55,4.55,0,0,1,.7,1.476,11.994,11.994,0,0,1,.39,2.02q.125,1.114.167,2.187T60.6,8.245Q60.586,9.165,60.586,9.694Zm-.529,10.585a1.491,1.491,0,0,1-.223.822,1.952,1.952,0,0,1-.585.585,2.676,2.676,0,0,1-.78.348,3.231,3.231,0,0,1-.836.111,2.313,2.313,0,0,1-1.17-.32,1.087,1.087,0,0,1-.557-1.017,1.333,1.333,0,0,1,.237-.766,2.3,2.3,0,0,1,.6-.6,3.009,3.009,0,0,1,.794-.39,2.677,2.677,0,0,1,.822-.139,2.216,2.216,0,0,1,1.17.32A1.127,1.127,0,0,1,60.057,20.279Z" transform="translate(324.287 127.057) rotate(18)" fill="#ff5f65"/>
  </g>
</svg>
