<svg xmlns="http://www.w3.org/2000/svg" xmlns:xlink="http://www.w3.org/1999/xlink" width="125" height="125" viewBox="0 0 125 125">
  <defs>
    <clipPath id="clip-path">
      <rect id="Rectángulo_34034" data-name="Rectángulo 34034" width="69.388" height="80" transform="translate(284.667 2266)" fill="#fff"/>
    </clipPath>
  </defs>
  <g id="i" transform="translate(-264.667 -2385)">
    <circle id="Elipse_4783" data-name="Elipse 4783" cx="62.5" cy="62.5" r="62.5" transform="translate(264.667 2385)" fill="#ffd947"/>
    <g id="Enmascarar_grupo_61" data-name="Enmascarar grupo 61" transform="translate(9 142)" clip-path="url(#clip-path)">
      <g id="letra-i" transform="translate(292.424 2266)">
        <g id="Grupo_80971" data-name="Grupo 80971" transform="translate(1.172 1.172)">
          <g id="Grupo_80970" data-name="Grupo 80970">
            <path id="Trazado_114822" data-name="Trazado 114822" d="M50.556,60.284h-.867a1.517,1.517,0,0,1-1.517-1.517L46.61,21.76a1.517,1.517,0,0,1,1.517-1.517h.867a9.4,9.4,0,1,0,.14-18.807H26.982a9.4,9.4,0,1,0-.14,18.807h1.007a1.517,1.517,0,0,1,1.517,1.517V58.768a1.517,1.517,0,0,1-1.517,1.517h-.867a9.4,9.4,0,1,0-.14,18.808H38.965c5.235,0,21.2-4.278,21.134-9.529a9.494,9.494,0,0,0-9.543-9.279Z" transform="translate(-17.438 -1.436)" fill="#fe93d3"/>
            <path id="Trazado_114823" data-name="Trazado 114823" d="M55.362,60.284H54.5a1.517,1.517,0,0,1-1.517-1.517V21.76A1.517,1.517,0,0,1,54.5,20.243h.867A9.4,9.4,0,1,0,55.5,1.436H46.127a9.4,9.4,0,1,1-.14,18.807A2.383,2.383,0,0,0,43.6,22.626V57.9a2.383,2.383,0,0,0,2.383,2.383h0a9.494,9.494,0,0,1,9.543,9.3c.056,5.236-4.176,7.943-9.4,7.943H55.5c5.227,0,9.459-2.707,9.4-7.943a9.494,9.494,0,0,0-9.543-9.3Z" transform="translate(-22.244 -1.436)" fill="#fe73c5"/>
            <path id="Trazado_114824" data-name="Trazado 114824" d="M71.9,80.444c0-8.735-5.568-15.341-14.311-15.31a15.823,15.823,0,0,0-3.022-.161,15.819,15.819,0,0,0-10.278,7.213c-.23.372.445,1.052.245,1.442s-1.273.493-1.44.9a16,16,0,0,0-1.2,6.086v.267l1.286,1.168-1.286,1.176v5.962a1.562,1.562,0,0,0,1.562,1.563h7.525l8.734-2.8,4.656,2.8h5.963A1.562,1.562,0,0,0,71.9,89.188V80.444Z" transform="translate(-21.93 -13.095)" fill="#eef5f6"/>
            <path id="Trazado_114825" data-name="Trazado 114825" d="M60.316,64.926c-.394,0-.629-.3-1.016-.265a15.627,15.627,0,0,0-1.884.264A15.788,15.788,0,0,1,70.061,80.4V89.14A1.562,1.562,0,0,1,68.5,90.7h6.25a1.562,1.562,0,0,0,1.563-1.562V83.178l-1.562-1.728,1.563-.616V80.4a15.737,15.737,0,0,0-1.146-5.915c-.161-.4-1.9-.79-2.093-1.172-.2-.4,1.142-.792.909-1.172a15.778,15.778,0,0,0-12.336-7.485C61.257,64.625,60.71,64.925,60.316,64.926Z" transform="translate(-24.781 -13.046)" fill="#deecf1"/>
            <path id="Trazado_114826" data-name="Trazado 114826" d="M66.417,87.788a6.695,6.695,0,0,0-13.39,0v5.934h3.939l2.7-1.693,2.816,1.693h3.939Z" transform="translate(-23.975 -16.067)" fill="#887f88"/>
            <path id="Trazado_114827" data-name="Trazado 114827" d="M63.364,89.055a2.756,2.756,0,0,0-5.513,0v5.624h5.513Z" transform="translate(-24.861 -17.023)" fill="#6bd9e7"/>
          </g>
        </g>
        <g id="Grupo_80972" data-name="Grupo 80972" transform="translate(0 0)">
          <path id="Trazado_114828" data-name="Trazado 114828" d="M67.142,86.747a2.737,2.737,0,0,0,2.734-2.734V75.269a16.828,16.828,0,0,0-6.765-13.552,1.172,1.172,0,0,0-1.41,1.872,14.733,14.733,0,0,1,3.285,3.422H54.037V60.7a14.567,14.567,0,0,1,3.571.725,1.172,1.172,0,0,0,.751-2.22,16.931,16.931,0,0,0-5.438-.891h-.06a16.742,16.742,0,0,0-3.781.444V52.912a1.172,1.172,0,1,0-2.344,0V59.5A17.165,17.165,0,0,0,35.967,75.44v8.573A2.729,2.729,0,0,0,36,84.4h-9.42a8.232,8.232,0,0,1-8.231-8.341,8.334,8.334,0,0,1,8.371-8.122h.867a2.692,2.692,0,0,0,2.689-2.689V37.908a1.172,1.172,0,0,0-2.344,0V65.251a.345.345,0,0,1-.345.345h-.867A10.686,10.686,0,0,0,16,76.032,10.575,10.575,0,0,0,26.578,86.747Zm.391-11.478v.438H62.906V69.355h3.388a14.612,14.612,0,0,1,1.238,5.914Zm-7.8.438a7.859,7.859,0,0,0-13.616,0H45.28V69.355H60.562v6.353Zm-5.224,8.7H51.337V79.951a1.584,1.584,0,0,1,3.169,0V84.4Zm-1.584-8.38a3.933,3.933,0,0,0-3.928,3.928V84.4H47.4V79.641a5.523,5.523,0,1,1,11.046,0V84.4H56.849V79.951A3.933,3.933,0,0,0,52.921,76.023ZM38.31,75.707V75.44a14.824,14.824,0,0,1,1.3-6.086h3.327v6.353H38.31Zm13.383-15v6.3H40.93A14.591,14.591,0,0,1,51.694,60.71ZM38.31,84.013V78.051h6.906a7.866,7.866,0,0,0-.162,1.59V84.4H38.7A.391.391,0,0,1,38.31,84.013Zm28.831.391H60.788V79.641a7.868,7.868,0,0,0-.162-1.59h6.906v5.962A.391.391,0,0,1,67.142,84.4Z" transform="translate(-16.002 -6.747)"/>
          <path id="Trazado_114829" data-name="Trazado 114829" d="M26.578,21.151h1.007a.345.345,0,0,1,.345.345v4.557a1.172,1.172,0,1,0,2.344,0V21.5a2.692,2.692,0,0,0-2.689-2.689H26.578a8.232,8.232,0,0,1-8.231-8.341,8.334,8.334,0,0,1,8.371-8.122H50.432a8.232,8.232,0,0,1,8.231,8.341,8.334,8.334,0,0,1-8.371,8.122h-.867A2.692,2.692,0,0,0,46.737,21.5V41.007a1.172,1.172,0,1,0,2.344,0V21.5a.345.345,0,0,1,.345-.345h.867A10.687,10.687,0,0,0,61.007,10.715,10.576,10.576,0,0,0,50.433,0H26.718A10.686,10.686,0,0,0,16,10.436,10.575,10.575,0,0,0,26.578,21.151Z" transform="translate(-16.002 0)"/>
        </g>
      </g>
    </g>
  </g>
</svg>
