<svg xmlns="http://www.w3.org/2000/svg" xmlns:xlink="http://www.w3.org/1999/xlink" width="84.19" height="96.986" viewBox="0 0 84.19 96.986">
  <defs>
    <clipPath id="clip-path">
      <path id="Trazado_113602" data-name="Trazado 113602" d="M235.776,334.792v-.1H184.709v.01a5.764,5.764,0,0,0-5.54,5.807,5.605,5.605,0,0,0,5.657,5.683c.392,0,.758.016,1.2.013h49.64c-2.606-.54-3.642-2.885-3.642-5.7C232.026,337.656,233.118,335.291,235.776,334.792Z" fill="none"/>
    </clipPath>
    <clipPath id="clip-path-2">
      <path id="Trazado_113613" data-name="Trazado 113613" d="M260.714,350.553v-.1H209.646v.009a5.766,5.766,0,0,0-5.54,5.808,5.6,5.6,0,0,0,5.657,5.68c.391,0,.758.019,1.2.016H260.6c-2.605-.541-3.641-2.885-3.641-5.7C256.963,353.417,258.056,351.05,260.714,350.553Z" fill="none"/>
    </clipPath>
  </defs>
  <g id="Grupo_80222" data-name="Grupo 80222" transform="translate(-177.982 -267.094)">
    <g id="Grupo_80195" data-name="Grupo 80195">
      <g id="Grupo_80183" data-name="Grupo 80183">
        <g id="Grupo_80172" data-name="Grupo 80172">
          <path id="Trazado_113601" data-name="Trazado 113601" d="M235.776,334.792v-.1H184.709v.01a5.764,5.764,0,0,0-5.54,5.807,5.605,5.605,0,0,0,5.657,5.683c.392,0,.815.028,1.2.013h49.64c-2.606-.54-3.642-2.885-3.642-5.7C232.026,337.656,233.118,335.291,235.776,334.792Z" fill="#fff"/>
        </g>
        <g id="Grupo_80182" data-name="Grupo 80182">
          <g id="Grupo_80181" data-name="Grupo 80181" clip-path="url(#clip-path)">
            <g id="Grupo_80180" data-name="Grupo 80180">
              <g id="Grupo_80173" data-name="Grupo 80173">
                <rect id="Rectángulo_33795" data-name="Rectángulo 33795" width="57.318" height="0.559" transform="translate(178.938 336.135)" fill="#ccd4d2"/>
              </g>
              <g id="Grupo_80174" data-name="Grupo 80174">
                <rect id="Rectángulo_33796" data-name="Rectángulo 33796" width="57.318" height="0.557" transform="translate(178.938 338.955)" fill="#ccd4d2"/>
              </g>
              <g id="Grupo_80175" data-name="Grupo 80175">
                <rect id="Rectángulo_33797" data-name="Rectángulo 33797" width="57.318" height="0.559" transform="translate(178.938 341.774)" fill="#ccd4d2"/>
              </g>
              <g id="Grupo_80176" data-name="Grupo 80176">
                <rect id="Rectángulo_33798" data-name="Rectángulo 33798" width="57.318" height="0.559" transform="translate(178.938 343.184)" fill="#ccd4d2"/>
              </g>
              <g id="Grupo_80177" data-name="Grupo 80177">
                <rect id="Rectángulo_33799" data-name="Rectángulo 33799" width="57.318" height="0.559" transform="translate(178.938 344.593)" fill="#ccd4d2"/>
              </g>
              <g id="Grupo_80178" data-name="Grupo 80178">
                <rect id="Rectángulo_33800" data-name="Rectángulo 33800" width="57.318" height="0.558" transform="translate(178.938 340.364)" fill="#ccd4d2"/>
              </g>
              <g id="Grupo_80179" data-name="Grupo 80179">
                <rect id="Rectángulo_33801" data-name="Rectángulo 33801" width="57.318" height="0.557" transform="translate(178.938 337.546)" fill="#ccd4d2"/>
              </g>
            </g>
          </g>
        </g>
      </g>
      <g id="Grupo_80185" data-name="Grupo 80185">
        <g id="Grupo_80184" data-name="Grupo 80184">
          <path id="Trazado_113603" data-name="Trazado 113603" d="M233.04,267.094H184.8c-.069,0-.137.007-.2.011V335.88c.068.005.136.012.2.012H233.04a4.122,4.122,0,0,0,4.122-4.1V271.189A4.12,4.12,0,0,0,233.04,267.094Z" fill="#ffc23a"/>
        </g>
      </g>
      <g id="Grupo_80186" data-name="Grupo 80186">
        <path id="Trazado_113604" data-name="Trazado 113604" d="M185.127,346.194a1.935,1.935,0,0,1-.213-.029c.213.029-.111-2.354-.111-5.243s.5-5.054.153-5.083c-.051,0,.292.027.344.029l-.19-57.252.172-.008v-11.5c-.11,0-.216-.016-.326-.016-3.214,0-6.229,1.909-6.72,4.651a18.1,18.1,0,0,0-.109,2.479s-.145,66.569-.145,66.846a5.776,5.776,0,0,0,.064.814v.176h.031a6.8,6.8,0,0,0,6.879,5.331c.051,0,.1-.007.154-.009Z" fill="#f9a431"/>
      </g>
      <g id="Grupo_80187" data-name="Grupo 80187">
        <path id="Trazado_113605" data-name="Trazado 113605" d="M236.132,335.633s-4.488,5.985.272,10.638H181.311l-.275-11.376Z" fill="#e7e5e5"/>
      </g>
      <g id="Grupo_80188" data-name="Grupo 80188">
        <path id="Trazado_113606" data-name="Trazado 113606" d="M181.036,341.957c.735-.557,9.294-7.032,54.006-4.425A3.389,3.389,0,0,1,236.2,335.6l-54.416-1.248Z" fill="#cececd"/>
      </g>
      <g id="Grupo_80189" data-name="Grupo 80189">
        <path id="Trazado_113607" data-name="Trazado 113607" d="M181.771,339.5v-1.479c0-2.629,2.025-2.418,2.025-2.418h53.439V332.58H183.243a3.505,3.505,0,0,0-2.467.846h0l0,0c-.048.044-.094.09-.137.136l-.013.013a1.061,1.061,0,0,0-.073.078c-1.021,1.086-4.975,6.015-.426,12.987a3.275,3.275,0,0,0,3.119,1.676h53.992V345.3H183.8s-2.025.213-2.025-2.416V339.5Z" fill="#ffc23a"/>
      </g>
      <g id="Grupo_80190" data-name="Grupo 80190">
        <path id="Trazado_113608" data-name="Trazado 113608" d="M183.8,345.3s-2.025.213-2.025-2.416v-4.864c0-2.629,2.025-2.418,2.025-2.418h9.311V332.58h-9.864a3.505,3.505,0,0,0-2.467.846h0l0,0c-.048.044-.094.09-.137.136l-.013.013a1.061,1.061,0,0,0-.073.078c-1.021,1.086-4.975,6.015-.426,12.987a3.275,3.275,0,0,0,3.119,1.676h9.864V345.3Z" fill="#f9a431"/>
      </g>
      <g id="Grupo_80191" data-name="Grupo 80191">
        <path id="Trazado_113609" data-name="Trazado 113609" d="M199.849,340.706a19.784,19.784,0,0,0-4.518-.211,7.165,7.165,0,0,1,2.711,6.116l2.174-2.873,3,2.065S202.271,341.611,199.849,340.706Z" fill="#ea5645"/>
      </g>
      <g id="Grupo_80192" data-name="Grupo 80192">
        <rect id="Rectángulo_33802" data-name="Rectángulo 33802" width="8.305" height="65.486" transform="translate(184.803 267.094)" fill="#f9a431"/>
      </g>
      <g id="Grupo_80193" data-name="Grupo 80193">
        <path id="Trazado_113610" data-name="Trazado 113610" d="M225.96,281.421a1.926,1.926,0,0,1-1.632,2.122H192.909a1.925,1.925,0,0,1-1.633-2.122v-.529a1.924,1.924,0,0,1,1.633-2.122h31.419a1.925,1.925,0,0,1,1.632,2.122Z" fill="#ea5645"/>
      </g>
      <g id="Grupo_80194" data-name="Grupo 80194">
        <path id="Trazado_113611" data-name="Trazado 113611" d="M221.987,287.787c0,1.171-.534,2.122-1.195,2.122H197.776c-.661,0-1.2-.951-1.2-2.122v-.532c0-1.171.534-2.122,1.2-2.122h23.016c.661,0,1.195.951,1.195,2.122Z" fill="#ea5645"/>
      </g>
    </g>
    <g id="Grupo_80207" data-name="Grupo 80207">
      <g id="Grupo_80196" data-name="Grupo 80196">
        <path id="Trazado_113612" data-name="Trazado 113612" d="M260.714,350.553v-.1H209.646v.009a5.766,5.766,0,0,0-5.54,5.808,5.6,5.6,0,0,0,5.657,5.68c.391,0,.814.029,1.2.016H260.6c-2.605-.541-3.641-2.885-3.641-5.7C256.963,353.417,258.056,351.05,260.714,350.553Z" fill="#fff"/>
      </g>
      <g id="Grupo_80206" data-name="Grupo 80206">
        <g id="Grupo_80205" data-name="Grupo 80205" clip-path="url(#clip-path-2)">
          <g id="Grupo_80204" data-name="Grupo 80204">
            <g id="Grupo_80197" data-name="Grupo 80197">
              <rect id="Rectángulo_33803" data-name="Rectángulo 33803" width="57.318" height="0.56" transform="translate(203.876 351.896)" fill="#ccd4d2"/>
            </g>
            <g id="Grupo_80198" data-name="Grupo 80198">
              <rect id="Rectángulo_33804" data-name="Rectángulo 33804" width="57.318" height="0.557" transform="translate(203.876 354.717)" fill="#ccd4d2"/>
            </g>
            <g id="Grupo_80199" data-name="Grupo 80199">
              <rect id="Rectángulo_33805" data-name="Rectángulo 33805" width="57.318" height="0.558" transform="translate(203.876 357.535)" fill="#ccd4d2"/>
            </g>
            <g id="Grupo_80200" data-name="Grupo 80200">
              <rect id="Rectángulo_33806" data-name="Rectángulo 33806" width="57.318" height="0.56" transform="translate(203.876 358.944)" fill="#ccd4d2"/>
            </g>
            <g id="Grupo_80201" data-name="Grupo 80201">
              <rect id="Rectángulo_33807" data-name="Rectángulo 33807" width="57.318" height="0.559" transform="translate(203.876 360.354)" fill="#ccd4d2"/>
            </g>
            <g id="Grupo_80202" data-name="Grupo 80202">
              <rect id="Rectángulo_33808" data-name="Rectángulo 33808" width="57.318" height="0.557" transform="translate(203.876 356.126)" fill="#ccd4d2"/>
            </g>
            <g id="Grupo_80203" data-name="Grupo 80203">
              <rect id="Rectángulo_33809" data-name="Rectángulo 33809" width="57.318" height="0.559" transform="translate(203.876 353.306)" fill="#ccd4d2"/>
            </g>
          </g>
        </g>
      </g>
    </g>
    <g id="Grupo_80209" data-name="Grupo 80209">
      <g id="Grupo_80208" data-name="Grupo 80208">
        <path id="Trazado_113614" data-name="Trazado 113614" d="M257.977,282.855H209.74c-.069,0-.137.007-.205.009v68.778c.068,0,.136.008.205.008h48.237a4.118,4.118,0,0,0,4.122-4.092V286.95A4.12,4.12,0,0,0,257.977,282.855Z" fill="#ea5645"/>
      </g>
    </g>
    <g id="Grupo_80210" data-name="Grupo 80210">
      <path id="Trazado_113615" data-name="Trazado 113615" d="M210.064,361.956a1.807,1.807,0,0,1-.213-.03c.213.03-.111-2.354-.111-5.243s.5-5.055.153-5.082c-.051-.005.291.024.344.027l-.19-57.251c.057,0,.114-.007.172-.007v-11.5c-.11,0-.216-.014-.326-.014-3.214,0-6.229,1.91-6.72,4.65a18.091,18.091,0,0,0-.109,2.477s-.145,66.573-.145,66.85a5.814,5.814,0,0,0,.064.814v.176h.031a6.8,6.8,0,0,0,6.879,5.327c.051,0,.1,0,.154-.006Z" fill="#d13431"/>
    </g>
    <g id="Grupo_80211" data-name="Grupo 80211">
      <path id="Trazado_113616" data-name="Trazado 113616" d="M261.068,351.394s-4.487,5.986.274,10.637H206.248l-.276-11.375Z" fill="#e7e5e5"/>
    </g>
    <g id="Grupo_80212" data-name="Grupo 80212">
      <path id="Trazado_113617" data-name="Trazado 113617" d="M205.972,357.717c.736-.555,9.295-7.032,54.007-4.426a3.39,3.39,0,0,1,1.159-1.929l-54.416-1.247Z" fill="#cececd"/>
    </g>
    <g id="Grupo_80213" data-name="Grupo 80213">
      <path id="Trazado_113618" data-name="Trazado 113618" d="M206.708,355.26v-1.481c0-2.631,2.024-2.417,2.024-2.417h53.44v-3.02H208.18a3.505,3.505,0,0,0-2.467.846h0l0,0c-.048.043-.094.089-.138.132l-.012.017a.9.9,0,0,0-.074.077c-1.02,1.087-4.974,6.016-.425,12.984a3.273,3.273,0,0,0,3.119,1.68h53.992v-3.02h-53.44s-2.024.213-2.024-2.415V355.26Z" fill="#ea5645"/>
    </g>
    <g id="Grupo_80214" data-name="Grupo 80214">
      <path id="Trazado_113619" data-name="Trazado 113619" d="M208.732,361.06s-2.024.213-2.024-2.415v-4.866c0-2.631,2.024-2.417,2.024-2.417h9.312v-3.02H208.18a3.505,3.505,0,0,0-2.467.846h0l0,0c-.048.043-.094.089-.138.132l-.012.017a.9.9,0,0,0-.074.077c-1.02,1.087-4.974,6.016-.425,12.984a3.273,3.273,0,0,0,3.119,1.68h9.864v-3.02Z" fill="#d13431"/>
    </g>
    <g id="Grupo_80215" data-name="Grupo 80215">
      <path id="Trazado_113620" data-name="Trazado 113620" d="M224.786,356.468a19.771,19.771,0,0,0-4.517-.213,7.166,7.166,0,0,1,2.71,6.118l2.174-2.874,3,2.066S227.208,357.373,224.786,356.468Z" fill="#ffc23a"/>
    </g>
    <g id="Grupo_80216" data-name="Grupo 80216">
      <rect id="Rectángulo_33810" data-name="Rectángulo 33810" width="8.305" height="65.486" transform="translate(209.74 282.855)" fill="#d13431"/>
    </g>
    <g id="Grupo_80218" data-name="Grupo 80218">
      <g id="Grupo_80217" data-name="Grupo 80217">
        <path id="Trazado_113621" data-name="Trazado 113621" d="M228.8,315.1h-7.355l-1.268,6.739h-6.16l7.572-31.342H228.8l7.571,31.342h-6.3Zm-1.051-5.382-2.644-13.838-2.647,13.838Z" fill="#ffc23a"/>
      </g>
    </g>
    <g id="Grupo_80219" data-name="Grupo 80219">
      <rect id="Rectángulo_33811" data-name="Rectángulo 33811" width="24.203" height="37.781" transform="translate(231.426 306.231)" fill="#f9a431"/>
    </g>
    <g id="Grupo_80221" data-name="Grupo 80221">
      <g id="Grupo_80220" data-name="Grupo 80220">
        <path id="Trazado_113622" data-name="Trazado 113622" d="M251.979,329.728c0,5.862-3.8,7.494-8.976,7.494h-6.628V311.514H242.2c5.528,0,8.917,1.742,8.917,6.565a5.337,5.337,0,0,1-3.777,5.528C249.63,324.163,251.979,325.573,251.979,329.728Zm-10.73-13.912v5.973h1.814c2.02,0,3.091-.965,3.091-3.116s-1.13-2.857-3.478-2.857Zm5.707,13.579c0-2.6-1.457-3.563-3.567-3.563h-2.14v6.975h1.785C245.322,332.807,246.956,332.214,246.956,329.395Z" fill="#22b1b6"/>
      </g>
    </g>
  </g>
</svg>
