<svg xmlns="http://www.w3.org/2000/svg" xmlns:xlink="http://www.w3.org/1999/xlink" width="125" height="125" viewBox="0 0 125 125">
  <defs>
    <clipPath id="clip-path">
      <rect id="Rectángulo_34038" data-name="Rectángulo 34038" width="69.388" height="80" transform="translate(284.667 2418)" fill="#fff"/>
    </clipPath>
  </defs>
  <g id="o" transform="translate(-264.667 -2582)">
    <circle id="Elipse_4785" data-name="Elipse 4785" cx="62.5" cy="62.5" r="62.5" transform="translate(264.667 2582)" fill="#ffd947"/>
    <g id="Enmascarar_grupo_63" data-name="Enmascarar grupo 63" transform="translate(8 187)" clip-path="url(#clip-path)">
      <g id="letra-o" transform="translate(284.667 2423.306)">
        <g id="Grupo_80979" data-name="Grupo 80979" transform="translate(1.016 1.016)">
          <g id="Grupo_80978" data-name="Grupo 80978">
            <g id="Grupo_80976" data-name="Grupo 80976" transform="translate(0 0.202)">
              <path id="Trazado_114838" data-name="Trazado 114838" d="M34.923,68.324a34.608,34.608,0,0,1-4.066.081,33.681,33.681,0,0,1-19.748-57.25A33.423,33.423,0,0,1,30.857,1.532a34.982,34.982,0,0,1,4.066.225c9,0,17.461,4.86,23.821,11.221S66.16,26.159,66.16,35.154s-2.43,15.2-8.791,21.564S43.918,68.324,34.923,68.324Zm0-50.721A17.365,17.365,0,1,0,52.288,34.968,17.385,17.385,0,0,0,34.923,17.6Z" transform="translate(-1.245 -1.493)" fill="#6bd9e7"/>
            </g>
            <g id="Grupo_80977" data-name="Grupo 80977" transform="translate(29.612)">
              <path id="Trazado_114839" data-name="Trazado 114839" d="M65.4,11.109A33.457,33.457,0,0,0,41.585,1.245a34.224,34.224,0,0,0-4.066.242A33.68,33.68,0,0,1,57.267,58.736,33.422,33.422,0,0,1,37.52,68.358a34.224,34.224,0,0,0,4.066.242A33.677,33.677,0,0,0,65.4,11.109Z" transform="translate(-37.52 -1.245)" fill="#02c7dd"/>
            </g>
            <path id="Trazado_114840" data-name="Trazado 114840" d="M70.515,40.9l-.032-.173a2.392,2.392,0,0,0-.9.07,2.33,2.33,0,0,0-1.438,1.919l-1.14,11.1h3.6l1.133-10.366C72.041,42,71.99,40.9,70.515,40.9Z" transform="translate(-13.324 -8.495)" fill="#c68d7a"/>
            <path id="Trazado_114841" data-name="Trazado 114841" d="M70.881,40.6a2.321,2.321,0,0,0-.879.173A2.33,2.33,0,0,1,71.4,43.4L69.265,53.791h1.762L73.162,43.4a2.329,2.329,0,0,0-2.281-2.8Z" transform="translate(-13.739 -8.474)" fill="#bc7c63"/>
            <path id="Trazado_114842" data-name="Trazado 114842" d="M76.755,64.54c0-7.4-5.028-13.612-12.429-13.612a13.4,13.4,0,0,0-3.388,26.366,13.707,13.707,0,0,0,3.388-.066C71.726,77.227,76.755,71.94,76.755,64.54Z" transform="translate(-10.37 -10.37)" fill="#fea95c"/>
            <path id="Trazado_114843" data-name="Trazado 114843" d="M66.579,50.927a13.425,13.425,0,0,0-3.388.432,13.4,13.4,0,0,1,0,25.933,13.4,13.4,0,1,0,3.388-26.365Z" transform="translate(-12.623 -10.37)" fill="#fe860a"/>
            <path id="Trazado_114844" data-name="Trazado 114844" d="M58.563,42.8a1.185,1.185,0,0,0-1,1,7.1,7.1,0,0,0,8.03,8.03,1.185,1.185,0,0,0,1-1,7.1,7.1,0,0,0-8.03-8.03Z" transform="translate(-11.575 -8.864)" fill="#a2e62e"/>
          </g>
        </g>
        <g id="Grupo_80980" data-name="Grupo 80980">
          <path id="Trazado_114845" data-name="Trazado 114845" d="M59.219,64.788A1.016,1.016,0,1,0,58.2,65.8,1.016,1.016,0,0,0,59.219,64.788Z" transform="translate(-10.504 -11.713)"/>
          <path id="Trazado_114846" data-name="Trazado 114846" d="M62.733,71.585A1.016,1.016,0,1,0,61.717,72.6,1.016,1.016,0,0,0,62.733,71.585Z" transform="translate(-11.149 -12.962)"/>
          <path id="Trazado_114847" data-name="Trazado 114847" d="M69.388,34.694A34.694,34.694,0,0,0,34.694,0,34.23,34.23,0,0,0,12.716,7.845a1.016,1.016,0,1,0,1.29,1.571A32.668,32.668,0,0,1,57.789,11.6a32.746,32.746,0,0,1,7.829,33.654l-.057-.063a14.409,14.409,0,0,0-5.242-3.609l1.117-5.434a3.345,3.345,0,1,0-6.6-1.015l-.111,1.083a8.183,8.183,0,0,0-1.649-1.263c0-.086.005-.172.005-.257A18.381,18.381,0,1,0,20.942,46.878a1.016,1.016,0,0,0,1.521-1.349A16.345,16.345,0,1,1,51.031,34.114a8.148,8.148,0,0,0-3.171-.17,2.209,2.209,0,0,0-1.867,1.867,8.046,8.046,0,0,0,1.983,6.556,14.449,14.449,0,0,0-6.333,7.122,16.323,16.323,0,0,1-16.233-1.345,1.016,1.016,0,0,0-1.157,1.671,18.365,18.365,0,0,0,16.614,2.192,14.368,14.368,0,0,0-.311,2.964,1.016,1.016,0,1,0,2.033,0,12.406,12.406,0,0,1,7.057-11.18A8.007,8.007,0,0,0,54,45.074a8.32,8.32,0,0,0,1.171-.083,2.209,2.209,0,0,0,1.867-1.867c.017-.118.028-.236.04-.354a12.383,12.383,0,1,1-13.761,16.4,1.016,1.016,0,0,0-1.912.689,14.361,14.361,0,0,0,3.854,5.757A32.671,32.671,0,0,1,11.029,12.183a1.016,1.016,0,0,0-1.472-1.4,34.713,34.713,0,0,0,37.613,56.3A14.412,14.412,0,0,0,67.088,47.159a34.575,34.575,0,0,0,2.3-12.465Zm-11.229-.533a1.312,1.312,0,0,1,1.286,1.577l-1.073,5.223q-.664-.16-1.346-.258a7.989,7.989,0,0,0-.531-1.868l.359-3.5a1.309,1.309,0,0,1,1.305-1.178Zm-3.131,8.677a.169.169,0,0,1-.141.141,6.08,6.08,0,0,1-6.881-6.88.169.169,0,0,1,.141-.141,6.08,6.08,0,0,1,6.881,6.88Z" transform="translate(0)"/>
        </g>
      </g>
    </g>
  </g>
</svg>
