<svg xmlns="http://www.w3.org/2000/svg" width="1145" height="629.424" viewBox="0 0 1145 629.424">
  <g id="Grupo_81199" data-name="Grupo 81199" transform="translate(-229.667 -422.576)">
    <path id="Trazado_115837" data-name="Trazado 115837" d="M-89.985-6.035h-5.391v3.4h6.367V0H-98.8V-14.219h9.814v2.646h-6.387v3h5.391ZM-75.737,0h-3.408l-5.039-8.848V0h-3.428V-14.219h3.428l5.029,8.848v-8.848h3.418Zm13.809-1.758A5.511,5.511,0,0,1-64.243-.342,9.982,9.982,0,0,1-67.583.2a5.955,5.955,0,0,1-4.463-1.709A6.918,6.918,0,0,1-73.833-6.27l-.01-1.23a8.485,8.485,0,0,1,.742-3.667,5.511,5.511,0,0,1,2.124-2.412,6.008,6.008,0,0,1,3.2-.845,6.3,6.3,0,0,1,4.126,1.216A5.152,5.152,0,0,1-61.938-9.58h-3.3a2.7,2.7,0,0,0-.762-1.7,2.458,2.458,0,0,0-1.66-.508,2.237,2.237,0,0,0-1.992,1.094,5.84,5.84,0,0,0-.713,3.125v.859a5.717,5.717,0,0,0,.728,3.2,2.573,2.573,0,0,0,2.29,1.069,2.88,2.88,0,0,0,1.992-.6V-5.244h-2.383V-7.6h5.811Zm5.42-.879h5.967V0h-9.395V-14.219h3.428ZM-45.444,0h-3.418V-14.219h3.418Zm9.717-3.779a1.408,1.408,0,0,0-.532-1.172,6.615,6.615,0,0,0-1.87-.869,17.942,17.942,0,0,1-2.187-.869q-2.764-1.357-2.764-3.73a3.345,3.345,0,0,1,.688-2.085,4.453,4.453,0,0,1,1.948-1.406,7.582,7.582,0,0,1,2.832-.5,6.632,6.632,0,0,1,2.749.547,4.352,4.352,0,0,1,1.89,1.558A4.068,4.068,0,0,1-32.3-10h-3.418a1.719,1.719,0,0,0-.532-1.348,2.075,2.075,0,0,0-1.44-.479,2.339,2.339,0,0,0-1.45.405,1.243,1.243,0,0,0-.532,1.03,1.252,1.252,0,0,0,.586.991,7.389,7.389,0,0,0,2.061.918A12.623,12.623,0,0,1-34.6-7.461,4.07,4.07,0,0,1-32.3-3.8a3.472,3.472,0,0,1-1.406,2.93A6.255,6.255,0,0,1-37.563.2a7.653,7.653,0,0,1-3.13-.62,4.719,4.719,0,0,1-2.109-1.7,4.428,4.428,0,0,1-.708-2.485h3.438a2.181,2.181,0,0,0,.591,1.685,2.793,2.793,0,0,0,1.919.542,2.206,2.206,0,0,0,1.343-.366A1.209,1.209,0,0,0-35.728-3.779ZM-18.657,0h-3.408V-5.937h-5.049V0h-3.428V-14.219h3.428v5.645h5.049v-5.645h3.408Zm7.148,0V-14.219h4.58a6.737,6.737,0,0,1,3.389.854,6.006,6.006,0,0,1,2.349,2.412A7.283,7.283,0,0,1-.337-7.461v.654a7.325,7.325,0,0,1-.825,3.5A6.032,6.032,0,0,1-3.486-.884,6.589,6.589,0,0,1-6.831,0Zm3.428-11.572v8.936H-6.89a2.666,2.666,0,0,0,2.266-1.05,5.145,5.145,0,0,0,.791-3.12v-.615a5.1,5.1,0,0,0-.791-3.105,2.713,2.713,0,0,0-2.3-1.045ZM13.462-6.816a8.385,8.385,0,0,1-.771,3.682A5.7,5.7,0,0,1,10.5-.669,6.1,6.1,0,0,1,7.261.2,6.191,6.191,0,0,1,4.038-.64,5.692,5.692,0,0,1,1.846-3.027a8.144,8.144,0,0,1-.825-3.564v-.8a8.422,8.422,0,0,1,.767-3.687,5.688,5.688,0,0,1,2.2-2.466,6.147,6.147,0,0,1,3.257-.869,6.087,6.087,0,0,1,3.223.859,5.79,5.79,0,0,1,2.2,2.446,8.18,8.18,0,0,1,.8,3.638Zm-3.486-.6a5.979,5.979,0,0,0-.708-3.218,2.271,2.271,0,0,0-2.026-1.1q-2.578,0-2.725,3.867l-.01,1.045A6.149,6.149,0,0,0,5.2-3.6,2.268,2.268,0,0,0,7.261-2.48a2.24,2.24,0,0,0,2-1.1,5.982,5.982,0,0,0,.713-3.174ZM24.048-6.035H18.657v3.4h6.367V0H15.229V-14.219h9.814v2.646H18.657v3h5.391Zm9.707,2.256a1.408,1.408,0,0,0-.532-1.172,6.615,6.615,0,0,0-1.87-.869,17.941,17.941,0,0,1-2.187-.869Q26.4-8.047,26.4-10.42A3.345,3.345,0,0,1,27.09-12.5a4.453,4.453,0,0,1,1.948-1.406,7.582,7.582,0,0,1,2.832-.5,6.632,6.632,0,0,1,2.749.547,4.352,4.352,0,0,1,1.89,1.558A4.068,4.068,0,0,1,37.183-10H33.765a1.719,1.719,0,0,0-.532-1.348,2.075,2.075,0,0,0-1.44-.479,2.339,2.339,0,0,0-1.45.405,1.243,1.243,0,0,0-.532,1.03A1.252,1.252,0,0,0,30.4-9.4a7.389,7.389,0,0,0,2.061.918,12.623,12.623,0,0,1,2.422,1.021,4.07,4.07,0,0,1,2.3,3.662,3.472,3.472,0,0,1-1.406,2.93A6.255,6.255,0,0,1,31.919.2a7.653,7.653,0,0,1-3.13-.62,4.719,4.719,0,0,1-2.109-1.7,4.427,4.427,0,0,1-.708-2.485h3.438A2.181,2.181,0,0,0,30-2.925a2.793,2.793,0,0,0,1.919.542,2.206,2.206,0,0,0,1.343-.366A1.209,1.209,0,0,0,33.755-3.779ZM54.937-5.3l1.631-8.916h3.4L56.948,0H53.394l-1.9-8.105L49.624,0H46.079L43.052-14.219H46.46L48.091-5.3l1.953-8.916h2.91ZM73.345-6.816a8.385,8.385,0,0,1-.771,3.682A5.7,5.7,0,0,1,70.381-.669,6.1,6.1,0,0,1,67.144.2,6.191,6.191,0,0,1,63.921-.64a5.692,5.692,0,0,1-2.192-2.388A8.144,8.144,0,0,1,60.9-6.592v-.8a8.422,8.422,0,0,1,.767-3.687,5.688,5.688,0,0,1,2.2-2.466,6.147,6.147,0,0,1,3.257-.869,6.087,6.087,0,0,1,3.223.859,5.79,5.79,0,0,1,2.2,2.446,8.18,8.18,0,0,1,.8,3.638Zm-3.486-.6a5.979,5.979,0,0,0-.708-3.218,2.271,2.271,0,0,0-2.026-1.1q-2.578,0-2.725,3.867l-.01,1.045A6.149,6.149,0,0,0,65.083-3.6,2.268,2.268,0,0,0,67.144-2.48a2.24,2.24,0,0,0,2-1.1,5.982,5.982,0,0,0,.713-3.174ZM80.4-5.029H78.54V0H75.112V-14.219h5.6A6.246,6.246,0,0,1,84.663-13.1a3.8,3.8,0,0,1,1.426,3.17,4.616,4.616,0,0,1-.6,2.458,4.263,4.263,0,0,1-1.88,1.58L86.577-.147V0H82.905ZM78.54-7.666h2.168a1.946,1.946,0,0,0,1.47-.514,1.987,1.987,0,0,0,.493-1.434,2.01,2.01,0,0,0-.5-1.444,1.928,1.928,0,0,0-1.465-.524H78.54ZM92.993-5.293,91.587-3.75V0H88.159V-14.219h3.428v6.27l1.191-1.807,3.066-4.463h4.238l-4.8,6.289,4.8,7.93H96.021Z" transform="translate(799.667 437)" fill="#12263f"/>
    <rect id="Rectángulo_34102" data-name="Rectángulo 34102" width="190" height="68" rx="10" transform="translate(389.667 834)" fill="#6b8dff"/>
    <rect id="Rectángulo_34106" data-name="Rectángulo 34106" width="190" height="68" rx="10" transform="translate(1019.667 834)" fill="#6b8dff"/>
    <rect id="Rectángulo_34104" data-name="Rectángulo 34104" width="190" height="71" rx="10" transform="translate(514.667 654)" fill="#6b8dff"/>
    <rect id="Rectángulo_34107" data-name="Rectángulo 34107" width="190" height="46" rx="23" transform="translate(359.667 535)" fill="#c4d1ff"/>
    <rect id="Rectángulo_34113" data-name="Rectángulo 34113" width="190" height="46" rx="23" transform="translate(989.667 535)" fill="#c4d1ff"/>
    <rect id="Rectángulo_34114" data-name="Rectángulo 34114" width="190" height="46" rx="23" transform="translate(1174.667 651)" fill="#c4d1ff"/>
    <rect id="Rectángulo_34108" data-name="Rectángulo 34108" width="190" height="46" rx="23" transform="translate(229.667 666)" fill="#c4d1ff"/>
    <rect id="Rectángulo_34109" data-name="Rectángulo 34109" width="190" height="46" rx="23" transform="translate(229.667 988)" fill="#c4d1ff"/>
    <rect id="Rectángulo_34110" data-name="Rectángulo 34110" width="190" height="46" rx="23" transform="translate(494.667 988)" fill="#c4d1ff"/>
    <rect id="Rectángulo_34111" data-name="Rectángulo 34111" width="226" height="84" rx="42" transform="translate(853.667 968)" fill="#c4d1ff"/>
    <rect id="Rectángulo_34112" data-name="Rectángulo 34112" width="230" height="84" rx="42" transform="translate(1144.667 968)" fill="#c4d1ff"/>
    <rect id="Rectángulo_34105" data-name="Rectángulo 34105" width="190" height="71" rx="10" transform="translate(914.667 654)" fill="#6b8dff"/>
    <path id="Trazado_115826" data-name="Trazado 115826" d="M-10.674-2.656h-4.7L-16.191,0h-3.662l5.215-14.219h3.223L-6.162,0H-9.844ZM-14.551-5.3h3.057l-1.533-4.932ZM-5.127,0V-14.219H-.02a7.232,7.232,0,0,1,4.175,1.006,3.347,3.347,0,0,1,1.431,2.92,3.383,3.383,0,0,1-.508,1.885A2.959,2.959,0,0,1,3.584-7.256,3,3,0,0,1,5.293-6.162a3.18,3.18,0,0,1,.6,1.953,3.765,3.765,0,0,1-1.323,3.14A6.3,6.3,0,0,1,.645,0ZM-1.7-6.045v3.408H.547a2.136,2.136,0,0,0,1.426-.425,1.487,1.487,0,0,0,.5-1.2A1.576,1.576,0,0,0,.7-6.045Zm0-2.246H.088a2.539,2.539,0,0,0,1.6-.411,1.46,1.46,0,0,0,.479-1.185,1.533,1.533,0,0,0-.518-1.3,2.77,2.77,0,0,0-1.67-.4H-1.7ZM19.277-4.814a5.193,5.193,0,0,1-.8,2.622A4.833,4.833,0,0,1,16.421-.43,7,7,0,0,1,13.4.2,5.584,5.584,0,0,1,8.984-1.631,7.54,7.54,0,0,1,7.373-6.787v-.7A8.607,8.607,0,0,1,8.1-11.147,5.513,5.513,0,0,1,10.2-13.569a5.844,5.844,0,0,1,3.164-.854,6.129,6.129,0,0,1,4.16,1.362,5.383,5.383,0,0,1,1.787,3.755H15.889a2.547,2.547,0,0,0-.654-1.865,2.691,2.691,0,0,0-1.875-.566,2.048,2.048,0,0,0-1.875.957,6.151,6.151,0,0,0-.625,3.057v1.006a6.806,6.806,0,0,0,.571,3.252A2.091,2.091,0,0,0,13.4-2.49a2.632,2.632,0,0,0,1.807-.557,2.363,2.363,0,0,0,.664-1.768Z" transform="translate(611.667 697)" fill="#12263f"/>
    <path id="Trazado_115831" data-name="Trazado 115831" d="M-28.311,0h-3.408l-5.039-8.848V0h-3.428V-14.219h3.428l5.029,8.848v-8.848h3.418ZM-20-1.143A3.393,3.393,0,0,1-22.822.2,3.328,3.328,0,0,1-25.454-.815a4.251,4.251,0,0,1-.894-2.905v-6.846h3.291V-3.7a1.183,1.183,0,0,0,1.318,1.357,1.72,1.72,0,0,0,1.611-.811v-7.412h3.311V0H-19.9Zm8.1-9.424.107,1.24a3.633,3.633,0,0,1,3.018-1.436A2.675,2.675,0,0,1-6.074-9.17a3.517,3.517,0,0,1,3.105-1.592q3.213,0,3.3,3.887V0h-3.3V-6.67a2.014,2.014,0,0,0-.273-1.182,1.164,1.164,0,0,0-1-.371,1.559,1.559,0,0,0-1.455.869l.01.137V0h-3.3V-6.65a2.117,2.117,0,0,0-.264-1.2,1.161,1.161,0,0,0-1.006-.371,1.578,1.578,0,0,0-1.445.869V0H-14.99V-10.566ZM12.021-5.2A6.44,6.44,0,0,1,10.947-1.2,3.6,3.6,0,0,1,7.92.2a3.122,3.122,0,0,1-2.6-1.279L5.186,0H2.236V-15H5.527v5.283A3.013,3.013,0,0,1,7.9-10.762a3.6,3.6,0,0,1,3.047,1.416,6.473,6.473,0,0,1,1.074,3.984Zm-3.3-.21a4.3,4.3,0,0,0-.405-2.169A1.366,1.366,0,0,0,7.07-8.223a1.576,1.576,0,0,0-1.543.848v4.192a1.585,1.585,0,0,0,1.563.838A1.4,1.4,0,0,0,8.564-3.475,8.121,8.121,0,0,0,8.721-5.405ZM18.584.2a5.432,5.432,0,0,1-3.936-1.45,5.008,5.008,0,0,1-1.5-3.774V-5.3a6.489,6.489,0,0,1,.6-2.861A4.395,4.395,0,0,1,15.5-10.083a5.292,5.292,0,0,1,2.734-.679A4.574,4.574,0,0,1,21.748-9.38a5.43,5.43,0,0,1,1.289,3.853v1.279H16.494a2.372,2.372,0,0,0,.771,1.4,2.3,2.3,0,0,0,1.543.508A2.958,2.958,0,0,0,21.25-3.437l1.5,1.777A4.2,4.2,0,0,1,21.011-.308,5.891,5.891,0,0,1,18.584.2Zm-.371-8.418q-1.445,0-1.719,1.914h3.32v-.254a1.63,1.63,0,0,0-.4-1.226A1.593,1.593,0,0,0,18.213-8.223Zm12.539.635-1.084-.078a1.947,1.947,0,0,0-1.992.977V0H24.385V-10.566h3.086l.107,1.357a2.548,2.548,0,0,1,2.314-1.553,3.209,3.209,0,0,1,.918.117Zm6.719,4.619a.76.76,0,0,0-.439-.674,6.685,6.685,0,0,0-1.67-.527,7.615,7.615,0,0,1-2.031-.718,3.4,3.4,0,0,1-1.221-1.079,2.577,2.577,0,0,1-.42-1.455,2.92,2.92,0,0,1,1.2-2.4,4.948,4.948,0,0,1,3.145-.942,5.482,5.482,0,0,1,3.359.947,2.962,2.962,0,0,1,1.27,2.49h-3.3q0-1.27-1.338-1.27a1.326,1.326,0,0,0-.869.288.892.892,0,0,0-.352.718.819.819,0,0,0,.43.713,4.06,4.06,0,0,0,1.372.449,11.857,11.857,0,0,1,1.655.42,3.007,3.007,0,0,1,2.383,2.939A2.767,2.767,0,0,1,39.36-.713,5.632,5.632,0,0,1,36.035.2a5.747,5.747,0,0,1-2.422-.488,4.05,4.05,0,0,1-1.66-1.328,3.007,3.007,0,0,1-.6-1.768h3.076a1.272,1.272,0,0,0,.488,1.069,2.009,2.009,0,0,0,1.2.337,1.58,1.58,0,0,0,1.011-.273A.875.875,0,0,0,37.471-2.969Z" transform="translate(1009.667 697)" fill="#12263f"/>
    <path id="Trazado_115834" data-name="Trazado 115834" d="M-31.475-1.758A5.511,5.511,0,0,1-33.789-.342,9.982,9.982,0,0,1-37.129.2a5.955,5.955,0,0,1-4.463-1.709A6.918,6.918,0,0,1-43.379-6.27l-.01-1.23a8.485,8.485,0,0,1,.742-3.667,5.511,5.511,0,0,1,2.124-2.412,6.008,6.008,0,0,1,3.2-.845A6.3,6.3,0,0,1-33.2-13.208,5.152,5.152,0,0,1-31.484-9.58h-3.3a2.7,2.7,0,0,0-.762-1.7,2.458,2.458,0,0,0-1.66-.508A2.237,2.237,0,0,0-39.2-10.693a5.84,5.84,0,0,0-.713,3.125v.859a5.717,5.717,0,0,0,.728,3.2,2.573,2.573,0,0,0,2.29,1.069,2.88,2.88,0,0,0,1.992-.6V-5.244h-2.383V-7.6h5.811Zm8.232-5.83-1.084-.078a1.947,1.947,0,0,0-1.992.977V0h-3.291V-10.566h3.086l.107,1.357A2.548,2.548,0,0,1-24.1-10.762a3.209,3.209,0,0,1,.918.117ZM-16.943.2a5.432,5.432,0,0,1-3.936-1.45,5.008,5.008,0,0,1-1.5-3.774V-5.3a6.489,6.489,0,0,1,.6-2.861,4.395,4.395,0,0,1,1.753-1.919,5.292,5.292,0,0,1,2.734-.679A4.574,4.574,0,0,1-13.779-9.38,5.43,5.43,0,0,1-12.49-5.527v1.279h-6.543a2.372,2.372,0,0,0,.771,1.4,2.3,2.3,0,0,0,1.543.508,2.958,2.958,0,0,0,2.441-1.094l1.5,1.777A4.2,4.2,0,0,1-14.517-.308,5.891,5.891,0,0,1-16.943.2Zm-.371-8.418q-1.445,0-1.719,1.914h3.32v-.254a1.63,1.63,0,0,0-.4-1.226A1.593,1.593,0,0,0-17.314-8.223ZM-6.055.2A5.432,5.432,0,0,1-9.99-1.255a5.008,5.008,0,0,1-1.5-3.774V-5.3a6.489,6.489,0,0,1,.6-2.861,4.395,4.395,0,0,1,1.753-1.919,5.292,5.292,0,0,1,2.734-.679A4.574,4.574,0,0,1-2.891-9.38,5.43,5.43,0,0,1-1.6-5.527v1.279H-8.145a2.372,2.372,0,0,0,.771,1.4,2.3,2.3,0,0,0,1.543.508A2.958,2.958,0,0,0-3.389-3.437l1.5,1.777A4.2,4.2,0,0,1-3.628-.308,5.891,5.891,0,0,1-6.055.2Zm-.371-8.418q-1.445,0-1.719,1.914h3.32v-.254a1.63,1.63,0,0,0-.4-1.226A1.593,1.593,0,0,0-6.426-8.223Zm9.98-4.971v2.627H5.293v2.285H3.555v4.834a1.234,1.234,0,0,0,.215.83,1.152,1.152,0,0,0,.85.234,4.828,4.828,0,0,0,.82-.059V-.088A6.074,6.074,0,0,1,3.584.2a3.448,3.448,0,0,1-2.51-.8A3.282,3.282,0,0,1,.264-3.037V-8.281H-1.084v-2.285H.264v-2.627ZM10.059,0h-3.3V-10.566h3.3Zm-3.5-13.291a1.469,1.469,0,0,1,.508-1.152,1.916,1.916,0,0,1,1.318-.449,1.916,1.916,0,0,1,1.318.449,1.469,1.469,0,0,1,.508,1.152,1.469,1.469,0,0,1-.508,1.152,1.916,1.916,0,0,1-1.318.449,1.916,1.916,0,0,1-1.318-.449A1.469,1.469,0,0,1,6.563-13.291Zm8.545,2.725.107,1.24a3.583,3.583,0,0,1,3.018-1.436,3.015,3.015,0,0,1,2.466.986,4.7,4.7,0,0,1,.845,2.969V0h-3.3V-6.67a1.783,1.783,0,0,0-.322-1.177,1.491,1.491,0,0,0-1.172-.376,1.569,1.569,0,0,0-1.436.762V0H12.021V-10.566Zm7.871,5.205a7.134,7.134,0,0,1,.527-2.832,4.245,4.245,0,0,1,1.514-1.9,3.99,3.99,0,0,1,2.295-.669,3.173,3.173,0,0,1,2.578,1.113l.117-.918H33V-.4a4.455,4.455,0,0,1-.649,2.427,4.167,4.167,0,0,1-1.88,1.582,6.91,6.91,0,0,1-2.852.552,5.961,5.961,0,0,1-2.251-.439A4.063,4.063,0,0,1,23.7,2.578L25.078.645A3.018,3.018,0,0,0,27.5,1.729,1.96,1.96,0,0,0,29.688-.518V-.85A3.09,3.09,0,0,1,27.295.2,3.819,3.819,0,0,1,24.17-1.284a6.13,6.13,0,0,1-1.191-3.96Zm3.3.205A3.759,3.759,0,0,0,26.768-3.1a1.541,1.541,0,0,0,1.367.757,1.748,1.748,0,0,0,1.553-.713V-7.5a1.7,1.7,0,0,0-1.533-.723,1.551,1.551,0,0,0-1.377.786A4.287,4.287,0,0,0,26.279-5.156ZM40.4-2.969a.76.76,0,0,0-.439-.674,6.685,6.685,0,0,0-1.67-.527,7.615,7.615,0,0,1-2.031-.718,3.4,3.4,0,0,1-1.221-1.079,2.577,2.577,0,0,1-.42-1.455,2.92,2.92,0,0,1,1.2-2.4,4.948,4.948,0,0,1,3.145-.942,5.482,5.482,0,0,1,3.359.947,2.962,2.962,0,0,1,1.27,2.49h-3.3q0-1.27-1.338-1.27a1.326,1.326,0,0,0-.869.288.892.892,0,0,0-.352.718.819.819,0,0,0,.43.713,4.06,4.06,0,0,0,1.372.449,11.857,11.857,0,0,1,1.655.42,3.007,3.007,0,0,1,2.383,2.939A2.767,2.767,0,0,1,42.29-.713,5.632,5.632,0,0,1,38.965.2a5.747,5.747,0,0,1-2.422-.488,4.05,4.05,0,0,1-1.66-1.328,3.007,3.007,0,0,1-.6-1.768h3.076a1.272,1.272,0,0,0,.488,1.069,2.009,2.009,0,0,0,1.2.337,1.58,1.58,0,0,0,1.011-.273A.875.875,0,0,0,40.4-2.969Z" transform="translate(1114.667 875)" fill="#12263f"/>
    <path id="Trazado_115827" data-name="Trazado 115827" d="M-48.34-3.867l2.832-10.352h3.828L-46.465,0h-3.75l-4.746-14.219h3.8ZM-35.684.2a5.432,5.432,0,0,1-3.936-1.45,5.008,5.008,0,0,1-1.5-3.774V-5.3a6.489,6.489,0,0,1,.6-2.861,4.395,4.395,0,0,1,1.753-1.919,5.292,5.292,0,0,1,2.734-.679A4.574,4.574,0,0,1-32.52-9.38,5.43,5.43,0,0,1-31.23-5.527v1.279h-6.543A2.372,2.372,0,0,0-37-2.852a2.3,2.3,0,0,0,1.543.508,2.958,2.958,0,0,0,2.441-1.094l1.5,1.777A4.2,4.2,0,0,1-33.257-.308,5.891,5.891,0,0,1-35.684.2Zm-.371-8.418q-1.445,0-1.719,1.914h3.32v-.254a1.63,1.63,0,0,0-.4-1.226A1.593,1.593,0,0,0-36.055-8.223Zm12.539.635L-24.6-7.666a1.947,1.947,0,0,0-1.992.977V0h-3.291V-10.566H-26.8l.107,1.357a2.548,2.548,0,0,1,2.314-1.553,3.209,3.209,0,0,1,.918.117Zm11,2.393A6.44,6.44,0,0,1-13.594-1.2,3.6,3.6,0,0,1-16.621.2a3.122,3.122,0,0,1-2.6-1.279L-19.355,0H-22.3V-15h3.291v5.283a3.013,3.013,0,0,1,2.373-1.045,3.6,3.6,0,0,1,3.047,1.416A6.473,6.473,0,0,1-12.52-5.361Zm-3.3-.21a4.3,4.3,0,0,0-.405-2.169,1.366,1.366,0,0,0-1.245-.648,1.576,1.576,0,0,0-1.543.848v4.192a1.585,1.585,0,0,0,1.563.838,1.4,1.4,0,0,0,1.475-1.131A8.121,8.121,0,0,0-15.82-5.405ZM-4.1-15.391l1.445.781a5.917,5.917,0,0,0-.83,2.705v1.729h-2.4v-1.611A4.355,4.355,0,0,1-5.361-13.7,5.8,5.8,0,0,1-4.1-15.391Zm3.428,0,1.445.781A5.917,5.917,0,0,0-.059-11.9v1.729h-2.4v-1.611A4.355,4.355,0,0,1-1.934-13.7,5.8,5.8,0,0,1-.674-15.391Zm6.963,2.2v2.627H8.027v2.285H6.289v4.834a1.234,1.234,0,0,0,.215.83,1.152,1.152,0,0,0,.85.234,4.828,4.828,0,0,0,.82-.059V-.088A6.074,6.074,0,0,1,6.318.2a3.448,3.448,0,0,1-2.51-.8A3.282,3.282,0,0,1,3-3.037V-8.281H1.65v-2.285H3v-2.627ZM8.613-5.381A6.236,6.236,0,0,1,9.229-8.2,4.4,4.4,0,0,1,11-10.1a5.323,5.323,0,0,1,2.705-.664,4.858,4.858,0,0,1,3.74,1.47,5.64,5.64,0,0,1,1.367,4v.117a5.472,5.472,0,0,1-1.372,3.921A4.871,4.871,0,0,1,13.721.2,4.927,4.927,0,0,1,10.1-1.157,5.29,5.29,0,0,1,8.623-4.824Zm3.291.205a3.932,3.932,0,0,0,.459,2.148,1.529,1.529,0,0,0,1.357.684q1.758,0,1.8-2.705v-.332q0-2.842-1.816-2.842-1.65,0-1.787,2.451ZM35.049-5.2A6.44,6.44,0,0,1,33.975-1.2,3.6,3.6,0,0,1,30.947.2a3.122,3.122,0,0,1-2.6-1.279L28.213,0H25.264V-15h3.291v5.283a3.013,3.013,0,0,1,2.373-1.045,3.6,3.6,0,0,1,3.047,1.416,6.473,6.473,0,0,1,1.074,3.984Zm-3.3-.21a4.3,4.3,0,0,0-.405-2.169A1.366,1.366,0,0,0,30.1-8.223a1.576,1.576,0,0,0-1.543.848v4.192a1.585,1.585,0,0,0,1.563.838,1.4,1.4,0,0,0,1.475-1.131A8.121,8.121,0,0,0,31.748-5.405ZM41.611.2a5.432,5.432,0,0,1-3.936-1.45,5.008,5.008,0,0,1-1.5-3.774V-5.3a6.489,6.489,0,0,1,.6-2.861,4.395,4.395,0,0,1,1.753-1.919,5.292,5.292,0,0,1,2.734-.679A4.574,4.574,0,0,1,44.775-9.38a5.43,5.43,0,0,1,1.289,3.853v1.279H39.521a2.372,2.372,0,0,0,.771,1.4,2.3,2.3,0,0,0,1.543.508,2.958,2.958,0,0,0,2.441-1.094l1.5,1.777A4.2,4.2,0,0,1,44.038-.308,5.891,5.891,0,0,1,41.611.2ZM41.24-8.223q-1.445,0-1.719,1.914h3.32v-.254a1.63,1.63,0,0,0-.4-1.226A1.593,1.593,0,0,0,41.24-8.223Zm7.314-1.543-1.445-.781a5.666,5.666,0,0,0,.83-2.754V-15h2.4v1.592a4.306,4.306,0,0,1-.522,1.938A5.831,5.831,0,0,1,48.555-9.766Zm3.535,0-1.445-.781a5.666,5.666,0,0,0,.83-2.754V-15h2.4v1.592a4.306,4.306,0,0,1-.522,1.938A5.831,5.831,0,0,1,52.09-9.766Z" transform="translate(484.667 875)" fill="#12263f"/>
    <path id="Trazado_115828" data-name="Trazado 115828" d="M-32.935-8.047l2.617-6.172h3.7L-31.2-5.107V0h-3.477V-5.107l-4.57-9.111h3.682Zm6.152,2.666A6.236,6.236,0,0,1-26.167-8.2,4.4,4.4,0,0,1-24.4-10.1a5.323,5.323,0,0,1,2.705-.664,4.858,4.858,0,0,1,3.74,1.47,5.64,5.64,0,0,1,1.367,4v.117a5.472,5.472,0,0,1-1.372,3.921A4.871,4.871,0,0,1-21.675.2,4.927,4.927,0,0,1-25.3-1.157a5.29,5.29,0,0,1-1.475-3.667Zm3.291.205a3.932,3.932,0,0,0,.459,2.148,1.529,1.529,0,0,0,1.357.684q1.758,0,1.8-2.705v-.332q0-2.842-1.816-2.842-1.65,0-1.787,2.451Zm9.512,9-1.66-.781.332-.664a5.416,5.416,0,0,0,.713-2.422V-2.48h2.637l-.01,2.119a5.3,5.3,0,0,1-.576,2.285A5.806,5.806,0,0,1-13.979,3.828ZM-.933-13.193v2.627H.806v2.285H-.933v4.834a1.234,1.234,0,0,0,.215.83,1.152,1.152,0,0,0,.85.234,4.828,4.828,0,0,0,.82-.059V-.088A6.074,6.074,0,0,1-.9.2a3.448,3.448,0,0,1-2.51-.8,3.282,3.282,0,0,1-.811-2.432V-8.281H-5.571v-2.285h1.348v-2.627ZM8.394-1.143A3.393,3.393,0,0,1,5.571.2,3.328,3.328,0,0,1,2.939-.815a4.251,4.251,0,0,1-.894-2.905v-6.846H5.337V-3.7A1.183,1.183,0,0,0,6.655-2.344a1.72,1.72,0,0,0,1.611-.811v-7.412h3.311V0H8.491ZM7.222-15H10.7L7.983-11.934l-2.686,0ZM14.536,3.828l-1.66-.781.332-.664a5.416,5.416,0,0,0,.713-2.422V-2.48h2.637l-.01,2.119a5.3,5.3,0,0,1-.576,2.285A5.806,5.806,0,0,1,14.536,3.828ZM28.862.2a5.432,5.432,0,0,1-3.936-1.45,5.008,5.008,0,0,1-1.5-3.774V-5.3a6.489,6.489,0,0,1,.6-2.861,4.395,4.395,0,0,1,1.753-1.919,5.292,5.292,0,0,1,2.734-.679A4.574,4.574,0,0,1,32.026-9.38a5.43,5.43,0,0,1,1.289,3.853v1.279H26.772a2.372,2.372,0,0,0,.771,1.4,2.3,2.3,0,0,0,1.543.508,2.958,2.958,0,0,0,2.441-1.094l1.5,1.777A4.2,4.2,0,0,1,31.289-.308,5.891,5.891,0,0,1,28.862.2Zm-.371-8.418q-1.445,0-1.719,1.914h3.32v-.254a1.63,1.63,0,0,0-.4-1.226A1.593,1.593,0,0,0,28.491-8.223Zm-.039-6.787h3.477l-2.715,3.066-2.686,0ZM38.11,0h-3.3V-15h3.3Z" transform="translate(324.667 1018)" fill="#12263f"/>
    <path id="Trazado_115824" data-name="Trazado 115824" d="M18.389,21H14.98V15.063H9.932V21H6.5V6.781H9.932v5.645H14.98V6.781h3.408Zm1.6-5.381a6.236,6.236,0,0,1,.615-2.817,4.4,4.4,0,0,1,1.768-1.9,5.323,5.323,0,0,1,2.705-.664,4.858,4.858,0,0,1,3.74,1.47,5.64,5.64,0,0,1,1.367,4v.117a5.472,5.472,0,0,1-1.372,3.921A4.871,4.871,0,0,1,25.1,21.2a4.927,4.927,0,0,1-3.623-1.353A5.29,5.29,0,0,1,20,16.176Zm3.291.205a3.932,3.932,0,0,0,.459,2.148,1.529,1.529,0,0,0,1.357.684q1.758,0,1.8-2.705v-.332q0-2.842-1.816-2.842-1.65,0-1.787,2.451ZM35.107,21h-3.3V6h3.3Zm7.979,0a3.716,3.716,0,0,1-.312-.947A3.06,3.06,0,0,1,40.234,21.2a3.749,3.749,0,0,1-2.539-.9,2.875,2.875,0,0,1-1.045-2.271,2.955,2.955,0,0,1,1.27-2.6,6.468,6.468,0,0,1,3.691-.879h1.016v-.559q0-1.462-1.26-1.462A1.03,1.03,0,0,0,40.2,13.681H36.9a2.95,2.95,0,0,1,1.3-2.487,5.479,5.479,0,0,1,3.325-.956,4.8,4.8,0,0,1,3.193.986,3.429,3.429,0,0,1,1.2,2.705v4.678a4.79,4.79,0,0,0,.449,2.227V21Zm-2.061-2.148a1.836,1.836,0,0,0,1.021-.264,1.653,1.653,0,0,0,.581-.6V16.3H41.67q-1.719,0-1.719,1.543a.942.942,0,0,0,.3.728A1.1,1.1,0,0,0,41.025,18.852Zm7.881,5.977-1.66-.781.332-.664a5.416,5.416,0,0,0,.713-2.422V18.52h2.637l-.01,2.119a5.3,5.3,0,0,1-.576,2.285A5.806,5.806,0,0,1,48.906,24.828ZM61.338,11.566a3.612,3.612,0,0,1,5.332-.293,4.651,4.651,0,0,1,.908,3.057V21h-3.3V14.408a1.86,1.86,0,0,0-.342-1.235,1.469,1.469,0,0,0-1.162-.4,1.582,1.582,0,0,0-1.436.645V21H58.047V6h3.291ZM72.881,21h-3.3V10.434h3.3Zm-3.5-13.291a1.469,1.469,0,0,1,.508-1.152,2.159,2.159,0,0,1,2.637,0,1.469,1.469,0,0,1,.508,1.152,1.469,1.469,0,0,1-.508,1.152,2.159,2.159,0,0,1-2.637,0A1.469,1.469,0,0,1,69.385,7.709Zm6.68,17.119-1.66-.781.332-.664a5.416,5.416,0,0,0,.713-2.422V18.52h2.637l-.01,2.119a5.3,5.3,0,0,1-.576,2.285A5.806,5.806,0,0,1,76.064,24.828Zm8.828-9.189a7.134,7.134,0,0,1,.527-2.832,4.245,4.245,0,0,1,1.514-1.9,3.99,3.99,0,0,1,2.295-.669,3.173,3.173,0,0,1,2.578,1.113l.117-.918h2.988V20.6a4.455,4.455,0,0,1-.649,2.427,4.167,4.167,0,0,1-1.88,1.582,6.91,6.91,0,0,1-2.852.552,5.961,5.961,0,0,1-2.251-.439,4.063,4.063,0,0,1-1.665-1.143l1.377-1.934a3.018,3.018,0,0,0,2.422,1.084A1.96,1.96,0,0,0,91.6,20.482V20.15A3.09,3.09,0,0,1,89.209,21.2a3.819,3.819,0,0,1-3.125-1.479,6.13,6.13,0,0,1-1.191-3.96Zm3.3.205a3.759,3.759,0,0,0,.488,2.056,1.541,1.541,0,0,0,1.367.757,1.748,1.748,0,0,0,1.553-.713V13.5a1.7,1.7,0,0,0-1.533-.723,1.551,1.551,0,0,0-1.377.786A4.287,4.287,0,0,0,88.193,15.844Zm8.174-.225a6.236,6.236,0,0,1,.615-2.817,4.4,4.4,0,0,1,1.768-1.9,5.323,5.323,0,0,1,2.705-.664,4.858,4.858,0,0,1,3.74,1.47,5.64,5.64,0,0,1,1.367,4v.117a5.472,5.472,0,0,1-1.372,3.921,4.871,4.871,0,0,1-3.716,1.45,4.927,4.927,0,0,1-3.623-1.353,5.29,5.29,0,0,1-1.475-3.667Zm3.291.205a3.932,3.932,0,0,0,.459,2.148,1.529,1.529,0,0,0,1.357.684q1.758,0,1.8-2.705v-.332q0-2.842-1.816-2.842-1.65,0-1.787,2.451Zm7.939-.205a6.236,6.236,0,0,1,.615-2.817,4.4,4.4,0,0,1,1.768-1.9,5.323,5.323,0,0,1,2.705-.664,4.858,4.858,0,0,1,3.74,1.47,5.64,5.64,0,0,1,1.367,4v.117a5.472,5.472,0,0,1-1.372,3.921,4.871,4.871,0,0,1-3.716,1.45,4.927,4.927,0,0,1-3.623-1.353,5.29,5.29,0,0,1-1.475-3.667Zm3.291.205a3.932,3.932,0,0,0,.459,2.148,1.529,1.529,0,0,0,1.357.684q1.758,0,1.8-2.705v-.332q0-2.842-1.816-2.842-1.65,0-1.787,2.451Zm7.939-.186a6.455,6.455,0,0,1,1.084-3.955,3.568,3.568,0,0,1,3.027-1.445,3.035,3.035,0,0,1,2.383,1.113V6h3.3V21h-2.959l-.166-1.133A3.116,3.116,0,0,1,122.92,21.2a3.562,3.562,0,0,1-2.988-1.445A6.659,6.659,0,0,1,118.828,15.639Zm3.291.205q0,2.813,1.641,2.813a1.62,1.62,0,0,0,1.563-.918V13.715a1.576,1.576,0,0,0-1.543-.937q-1.523,0-1.65,2.461ZM33.735,37.434l.107,1.24a3.633,3.633,0,0,1,3.018-1.436,2.675,2.675,0,0,1,2.705,1.592,3.516,3.516,0,0,1,3.105-1.592q3.213,0,3.3,3.887V48h-3.3V41.33a2.014,2.014,0,0,0-.273-1.182,1.164,1.164,0,0,0-1-.371,1.559,1.559,0,0,0-1.455.869l.01.137V48h-3.3V41.35a2.117,2.117,0,0,0-.264-1.2,1.161,1.161,0,0,0-1.006-.371,1.578,1.578,0,0,0-1.445.869V48H30.649V37.434Zm13.7,5.186a6.236,6.236,0,0,1,.615-2.817,4.4,4.4,0,0,1,1.768-1.9,5.323,5.323,0,0,1,2.705-.664,4.858,4.858,0,0,1,3.74,1.47,5.64,5.64,0,0,1,1.367,4v.117a5.472,5.472,0,0,1-1.372,3.921,4.871,4.871,0,0,1-3.716,1.45,4.927,4.927,0,0,1-3.623-1.353,5.29,5.29,0,0,1-1.475-3.667Zm3.291.205a3.932,3.932,0,0,0,.459,2.148,1.529,1.529,0,0,0,1.357.684q1.758,0,1.8-2.705v-.332q0-2.842-1.816-2.842-1.65,0-1.787,2.451Zm14.746-2.412-1.084-.078a1.947,1.947,0,0,0-1.992.977V48H59.106V37.434h3.086l.107,1.357a2.548,2.548,0,0,1,2.314-1.553,3.209,3.209,0,0,1,.918.117Zm4.209-2.979.107,1.24a3.583,3.583,0,0,1,3.018-1.436,3.015,3.015,0,0,1,2.466.986,4.7,4.7,0,0,1,.845,2.969V48h-3.3V41.33a1.783,1.783,0,0,0-.322-1.177,1.491,1.491,0,0,0-1.172-.376,1.569,1.569,0,0,0-1.436.762V48H66.6V37.434ZM81.411,48h-3.3V37.434h3.3Zm-3.5-13.291a1.469,1.469,0,0,1,.508-1.152,2.159,2.159,0,0,1,2.637,0,1.561,1.561,0,0,1,0,2.3,2.159,2.159,0,0,1-2.637,0A1.469,1.469,0,0,1,77.915,34.709Zm8.545,2.725.107,1.24a3.583,3.583,0,0,1,3.018-1.436,3.015,3.015,0,0,1,2.466.986,4.7,4.7,0,0,1,.845,2.969V48h-3.3V41.33a1.783,1.783,0,0,0-.322-1.177,1.491,1.491,0,0,0-1.172-.376,1.569,1.569,0,0,0-1.436.762V48H83.374V37.434Zm7.871,5.205a7.134,7.134,0,0,1,.527-2.832,4.245,4.245,0,0,1,1.514-1.9,3.99,3.99,0,0,1,2.295-.669,3.173,3.173,0,0,1,2.578,1.113l.117-.918h2.988V47.6a4.455,4.455,0,0,1-.649,2.427,4.167,4.167,0,0,1-1.88,1.582,6.91,6.91,0,0,1-2.852.552,5.961,5.961,0,0,1-2.251-.439,4.063,4.063,0,0,1-1.665-1.143l1.377-1.934a3.018,3.018,0,0,0,2.422,1.084,1.96,1.96,0,0,0,2.188-2.246V47.15A3.09,3.09,0,0,1,98.647,48.2a3.819,3.819,0,0,1-3.125-1.479,6.13,6.13,0,0,1-1.191-3.96Zm3.3.205A3.759,3.759,0,0,0,98.12,44.9a1.541,1.541,0,0,0,1.367.757,1.748,1.748,0,0,0,1.553-.713V40.5a1.7,1.7,0,0,0-1.533-.723,1.551,1.551,0,0,0-1.377.786A4.287,4.287,0,0,0,97.632,42.844Z" transform="translate(898.667 985)" fill="#12263f"/>
    <path id="Trazado_115830" data-name="Trazado 115830" d="M-37,0V-14.219h4.58a6.737,6.737,0,0,1,3.389.854,6.006,6.006,0,0,1,2.349,2.412,7.283,7.283,0,0,1,.854,3.491v.654a7.325,7.325,0,0,1-.825,3.5A6.032,6.032,0,0,1-28.979-.884,6.589,6.589,0,0,1-32.324,0Zm3.428-11.572v8.936h1.191a2.666,2.666,0,0,0,2.266-1.05,5.145,5.145,0,0,0,.791-3.12v-.615a5.1,5.1,0,0,0-.791-3.105,2.713,2.713,0,0,0-2.3-1.045ZM-19.111.2a5.432,5.432,0,0,1-3.936-1.45,5.008,5.008,0,0,1-1.5-3.774V-5.3a6.489,6.489,0,0,1,.6-2.861A4.395,4.395,0,0,1-22.2-10.083a5.292,5.292,0,0,1,2.734-.679A4.574,4.574,0,0,1-15.947-9.38a5.43,5.43,0,0,1,1.289,3.853v1.279H-21.2a2.372,2.372,0,0,0,.771,1.4,2.3,2.3,0,0,0,1.543.508,2.958,2.958,0,0,0,2.441-1.094l1.5,1.777A4.2,4.2,0,0,1-16.685-.308,5.891,5.891,0,0,1-19.111.2Zm-.371-8.418q-1.445,0-1.719,1.914h3.32v-.254a1.63,1.63,0,0,0-.4-1.226A1.593,1.593,0,0,0-19.482-8.223ZM-9.863,0h-3.3V-15h3.3Zm7.139.2A5.432,5.432,0,0,1-6.66-1.255a5.008,5.008,0,0,1-1.5-3.774V-5.3a6.489,6.489,0,0,1,.6-2.861,4.395,4.395,0,0,1,1.753-1.919,5.292,5.292,0,0,1,2.734-.679A4.574,4.574,0,0,1,.439-9.38,5.43,5.43,0,0,1,1.729-5.527v1.279H-4.814a2.372,2.372,0,0,0,.771,1.4A2.3,2.3,0,0,0-2.5-2.344,2.958,2.958,0,0,0-.059-3.437l1.5,1.777A4.2,4.2,0,0,1-.3-.308,5.891,5.891,0,0,1-2.725.2ZM-3.1-8.223q-1.445,0-1.719,1.914h3.32v-.254a1.63,1.63,0,0,0-.4-1.226A1.593,1.593,0,0,0-3.1-8.223Zm9.98-4.971v2.627H8.623v2.285H6.885v4.834a1.234,1.234,0,0,0,.215.83,1.152,1.152,0,0,0,.85.234,4.828,4.828,0,0,0,.82-.059V-.088A6.074,6.074,0,0,1,6.914.2a3.448,3.448,0,0,1-2.51-.8,3.282,3.282,0,0,1-.811-2.432V-8.281H2.246v-2.285H3.594v-2.627Zm9.424,5.605-1.084-.078a1.947,1.947,0,0,0-1.992.977V0H9.941V-10.566h3.086l.107,1.357a2.548,2.548,0,0,1,2.314-1.553,3.209,3.209,0,0,1,.918.117ZM22.607.2a5.432,5.432,0,0,1-3.936-1.45,5.008,5.008,0,0,1-1.5-3.774V-5.3a6.489,6.489,0,0,1,.6-2.861,4.395,4.395,0,0,1,1.753-1.919,5.292,5.292,0,0,1,2.734-.679A4.574,4.574,0,0,1,25.771-9.38a5.43,5.43,0,0,1,1.289,3.853v1.279H20.518a2.372,2.372,0,0,0,.771,1.4,2.3,2.3,0,0,0,1.543.508,2.958,2.958,0,0,0,2.441-1.094l1.5,1.777A4.2,4.2,0,0,1,25.034-.308,5.891,5.891,0,0,1,22.607.2Zm-.371-8.418q-1.445,0-1.719,1.914h3.32v-.254a1.63,1.63,0,0,0-.4-1.226A1.593,1.593,0,0,0,22.236-8.223ZM34.336,0a3.716,3.716,0,0,1-.312-.947A3.06,3.06,0,0,1,31.484.2a3.749,3.749,0,0,1-2.539-.9A2.875,2.875,0,0,1,27.9-2.979a2.955,2.955,0,0,1,1.27-2.6,6.468,6.468,0,0,1,3.691-.879h1.016v-.559q0-1.462-1.26-1.462a1.03,1.03,0,0,0-1.172,1.158H28.154a2.95,2.95,0,0,1,1.3-2.487,5.479,5.479,0,0,1,3.325-.956,4.8,4.8,0,0,1,3.193.986,3.429,3.429,0,0,1,1.2,2.705v4.678a4.79,4.79,0,0,0,.449,2.227V0ZM32.275-2.148A1.836,1.836,0,0,0,33.3-2.412a1.653,1.653,0,0,0,.581-.6V-4.7H32.92Q31.2-4.7,31.2-3.154a.942.942,0,0,0,.3.728A1.1,1.1,0,0,0,32.275-2.148Z" transform="translate(324.667 692)" fill="#12263f"/>
    <path id="Trazado_115825" data-name="Trazado 115825" d="M-60.605-4.824V0h-3.428V-14.219h5.674a6.608,6.608,0,0,1,2.886.6,4.526,4.526,0,0,1,1.943,1.709,4.667,4.667,0,0,1,.688,2.515,4.114,4.114,0,0,1-1.489,3.325,6.179,6.179,0,0,1-4.087,1.245Zm0-2.646h2.246a2.118,2.118,0,0,0,1.519-.5,1.85,1.85,0,0,0,.522-1.406,2.287,2.287,0,0,0-.537-1.592,1.9,1.9,0,0,0-1.465-.605h-2.285Zm15.83-.117-1.084-.078a1.947,1.947,0,0,0-1.992.977V0h-3.291V-10.566h3.086l.107,1.357a2.548,2.548,0,0,1,2.314-1.553,3.209,3.209,0,0,1,.918.117Zm.42,2.207A6.236,6.236,0,0,1-43.74-8.2a4.4,4.4,0,0,1,1.768-1.9,5.323,5.323,0,0,1,2.705-.664,4.858,4.858,0,0,1,3.74,1.47,5.64,5.64,0,0,1,1.367,4v.117a5.472,5.472,0,0,1-1.372,3.921A4.871,4.871,0,0,1-39.248.2a4.927,4.927,0,0,1-3.623-1.353,5.29,5.29,0,0,1-1.475-3.667Zm3.291.205a3.932,3.932,0,0,0,.459,2.148,1.529,1.529,0,0,0,1.357.684q1.758,0,1.8-2.705v-.332q0-2.842-1.816-2.842-1.65,0-1.787,2.451Zm11.377-5.391.107,1.24a3.583,3.583,0,0,1,3.018-1.436,3.015,3.015,0,0,1,2.466.986,4.7,4.7,0,0,1,.845,2.969V0h-3.3V-6.67a1.783,1.783,0,0,0-.322-1.177,1.491,1.491,0,0,0-1.172-.376,1.569,1.569,0,0,0-1.436.762V0h-3.291V-10.566Zm14.551,9.424A3.393,3.393,0,0,1-17.959.2,3.328,3.328,0,0,1-20.591-.815a4.251,4.251,0,0,1-.894-2.905v-6.846h3.291V-3.7a1.183,1.183,0,0,0,1.318,1.357,1.72,1.72,0,0,0,1.611-.811v-7.412h3.311V0h-3.086Zm8.008-9.424.107,1.24A3.583,3.583,0,0,1-4-10.762a3.015,3.015,0,0,1,2.466.986A4.7,4.7,0,0,1-.693-6.807V0h-3.3V-6.67a1.783,1.783,0,0,0-.322-1.177,1.491,1.491,0,0,0-1.172-.376,1.569,1.569,0,0,0-1.436.762V0h-3.291V-10.566ZM5.6-2.344A1.464,1.464,0,0,0,6.67-2.72a1.379,1.379,0,0,0,.371-1.05h3.086A3.653,3.653,0,0,1,8.882-.918,4.631,4.631,0,0,1,5.674.2,4.689,4.689,0,0,1,2.041-1.25a5.7,5.7,0,0,1-1.328-4v-.137A6.436,6.436,0,0,1,1.3-8.218a4.3,4.3,0,0,1,1.7-1.885,5.081,5.081,0,0,1,2.637-.659A4.573,4.573,0,0,1,8.916-9.619a4.053,4.053,0,0,1,1.211,3.1H7.041a1.807,1.807,0,0,0-.4-1.26,1.382,1.382,0,0,0-1.074-.439q-1.279,0-1.494,1.631A11.508,11.508,0,0,0,4-5.166a4.52,4.52,0,0,0,.381,2.207A1.319,1.319,0,0,0,5.6-2.344ZM14.99,0h-3.3V-10.566h3.3Zm-3.5-13.291A1.469,1.469,0,0,1,12-14.443a1.916,1.916,0,0,1,1.318-.449,1.916,1.916,0,0,1,1.318.449,1.469,1.469,0,0,1,.508,1.152,1.469,1.469,0,0,1-.508,1.152,1.916,1.916,0,0,1-1.318.449A1.916,1.916,0,0,1,12-12.139,1.469,1.469,0,0,1,11.494-13.291ZM22.969,0a3.716,3.716,0,0,1-.312-.947A3.06,3.06,0,0,1,20.117.2a3.749,3.749,0,0,1-2.539-.9,2.875,2.875,0,0,1-1.045-2.271,2.955,2.955,0,0,1,1.27-2.6,6.468,6.468,0,0,1,3.691-.879H22.51v-.559q0-1.462-1.26-1.462a1.03,1.03,0,0,0-1.172,1.158H16.787a2.95,2.95,0,0,1,1.3-2.487,5.479,5.479,0,0,1,3.325-.956,4.8,4.8,0,0,1,3.193.986,3.429,3.429,0,0,1,1.2,2.705v4.678A4.79,4.79,0,0,0,26.26-.166V0ZM20.908-2.148a1.836,1.836,0,0,0,1.021-.264,1.653,1.653,0,0,0,.581-.6V-4.7h-.957q-1.719,0-1.719,1.543a.942.942,0,0,0,.3.728A1.1,1.1,0,0,0,20.908-2.148Zm11.191-.2a1.464,1.464,0,0,0,1.074-.376,1.379,1.379,0,0,0,.371-1.05h3.086A3.653,3.653,0,0,1,35.386-.918,4.631,4.631,0,0,1,32.178.2,4.689,4.689,0,0,1,28.545-1.25a5.7,5.7,0,0,1-1.328-4v-.137a6.436,6.436,0,0,1,.591-2.827,4.3,4.3,0,0,1,1.7-1.885,5.081,5.081,0,0,1,2.637-.659A4.573,4.573,0,0,1,35.42-9.619a4.053,4.053,0,0,1,1.211,3.1H33.545a1.807,1.807,0,0,0-.4-1.26,1.382,1.382,0,0,0-1.074-.439q-1.279,0-1.494,1.631a11.508,11.508,0,0,0-.068,1.426,4.52,4.52,0,0,0,.381,2.207A1.319,1.319,0,0,0,32.1-2.344ZM41.494,0h-3.3V-10.566h3.3ZM38-13.291a1.469,1.469,0,0,1,.508-1.152,1.916,1.916,0,0,1,1.318-.449,1.916,1.916,0,0,1,1.318.449,1.469,1.469,0,0,1,.508,1.152,1.469,1.469,0,0,1-.508,1.152,1.916,1.916,0,0,1-1.318.449,1.916,1.916,0,0,1-1.318-.449A1.469,1.469,0,0,1,38-13.291Zm5.107,7.91A6.236,6.236,0,0,1,43.721-8.2a4.4,4.4,0,0,1,1.768-1.9,5.323,5.323,0,0,1,2.705-.664,4.858,4.858,0,0,1,3.74,1.47,5.64,5.64,0,0,1,1.367,4v.117a5.472,5.472,0,0,1-1.372,3.921A4.871,4.871,0,0,1,48.213.2,4.927,4.927,0,0,1,44.59-1.157a5.29,5.29,0,0,1-1.475-3.667Zm3.291.205a3.932,3.932,0,0,0,.459,2.148,1.529,1.529,0,0,0,1.357.684q1.758,0,1.8-2.705v-.332q0-2.842-1.816-2.842-1.65,0-1.787,2.451ZM48.643-15h3.477L49.4-11.934l-2.686,0Zm9.131,4.434.107,1.24A3.583,3.583,0,0,1,60.9-10.762a3.015,3.015,0,0,1,2.466.986,4.7,4.7,0,0,1,.845,2.969V0h-3.3V-6.67a1.783,1.783,0,0,0-.322-1.177,1.491,1.491,0,0,0-1.172-.376,1.569,1.569,0,0,0-1.436.762V0H54.688V-10.566Z" transform="translate(454.667 565)" fill="#12263f"/>
    <path id="Trazado_115832" data-name="Trazado 115832" d="M-22.866-5.029h-1.855V0h-3.428V-14.219h5.6A6.246,6.246,0,0,1-18.6-13.1a3.8,3.8,0,0,1,1.426,3.17,4.616,4.616,0,0,1-.6,2.458,4.263,4.263,0,0,1-1.88,1.58l2.969,5.741V0h-3.672Zm-1.855-2.637h2.168a1.946,1.946,0,0,0,1.47-.514,1.987,1.987,0,0,0,.493-1.434,2.01,2.01,0,0,0-.5-1.444,1.928,1.928,0,0,0-1.465-.524h-2.168ZM-10.142.2a5.432,5.432,0,0,1-3.936-1.45,5.008,5.008,0,0,1-1.5-3.774V-5.3a6.489,6.489,0,0,1,.6-2.861,4.395,4.395,0,0,1,1.753-1.919,5.292,5.292,0,0,1,2.734-.679A4.574,4.574,0,0,1-6.978-9.38,5.43,5.43,0,0,1-5.688-5.527v1.279h-6.543a2.372,2.372,0,0,0,.771,1.4,2.3,2.3,0,0,0,1.543.508A2.958,2.958,0,0,0-7.476-3.437l1.5,1.777A4.2,4.2,0,0,1-7.715-.308,5.891,5.891,0,0,1-10.142.2Zm-.371-8.418q-1.445,0-1.719,1.914h3.32v-.254a1.63,1.63,0,0,0-.4-1.226A1.593,1.593,0,0,0-10.513-8.223ZM5.444-5.205A6.372,6.372,0,0,1,4.336-1.274,3.554,3.554,0,0,1,1.343.2,3.046,3.046,0,0,1-1.05-.869V4.063H-4.341V-10.566h3.076l.1.977a3.046,3.046,0,0,1,2.49-1.172A3.582,3.582,0,0,1,4.36-9.321a6.45,6.45,0,0,1,1.084,3.96ZM2.153-5.41q0-2.812-1.641-2.812a1.549,1.549,0,0,0-1.562.84v4.16a1.6,1.6,0,0,0,1.582.879q1.572,0,1.621-2.715ZM10.366,0h-3.3V-10.566h3.3ZM6.87-13.291a1.469,1.469,0,0,1,.508-1.152A1.916,1.916,0,0,1,8.7-14.893a1.916,1.916,0,0,1,1.318.449,1.469,1.469,0,0,1,.508,1.152,1.469,1.469,0,0,1-.508,1.152,1.916,1.916,0,0,1-1.318.449,1.916,1.916,0,0,1-1.318-.449A1.469,1.469,0,0,1,6.87-13.291Zm9.355.1v2.627h1.738v2.285H16.226v4.834a1.234,1.234,0,0,0,.215.83,1.152,1.152,0,0,0,.85.234,4.828,4.828,0,0,0,.82-.059V-.088A6.074,6.074,0,0,1,16.255.2a3.448,3.448,0,0,1-2.51-.8,3.282,3.282,0,0,1-.811-2.432V-8.281H11.587v-2.285h1.348v-2.627ZM24.37.2a5.432,5.432,0,0,1-3.936-1.45,5.008,5.008,0,0,1-1.5-3.774V-5.3a6.489,6.489,0,0,1,.6-2.861,4.395,4.395,0,0,1,1.753-1.919,5.292,5.292,0,0,1,2.734-.679A4.574,4.574,0,0,1,27.534-9.38a5.43,5.43,0,0,1,1.289,3.853v1.279H22.28a2.372,2.372,0,0,0,.771,1.4,2.3,2.3,0,0,0,1.543.508,2.958,2.958,0,0,0,2.441-1.094l1.5,1.777A4.2,4.2,0,0,1,26.8-.308,5.891,5.891,0,0,1,24.37.2ZM24-8.223q-1.445,0-1.719,1.914H25.6v-.254a1.63,1.63,0,0,0-.4-1.226A1.593,1.593,0,0,0,24-8.223Z" transform="translate(1084.667 565)" fill="#12263f"/>
    <path id="Trazado_115833" data-name="Trazado 115833" d="M-32.837-4.824V0h-3.428V-14.219h5.674a6.608,6.608,0,0,1,2.886.6,4.526,4.526,0,0,1,1.943,1.709,4.667,4.667,0,0,1,.688,2.515,4.114,4.114,0,0,1-1.489,3.325,6.179,6.179,0,0,1-4.087,1.245Zm0-2.646h2.246a2.118,2.118,0,0,0,1.519-.5,1.85,1.85,0,0,0,.522-1.406,2.287,2.287,0,0,0-.537-1.592,1.9,1.9,0,0,0-1.465-.605h-2.285Zm15.83-.117-1.084-.078a1.947,1.947,0,0,0-1.992.977V0h-3.291V-10.566h3.086l.107,1.357a2.548,2.548,0,0,1,2.314-1.553,3.209,3.209,0,0,1,.918.117ZM-10.161,0a3.716,3.716,0,0,1-.312-.947A3.06,3.06,0,0,1-13.013.2a3.749,3.749,0,0,1-2.539-.9A2.875,2.875,0,0,1-16.6-2.979a2.955,2.955,0,0,1,1.27-2.6,6.468,6.468,0,0,1,3.691-.879h1.016v-.559q0-1.462-1.26-1.462a1.03,1.03,0,0,0-1.172,1.158h-3.291a2.95,2.95,0,0,1,1.3-2.487,5.479,5.479,0,0,1,3.325-.956,4.8,4.8,0,0,1,3.193.986,3.429,3.429,0,0,1,1.2,2.705v4.678A4.79,4.79,0,0,0-6.87-.166V0Zm-2.061-2.148A1.836,1.836,0,0,0-11.2-2.412a1.653,1.653,0,0,0,.581-.6V-4.7h-.957Q-13.3-4.7-13.3-3.154a.942.942,0,0,0,.3.728A1.1,1.1,0,0,0-12.222-2.148Zm11.191-.2A1.464,1.464,0,0,0,.044-2.72,1.379,1.379,0,0,0,.415-3.77H3.5A3.653,3.653,0,0,1,2.256-.918,4.631,4.631,0,0,1-.952.2,4.689,4.689,0,0,1-4.585-1.25a5.7,5.7,0,0,1-1.328-4v-.137a6.436,6.436,0,0,1,.591-2.827,4.3,4.3,0,0,1,1.7-1.885,5.081,5.081,0,0,1,2.637-.659A4.573,4.573,0,0,1,2.29-9.619,4.053,4.053,0,0,1,3.5-6.523H.415a1.807,1.807,0,0,0-.4-1.26A1.382,1.382,0,0,0-1.06-8.223q-1.279,0-1.494,1.631a11.508,11.508,0,0,0-.068,1.426,4.52,4.52,0,0,0,.381,2.207A1.319,1.319,0,0,0-1.03-2.344Zm9.756-10.85v2.627h1.738v2.285H8.726v4.834a1.234,1.234,0,0,0,.215.83,1.152,1.152,0,0,0,.85.234,4.828,4.828,0,0,0,.82-.059V-.088A6.074,6.074,0,0,1,8.755.2a3.448,3.448,0,0,1-2.51-.8,3.282,3.282,0,0,1-.811-2.432V-8.281H4.087v-2.285H5.435v-2.627ZM15.229,0h-3.3V-10.566h3.3Zm-3.5-13.291a1.469,1.469,0,0,1,.508-1.152,1.916,1.916,0,0,1,1.318-.449,1.916,1.916,0,0,1,1.318.449,1.469,1.469,0,0,1,.508,1.152,1.469,1.469,0,0,1-.508,1.152,1.916,1.916,0,0,1-1.318.449,1.916,1.916,0,0,1-1.318-.449A1.469,1.469,0,0,1,11.733-13.291Zm9.99,10.947A1.464,1.464,0,0,0,22.8-2.72a1.379,1.379,0,0,0,.371-1.05h3.086A3.653,3.653,0,0,1,25.01-.918,4.631,4.631,0,0,1,21.8.2,4.689,4.689,0,0,1,18.169-1.25a5.7,5.7,0,0,1-1.328-4v-.137a6.436,6.436,0,0,1,.591-2.827,4.3,4.3,0,0,1,1.7-1.885,5.081,5.081,0,0,1,2.637-.659,4.573,4.573,0,0,1,3.271,1.143,4.053,4.053,0,0,1,1.211,3.1H23.169a1.807,1.807,0,0,0-.4-1.26,1.382,1.382,0,0,0-1.074-.439q-1.279,0-1.494,1.631a11.508,11.508,0,0,0-.068,1.426,4.52,4.52,0,0,0,.381,2.207A1.319,1.319,0,0,0,21.724-2.344ZM33.6,0a3.716,3.716,0,0,1-.312-.947A3.06,3.06,0,0,1,30.747.2a3.749,3.749,0,0,1-2.539-.9,2.875,2.875,0,0,1-1.045-2.271,2.955,2.955,0,0,1,1.27-2.6,6.468,6.468,0,0,1,3.691-.879H33.14v-.559q0-1.462-1.26-1.462a1.03,1.03,0,0,0-1.172,1.158H27.417a2.95,2.95,0,0,1,1.3-2.487,5.479,5.479,0,0,1,3.325-.956,4.8,4.8,0,0,1,3.193.986,3.429,3.429,0,0,1,1.2,2.705v4.678A4.79,4.79,0,0,0,36.89-.166V0ZM31.538-2.148a1.836,1.836,0,0,0,1.021-.264,1.653,1.653,0,0,0,.581-.6V-4.7h-.957q-1.719,0-1.719,1.543a.942.942,0,0,0,.3.728A1.1,1.1,0,0,0,31.538-2.148Z" transform="translate(1269.667 681)" fill="#12263f"/>
    <path id="Trazado_115829" data-name="Trazado 115829" d="M-40.776-3.779a1.408,1.408,0,0,0-.532-1.172,6.615,6.615,0,0,0-1.87-.869,17.942,17.942,0,0,1-2.187-.869q-2.764-1.357-2.764-3.73a3.345,3.345,0,0,1,.688-2.085,4.453,4.453,0,0,1,1.948-1.406,7.582,7.582,0,0,1,2.832-.5,6.632,6.632,0,0,1,2.749.547,4.352,4.352,0,0,1,1.89,1.558A4.068,4.068,0,0,1-37.349-10h-3.418a1.719,1.719,0,0,0-.532-1.348,2.075,2.075,0,0,0-1.44-.479,2.339,2.339,0,0,0-1.45.405,1.243,1.243,0,0,0-.532,1.03,1.252,1.252,0,0,0,.586.991,7.389,7.389,0,0,0,2.061.918,12.623,12.623,0,0,1,2.422,1.021,4.07,4.07,0,0,1,2.3,3.662,3.472,3.472,0,0,1-1.406,2.93A6.255,6.255,0,0,1-42.612.2a7.653,7.653,0,0,1-3.13-.62,4.719,4.719,0,0,1-2.109-1.7,4.428,4.428,0,0,1-.708-2.485h3.438a2.181,2.181,0,0,0,.591,1.685,2.793,2.793,0,0,0,1.919.542,2.206,2.206,0,0,0,1.343-.366A1.209,1.209,0,0,0-40.776-3.779ZM-30.63.2a5.432,5.432,0,0,1-3.936-1.45,5.008,5.008,0,0,1-1.5-3.774V-5.3a6.489,6.489,0,0,1,.6-2.861,4.395,4.395,0,0,1,1.753-1.919,5.292,5.292,0,0,1,2.734-.679A4.574,4.574,0,0,1-27.466-9.38a5.43,5.43,0,0,1,1.289,3.853v1.279H-32.72a2.372,2.372,0,0,0,.771,1.4,2.3,2.3,0,0,0,1.543.508,2.958,2.958,0,0,0,2.441-1.094l1.5,1.777A4.2,4.2,0,0,1-28.2-.308,5.891,5.891,0,0,1-30.63.2ZM-31-8.223q-1.445,0-1.719,1.914h3.32v-.254a1.63,1.63,0,0,0-.4-1.226A1.593,1.593,0,0,0-31-8.223Zm12.539.635-1.084-.078a1.947,1.947,0,0,0-1.992.977V0h-3.291V-10.566h3.086l.107,1.357a2.548,2.548,0,0,1,2.314-1.553,3.209,3.209,0,0,1,.918.117Zm5.752,2.207A6.236,6.236,0,0,1-12.095-8.2a4.4,4.4,0,0,1,1.768-1.9,5.323,5.323,0,0,1,2.705-.664,4.858,4.858,0,0,1,3.74,1.47,5.64,5.64,0,0,1,1.367,4v.117A5.472,5.472,0,0,1-3.887-1.255,4.871,4.871,0,0,1-7.6.2a4.927,4.927,0,0,1-3.623-1.353A5.29,5.29,0,0,1-12.7-4.824Zm3.291.205A3.932,3.932,0,0,0-8.96-3.027,1.529,1.529,0,0,0-7.6-2.344q1.758,0,1.8-2.705v-.332q0-2.842-1.816-2.842-1.65,0-1.787,2.451ZM9.028.2a5.432,5.432,0,0,1-3.936-1.45,5.008,5.008,0,0,1-1.5-3.774V-5.3a6.489,6.489,0,0,1,.6-2.861,4.395,4.395,0,0,1,1.753-1.919,5.292,5.292,0,0,1,2.734-.679A4.574,4.574,0,0,1,12.192-9.38a5.43,5.43,0,0,1,1.289,3.853v1.279H6.938a2.372,2.372,0,0,0,.771,1.4,2.3,2.3,0,0,0,1.543.508,2.958,2.958,0,0,0,2.441-1.094L13.2-1.66A4.2,4.2,0,0,1,11.455-.308,5.891,5.891,0,0,1,9.028.2ZM8.657-8.223q-1.445,0-1.719,1.914h3.32v-.254a1.63,1.63,0,0,0-.4-1.226A1.593,1.593,0,0,0,8.657-8.223Zm11.68,5.254a.76.76,0,0,0-.439-.674,6.685,6.685,0,0,0-1.67-.527A7.615,7.615,0,0,1,16.2-4.888a3.4,3.4,0,0,1-1.221-1.079,2.577,2.577,0,0,1-.42-1.455,2.92,2.92,0,0,1,1.2-2.4,4.948,4.948,0,0,1,3.145-.942,5.482,5.482,0,0,1,3.359.947,2.962,2.962,0,0,1,1.27,2.49h-3.3q0-1.27-1.338-1.27a1.326,1.326,0,0,0-.869.288.892.892,0,0,0-.352.718.819.819,0,0,0,.43.713,4.06,4.06,0,0,0,1.372.449,11.857,11.857,0,0,1,1.655.42,3.007,3.007,0,0,1,2.383,2.939A2.767,2.767,0,0,1,22.227-.713,5.631,5.631,0,0,1,18.9.2a5.747,5.747,0,0,1-2.422-.488,4.05,4.05,0,0,1-1.66-1.328,3.007,3.007,0,0,1-.6-1.768H17.3a1.272,1.272,0,0,0,.488,1.069,2.009,2.009,0,0,0,1.2.337A1.58,1.58,0,0,0,20-2.256.875.875,0,0,0,20.337-2.969Zm8.545-10.225v2.627H30.62v2.285H28.882v4.834a1.234,1.234,0,0,0,.215.83,1.152,1.152,0,0,0,.85.234,4.828,4.828,0,0,0,.82-.059V-.088A6.074,6.074,0,0,1,28.911.2a3.448,3.448,0,0,1-2.51-.8,3.282,3.282,0,0,1-.811-2.432V-8.281H24.243v-2.285h1.348v-2.627ZM37.866,0a3.716,3.716,0,0,1-.312-.947A3.06,3.06,0,0,1,35.015.2a3.749,3.749,0,0,1-2.539-.9,2.875,2.875,0,0,1-1.045-2.271,2.955,2.955,0,0,1,1.27-2.6,6.468,6.468,0,0,1,3.691-.879h1.016v-.559q0-1.462-1.26-1.462a1.03,1.03,0,0,0-1.172,1.158H31.685a2.95,2.95,0,0,1,1.3-2.487,5.479,5.479,0,0,1,3.325-.956,4.8,4.8,0,0,1,3.193.986,3.429,3.429,0,0,1,1.2,2.705v4.678a4.79,4.79,0,0,0,.449,2.227V0ZM35.806-2.148a1.836,1.836,0,0,0,1.021-.264,1.653,1.653,0,0,0,.581-.6V-4.7H36.45q-1.719,0-1.719,1.543a.942.942,0,0,0,.3.728A1.1,1.1,0,0,0,35.806-2.148ZM48.921-7.588l-1.084-.078a1.947,1.947,0,0,0-1.992.977V0H42.554V-10.566H45.64l.107,1.357a2.548,2.548,0,0,1,2.314-1.553,3.209,3.209,0,0,1,.918.117Z" transform="translate(597.667 1018)" fill="#12263f"/>
    <path id="Trazado_115835" data-name="Trazado 115835" d="M25.026,15.336H19.5V21H16.071V6.781h9.512V9.428H19.5V12.7h5.527Zm1.211.283a6.236,6.236,0,0,1,.615-2.817,4.4,4.4,0,0,1,1.768-1.9,5.323,5.323,0,0,1,2.705-.664,4.858,4.858,0,0,1,3.74,1.47,5.64,5.64,0,0,1,1.367,4v.117a5.472,5.472,0,0,1-1.372,3.921,4.871,4.871,0,0,1-3.716,1.45,4.927,4.927,0,0,1-3.623-1.353,5.29,5.29,0,0,1-1.475-3.667Zm3.291.205a3.932,3.932,0,0,0,.459,2.148,1.529,1.529,0,0,0,1.357.684q1.758,0,1.8-2.705v-.332q0-2.842-1.816-2.842-1.65,0-1.787,2.451Zm14.746-2.412-1.084-.078a1.947,1.947,0,0,0-1.992.977V21H37.907V10.434h3.086l.107,1.357a2.548,2.548,0,0,1,2.314-1.553,3.209,3.209,0,0,1,.918.117Zm4.3-2.979.107,1.24A3.633,3.633,0,0,1,51.7,10.238,2.675,2.675,0,0,1,54.4,11.83a3.516,3.516,0,0,1,3.105-1.592q3.213,0,3.3,3.887V21h-3.3V14.33a2.014,2.014,0,0,0-.273-1.182,1.164,1.164,0,0,0-1-.371,1.559,1.559,0,0,0-1.455.869l.01.137V21h-3.3V14.35a2.117,2.117,0,0,0-.264-1.2,1.161,1.161,0,0,0-1.006-.371,1.578,1.578,0,0,0-1.445.869V21H45.485V10.434ZM68.64,21a3.716,3.716,0,0,1-.312-.947A3.06,3.06,0,0,1,65.788,21.2a3.749,3.749,0,0,1-2.539-.9A2.875,2.875,0,0,1,62.2,18.021a2.955,2.955,0,0,1,1.27-2.6,6.468,6.468,0,0,1,3.691-.879h1.016v-.559q0-1.462-1.26-1.462a1.03,1.03,0,0,0-1.172,1.158H62.458a2.95,2.95,0,0,1,1.3-2.487,5.479,5.479,0,0,1,3.325-.956,4.8,4.8,0,0,1,3.193.986,3.429,3.429,0,0,1,1.2,2.705v4.678a4.79,4.79,0,0,0,.449,2.227V21Zm-2.061-2.148a1.836,1.836,0,0,0,1.021-.264,1.653,1.653,0,0,0,.581-.6V16.3h-.957q-1.719,0-1.719,1.543a.942.942,0,0,0,.3.728A1.1,1.1,0,0,0,66.579,18.852ZM76.774,21h-3.3V6h3.3Zm12.959,0a3.716,3.716,0,0,1-.312-.947A3.06,3.06,0,0,1,86.882,21.2a3.749,3.749,0,0,1-2.539-.9A2.875,2.875,0,0,1,83.3,18.021a2.955,2.955,0,0,1,1.27-2.6,6.468,6.468,0,0,1,3.691-.879h1.016v-.559q0-1.462-1.26-1.462a1.03,1.03,0,0,0-1.172,1.158H83.552a2.95,2.95,0,0,1,1.3-2.487,5.479,5.479,0,0,1,3.325-.956,4.8,4.8,0,0,1,3.193.986,3.429,3.429,0,0,1,1.2,2.705v4.678a4.79,4.79,0,0,0,.449,2.227V21Zm-2.061-2.148a1.836,1.836,0,0,0,1.021-.264,1.653,1.653,0,0,0,.581-.6V16.3h-.957q-1.719,0-1.719,1.543a.942.942,0,0,0,.3.728A1.1,1.1,0,0,0,87.673,18.852Zm9.746-8.418.107,1.24a3.583,3.583,0,0,1,3.018-1.436,3.015,3.015,0,0,1,2.466.986,4.7,4.7,0,0,1,.845,2.969V21h-3.3V14.33a1.783,1.783,0,0,0-.322-1.177,1.491,1.491,0,0,0-1.172-.376,1.569,1.569,0,0,0-1.436.762V21H94.333V10.434Zm7.842,5.205a6.455,6.455,0,0,1,1.084-3.955,3.568,3.568,0,0,1,3.027-1.445,3.035,3.035,0,0,1,2.383,1.113V6h3.3V21H112.1l-.166-1.133a3.116,3.116,0,0,1-2.578,1.328,3.562,3.562,0,0,1-2.988-1.445A6.659,6.659,0,0,1,105.261,15.639Zm3.291.205q0,2.813,1.641,2.813a1.62,1.62,0,0,0,1.563-.918V13.715a1.576,1.576,0,0,0-1.543-.937q-1.523,0-1.65,2.461ZM31.809,48h-3.3V37.434h3.3Zm-3.5-13.291a1.469,1.469,0,0,1,.508-1.152,2.159,2.159,0,0,1,2.637,0,1.561,1.561,0,0,1,0,2.3,2.159,2.159,0,0,1-2.637,0A1.469,1.469,0,0,1,28.313,34.709Zm8.545,2.725.107,1.24a3.583,3.583,0,0,1,3.018-1.436,3.015,3.015,0,0,1,2.466.986,4.7,4.7,0,0,1,.845,2.969V48h-3.3V41.33a1.783,1.783,0,0,0-.322-1.177,1.491,1.491,0,0,0-1.172-.376,1.569,1.569,0,0,0-1.436.762V48H33.771V37.434ZM45.842,48V39.719H44.309V37.434h1.533v-.84a3.651,3.651,0,0,1,1.064-2.8,4.206,4.206,0,0,1,2.988-1A6.544,6.544,0,0,1,51.438,33l.01,2.422a3.007,3.007,0,0,0-.811-.088q-1.494,0-1.494,1.289v.811H51.2v2.285H49.143V48Zm6.1-5.381a6.236,6.236,0,0,1,.615-2.817,4.4,4.4,0,0,1,1.768-1.9,5.323,5.323,0,0,1,2.705-.664,4.858,4.858,0,0,1,3.74,1.47,5.64,5.64,0,0,1,1.367,4v.117a5.472,5.472,0,0,1-1.372,3.921,4.871,4.871,0,0,1-3.716,1.45,4.927,4.927,0,0,1-3.623-1.353,5.29,5.29,0,0,1-1.475-3.667Zm3.291.205a3.932,3.932,0,0,0,.459,2.148,1.529,1.529,0,0,0,1.357.684q1.758,0,1.8-2.705v-.332q0-2.842-1.816-2.842-1.65,0-1.787,2.451Zm14.746-2.412L68.9,40.334a1.947,1.947,0,0,0-1.992.977V48H63.615V37.434H66.7l.107,1.357a2.548,2.548,0,0,1,2.314-1.553,3.209,3.209,0,0,1,.918.117Zm4.3-2.979.107,1.24A3.633,3.633,0,0,1,77.4,37.238a2.675,2.675,0,0,1,2.705,1.592,3.517,3.517,0,0,1,3.105-1.592q3.213,0,3.3,3.887V48h-3.3V41.33a2.014,2.014,0,0,0-.273-1.182,1.164,1.164,0,0,0-1-.371,1.559,1.559,0,0,0-1.455.869l.01.137V48H77.2V41.35a2.117,2.117,0,0,0-.264-1.2,1.161,1.161,0,0,0-1.006-.371,1.578,1.578,0,0,0-1.445.869V48H71.193V37.434ZM94.348,48a3.716,3.716,0,0,1-.312-.947A3.06,3.06,0,0,1,91.5,48.2a3.749,3.749,0,0,1-2.539-.9,2.875,2.875,0,0,1-1.045-2.271,2.955,2.955,0,0,1,1.27-2.6,6.468,6.468,0,0,1,3.691-.879h1.016v-.559q0-1.462-1.26-1.462a1.03,1.03,0,0,0-1.172,1.158H88.166a2.95,2.95,0,0,1,1.3-2.487,5.479,5.479,0,0,1,3.325-.956,4.8,4.8,0,0,1,3.193.986,3.429,3.429,0,0,1,1.2,2.705v4.678a4.79,4.79,0,0,0,.449,2.227V48Zm-2.061-2.148a1.836,1.836,0,0,0,1.021-.264,1.653,1.653,0,0,0,.581-.6V43.3h-.957q-1.719,0-1.719,1.543a.942.942,0,0,0,.3.728A1.1,1.1,0,0,0,92.287,45.852ZM102.482,48h-3.3V33h3.3Z" transform="translate(1203.667 985)" fill="#12263f"/>
    <path id="Trazado_115110" data-name="Trazado 115110" d="M1560.333-10831h-125" transform="translate(-855.333 11700)" fill="none" stroke="#3c3fa7" stroke-width="3"/>
    <path id="Trazado_115111" data-name="Trazado 115111" d="M1655.333-10950.333v-71h-95" transform="translate(-855.333 11710.333)" fill="none" stroke="#3c3fa7" stroke-width="3"/>
    <path id="Trazado_115112" data-name="Trazado 115112" d="M1875.333-10831H1814v-25h-63.667" transform="translate(-855.333 11700)" fill="none" stroke="#3c3fa7" stroke-width="3"/>
    <path id="Trazado_115113" data-name="Trazado 115113" d="M1884-10971v55.5H1712" transform="translate(-874.333 11695.5)" fill="none" stroke="#3c3fa7" stroke-width="3"/>
    <circle id="Elipse_4763" data-name="Elipse 4763" cx="95" cy="95" r="95" transform="translate(704.667 760)" fill="#ffd947"/>
    <path id="Trazado_115836" data-name="Trazado 115836" d="M-33.6-2.824h7.242L-26.854,0H-37.529l2.965-17.062h3.434ZM-18.99.234A5.516,5.516,0,0,1-21.937-.58a4.938,4.938,0,0,1-1.916-2.2,6.14,6.14,0,0,1-.492-3.088l.035-.469a8.2,8.2,0,0,1,1.078-3.4,6.512,6.512,0,0,1,2.32-2.385,5.741,5.741,0,0,1,3.141-.791,4.386,4.386,0,0,1,3.709,1.8,6.175,6.175,0,0,1,.955,4.442l-.187,1.444h-7.77a2.721,2.721,0,0,0,.6,1.969,2.281,2.281,0,0,0,1.758.762A4.054,4.054,0,0,0-15.545-3.9l1.512,1.875A4.7,4.7,0,0,1-16.1-.346,6.745,6.745,0,0,1-18.99.234Zm1.055-10.418a2.348,2.348,0,0,0-1.623.574A5.045,5.045,0,0,0-20.83-7.535h4.547l.07-.3A3.106,3.106,0,0,0-16.2-8.73a1.7,1.7,0,0,0-.574-1.061A1.8,1.8,0,0,0-17.936-10.184Zm10.8,6,3.609-8.5H.041L-6.088,0H-9.252L-11.42-12.68h3.352ZM5.443.234A5.516,5.516,0,0,1,2.5-.58,4.938,4.938,0,0,1,.58-2.783,6.14,6.14,0,0,1,.088-5.871L.123-6.34A8.2,8.2,0,0,1,1.2-9.738a6.512,6.512,0,0,1,2.32-2.385,5.741,5.741,0,0,1,3.141-.791,4.386,4.386,0,0,1,3.709,1.8,6.175,6.175,0,0,1,.955,4.442l-.187,1.444H3.369a2.721,2.721,0,0,0,.6,1.969A2.281,2.281,0,0,0,5.725-2.5,4.054,4.054,0,0,0,8.889-3.9L10.4-2.027A4.7,4.7,0,0,1,8.338-.346,6.745,6.745,0,0,1,5.443.234ZM6.5-10.184a2.348,2.348,0,0,0-1.623.574A5.045,5.045,0,0,0,3.6-7.535H8.15l.07-.3a3.106,3.106,0,0,0,.012-.891,1.7,1.7,0,0,0-.574-1.061A1.8,1.8,0,0,0,6.5-10.184ZM15.615,0H12.287l3.129-18h3.316ZM32.2,0h-3.3l2.25-12.984L26.994-11.73l.516-2.895,7.125-2.461.434-.012Z" transform="translate(799.667 912.5)" fill="#ff5f65"/>
    <path id="Trazado_115114" data-name="Trazado 115114" d="M1940-11119v44h-75v30" transform="translate(-855.333 11700)" fill="none" stroke="#ff5f65" stroke-width="3"/>
    <path id="Trazado_115115" data-name="Trazado 115115" d="M1960.333-11014H2001v52h127v-42" transform="translate(-855.333 11700)" fill="none" stroke="#ff5f65" stroke-width="3"/>
    <path id="Trazado_115116" data-name="Trazado 115116" d="M1409-11142h64v98" transform="translate(-859.333 11700)" fill="none" stroke="#ff5f65" stroke-width="3"/>
    <path id="Trazado_115117" data-name="Trazado 115117" d="M1370-11010h-96" transform="translate(-855.333 11700)" fill="none" stroke="#ff5f65" stroke-width="3"/>
    <path id="Trazado_115118" data-name="Trazado 115118" d="M1330.333-10798v48H1184v36" transform="translate(-855.333 11700)" fill="none" stroke="#ff5f65" stroke-width="3"/>
    <path id="Trazado_115119" data-name="Trazado 115119" d="M1350.333-10798v45H1444v42" transform="translate(-855.333 11700)" fill="none" stroke="#ff5f65" stroke-width="3"/>
    <path id="Trazado_115120" data-name="Trazado 115120" d="M1960.333-10798v31H1816v35" transform="translate(-855.333 11700)" fill="none" stroke="#ff5f65" stroke-width="3"/>
    <path id="Trazado_115121" data-name="Trazado 115121" d="M2065.333-10831H2125v99" transform="translate(-855.333 11700)" fill="none" stroke="#ff5f65" stroke-width="3"/>
    <g id="medal" transform="translate(758.204 853.678)">
      <g id="Grupo_81197" data-name="Grupo 81197" transform="translate(3.463 -65.918)">
        <path id="Trazado_115122" data-name="Trazado 115122" d="M256,333.732l7.338,21.084,6.894-6.742,9.59,1-7.3-20.966A26.99,26.99,0,0,1,256,333.732Z" transform="translate(-217.66 -268.29)" fill="#ff4755"/>
        <path id="Trazado_115123" data-name="Trazado 115123" d="M122.909,333.733a26.99,26.99,0,0,1-16.525-5.62l-7.3,20.966,9.59-1,6.894,6.742Z" transform="translate(-84.569 -268.291)" fill="#ff4755"/>
        <path id="Trazado_115124" data-name="Trazado 115124" d="M273.689,331.456l-1.164-3.344A26.989,26.989,0,0,1,256,333.732l1.168,3.354A30.332,30.332,0,0,0,273.689,331.456Z" transform="translate(-217.66 -268.29)" fill="#fc2b3a"/>
        <path id="Trazado_115125" data-name="Trazado 115125" d="M156.007,337.086l1.168-3.354a26.99,26.99,0,0,1-16.525-5.62l-1.164,3.344A30.332,30.332,0,0,0,156.007,337.086Z" transform="translate(-118.834 -268.29)" fill="#fc2b3a"/>
        <circle id="Elipse_4764" data-name="Elipse 4764" cx="27.11" cy="27.11" r="27.11" transform="translate(0 38.333) rotate(-45)" fill="#ffe27a"/>
        <path id="Trazado_115126" data-name="Trazado 115126" d="M104.546,203.307A27.11,27.11,0,0,1,77.47,177.564q-.034.679-.034,1.366a27.11,27.11,0,0,0,54.219,0q0-.687-.034-1.366A27.11,27.11,0,0,1,104.546,203.307Z" transform="translate(-66.205 -140.599)" fill="#f9cf58"/>
        <circle id="Elipse_4765" data-name="Elipse 4765" cx="21.357" cy="21.357" r="21.357" transform="translate(8.135 38.333) rotate(-45)" fill="#ffba57"/>
        <path id="Trazado_115127" data-name="Trazado 115127" d="M136.686,197.554a21.357,21.357,0,0,1-21.312-19.99c-.029.452-.045.907-.045,1.366a21.357,21.357,0,1,0,42.713,0c0-.459-.016-.914-.045-1.366A21.356,21.356,0,0,1,136.686,197.554Z" transform="translate(-98.346 -140.599)" fill="#ffac3e"/>
        <path id="Trazado_115128" data-name="Trazado 115128" d="M218.842,122.357a2.685,2.685,0,0,1-2.685-2.685V103.313l-.407.688a2.685,2.685,0,0,1-4.62-2.737l3.31-5.587a2.685,2.685,0,0,1,2.31-1.316h2.092a2.685,2.685,0,0,1,2.685,2.685v22.627a2.685,2.685,0,0,1-2.685,2.685Z" transform="translate(-179.283 -70.027)" fill="#ffe27a"/>
        <g id="Grupo_81196" data-name="Grupo 81196" transform="translate(31.471 31.079)">
          <path id="Trazado_115129" data-name="Trazado 115129" d="M215.789,138.89a2.734,2.734,0,0,1-3.491,1.126,2.679,2.679,0,0,1-1.168-1.063,2.685,2.685,0,0,0,.9,3.65,2.742,2.742,0,0,0,3.757-.976l.371-.627v-2.009A.2.2,0,0,0,215.789,138.89Z" transform="translate(-210.755 -138.792)" fill="#f9cf58"/>
          <path id="Trazado_115130" data-name="Trazado 115130" d="M249.024,245.769a2.685,2.685,0,0,1-2.685-2.685v2.733a2.685,2.685,0,0,0,5.37,0v-2.733A2.685,2.685,0,0,1,249.024,245.769Z" transform="translate(-240.937 -227.25)" fill="#f9cf58"/>
        </g>
      </g>
      <g id="Grupo_81198" data-name="Grupo 81198" transform="translate(13.497 -55.91)">
        <path id="Trazado_115131" data-name="Trazado 115131" d="M215.089,102.227a1.141,1.141,0,0,0,1.141-1.141V90.369a3.836,3.836,0,0,0-3.831-3.831h-2.1a3.848,3.848,0,0,0-3.3,1.879l-3.317,5.6a3.83,3.83,0,0,0,4.878,5.441v13.587a3.831,3.831,0,1,0,7.663,0V105.65a1.141,1.141,0,0,0-2.282,0v7.393a1.549,1.549,0,1,1-3.1,0V96.651a1.141,1.141,0,0,0-2.123-.581l-.408.689a1.549,1.549,0,0,1-2.666-1.58l3.317-5.6a1.556,1.556,0,0,1,1.333-.76h2.1a1.551,1.551,0,0,1,1.549,1.549v10.717a1.141,1.141,0,0,0,1.141,1.141Z" transform="translate(-182.871 -73.4)"/>
        <path id="Trazado_115132" data-name="Trazado 115132" d="M152.607,60.514a22.542,22.542,0,1,0-45.084,0,1.141,1.141,0,1,0,2.282,0,20.2,20.2,0,1,1,.458,4.3,1.141,1.141,0,0,0-2.23.482,22.544,22.544,0,0,0,44.574-4.786Z" transform="translate(-101.758 -32.207)"/>
        <path id="Trazado_115133" data-name="Trazado 115133" d="M119.351,60.546a1.141,1.141,0,1,0-2.155.75l2.865,8.232-7.823-.819a1.141,1.141,0,0,0-.917.319l-5.624,5.5-6.251-17.96a28.133,28.133,0,0,0,14.394-4.912l1.854,5.326a1.141,1.141,0,0,0,2.155-.75l-2.093-6.013a28.307,28.307,0,1,0-35.8,0l-7.05,20.256a1.163,1.163,0,0,0,1.2,1.51l9.077-.95,6.525,6.381a1.16,1.16,0,0,0,1.875-.441l6.276-18.031,6.276,18.031a1.154,1.154,0,0,0,1.875.441l6.525-6.381,9.077.95a1.158,1.158,0,0,0,1.2-1.51ZM71.833,28.307A26.025,26.025,0,1,1,97.858,54.332,26.054,26.054,0,0,1,71.833,28.307ZM90.017,74.528l-5.624-5.5a1.142,1.142,0,0,0-.917-.319l-7.823.819,6.221-17.872a28.133,28.133,0,0,0,14.394,4.912Z" transform="translate(-69.551 0)"/>
      </g>
    </g>
  </g>
</svg>
