<svg xmlns="http://www.w3.org/2000/svg" xmlns:xlink="http://www.w3.org/1999/xlink" width="125" height="125" viewBox="0 0 125 125">
  <defs>
    <clipPath id="clip-path">
      <rect id="Rectángulo_34042" data-name="Rectángulo 34042" width="69.388" height="80" transform="translate(284.667 2570)" fill="#fff"/>
    </clipPath>
  </defs>
  <g id="u" transform="translate(-264.667 -2779)">
    <circle id="Elipse_4787" data-name="Elipse 4787" cx="62.5" cy="62.5" r="62.5" transform="translate(264.667 2779)" fill="#ffd947"/>
    <g id="Enmascarar_grupo_65" data-name="Enmascarar grupo 65" transform="translate(8 233.5)" clip-path="url(#clip-path)">
      <g id="_021-letter_u" data-name="021-letter u" transform="translate(288.339 2570)">
        <g id="Grupo_80989" data-name="Grupo 80989" transform="translate(1.172 1.172)">
          <g id="Grupo_80987" data-name="Grupo 80987">
            <g id="Grupo_80986" data-name="Grupo 80986">
              <path id="Trazado_114858" data-name="Trazado 114858" d="M53.326,48.083v-37.1A9.6,9.6,0,0,1,58.061,2.7c1.339-.782,2.887-.567,4.544-.588,5.251-.068,7.966,3.5,7.966,8.73V51.291A26,26,0,0,1,61.94,70.716c-5.888,5.32-12.1,8.122-20.04,8.122a29.018,29.018,0,0,1-4.58-.11,31.421,31.421,0,0,1-17.1-8.78,25.873,25.873,0,0,1-7.787-18.614V10.979a9.4,9.4,0,1,1,18.807-.14V48.083a11.042,11.042,0,0,0,22.084,0Z" transform="translate(-12.435 -1.436)" fill="#d1f19e"/>
            </g>
          </g>
          <g id="Grupo_80988" data-name="Grupo 80988" transform="translate(24.885 0)">
            <path id="Trazado_114859" data-name="Trazado 114859" d="M68.2,1.436A9.214,9.214,0,0,0,63.661,2.7a9.4,9.4,0,0,1,4.7,8.14V51.291a26,26,0,0,1-8.631,19.425,32.525,32.525,0,0,1-16.807,8.011,29.617,29.617,0,0,0,4.632.365A32.321,32.321,0,0,0,69.1,70.716a26,26,0,0,0,8.631-19.425V10.839a9.4,9.4,0,0,0-9.529-9.4Z" transform="translate(-42.919 -1.436)" fill="#a2e62e"/>
          </g>
          <path id="Trazado_114860" data-name="Trazado 114860" d="M57.556,71.69c.861,0,16.954-.75,16.859-1.606-.8-7.21-2.225-12.817-9.647-12.817A14.425,14.425,0,0,0,50.433,70.084a1.445,1.445,0,0,0,1.434,1.606Z" transform="translate(-19.412 -11.69)" fill="#fee45a"/>
          <path id="Trazado_114861" data-name="Trazado 114861" d="M80.9,71.69a1.445,1.445,0,0,0,1.434-1.606A14.425,14.425,0,0,0,67.995,57.267L75.206,71.69Z" transform="translate(-22.639 -11.69)" fill="#02c7dd"/>
          <path id="Trazado_114862" data-name="Trazado 114862" d="M73.584,71.69c0-7.966-3.229-14.423-7.212-14.423S59.16,63.724,59.16,71.69Z" transform="translate(-21.017 -11.69)" fill="#fe93d3"/>
        </g>
        <path id="Trazado_114863" data-name="Trazado 114863" d="M71.87,37.371A1.172,1.172,0,0,0,73.042,36.2V10.576A10.575,10.575,0,0,0,62.326,0a10.406,10.406,0,0,0-7.39,3.249,10.724,10.724,0,0,0-3.046,7.466V46.629a15.571,15.571,0,0,0-4.8,2.954,1.172,1.172,0,1,0,1.569,1.741,13.233,13.233,0,0,1,3.546-2.29A21.8,21.8,0,0,0,49.165,60h-4.54a.263.263,0,0,1-.2-.09.271.271,0,0,1-.069-.216,13.123,13.123,0,0,1,1.408-4.632,1.172,1.172,0,1,0-2.079-1.082,15.449,15.449,0,0,0-1.358,3.7c-.1,0-.192.008-.288.008h-.02a9.87,9.87,0,0,1-9.87-9.87V21.41a1.172,1.172,0,1,0-2.344,0V47.819A12.214,12.214,0,0,0,42.019,60.033h.011a2.611,2.611,0,0,0,2.594,2.31H56.354V73.906a30.676,30.676,0,0,1-14.666,3.75,30.147,30.147,0,0,1-20.907-8.807A24.781,24.781,0,0,1,13.343,51.07V10.716a8.334,8.334,0,0,1,8.122-8.371,8.232,8.232,0,0,1,8.342,8.231V16.3a1.172,1.172,0,1,0,2.344,0V10.576A10.576,10.576,0,0,0,21.434,0,10.687,10.687,0,0,0,11,10.716V51.07a27.107,27.107,0,0,0,8.137,19.449A32.507,32.507,0,0,0,41.688,80a32.979,32.979,0,0,0,14.666-3.451v2.279a1.172,1.172,0,0,0,2.344,0V75.266a34.06,34.06,0,0,0,5.326-3.944,27.17,27.17,0,0,0,6.589-8.988,2.612,2.612,0,0,0,2.413-2.9,15.655,15.655,0,0,0-.564-2.768,27.689,27.689,0,0,0,.58-5.64V41.339a1.172,1.172,0,0,0-2.344,0v9.688c0,.563-.021,1.124-.058,1.684A15.576,15.576,0,0,0,58.7,45.624v-2.5a1.172,1.172,0,1,0-2.344,0v2.5a15.6,15.6,0,0,0-2.12.306V10.716a8.437,8.437,0,0,1,8.122-8.371A8.232,8.232,0,0,1,70.7,10.576V36.2a1.172,1.172,0,0,0,1.172,1.172ZM53.475,51.5c1.137-2.273,2.613-3.577,4.051-3.577s2.915,1.3,4.051,3.577A21.37,21.37,0,0,1,63.54,60H51.512a21.37,21.37,0,0,1,1.963-8.5Zm8.978,18.086A31.806,31.806,0,0,1,58.7,72.5V62.343h9.309A24.9,24.9,0,0,1,62.453,69.583ZM70.7,59.694a.27.27,0,0,1-.069.216.263.263,0,0,1-.2.09h-4.54a21.8,21.8,0,0,0-3.044-10.972A13.215,13.215,0,0,1,70.7,59.694Z" transform="translate(-10.999 0)"/>
      </g>
    </g>
  </g>
</svg>
