<svg xmlns="http://www.w3.org/2000/svg" width="44.919" height="61.333" viewBox="0 0 44.919 61.333">
  <g id="_025-letter_y" data-name="025-letter y" transform="translate(-68.516 -0.001)">
    <g id="Grupo_81011" data-name="Grupo 81011" transform="translate(69.411 0.901)">
      <path id="Trazado_114892" data-name="Trazado 114892" d="M115.818,9.308c-2.348-1.528-5.237-2.023-7.51-.718a7.18,7.18,0,0,0-2.447,2.318L98.1,22.826a.6.6,0,0,1-1,0L89.235,10.785a7.209,7.209,0,0,0-12.073,7.883L90.2,38.634a1.2,1.2,0,0,1,.195.658l-.05,20.533a7.207,7.207,0,0,0,3.614,6.268c1.053.607,2.289.453,3.592.456,3.973,0,6-2.713,6.014-6.689l.05-20.561a1.2,1.2,0,0,1,.194-.651l12.937-19.874c2.172-3.337,2.409-7.294-.928-9.466Z" transform="translate(-75.989 -7.516)" fill="#fee45a"/>
      <g id="Grupo_81010" data-name="Grupo 81010" transform="translate(17.971 0.115)">
        <path id="Trazado_114893" data-name="Trazado 114893" d="M242.807,19.621A7.209,7.209,0,0,0,240.7,9.646c-.112-.073-.225-.141-.339-.207a7.209,7.209,0,0,1,9.635,10.182L237.057,39.494a1.2,1.2,0,0,0-.194.651l-.05,20.561A7.209,7.209,0,0,1,229.6,67.9h-.018a7.174,7.174,0,0,1-3.576-.961,7.2,7.2,0,0,0,3.616-6.231l.047-19.957a4.193,4.193,0,0,1,.695-2.3Z" transform="translate(-226.01 -8.479)" fill="#fed402"/>
      </g>
      <path id="Trazado_114894" data-name="Trazado 114894" d="M267.218,386.217c0,4.2-2.407,7.491-6.611,7.491a7.545,7.545,0,0,1-1.8-14.888,7.774,7.774,0,0,1,1.8.026C264.811,378.846,267.218,382.014,267.218,386.217Z" transform="translate(-231.794 -334.293)" fill="#fe93d3"/>
      <path id="Trazado_114895" data-name="Trazado 114895" d="M303.329,377.449a7.624,7.624,0,0,0-1.8.215,7.61,7.61,0,0,1,0,14.79,7.61,7.61,0,1,0,1.8-15.006Z" transform="translate(-274.515 -333.136)" fill="#fe73c5"/>
      <path id="Trazado_114896" data-name="Trazado 114896" d="M289.053,417.429l-1.834.964a.3.3,0,0,1-.436-.317l.35-2.042a.3.3,0,0,0-.086-.266l-1.483-1.446a.3.3,0,0,1,.167-.513l2.05-.3a.3.3,0,0,0,.226-.164l.917-1.858a.3.3,0,0,1,.539,0l.917,1.858a.3.3,0,0,0,.226.164l2.05.3a.3.3,0,0,1,.167.513l-1.483,1.446a.3.3,0,0,0-.086.266l.35,2.042a.3.3,0,0,1-.436.317l-1.834-.964A.3.3,0,0,0,289.053,417.429Z" transform="translate(-260.379 -362.951)" fill="#fee45a"/>
    </g>
    <g id="Grupo_81012" data-name="Grupo 81012" transform="translate(68.516 0.001)">
      <path id="Trazado_114897" data-name="Trazado 114897" d="M82.918,32.674,82.9,40.443a.9.9,0,0,0,.9.9h0a.9.9,0,0,0,.9-.9l.019-7.769a2.093,2.093,0,0,0-.341-1.151L71.337,11.561A6.311,6.311,0,1,1,81.9,4.661L89.768,16.7a1.492,1.492,0,0,0,1.254.679h0a1.493,1.493,0,0,0,1.254-.68l3.778-5.8a.9.9,0,1,0-1.506-.98l-3.528,5.419L83.41,3.679a8.108,8.108,0,1,0-13.577,8.865L82.869,32.509a.3.3,0,0,1,.049.165Z" transform="translate(-68.516 -0.001)"/>
      <path id="Trazado_114898" data-name="Trazado 114898" d="M217.579,13.488A8.107,8.107,0,1,0,203.99,4.642l-1.844,2.833a.9.9,0,1,0,1.506.98L205.5,5.622a6.311,6.311,0,1,1,10.578,6.886l-8.424,12.941a5.573,5.573,0,0,0-4.4-3.813v-1.41a.9.9,0,0,0-1.681-.44,2.969,2.969,0,1,0,.082,5.307.9.9,0,0,0,1.6-.562V23.468a3.766,3.766,0,0,1,2.861,3.65v.7l-2.973,4.566a2.09,2.09,0,0,0-.34,1.14L202.782,45.2a8.451,8.451,0,0,0-1.971.449.9.9,0,1,0,.607,1.691,6.718,6.718,0,1,1-2.844,1.97A.9.9,0,0,0,197.2,48.15a8.5,8.5,0,0,0,.96,11.983,6.334,6.334,0,0,1-1.729.244h-.016a6.318,6.318,0,0,1-6.3-6.326l.021-8.8a.9.9,0,0,0-.9-.9h0a.9.9,0,0,0-.9.9l-.021,8.8a8.117,8.117,0,0,0,8.09,8.127h.018a8.127,8.127,0,0,0,3.58-.833,8.506,8.506,0,0,0,7.889-15.06V28.348Zm-17.3,10.144a1.172,1.172,0,1,1,1.172-1.172A1.173,1.173,0,0,1,200.279,23.632Zm5.83,21.877a8.434,8.434,0,0,0-1.53-.306l.014-11.679a.3.3,0,0,1,.048-.162l1.467-2.253v14.4Z" transform="translate(-173.976 -0.841)"/>
      <path id="Trazado_114899" data-name="Trazado 114899" d="M287.148,407.134a1.192,1.192,0,0,0-.968-.816l-1.739-.253-.778-1.576a1.2,1.2,0,0,0-2.15,0l-.778,1.576-1.739.253a1.2,1.2,0,0,0-.664,2.045l1.258,1.227-.3,1.732a1.2,1.2,0,0,0,1.74,1.264l1.555-.818,1.555.818a1.2,1.2,0,0,0,1.74-1.264l-.3-1.732,1.258-1.227a1.192,1.192,0,0,0,.3-1.229Zm-3.041,1.388a1.2,1.2,0,0,0-.345,1.061l.146.848-.761-.4a1.2,1.2,0,0,0-1.116,0l-.761.4.145-.848a1.2,1.2,0,0,0-.345-1.061l-.616-.6.851-.124a1.2,1.2,0,0,0,.9-.656l.381-.771.381.771a1.2,1.2,0,0,0,.9.656l.851.124Z" transform="translate(-252.878 -355.448)"/>
    </g>
  </g>
</svg>
